<?xml version="1.0" encoding="utf-8"?>
<!-- Generator: Adobe Illustrator 12.0.0, SVG Export Plug-In . SVG Version: 6.00 Build 51448)  -->
<!DOCTYPE svg PUBLIC "-//W3C//DTD SVG 1.1//EN" "http://www.w3.org/Graphics/SVG/1.1/DTD/svg11.dtd" [
	<!ENTITY ns_svg "http://www.w3.org/2000/svg">
	<!ENTITY ns_xlink "http://www.w3.org/1999/xlink">
]>
<svg  version="1.1" id="svg" xmlns="&ns_svg;" xmlns:xlink="&ns_xlink;" width="400" height="292.4" viewBox="0 0 400 292.4"
	 overflow="visible" enable-background="new 0 0 400 292.4" xml:space="preserve">
<g id="svgg">
	<path id="path1" fill="#790800" d="M371.909,161.124c-6.478,1.28-8.716,3.786-9.001,10.067c-0.273,6.021,2.398,12.68,4.871,12.137
		c2.267-0.497,4.596-3.841,3.379-4.851c-2.333-1.938-2.184-8.265,0.168-7.006c0.3,0.159,0.82,0.292,1.157,0.292
		c0.71,0,1.095,0.827,1.414,3.038c0.406,2.838,1.226,2.098,1.861-1.686c0.929-5.511,2.879-7.192,5.45-4.696l1.078,1.047l0.663-0.771
		C386.092,165.046,378.481,159.826,371.909,161.124 M349.671,230.546c0,0.45,2.408,1.405,4.413,1.749
		c2.338,0.402,2.317,0.402,2.317,0.039c0-0.161-0.562-0.297-1.244-0.301c-0.711-0.004-2.117-0.381-3.283-0.878
		C349.559,230.168,349.671,230.199,349.671,230.546 M365.399,232.551c-1.409,0.056-2.563,0.192-2.563,0.308
		c0,0.302,5.361,0.06,5.692-0.257c0.172-0.165,0.115-0.244-0.147-0.206C368.15,232.427,366.807,232.498,365.399,232.551
		 M351.024,272.805c-1.021,0.813-0.838,1.308,1.534,4.15c0.808,0.965,1.354,1.867,1.221,2.004c-0.505,0.513-1.532-0.205-3.129-2.18
		c-0.904-1.12-1.708-1.973-1.786-1.896c-0.464,0.466,8.552,10.305,10.809,11.799c1.349,0.892,1.796,0.688,1.301-0.589
		c-1.227-3.165-1.731-4.018-2.384-4.018c-0.855,0-1.909-1.968-1.269-2.374c0.309-0.195,0.281-0.252-0.115-0.255
		c-0.711-0.007-0.645-0.611,0.088-0.802c1.313-0.345,0.544-1.308-1.623-2.035c-2.598-0.875-3.446-1.686-3.446-3.286
		C352.225,271.936,352.15,271.904,351.024,272.805 M321.175,275.191c-0.69,1.056-0.671,1.095,1.753,3.329
		c3.364,3.1,2.065,3.622-1.436,0.578c-0.936-0.813-1.762-1.413-1.839-1.338c-0.348,0.348,6.418,5.771,10.283,8.252
		c2.116,1.354,3.934,1.984,3.934,1.363c0-0.721-2.978-4.422-3.556-4.422c-0.646,0-0.979-0.285-1.942-1.657l-0.65-0.925l0.767-0.558
		c1.096-0.798,0.384-1.402-1.97-1.668c-2.881-0.326-4.061-1.179-4.061-2.929C322.458,274.258,321.796,274.243,321.175,275.191
		 M347.767,275.935c-0.666,1.079,10.817,12.3,12.568,12.279c0.409-0.004,0.112-0.292-0.932-0.898
		c-0.854-0.497-2.605-2.063-3.95-3.528c-1.329-1.448-3.055-3.313-3.835-4.146c-0.78-0.833-1.823-2.073-2.317-2.759
		C348.375,275.605,348.083,275.424,347.767,275.935 M318.648,278.869c-0.397,0.744-0.429,0.693,0.957,1.628
		c0.684,0.462,1.9,1.325,2.707,1.918c4.634,3.413,10.194,6.533,10.905,6.119c0.444-0.258,0.424-0.295-0.166-0.303
		c-1.187-0.017-3.442-1.339-6.843-4.015c-1.017-0.801-2.466-1.872-3.218-2.382s-1.975-1.506-2.712-2.215
		C319.06,278.453,318.909,278.383,318.648,278.869"/>
	<path id="path2" fill="#005E84" d="M348.318,233.723c-4.373,9.336-6.646,13.125-10.401,17.346c-4.396,4.938-5.571,6.569-8.83,12.24
		c-1.23,2.144-2.24,3.96-2.24,4.032c0,0.074-0.703,1.354-1.563,2.844c-1.604,2.775-2.184,4.765-1.667,5.727
		c0.501,0.937,3.813,1.688,3.813,0.867c0-0.197,0.278-0.255,0.704-0.148c0.645,0.161,1.015-0.284,4.284-5.162
		c4.238-6.316,7.022-9.856,9.955-12.652c6.601-6.292,9.332-9.809,14.155-18.215c1.608-2.808,1.404-2.721,3.084-1.316
		c7.113,5.951,14.051,12.884,14.051,14.047c0,0.156-1.416,1.381-3.146,2.722c-8.277,6.416-11.861,9.744-15.825,14.696
		c-2.079,2.599-2.087,3.344-0.046,4.395c1.707,0.878,2.688,0.521,5.015-1.824c3.207-3.232,7.186-6.333,11.078-8.631
		c1.046-0.617,2.362-1.418,2.926-1.78s1.962-1.259,3.108-1.995c7.419-4.76,6.985-10.619-1.501-20.367
		c-3.104-3.563-5.896-6.636-6.212-6.836c-0.203-0.129-0.369-0.392-0.369-0.585c0.001-0.25-0.653-0.328-2.269-0.271
		c-3.341,0.117-3.511,0.18-3.354,1.229c0.098,0.673,0.016,0.885-0.345,0.885c-0.31,0-0.472,0.256-0.472,0.741
		c0,0.856-0.691,1.24-1.311,0.729c-0.233-0.194-0.596-0.292-0.802-0.22c-0.207,0.075-0.703-0.032-1.106-0.24
		c-0.402-0.207-0.947-0.443-1.211-0.524c-0.283-0.087-0.634-0.751-0.856-1.618c-0.207-0.809-0.479-1.405-0.605-1.328
		c-0.4,0.247-4.154-0.514-5.354-1.086c-0.634-0.301-1.196-0.548-1.252-0.548C349.699,230.874,349.053,232.154,348.318,233.723
		 M351.28,280.907c1.118,1.127,2.099,2.048,2.179,2.048c0.081,0-0.768-0.921-1.886-2.048c-1.118-1.126-2.101-2.048-2.181-2.048
		S350.162,279.781,351.28,280.907 M328.211,281.084c0.253,0.388,0.609,0.699,0.791,0.696c0.195-0.002,0.166-0.109-0.071-0.259
		c-0.222-0.143-0.32-0.389-0.223-0.548c0.1-0.161-0.075-0.359-0.388-0.441C327.785,280.392,327.778,280.424,328.211,281.084
		 M356.481,284.875c0.769,0.814,1.323,1.552,1.235,1.642c-0.089,0.089,0.02,0.309,0.236,0.489c1.213,1.008,0.178-0.717-1.236-2.061
		l-1.634-1.551L356.481,284.875 M354.938,284.217c0,0.053,0.43,0.479,0.951,0.951l0.951,0.86l-0.859-0.951
		C355.179,284.19,354.938,283.991,354.938,284.217"/>
	<path id="path3" fill="#CC040F" d="M370.028,171.638c-0.253,0.252-0.456,0.613-0.451,0.804c0.005,0.189,0.141,0.119,0.302-0.158
		c0.161-0.276,0.521-0.634,0.796-0.795c0.277-0.162,0.35-0.297,0.158-0.302S370.281,171.385,370.028,171.638 M365.245,187.757
		c-0.527,0.262-2.889,2.376-5.25,4.702l-4.292,4.231l2.98,2.941c3.367,3.322,3.243,3.098,2.221,4.049
		c-3.25,3.017-4.087,5.015-3.647,8.697c1.272,10.652,2.326,15.457,3.486,15.892c3.046,1.137,4.396,2.546,2.303,2.398
		c-0.819-0.057-0.916,0.151-0.608,1.299c0.164,0.615,0.336,0.658,2.558,0.654c3.531-0.006,3.587-0.035,3.794-2.018
		c0.097-0.924,0.571-3.641,1.055-6.031c0.483-2.393,0.818-4.412,0.744-4.486c-0.075-0.075-0.023-0.277,0.112-0.455
		c0.216-0.277,0.743-2.271,2.56-9.683c0.237-0.966,0.466-2.091,0.51-2.5c0.045-0.409,0.152-0.87,0.242-1.024
		c1.133-1.943,1.3-7.742,0.285-9.842c-0.347-0.717-0.631-1.396-0.631-1.511c0-0.343-2.369-4.052-3.462-5.419
		C368.396,187.392,367.039,186.873,365.245,187.757 M353.098,220.047c0.112,0.428,0.065,0.605-0.126,0.487
		c-0.274-0.171-0.834,1.355-1.052,2.875c-0.046,0.322-0.223,0.848-0.394,1.17c-0.172,0.322-0.597,1.536-0.942,2.698
		c-0.347,1.161-0.703,2.298-0.79,2.523c-0.22,0.573,3.828,2.239,5.439,2.239c1.193,0,1.211-0.014,1.021-0.87
		c-0.104-0.479-0.033-1.307,0.16-1.84c0.323-0.895,0.222-1.296-1.314-5.202C353.571,220.236,352.665,218.389,353.098,220.047"/>
	<path id="path4" fill="#77ABBA" d="M362.625,172.056c0,0.724,0.057,1.02,0.127,0.656c0.07-0.36,0.07-0.955,0-1.315
		C362.682,171.035,362.625,171.331,362.625,172.056 M349.033,231.343c-0.255,0.625-0.681,1.633-0.941,2.234
		c-0.263,0.604-0.411,1.097-0.33,1.097c0.236,0,1.933-3.884,1.829-4.188C349.54,230.331,349.289,230.718,349.033,231.343
		 M356.836,233.272c0.295,1.51,0.719,2.278,1.255,2.278c0.293,0,0.692,0.158,0.885,0.353c0.396,0.396,0.47-0.006,0.104-0.58
		c-0.131-0.207-0.456-0.293-0.721-0.191c-0.333,0.128-0.564-0.025-0.749-0.502c-0.147-0.378-0.416-1.016-0.6-1.419l-0.331-0.729
		L356.836,233.272 M368.7,233.124c-0.005,0.193,0.157,0.456,0.359,0.585c0.317,0.2,3.108,3.272,6.213,6.836
		c8.486,9.748,8.92,15.607,1.501,20.367c-1.146,0.736-2.547,1.633-3.108,1.995c-0.563,0.362-1.88,1.163-2.926,1.78
		c-4.41,2.604-9.789,6.941-12.312,9.929c-0.544,0.644,0.27-0.03,1.805-1.497c3.798-3.63,7.594-6.436,12.848-9.497
		c13.088-7.629,12.659-12.383-2.616-28.948C369.499,233.628,368.706,232.931,368.7,233.124 M362.768,233.952
		c0.103,0.527,0.013,0.722-0.334,0.722c-0.307,0-0.474,0.252-0.474,0.717c0,0.907-0.569,1.272-1.022,0.652
		c-0.309-0.423-0.409-0.428-0.904-0.044c-0.483,0.374-0.489,0.408-0.043,0.253c0.284-0.099,0.71-0.019,0.945,0.18
		c0.624,0.518,1.317,0.138,1.317-0.724c0-0.464,0.164-0.741,0.439-0.741c0.472,0,0.628-1.312,0.188-1.583
		C362.743,233.299,362.692,233.554,362.768,233.952 M345.208,239.451c-2.893,5.679-4.521,8.139-7.887,11.923
		c-3.353,3.767-5.207,6.124-4.82,6.124c0.07,0,0.693-0.748,1.383-1.661c0.69-0.914,2.494-3.051,4.009-4.749
		c3.313-3.712,10.341-15.315,9.678-15.979C347.514,235.054,346.452,237.008,345.208,239.451 M356.53,240.6
		c-4.646,8.096-8.032,12.512-13.443,17.521c-0.805,0.745-2.056,1.987-2.78,2.761c-0.724,0.773,0.57-0.361,2.877-2.523
		c5.647-5.294,8.346-8.735,12.928-16.493c1.049-1.776,2.005-3.082,2.221-3.033c1.228,0.279,13.764,12.128,14.705,13.899
		c0.391,0.734-0.012,1.109-6.709,6.229c-4.239,3.239-9.035,7.915-11.633,11.34c-2.26,2.979-2.155,3.197,0.137,0.293
		c3.678-4.66,7.438-8.146,15.688-14.54c1.73-1.341,3.146-2.564,3.146-2.722c0-1.163-6.938-8.096-14.051-14.047
		C357.936,237.881,358.14,237.794,356.53,240.6 M331.59,258.594c-0.7,1-1.295,2.122-1.124,2.122c0.07,0,0.436-0.492,0.812-1.097
		c0.375-0.604,0.79-1.262,0.921-1.463C332.675,257.425,332.138,257.813,331.59,258.594 M329.402,262.253
		c-1.028,1.778-1.501,2.753-1.172,2.414c0.397-0.409,2.2-3.657,2.029-3.657C330.184,261.01,329.798,261.569,329.402,262.253
		 M337.459,264.301c-1.279,1.633-6.607,9.339-7.232,10.461c-0.771,1.393,0.958-0.922,3.503-4.682c1.578-2.333,3.449-5,4.156-5.925
		s1.225-1.682,1.147-1.682S338.249,263.296,337.459,264.301 M327.286,265.984c-0.25,0.481-0.388,0.878-0.31,0.878
		c0.081,0,0.353-0.396,0.603-0.878c0.249-0.483,0.388-0.878,0.307-0.878C327.806,265.106,327.536,265.501,327.286,265.984
		 M325.693,268.78c-0.515,0.909-0.874,1.711-0.805,1.782c0.072,0.07,0.552-0.613,1.063-1.522s0.874-1.711,0.802-1.782
		C326.684,267.186,326.206,267.871,325.693,268.78 M324.067,271.836c-0.249,0.483-0.39,0.878-0.309,0.878
		c0.08,0,0.352-0.395,0.602-0.878c0.25-0.481,0.388-0.878,0.308-0.878C324.587,270.958,324.317,271.353,324.067,271.836
		 M350.55,272.859c-0.378,0.4-0.631,0.78-0.563,0.839c0.065,0.06,0.429-0.268,0.803-0.73
		C351.628,271.935,351.481,271.868,350.55,272.859 M323.206,273.273c-0.091,0.146-0.089,0.462,0.002,0.702
		c0.092,0.237,0.027,0.521-0.146,0.629c-0.173,0.104-0.313,0.029-0.313-0.166c0-0.197-0.081-0.278-0.18-0.181
		c-0.36,0.36,1.172,2.339,2.115,2.731c1.146,0.479,2.634,0.531,2.898,0.101c0.104-0.167,0.418-0.229,0.7-0.142
		c0.497,0.158,1.162-0.383,1.61-1.309c0.116-0.241-0.071-0.077-0.42,0.363c-0.484,0.62-0.793,0.766-1.338,0.627
		c-0.43-0.106-0.708-0.05-0.708,0.147c0,0.416-1.4,0.417-2.596,0.001c-1.195-0.417-1.556-1.126-1.322-2.593
		C323.694,273.066,323.566,272.689,323.206,273.273 M352.316,274.126c-0.017,0.504,1.583,2.104,2.087,2.088
		c0.214-0.007,0.027-0.207-0.41-0.443c-0.439-0.239-0.994-0.793-1.232-1.232C352.523,274.097,352.322,273.913,352.316,274.126
		 M353.842,274.874c0.854,0.785,2.726,1.305,3.15,0.876c0.145-0.146-0.24-0.262-0.896-0.27c-0.698-0.009-1.521-0.274-2.104-0.682
		l-0.956-0.666L353.842,274.874 M348.5,275.089c0,0.837,1.593,2.948,3.885,5.148c1.041,1,1.847,1.866,1.786,1.924
		c-0.059,0.061,1.08,1.271,2.531,2.688c1.45,1.42,2.724,2.492,2.831,2.387c0.199-0.199-0.366-0.911-0.733-0.922
		c-0.3-0.009-3.522-3.309-3.377-3.454c0.069-0.069-0.473-0.652-1.204-1.295c-0.729-0.646-1.329-1.319-1.329-1.499
		c0-0.183-0.188-0.329-0.42-0.329c-0.229,0-0.5-0.256-0.599-0.568c-0.1-0.312-0.639-0.97-1.2-1.463
		c-0.561-0.492-0.94-0.895-0.844-0.895c0.096,0-0.097-0.385-0.429-0.852c-0.724-1.014-0.767-1.322-0.151-1.087
		c0.26,0.102,0.378,0.051,0.274-0.115C349.197,274.232,348.5,274.457,348.5,275.089 M347.316,276.096
		c-0.322,0.388-0.229,0.598,0.613,1.39l0.995,0.934l-0.843-0.939c-0.704-0.786-0.781-1.016-0.469-1.391
		c0.205-0.248,0.307-0.448,0.226-0.448C347.76,275.64,347.524,275.844,347.316,276.096 M319.117,277.909
		c-0.365,0.364,4.284,4.398,5.448,4.727c0.111,0.032,0.639,0.467,1.17,0.964c1.375,1.286,4.979,3.779,5.179,3.581
		c0.092-0.094-0.158-0.412-0.556-0.714c-0.397-0.3-0.778-0.487-0.849-0.421c-0.066,0.068-0.31-0.14-0.536-0.464
		c-0.227-0.323-0.533-0.512-0.685-0.42c-0.15,0.093-0.272,0.042-0.272-0.112c0-0.326-3.81-3.291-4.241-3.3
		c-0.161-0.004-0.398-0.193-0.527-0.425c-0.129-0.229-0.373-0.418-0.543-0.418s-0.569-0.33-0.887-0.734
		c-0.317-0.402-0.699-0.658-0.849-0.566c-0.146,0.091-0.269,0.046-0.269-0.103C320.702,279.089,319.323,277.702,319.117,277.909
		 M357.571,280.322c-0.343,0.221-0.263,0.285,0.366,0.288c0.441,0.002,0.805-0.127,0.805-0.288
		C358.742,279.952,358.144,279.952,357.571,280.322 M329.186,281.497c-0.247,0.463-0.22,0.626,0.136,0.762
		c0.247,0.097,0.36,0.323,0.255,0.51c-0.107,0.184,0.091,0.084,0.439-0.225c0.835-0.731,0.803-0.858-0.17-0.64
		c-0.723,0.164-0.753,0.142-0.292-0.22c0.566-0.445,0.664-0.777,0.23-0.777C329.628,280.907,329.359,281.172,329.186,281.497
		 M357.746,281.314c0.09,0.233,0.395,0.344,0.722,0.258c0.81-0.211,0.701-0.665-0.155-0.665
		C357.816,280.907,357.639,281.034,357.746,281.314 M354.792,284.418c0.792,0.807,1.506,1.463,1.587,1.463
		c0.08,0-0.502-0.656-1.295-1.463c-0.792-0.804-1.507-1.463-1.587-1.463C353.416,282.955,353.999,283.614,354.792,284.418
		 M333.8,287.207c0.161,0.841-0.18,0.911-1.391,0.285c-0.466-0.241-0.916-0.326-1.001-0.188c-0.175,0.281,1.073,0.919,1.803,0.919
		c0.379,0,0.407,0.075,0.128,0.354c-0.276,0.276-0.565,0.277-1.302,0.008c-0.857-0.313-0.895-0.305-0.379,0.084
		c0.312,0.237,0.799,0.432,1.081,0.432c0.921,0,1.885-2.021,1.173-2.461C333.774,286.554,333.724,286.81,333.8,287.207
		 M361.398,286.864c-0.02,0.431-0.177,0.506-0.756,0.36c-0.422-0.105-0.73-0.059-0.73,0.113c0,0.164,0.198,0.3,0.438,0.3
		c0.532,0,0.583,0.479,0.073,0.684c-0.232,0.095-0.246,0.156-0.033,0.171c0.442,0.031,1.353-1.383,1.173-1.824
		C361.485,286.477,361.411,286.565,361.398,286.864"/>
	<path id="path5" fill="#FFBE98" d="M373.309,160.86c0.852,0.059,2.167,0.058,2.928-0.002c0.759-0.062,0.063-0.108-1.546-0.107
		C373.08,160.751,372.459,160.801,373.309,160.86 M381.578,163.134c0.556,0.646,1.245,1.501,1.53,1.902l0.519,0.729l-0.421-0.879
		c-0.231-0.481-0.92-1.339-1.53-1.9l-1.108-1.025L381.578,163.134 M364.323,164.661c-0.495,0.6-0.899,1.221-0.899,1.382
		c0,0.16,0.218-0.035,0.484-0.433c0.267-0.398,0.751-1.021,1.075-1.382c0.323-0.362,0.512-0.658,0.415-0.658
		C365.301,163.57,364.817,164.061,364.323,164.661 M383.723,167.166c-0.021,1.119-0.001,1.159,0.246,0.438
		c0.15-0.438,0.161-0.99,0.026-1.232C383.83,166.078,383.741,166.339,383.723,167.166 M377.708,168.177
		c-1.045,1.125-1.685,3.042-1.931,5.78c-0.201,2.243-0.242,2.344-0.977,2.429c-0.715,0.083-0.776-0.008-0.963-1.399
		c-0.518-3.908-4.271-4.92-4.271-1.153c0,1.296,0.987,4.146,1.62,4.669c1.127,0.937-0.403,3.568-2.712,4.664
		c-1.115,0.531-1.403,0.818-1.436,1.436c-0.066,1.297-0.645,2.375-1.435,2.676c-1.039,0.395-3.143,2.037-4.138,3.229
		c-0.868,1.042-3.383,3.459-4.997,4.806c-0.956,0.796-1.194,1.548-0.664,2.08c0.188,0.188-0.308,1.119-1.43,2.691
		c-4.271,5.989-4.736,9.451-2.222,16.583l0.717,2.036l-0.9,3.031c-0.496,1.666-0.834,3.097-0.752,3.18
		c0.083,0.082,0.218-0.091,0.3-0.385c1.03-3.711,1.497-5.055,1.688-4.862c0.997,1.012,3.523,8.735,3.188,9.748
		c-0.36,1.094-0.273,1.771,0.434,3.358c0.214,0.481,0.536,1.249,0.713,1.702c0.245,0.624,0.459,0.779,0.883,0.646
		c0.399-0.127,0.614-0.006,0.749,0.42c0.21,0.661,0.386,0.717,1.011,0.322c0.287-0.182,0.53-0.12,0.762,0.195
		c0.443,0.606,1.012,0.231,1.012-0.668c0-0.45,0.168-0.717,0.454-0.717c0.471,0,0.465-0.968-0.021-3.132
		c-0.197-0.891-0.169-0.934,0.617-0.878c2.132,0.154,0.805-1.248-2.269-2.395c-1.16-0.435-2.214-5.238-3.486-15.892
		c-0.438-3.684,0.397-5.682,3.647-8.697c1.022-0.951,1.146-0.727-2.221-4.049l-2.98-2.941l4.299-4.237
		c6.482-6.389,7.391-6.543,10.923-1.853c2.998,3.98,4.059,6.601,4.059,10.037c0,1.96,0.092,2.813,0.268,2.498
		c1.016-1.814,0.092-5.966-2.197-9.862l-1.372-2.338l0.574-1.468c0.755-1.929,0.788-1.949,2.146-1.468
		c3.443,1.228,4.944,0.372,7.13-4.057c0.867-1.758,1.401-2.525,1.765-2.525c1.215,0,1.669-1.069,1.094-2.58
		c-0.835-2.189-1.053-3.292-1.061-5.35c-0.004-1.063-0.154-2.354-0.333-2.866c-0.275-0.791-0.242-1.034,0.22-1.58
		c0.543-0.642,0.542-0.643-0.063-0.133c-0.83,0.699-1,0.658-2.142-0.515C379.779,167.125,378.75,167.058,377.708,168.177
		 M362.417,170.666c-0.098,1.166-0.07,2.78,0.063,3.584c0.192,1.181,0.24,0.769,0.251-2.121
		C362.742,168.013,362.669,167.671,362.417,170.666 M374.128,206.164c-0.287,1.218-0.452,2.284-0.365,2.371
		c0.178,0.176,0.636-1.473,0.93-3.341C375.001,203.223,374.698,203.745,374.128,206.164 M373.063,210.607
		c-0.19,0.926-0.858,3.709-1.482,6.187c-0.623,2.479-1.129,4.715-1.124,4.976c0.018,0.938,0.49-0.351,0.854-2.329
		c0.512-2.771,0.457-2.729,2.888-2.352c2.813,0.438,6.321,0.402,11.988-0.119c4.707-0.434,4.776-0.432,5.586,0.168
		c1.302,0.963,5.563,0.489,6.12-0.679c0.212-0.44,0.512-0.804,0.662-0.804c0.152,0,0.277-0.248,0.277-0.55
		c0-0.304,0.197-0.713,0.438-0.913c0.646-0.534,0.537-1.148-0.252-1.448c-0.381-0.145-0.771-0.471-0.867-0.725
		c-0.136-0.351-0.605-0.461-1.942-0.461c-1.751,0-1.765-0.008-1.765-0.848c0-1.503-0.757-1.309-2.233,0.573
		c-1.893,2.409-1.457,2.369-12.251,1.128c-6.316-0.726-6.684-0.861-6.43-2.361C373.824,208.288,373.455,208.732,373.063,210.607
		 M370.173,222.531c-0.014,0.161-0.352,2.07-0.751,4.243c-0.397,2.173-0.716,4.477-0.705,5.121c0.026,1.548,0.188,1.063,0.532-1.61
		c0.156-1.207,0.496-3.359,0.755-4.783c0.26-1.424,0.41-2.741,0.334-2.926C370.262,222.39,370.188,222.37,370.173,222.531
		 M350.594,225.929c-0.145,0.384-0.359,1.158-0.479,1.723c-0.119,0.563-0.346,1.182-0.5,1.376c-0.156,0.193-0.23,0.588-0.166,0.877
		c0.063,0.29,0.475-0.578,0.91-1.928C351.068,225.777,351.252,224.184,350.594,225.929 M399.016,236.869
		c-0.208,0.543,0.066,1.317,0.468,1.317c0.171,0,0.143-0.188-0.067-0.439c-0.291-0.35-0.291-0.528,0-0.878
		c0.21-0.253,0.238-0.438,0.067-0.438C399.318,236.43,399.109,236.628,399.016,236.869 M352.248,271.795
		c0.243,0.154,0.313,0.517,0.196,0.988c-0.387,1.534,1.736,3.694,3.664,3.73c0.24,0.005,0.834,0.203,1.315,0.443l0.878,0.438
		l-0.853-0.708c-0.471-0.391-1.313-0.793-1.873-0.899c-1.613-0.302-2.772-1.657-2.637-3.082c0.097-1.01,0.032-1.162-0.482-1.158
		C352.031,271.551,351.972,271.62,352.248,271.795 M322.136,273.909c-0.325,0.206-0.3,0.26,0.122,0.264
		c0.396,0.003,0.485,0.153,0.353,0.575c-0.502,1.581,0.934,2.745,3.816,3.096c0.955,0.115,2,0.333,2.322,0.482
		c0.576,0.268,0.576,0.265,0.017-0.183c-0.312-0.25-0.748-0.455-0.968-0.455s-0.334-0.107-0.252-0.239
		c0.081-0.132-0.229-0.184-0.692-0.117c-1.866,0.274-4.682-1.657-3.865-2.653C323.387,274.189,322.689,273.558,322.136,273.909
		 M349.378,274.177c-0.729,0.189-0.729,0.19-0.079,0.405c0.359,0.119,0.627,0.309,0.595,0.418c-0.101,0.355,1.373,2.39,1.735,2.394
		c0.491,0.005,0.747-0.503,0.371-0.735c-0.173-0.107-0.669-0.751-1.102-1.432C350.221,274.163,350.006,274.014,349.378,274.177
		 M320.313,275.543c-0.106,0.107-0.194,0.502-0.194,0.877c0,0.376-0.124,0.685-0.276,0.685c-0.149,0,0.341,0.583,1.095,1.294
		c0.941,0.89,1.477,1.207,1.708,1.014c0.234-0.195,0.325-0.125,0.297,0.23c-0.046,0.535,1.461,1.47,1.809,1.122
		c0.332-0.332-2.385-2.503-2.965-2.366c-0.398,0.093-0.453,0.031-0.225-0.245c0.225-0.271,0.105-0.558-0.438-1.068
		c-0.441-0.414-0.689-0.911-0.609-1.218C320.658,275.306,320.616,275.238,320.313,275.543 M351.878,277.668
		c-0.198,0.32,0.949,1.191,1.567,1.191c0.301,0,0.225-0.213-0.265-0.732C352.445,277.343,352.144,277.237,351.878,277.668
		 M348.939,278.859c0.629,0.644,1.209,1.17,1.287,1.17c0.081,0-0.366-0.526-0.994-1.17c-0.631-0.646-1.209-1.171-1.289-1.171
		C347.862,277.688,348.311,278.215,348.939,278.859 M357.408,279.029c-0.521,0.424-0.523,0.448-0.032,0.293
		c0.295-0.094,0.657-0.171,0.804-0.171c0.148,0,0.271-0.131,0.271-0.292C358.449,278.435,358.058,278.499,357.408,279.029
		 M317.904,279.181c-0.109,0.177,0.106,0.604,0.482,0.949l0.685,0.629l-0.53-0.64c-0.291-0.352-0.443-0.78-0.337-0.951
		c0.104-0.171,0.126-0.311,0.046-0.311C318.169,278.859,318.014,279.004,317.904,279.181 M329.359,279.334
		c0.041,0.184-0.276,0.495-0.706,0.697c-0.476,0.223-0.636,0.421-0.406,0.503c0.206,0.075,0.548-0.007,0.758-0.182
		c0.211-0.177,0.464-0.237,0.563-0.14c0.099,0.101-0.11,0.425-0.468,0.722c-0.354,0.296-0.507,0.543-0.338,0.549
		c0.169,0.005,0.463-0.146,0.653-0.337c0.191-0.19,0.438-0.255,0.549-0.145c0.112,0.111-0.05,0.401-0.358,0.645
		c-0.53,0.414-0.513,0.429,0.313,0.246l0.877-0.195l-0.557,0.629c-0.565,0.638-0.433,0.749,0.471,0.389
		c0.444-0.177,0.399-0.358-0.412-1.66c-0.501-0.806-0.88-1.501-0.843-1.545c0.038-0.044,0.014-0.176-0.052-0.293
		C329.338,279.101,329.318,279.153,329.359,279.334 M357.938,279.677c-0.361,0.056-0.657,0.225-0.657,0.378
		c0,0.151,0.329,0.193,0.729,0.094c0.431-0.107,0.732-0.059,0.732,0.121c0,0.167-0.296,0.359-0.659,0.431
		c-0.564,0.108-0.543,0.132,0.147,0.166c0.819,0.041,1.161,0.625,0.363,0.625c-0.24,0-0.438,0.099-0.438,0.22
		c0,0.12,0.327,0.221,0.728,0.221c0.592,0,0.694-0.109,0.548-0.585C359.046,280.082,358.596,279.581,357.938,279.677"/>
</g>
</svg>
