<?xml version="1.0" encoding="utf-8"?>
<!-- Generator: Adobe Illustrator 12.0.0, SVG Export Plug-In . SVG Version: 6.00 Build 51448)  -->
<!DOCTYPE svg PUBLIC "-//W3C//DTD SVG 1.1//EN" "http://www.w3.org/Graphics/SVG/1.1/DTD/svg11.dtd" [
	<!ENTITY ns_svg "http://www.w3.org/2000/svg">
	<!ENTITY ns_xlink "http://www.w3.org/1999/xlink">
]>
<svg  version="1.1" id="svg" xmlns="&ns_svg;" xmlns:xlink="&ns_xlink;" width="400" height="292.4" viewBox="0 0 400 292.4"
	 overflow="visible" enable-background="new 0 0 400 292.4" xml:space="preserve">
<g id="svgg">
	<path id="path1" fill="#790800" d="M62.18,156.356c-6.422,1.365-9.222,7.365-7.177,15.377c1.424,5.577,2.672,7.061,4.957,5.895
		c2.636-1.345,3.284-2.942,2.065-5.103c-0.746-1.322-0.918-1.964-0.941-3.515c-0.042-2.737,0.421-3.157,2.695-2.447
		c1.234,0.385,1.308,0.522,1.642,3.085c0.368,2.823,1.303,2.271,1.869-1.104c0.91-5.431,3.157-7.545,5.443-5.12
		c3.003,3.186,3.687-1.543,0.713-4.93C71.571,156.359,66.604,155.416,62.18,156.356 M45.563,184.052
		c0.084,0.322,0.188,0.587,0.231,0.587s0.147-0.265,0.231-0.587c0.095-0.364,0.009-0.586-0.231-0.586
		C45.554,183.467,45.467,183.687,45.563,184.052 M43.599,225.727c0.925,1.164,4.326,2.132,8.925,2.54
		c7.186,0.638,8.631,0.616,8.632-0.123c0.001-0.255-1.171-0.322-4.462-0.254c-5.615,0.113-10.282-0.71-12.802-2.266
		C43.189,225.193,43.178,225.197,43.599,225.727 M4.462,255.351c-0.519,0.21-0.454,1.415,0.213,3.923
		c0.694,2.609,0.694,2.611,0.198,2.611c-0.734,0-1.287-1.018-1.827-3.363c-0.351-1.527-0.572-2.078-0.636-1.585
		c-0.092,0.704,0.208,1.918,1.657,6.706c0.317,1.046,0.83,2.761,1.141,3.812c0.917,3.095,2.325,5.431,2.918,4.838
		c0.524-0.522,0.35-5.123-0.205-5.42c-1.002-0.537-0.698-3.694,0.345-3.585c1.291,0.135,1.097-1.12-0.349-2.265
		c-1.925-1.525-3.074-4.218-2.065-4.842C6.82,255.583,5.638,254.877,4.462,255.351 M0.785,256.691
		c-0.973,0.712,4.757,16.314,5.991,16.314c0.295,0,0.111-0.434-0.497-1.171c-0.512-0.62-1.444-2.987-2.188-5.559
		c-0.349-1.208-0.956-3.151-1.348-4.32c-0.393-1.169-0.874-2.919-1.071-3.889C1.343,256.442,1.274,256.334,0.785,256.691
		 M73.269,281.369c-1.972,2.111-2.988,2.528-4.309,1.771c-1.046-0.603-1.189-0.494-0.928,0.691c0.284,1.292,0.754,1.363,3.841,0.577
		c2.836-0.721,3.468-0.66,2.639,0.255c-0.48,0.531-1.361,0.872-3.993,1.545c-0.724,0.188-1.167,0.393-0.983,0.457
		c1.717,0.619,16.386-5.331,15.736-6.383c-0.366-0.593-5.434-0.293-5.597,0.331c-0.154,0.589-0.346,0.641-2.572,0.694
		c-1.093,0.025-1.165-0.022-1.092-0.736C76.166,279.068,75.141,279.365,73.269,281.369 M85.13,281.663
		c-0.586,0.706-3.291,1.964-6.856,3.189c-1.771,0.606-3.48,1.239-3.799,1.405c-0.319,0.165-1.483,0.533-2.587,0.817
		c-2.314,0.595-2.456,0.688-1.973,1.271c0.361,0.435,1.81,0.018,6.018-1.73c4.132-1.717,9.742-4.544,9.915-4.997
		C86.064,281.058,85.609,281.085,85.13,281.663"/>
	<path id="path2" fill="#005E84" d="M43.459,225.953c0.731,1.906-5.106,19.471-7.367,22.169c-1.362,1.625-5.206,2.641-15.463,4.083
		c-2.432,0.342-7.452,1.276-11.119,2.068c-1.449,0.313-2.963,0.576-3.365,0.585c-0.495,0.01-0.61,0.093-0.355,0.255
		c0.383,0.243,0.506,0.987,0.408,2.476c-0.034,0.533-0.17,0.749-0.388,0.615c-0.184-0.114-0.085,0.222,0.22,0.746
		c0.778,1.34,2.351,2.578,3.128,2.463c5.271-0.773,7.562-1.023,11.764-1.281c20.616-1.257,23.998-3.485,30.292-19.971
		c1.258-3.296,1.123-3.363,4.433,2.199c5.747,9.657,7.086,12.798,7.386,17.333c0.664,10.033,3.04,20.976,4.594,21.157
		c0.474,0.055,0.888,0.358,1.091,0.804c0.554,1.217,1.91,0.977,3.507-0.62c0.883-0.883,1.514-1.289,1.863-1.198
		c0.29,0.076,0.598,0.025,0.683-0.112c0.086-0.141,0.383-0.177,0.659-0.08c0.472,0.163,0.472,0.147-0.002-0.232
		c-1.131-0.907-2.533-12.87-2.567-21.912c-0.02-5.217-1.939-10.268-8.947-23.555l-2.778-5.269l-2.258-0.009
		c-6.67-0.025-13.461-1.245-15.071-2.702C43.339,225.542,43.301,225.541,43.459,225.953 M5.705,271.529
		c0.058,0.971,0.603,1.77,1.207,1.77c0.49,0,0.531-0.472,0.065-0.759c-0.209-0.13-0.258-0.081-0.129,0.129
		c0.115,0.188,0.074,0.338-0.09,0.338c-0.165,0-0.436-0.255-0.603-0.564c-0.391-0.731-0.384-0.982,0.019-0.733
		c0.226,0.142,0.223,0.016-0.01-0.422C5.722,270.461,5.644,270.502,5.705,271.529 M7.239,272.128
		c0.546,0.592,0.716,0.646,1.024,0.313c0.298-0.321,0.295-0.355-0.015-0.181c-0.22,0.125-0.657-0.008-1.024-0.312
		C6.598,271.431,6.598,271.435,7.239,272.128 M83.687,279.85c0,0.062,0.388,0.17,0.862,0.237c0.475,0.07,0.796,0.021,0.715-0.111
		C85.119,279.742,83.687,279.627,83.687,279.85 M84.991,281.506c-0.772,0.854-0.836,1.533-0.107,1.145
		c0.699-0.375,0.727-0.607,0.047-0.392c-0.328,0.104-0.217-0.108,0.308-0.595c0.452-0.416,0.703-0.757,0.558-0.757
		S85.289,281.177,84.991,281.506"/>
	<path id="path3" fill="#CC040F" d="M54.493,180.753c-0.526,0.066-0.877,0.247-0.78,0.404c0.108,0.175-0.145,0.215-0.653,0.104
		c-0.666-0.146-0.742-0.113-0.39,0.157c0.356,0.276,0.283,0.315-0.387,0.207c-1.061-0.171-3.171,0.36-2.937,0.738
		c0.111,0.179-0.071,0.21-0.48,0.08c-0.439-0.139-0.594-0.104-0.463,0.105c0.126,0.204-0.152,0.304-0.787,0.278
		c-0.539-0.02-1.236,0.112-1.548,0.293s-0.406,0.333-0.208,0.338c0.258,0.006,0.283,0.207,0.088,0.719
		c-0.315,0.827,0.468,3.196,0.956,2.896c0.174-0.108,0.206-0.037,0.079,0.169c-0.12,0.194,0.145,1.207,0.589,2.251
		c0.479,1.128,0.893,1.76,1.018,1.556c0.117-0.188,0.194,0.366,0.171,1.232c-0.023,0.866-0.144,1.651-0.27,1.744
		c-0.315,0.232-0.878,5.491-0.688,6.438c0.084,0.423,0.047,0.889-0.084,1.032c-0.131,0.146-0.396,1.513-0.59,3.041
		c-0.292,2.313-2.26,12.828-3.554,18.995c-0.47,2.242,0.124,2.641,5.73,3.842c3.196,0.687,11.482,0.831,11.71,0.207
		c0.073-0.202,0.331-1.813,0.572-3.585c0.241-1.77,1.055-6.313,1.807-10.097l1.369-6.877l-1.489-2.047
		c-1.577-2.168-4.752-7.137-4.752-7.436c0-0.215,5.952-3.538,6.336-3.538c0.149,0,0.589,0.726,0.979,1.608
		c0.491,1.115,0.801,1.513,1.012,1.302c0.429-0.429,0.384-3.896-0.058-4.428c-0.2-0.24-0.285-0.518-0.189-0.611
		c0.465-0.465-3.604-7.13-5.545-9.083C59.149,180.871,57.55,180.375,54.493,180.753"/>
	<path id="path4" fill="#77ABBA" d="M64.887,155.884c0.684,0.063,1.803,0.063,2.487,0c0.684-0.062,0.124-0.11-1.244-0.11
		C64.762,155.772,64.203,155.822,64.887,155.884 M72.275,157.224c0,0.05,0.428,0.478,0.951,0.949l0.951,0.859l-0.859-0.951
		C72.516,157.197,72.275,156.998,72.275,157.224 M42.44,230.062c-1.36,5.517-3.942,13.172-5.282,15.659
		c-0.628,1.164-1.04,2.119-0.916,2.119c0.396,0,2.561-4.71,3.633-7.899c1.786-5.32,3.93-13.353,3.641-13.642
		C43.45,226.235,42.966,227.927,42.44,230.062 M61.179,228.547c-0.013,0.251,0.182,0.712,0.432,1.024
		c0.448,0.559,0.451,0.559,0.186-0.017c-0.148-0.322-0.343-0.783-0.432-1.024C61.224,228.15,61.199,228.153,61.179,228.547
		 M65.934,237.893c2.14,4.265,4.334,8.903,4.876,10.311c0.541,1.407,1.034,2.508,1.094,2.447c0.388-0.387-7.943-18.006-9.433-19.951
		C62.235,230.391,63.793,233.628,65.934,237.893 M50.819,241.039c-0.766,1.893-1.472,3.635-1.569,3.877
		c-0.118,0.292-0.08,0.341,0.115,0.146c0.161-0.161,0.918-1.809,1.683-3.657c0.765-1.851,1.428-3.406,1.474-3.454
		c0.045-0.049,0.969,1.366,2.054,3.146c1.084,1.777,2.033,3.233,2.11,3.233c0.339,0-3.828-6.714-4.172-6.723
		C52.347,237.604,51.584,239.148,50.819,241.039 M57.981,246.891c1.354,2.494,2.004,3.535,2.004,3.206c0-0.3-2.93-5.476-3.098-5.476
		C56.812,244.623,57.305,245.644,57.981,246.891 M47.876,247.522c-4.159,8.286-7.68,10.699-17.325,11.873l-3.484,0.425l2.861-0.145
		c9.535-0.477,15.688-4.825,18.913-13.369C49.386,244.86,48.911,245.459,47.876,247.522 M35.098,248.568
		c-0.239,0.239-1.156,0.699-2.038,1.021c-1.153,0.425-1.316,0.538-0.58,0.408c1.134-0.199,3.077-1.104,3.362-1.566
		C36.122,247.98,35.589,248.077,35.098,248.568 M27.798,250.768c-1.368,0.281-2.224,0.524-1.902,0.54
		c0.778,0.031,5.135-0.749,5.345-0.96C31.502,250.088,30.487,250.212,27.798,250.768 M60.182,250.992
		c0.091,0.365,0.282,0.735,0.424,0.822c0.4,0.248,0.303-0.288-0.167-0.917C60.029,250.349,60.02,250.353,60.182,250.992
		 M72.01,251.207c-0.009,0.161,0.167,0.951,0.391,1.756c0.244,0.876,0.409,1.169,0.411,0.731
		C72.816,252.994,72.045,250.602,72.01,251.207 M21.214,251.806l-2.048,0.383l2.052-0.148c1.128-0.081,2.511-0.256,3.072-0.388
		l1.021-0.24l-1.024,0.005C23.723,251.421,22.341,251.594,21.214,251.806 M17.557,252.396c-0.242,0.053-1.402,0.248-2.58,0.434
		c-1.177,0.188-2.074,0.405-1.992,0.487c0.158,0.157,5.786-0.74,6.004-0.957C19.129,252.219,18.258,252.241,17.557,252.396
		 M61.166,252.977c0.006,0.151,0.209,0.605,0.451,1.01l0.441,0.729l-0.191-0.729C61.667,253.224,61.147,252.475,61.166,252.977
		 M9.706,253.892c-1.019,0.239-1.793,0.498-1.72,0.569c0.154,0.153,4.311-0.678,4.54-0.906
		C12.785,253.296,11.649,253.432,9.706,253.892 M62.153,255.243c0.091,0.288,0.313,2.066,0.495,3.95
		c0.319,3.313,0.565,4.575,0.548,2.814c-0.019-2.074-0.558-6.276-0.867-6.761C62.008,254.747,61.998,254.746,62.153,255.243
		 M3.918,255.575c-0.088,0.23-0.111,0.723-0.051,1.097c0.08,0.5,0.148,0.392,0.257-0.417C4.277,255.119,4.196,254.851,3.918,255.575
		 M72.973,258.669c0,2.013,0.047,2.834,0.104,1.828c0.057-1.005,0.057-2.649,0-3.657C73.02,255.834,72.973,256.657,72.973,258.669
		 M1.609,255.953c-0.792,0.188-1.218,0.624-0.553,0.567c0.377-0.033,0.581,0.212,0.696,0.832c0.102,0.553,0.245,0.747,0.385,0.523
		c0.122-0.191,0.138-0.687,0.035-1.097c-0.182-0.728,0.252-1.07,0.561-0.445c0.082,0.165,0.118,0.142,0.08-0.055
		C2.73,255.856,2.398,255.766,1.609,255.953 M5.825,256.71c-0.19,0.417-0.242,0.987-0.117,1.282c0.178,0.42,0.279,0.292,0.482-0.611
		C6.496,256.019,6.302,255.662,5.825,256.71 M2.242,258.884c-0.243,0.396,0.627,3.298,0.988,3.298c0.348,0,0.372,0.173-0.265-1.87
		C2.669,259.362,2.344,258.719,2.242,258.884 M24.214,260.051c0.523,0.065,1.379,0.065,1.902,0c0.523-0.063,0.095-0.116-0.951-0.116
		S23.691,259.986,24.214,260.051 M3.52,260.286c-0.014,0.465,0.863,1.602,1.234,1.602c0.183,0,0.126-0.163-0.126-0.364
		c-0.252-0.202-0.603-0.63-0.779-0.951C3.673,260.249,3.525,260.121,3.52,260.286 M15.974,260.461
		c-2.624,0.253-3.762,0.567-1.904,0.527c2.517-0.055,8.6-0.775,6.559-0.776C19.503,260.211,17.408,260.324,15.974,260.461
		 M1.338,261.594c0.108,0.402,0.318,0.931,0.467,1.172c0.189,0.305,0.212,0.216,0.076-0.292c-0.108-0.403-0.318-0.931-0.467-1.173
		C1.225,260.997,1.202,261.086,1.338,261.594 M10.003,261.225c-0.817,0.071-1.216,0.233-1.133,0.461
		c0.07,0.189,0.309,0.296,0.53,0.231c0.221-0.063,1.061-0.283,1.866-0.486C12.722,261.061,12.408,261.01,10.003,261.225
		 M3.43,262.66c-0.229,0.37,0.379,2.446,0.716,2.446c0.324,0,0.275-0.521-0.166-1.739C3.78,262.812,3.533,262.494,3.43,262.66
		 M7.754,263.851c0.322,0.313,0.75,0.569,0.951,0.57c0.568,0.001,0.444-0.14-0.585-0.662C7.175,263.282,7.173,263.283,7.754,263.851
		 M73.333,267.008c0.079,2.094,0.262,4.331,0.406,4.976c0.272,1.218,0.224,0.299-0.313-5.998
		C73.213,263.484,73.204,263.588,73.333,267.008 M63.399,265.691c0.15,2.156,0.896,6.56,0.916,5.414
		c0.006-0.322-0.233-2.166-0.53-4.099C63.343,264.131,63.273,263.893,63.399,265.691 M2.509,264.813
		c0.107,0.401,0.317,0.93,0.466,1.171c0.189,0.305,0.212,0.216,0.076-0.293c-0.108-0.402-0.318-0.931-0.467-1.17
		C2.396,264.216,2.373,264.305,2.509,264.813 M7.423,265.335c0.034,0.999,0.112,1.111,0.694,1c0.694-0.133,0.625-0.644-0.087-0.644
		c-0.232,0-0.422-0.119-0.422-0.267c0-0.146,0.296-0.21,0.658-0.143c0.362,0.067,0.461,0.04,0.22-0.062
		c-0.242-0.102-0.588-0.369-0.771-0.599C7.455,264.299,7.392,264.452,7.423,265.335 M4.097,265.784c0,0.606,0.978,3.126,1.213,3.126
		c0.172,0,0.242-0.184,0.155-0.408c-0.086-0.225-0.318-0.949-0.516-1.608C4.67,265.962,4.097,265.216,4.097,265.784 M5.488,269.375
		c-0.216,0.35,0.619,2.169,0.994,2.169c0.144,0,0.08-0.361-0.143-0.805c-0.224-0.443-0.466-0.996-0.539-1.229
		C5.723,269.266,5.59,269.209,5.488,269.375 M4.703,270.227c0,0.161,0.188,0.622,0.418,1.022c0.23,0.402,0.418,0.602,0.418,0.439
		s-0.188-0.622-0.418-1.024C4.891,270.263,4.703,270.066,4.703,270.227 M6.901,272.495c0.305,0.362,0.565,0.689,0.579,0.729
		c0.013,0.037,0.278-0.126,0.588-0.366c0.386-0.299,0.417-0.386,0.099-0.277c-0.256,0.088-0.634-0.043-0.841-0.292
		c-0.206-0.248-0.511-0.452-0.677-0.452S6.596,272.132,6.901,272.495 M64.548,273.075c0.085,0.762,0.336,1.947,0.56,2.634
		l0.406,1.248l-0.169-1.129c-0.094-0.621-0.345-1.806-0.56-2.634l-0.39-1.504L64.548,273.075 M74.062,273.592
		c-0.049,0.663,0.924,5.75,1.036,5.413c0.054-0.161-0.15-1.543-0.453-3.07C74.343,274.404,74.08,273.35,74.062,273.592
		 M65.59,277.396c0,0.239,0.177,0.898,0.394,1.463c0.217,0.563,0.394,0.826,0.394,0.585s-0.177-0.9-0.394-1.463
		C65.767,277.418,65.59,277.154,65.59,277.396 M72.09,281.094c-1.336,1.41-2.721,1.729-3.326,0.766
		c-0.281-0.448-0.299-0.435-0.149,0.122c0.144,0.526,0.073,0.606-0.424,0.478c-0.505-0.132-0.592-0.024-0.558,0.685
		c0.033,0.7,0.061,0.729,0.168,0.172c0.07-0.366,0.283-0.647,0.472-0.623c1.766,0.218,2.614-0.074,4.015-1.384
		c1.29-1.207,2.037-1.479,1.084-0.394c-0.201,0.229-0.069,0.169,0.293-0.133c0.789-0.659,0.847-1.059,0.146-1.004
		C73.53,279.799,72.755,280.392,72.09,281.094 M76.664,280.263c0,0.29-0.164,0.712-0.366,0.937
		c-0.308,0.346-0.289,0.354,0.121,0.045c0.313-0.236,0.55-0.262,0.667-0.072c0.1,0.161,0.348,0.23,0.55,0.153
		c0.429-0.165,0.586-1.297,0.18-1.297c-0.15,0-0.283,0.297-0.295,0.659c-0.019,0.624-0.032,0.628-0.255,0.072
		c-0.13-0.321-0.179-0.685-0.109-0.806c0.07-0.121-0.012-0.219-0.183-0.219C76.804,279.737,76.664,279.974,76.664,280.263
		 M80.541,279.95c0.604,0.063,1.591,0.063,2.195,0c0.603-0.063,0.11-0.115-1.097-0.115S79.938,279.885,80.541,279.95 M85.3,279.975
		c0.239,0.459-0.57,1.417-1.686,1.992c-0.443,0.229-0.805,0.55-0.805,0.711c0,0.396,1.474-0.391,2.168-1.156
		c0.678-0.749,0.966-0.775,1.142-0.104c0.094,0.361,0.142,0.383,0.161,0.073c0.015-0.241-0.244-0.768-0.577-1.17
		C85.371,279.92,85.189,279.763,85.3,279.975 M66.53,280.419c0.102,0.295,0.185,0.591,0.185,0.658c0,0.068,0.428,0.105,0.951,0.083
		c0.791-0.033,0.828-0.061,0.22-0.167c-0.402-0.07-0.914-0.348-1.137-0.619C66.375,279.92,66.358,279.924,66.53,280.419
		 M80.98,283.148c-1.545,0.641-1.37,1.035,0.22,0.494c0.919-0.313,1.767-1.189,0.933-0.964
		C82.103,282.686,81.584,282.898,80.98,283.148 M77.864,284.288c-0.548,0.238-0.919,0.509-0.825,0.604
		c0.242,0.24,2.259-0.462,2.259-0.788C79.298,283.743,79.045,283.775,77.864,284.288 M74.68,285.395
		c-0.367,0.204-0.586,0.452-0.487,0.551c0.271,0.271,1.91-0.374,1.722-0.678C75.703,284.924,75.489,284.946,74.68,285.395
		 M71.602,286.437c-0.934,0.268-1.606,0.579-1.493,0.69c0.351,0.353,3.629-0.53,3.629-0.978
		C73.738,285.826,73.731,285.827,71.602,286.437 M76.225,286.623c-0.735,0.354-0.759,0.396-0.146,0.247
		c0.402-0.097,0.857-0.293,1.01-0.436C77.468,286.079,77.26,286.125,76.225,286.623"/>
	<path id="path5" fill="#FFBE98" d="M60.717,156.255c-0.369,0.158-0.423,0.251-0.146,0.251c0.241,0,0.702-0.111,1.024-0.251
		c0.369-0.157,0.423-0.252,0.146-0.252C61.5,156.003,61.039,156.116,60.717,156.255 M74.909,160.239
		c0,0.161,0.193,0.548,0.429,0.861c0.236,0.312,0.43,0.436,0.43,0.273s-0.194-0.548-0.43-0.858
		C75.102,160.202,74.909,160.078,74.909,160.239 M70.373,162.676c-1.369,0.562-2.597,2.968-2.94,5.762
		c-0.452,3.681-2.158,4.431-2.177,0.957c-0.012-2.349-2.358-4.021-3.588-2.563c-0.969,1.15-0.306,5.137,1.116,6.709
		c1.396,1.541-3.362,5.624-5.194,4.457c-0.516-0.329-0.483-0.253,0.14,0.321c1.237,1.14,0.703,1.921-1.339,1.96
		c-0.84,0.016-1.856,0.133-2.258,0.261c-0.433,0.138,0.051,0.17,1.19,0.08c3.298-0.261,5.391,1.101,8.214,5.344
		c2.901,4.362,3.989,7.272,3.624,9.703c-0.264,1.765-0.529,1.749-1.331-0.072c-0.385-0.876-0.823-1.593-0.972-1.593
		c-0.384,0-6.336,3.323-6.336,3.538c0,0.299,3.175,5.268,4.752,7.436l1.489,2.047l-1.387,6.934c-0.763,3.815-1.336,7.239-1.273,7.61
		c0.074,0.438,0.196,0.165,0.349-0.789c0.213-1.32,1.292-6.831,2.235-11.411c0.453-2.201,0.354-2.13,1.499-1.056
		c4.151,3.896,9.279,2.229,18.671-6.063c1.368-1.208,2.711-2.444,2.985-2.747c1.171-1.298,3.348-2.864,3.981-2.864
		c2.098,0,5.376-5.354,3.855-6.295c-0.128-0.079-0.169-0.383-0.093-0.675c0.211-0.805-0.643-1.407-1.265-0.893
		c-0.38,0.313-0.514,0.319-0.61,0.036c-0.206-0.612-0.703-0.423-2.207,0.847c-1.368,1.154-1.938,1.205-1.959,0.177
		c-0.003-0.121-0.268-0.22-0.59-0.22c-0.528,0-0.585,0.195-0.585,1.994c0,2.482,0.143,2.337-6.877,7.006
		c-10.014,6.659-10.142,6.678-12.977,1.921c-1.398-2.347-1.421-2.424-1.171-3.951c0.513-3.131-0.54-6.553-3.158-10.262
		c-1.214-1.72-1.225-1.943-0.179-3.704c0.039-0.066,0.849,0.115,1.801,0.403c3.207,0.971,4.62,0.139,6.767-3.988
		c0.933-1.794,1.333-2.296,1.836-2.303c1.566-0.023,2.069-1.293,1.187-2.997c-0.469-0.909-1.105-8.502-0.761-9.097
		c0.079-0.138-0.122-0.166-0.448-0.063c-0.433,0.138-0.763-0.03-1.231-0.627C72.132,162.638,71.344,162.279,70.373,162.676
		 M54.213,165.618c0,0.724,0.057,1.021,0.127,0.659c0.069-0.363,0.069-0.955,0-1.317C54.27,164.598,54.213,164.894,54.213,165.618
		 M54.217,169.276c0.002,0.804,0.059,1.099,0.126,0.654c0.067-0.445,0.066-1.104-0.004-1.465
		C54.27,168.107,54.215,168.471,54.217,169.276 M55.889,175.778c0,0.17,0.271,0.62,0.602,1l0.603,0.689l-0.514-0.878
		C55.903,175.436,55.889,175.419,55.889,175.778 M50.955,181.17c-0.54,0.155-0.922,0.346-0.847,0.418
		c0.155,0.155,3.147-0.444,3.147-0.632C53.255,180.753,51.999,180.869,50.955,181.17 M47.696,182.142
		c-1.954,0.56-2.926,0.984-2.926,1.281c0,0.146-1.416,0.749-3.146,1.343c-8.665,2.966-11.571,5.36-11.571,9.539
		c0,4.012,1.013,6.353,6.829,15.788c1.959,3.181,2.592,4.63,2.452,5.612c-0.184,1.3,2.069,5.064,3.04,5.077
		c1.121,0.015,1.389,0.566,0.993,2.046c-0.419,1.564-0.457,2.967-0.088,3.196c0.146,0.09,0.199-0.09,0.118-0.401
		c-0.081-0.31,0.465-3.613,1.214-7.339s1.303-6.929,1.231-7.117c-0.073-0.188-0.231,0.229-0.351,0.926
		c-0.358,2.075-2.041,1.943-3.223-0.251c-2.856-5.299-5.962-13.567-6.069-16.157l-0.061-1.479l1.978-0.816
		c1.924-0.797,4.43-1.531,7.921-2.324c2.427-0.552,2.643-0.063,1.826,4.146c-0.23,1.186-0.5,3.397-0.6,4.917
		c-0.1,1.521-0.439,4.268-0.753,6.103c-0.573,3.352-0.699,4.675-0.419,4.395c0.239-0.237,1.537-9.464,1.764-12.527
		c0.113-1.529,0.387-3.479,0.608-4.33c0.348-1.342,0.345-1.664-0.026-2.383c-1.703-3.293-3.335-7.952-2.852-8.146
		c0.276-0.111,1.357-0.487,2.403-0.836C50.049,181.717,49.838,181.527,47.696,182.142 M61.649,223.472
		c-0.441,2.877-0.552,4.765-0.281,4.765c0.158,0,0.364-1.282,0.457-2.848C62.004,222.389,61.933,221.619,61.649,223.472
		 M3.515,255.737c-0.65,0.913-0.501,3.335,0.285,4.626c0.241,0.396,0.273,0.318,0.153-0.378l-0.152-0.877l0.454,0.877
		c0.403,0.775,0.437,0.794,0.294,0.146c-0.088-0.401-0.247-1.254-0.354-1.892c-0.16-0.959-0.235-1.06-0.437-0.585
		c-0.152,0.354-0.179,0.075-0.073-0.742c0.095-0.724,0.383-1.479,0.64-1.683c0.258-0.201,0.321-0.365,0.14-0.365
		C4.284,254.865,3.857,255.257,3.515,255.737 M8.266,263.805c1.004,0.551,1.039,0.838,0.073,0.596
		c-0.92-0.231-0.976,0.323-0.073,0.723l0.659,0.291l-0.659-0.127c-0.85-0.164-0.862,0.282-0.013,0.504
		c0.788,0.206,0.72,0.291,0.915-1.137c0.158-1.16,0.144-1.185-0.773-1.238l-0.933-0.055L8.266,263.805 M7.901,266.569
		c0.567,0.367,0.877,0.367,0.877,0c0-0.161-0.296-0.29-0.658-0.288C7.588,266.285,7.546,266.34,7.901,266.569 M8.579,269.788
		c0,1.046,0.054,1.474,0.118,0.951c0.065-0.523,0.065-1.379,0-1.902C8.633,268.314,8.579,268.742,8.579,269.788 M76.163,280.311
		c-0.036,0.521,0.058,0.836,0.22,0.734c0.154-0.096,0.281-0.43,0.281-0.74c0-0.313,0.132-0.568,0.293-0.568s0.292,0.127,0.292,0.283
		c0,0.154,0.221,0.197,0.49,0.096c0.368-0.142,0.444-0.069,0.306,0.292c-0.102,0.264-0.059,0.558,0.095,0.653
		c0.154,0.095,0.28-0.1,0.28-0.431c0-0.332,0.146-0.603,0.324-0.603c0.178,0,0.248,0.198,0.155,0.438
		c-0.102,0.27,0,0.439,0.262,0.439c0.236,0,0.429-0.263,0.429-0.585c0-0.45-0.195-0.585-0.841-0.585
		c-0.463,0-1.22-0.076-1.682-0.168C76.293,279.415,76.22,279.475,76.163,280.311 M72.221,281.364
		c-0.752,0.71-1.234,1.373-1.071,1.473c0.307,0.19,2.102-1.343,1.858-1.587c-0.076-0.076,0.09-0.306,0.368-0.51
		c0.279-0.203,0.441-0.438,0.359-0.519C73.654,280.14,72.972,280.654,72.221,281.364 M67.596,282.032
		c0.001,0.105,0.319,0.339,0.707,0.519c0.552,0.258,0.674,0.246,0.563-0.045C68.717,282.118,67.592,281.698,67.596,282.032
		 M69.349,282.955c0,0.161,0.362,0.284,0.805,0.272c0.713-0.02,0.738-0.05,0.219-0.272
		C69.574,282.612,69.349,282.612,69.349,282.955 M73.299,284.209c-0.68,0.413-0.902,1.087-0.358,1.087
		c0.495,0,1.675-0.836,1.675-1.187C74.616,283.733,74.007,283.779,73.299,284.209 M69.788,285.143
		c-1.241,0.317-1.33,0.384-0.585,0.43c0.826,0.05,0.839,0.069,0.219,0.318c-0.69,0.275-0.924,0.636-0.293,0.447
		c0.202-0.06,0.982-0.268,1.735-0.462c0.964-0.249,1.322-0.473,1.212-0.76C71.893,284.642,71.731,284.644,69.788,285.143
		 M69.056,287.62c0,0.313,0.12,0.644,0.266,0.732s0.199-0.088,0.119-0.396c-0.098-0.376,0.031-0.604,0.393-0.698
		c0.439-0.111,0.417-0.145-0.119-0.173C69.246,287.062,69.056,287.216,69.056,287.62"/>
</g>
</svg>
