<?xml version="1.0" encoding="utf-8"?>
<!-- Generator: Adobe Illustrator 12.0.0, SVG Export Plug-In . SVG Version: 6.00 Build 51448)  -->
<!DOCTYPE svg PUBLIC "-//W3C//DTD SVG 1.1//EN" "http://www.w3.org/Graphics/SVG/1.1/DTD/svg11.dtd" [
	<!ENTITY ns_svg "http://www.w3.org/2000/svg">
	<!ENTITY ns_xlink "http://www.w3.org/1999/xlink">
]>
<svg  version="1.1" id="svg" xmlns="&ns_svg;" xmlns:xlink="&ns_xlink;" width="400" height="292.4" viewBox="0 0 400 292.4"
	 overflow="visible" enable-background="new 0 0 400 292.4" xml:space="preserve">
<g id="svgg">
	<path id="path1" fill="#790800" d="M369.962,8.787c-6.793,1.221-9.722,5.778-8.582,13.354c0.595,3.958,2.787,8.878,3.955,8.878
		c2.592,0,5.251-3.591,3.872-5.229c-2.182-2.594-1.686-7.685,0.654-6.697c0.4,0.172,0.918,0.322,1.145,0.34
		c0.427,0.028,1.011,1.548,1.332,3.467c0.147,0.884,1.237,1.718,1.338,1.022c0.005-0.04,0.079-0.861,0.164-1.829
		c0.532-6.045,3.021-8.736,5.679-6.143c2.051,2.001,3.239-0.889,1.489-3.615C378.993,9.194,374.94,7.892,369.962,8.787
		 M348.793,77.635c0,1.382,3.751,2.271,10.324,2.452c6.084,0.167,8.109-0.001,8.109-0.672c0-0.354-0.113-0.37-0.653-0.081
		c-2.543,1.361-15.177,0.098-17.27-1.729C348.844,77.203,348.793,77.206,348.793,77.635 M350.661,119.147
		c-0.464,0.352-0.894,0.674-0.95,0.716c-0.194,0.139,1.209,2.276,2.517,3.835c0.707,0.843,1.204,1.665,1.104,1.828
		c-0.332,0.538-1.855-0.54-3.284-2.325c-1.515-1.894-2.174-2.17-0.793-0.333c4.153,5.524,11.536,12.271,11.536,10.541
		c0-0.969-2.228-4.963-2.701-4.844c-0.57,0.142-1.854-1.648-1.545-2.151c0.102-0.164,0.045-0.298-0.126-0.298
		c-0.17,0-0.31-0.198-0.31-0.439c0-0.24,0.256-0.438,0.566-0.438c1.771,0,0.864-1.332-1.396-2.059
		c-2.557-0.822-3.658-1.936-3.505-3.536C351.898,118.327,351.801,118.284,350.661,119.147 M320.753,122.111
		c-0.925,0.982-0.853,1.137,1.56,3.321c3.72,3.367,2.48,3.952-1.366,0.646c-1.871-1.606-2.545-1.888-1.248-0.519
		c3.455,3.647,13.588,10.168,13.588,8.74c0-0.876-2.803-4.369-3.398-4.236c-0.582,0.131-2.188-1.413-1.916-1.839
		c0.056-0.085-0.126-0.281-0.399-0.437c-0.448-0.251-0.417-0.347,0.302-0.92c1.173-0.935,0.466-1.511-2.179-1.777
		c-2.377-0.237-3.82-1.31-3.82-2.837C321.873,121.257,321.59,121.219,320.753,122.111 M347.367,122.391
		c-0.183,0.182-0.33,0.479-0.33,0.659c0,0.722,11.877,11.844,12.646,11.844c0.563,0,0.14-0.529-0.881-1.103
		c-1.13-0.635-7.758-7.464-9.917-10.217C348.004,122.452,347.612,122.146,347.367,122.391 M318.08,126.189
		c0.012,0.69,0.095,0.76,5.402,4.396c3.639,2.493,8.505,5.278,8.957,5.127c0.187-0.062-0.528-0.541-1.591-1.063
		c-1.061-0.522-3.151-1.899-4.647-3.061c-1.496-1.158-3.246-2.469-3.892-2.907c-0.643-0.439-1.762-1.328-2.485-1.976
		C318.308,125.353,318.065,125.281,318.08,126.189"/>
	<path id="path2" fill="#005E84" d="M348.523,77.969c-0.102,2.499-7.844,15.971-11.61,20.201c-3.133,3.52-4.312,4.997-5.827,7.315
		c-1.22,1.865-6.58,11.195-6.58,11.453c0,0.085-0.473,0.961-1.052,1.949c-0.587,1.001-0.915,1.841-0.743,1.897
		c0.173,0.057,0.238,0.459,0.148,0.911c-0.278,1.391,1.332,2.484,3.351,2.275c0.867-0.091,1.602-0.203,1.631-0.256
		c0.234-0.393,4.688-7.003,5.979-8.867c3.11-4.509,4.291-5.891,9.107-10.682c5.214-5.186,7.35-7.931,11.295-14.527
		c1.237-2.068,2.401-3.925,2.587-4.122c0.803-0.86,15.688,13.181,15.688,14.798c0,0.334-0.907,1.078-6.728,5.524
		c-5.58,4.267-13.172,12.241-13.172,13.841c0,1.184,2.007,2.617,3.674,2.628c0.17,0.001,1.441-1.102,2.829-2.447
		c3.185-3.093,7.079-6.026,11.854-8.922c6.941-4.214,7.837-4.898,8.999-6.885c2.789-4.771,0.539-9.73-9.418-20.769l-2.867-3.179
		l-7.021-0.068c-7.863-0.076-11.328-0.733-11.947-2.272C348.612,77.56,348.536,77.649,348.523,77.969 M350.402,126.993
		c1.604,1.61,2.979,2.927,3.062,2.927c0.08,0-1.166-1.315-2.769-2.927c-1.604-1.609-2.981-2.926-3.063-2.926
		C347.553,124.067,348.799,125.384,350.402,126.993 M351.707,125.896c1.212,1.292,1.475,1.522,1.475,1.305
		c0-0.047-0.625-0.673-1.39-1.39l-1.39-1.307L351.707,125.896 M351.426,126.554c0.875,0.886,1.656,1.608,1.736,1.608
		c0.081,0-0.569-0.724-1.443-1.608c-0.874-0.886-1.653-1.609-1.734-1.609S350.552,125.669,351.426,126.554 M355.751,131.107
		c0.848,0.894,1.473,1.694,1.387,1.782c-0.085,0.085,0.087,0.375,0.385,0.642c1.563,1.417,0.309-0.579-1.39-2.205
		C354.36,129.627,354.33,129.61,355.751,131.107 M359.034,133.832c0,0.03,0.264,0.28,0.586,0.555
		c0.448,0.386,0.585,0.407,0.585,0.101c0-0.221-0.264-0.471-0.585-0.555C359.298,133.847,359.034,133.802,359.034,133.832"/>
	<path id="path3" fill="#CC040F" d="M368.164,19.371c-0.193,0.193-0.333,0.688-0.313,1.097l0.039,0.746l0.137-0.729
		c0.072-0.403,0.27-0.896,0.435-1.099C368.845,18.919,368.627,18.908,368.164,19.371 M363.926,34.555
		c-1.907,0.447-2.793,1.085-6.971,5.008c-4.613,4.331-4.443,4-2.915,5.658l1.15,1.246l-0.376,1.271
		c-0.207,0.7-0.464,2.717-0.566,4.483c-0.283,4.779-2.545,15.616-4.702,22.523c-0.932,2.986-0.329,3.676,3.929,4.498
		c7.463,1.442,14.123,0.593,14.023-1.786c-0.042-0.98,1.279-8.188,1.783-9.728c0.158-0.487,0.33-1.554,0.38-2.368l0.09-1.483
		l-1.191-0.316c-0.654-0.177-1.674-0.646-2.263-1.046c-0.588-0.399-1.146-0.672-1.24-0.605c-0.094,0.067-0.113,0.044-0.047-0.051
		c0.068-0.094-0.266-0.786-0.742-1.536c-1.201-1.896-3.238-8.869-2.735-9.371c0.286-0.286,6.125-1.182,6.33-0.972
		c0.105,0.109,0.338,1.386,0.515,2.834c0.481,3.949,1.225,5.706,2.416,5.706c0.312,0,0.492-0.12,0.401-0.269
		c-0.093-0.146-0.034-0.312,0.125-0.364c0.158-0.056,0.549-1.152,0.863-2.439c0.316-1.288,0.808-3.263,1.089-4.389
		c1.041-4.147,0.314-7.532-2.518-11.729c-0.491-0.728-0.893-1.43-0.893-1.559c0-0.408-3.163-3.247-3.616-3.247
		c-0.238,0-0.608-0.052-0.822-0.116C365.208,34.348,364.535,34.412,363.926,34.555"/>
	<path id="path4" fill="#77ABBA" d="M361.151,16.679c0,0.563,0.06,0.794,0.133,0.512c0.074-0.282,0.074-0.743,0-1.024
		C361.211,15.885,361.151,16.116,361.151,16.679 M347.528,79.414c-0.433,0.941-0.783,1.762-0.783,1.825
		c0,0.169-3.608,7.365-4.382,8.739c-1.707,3.031-3.947,6.104-6.404,8.776c-4.936,5.373-14.298,20.97-14.006,23.33l0.119,0.957
		l0.046-0.98c0.036-0.743,0.154-0.941,0.484-0.814c0.242,0.093,0.439,0.052,0.439-0.091c0-0.142-0.144-0.307-0.321-0.366
		c-0.188-0.062,0.114-0.848,0.732-1.9c0.579-0.988,1.052-1.864,1.052-1.949c0-0.258,5.36-9.588,6.58-11.453
		c1.517-2.318,2.694-3.797,5.827-7.315c3.786-4.252,12.016-18.611,11.519-20.101C348.365,77.868,347.958,78.474,347.528,79.414
		 M367.228,79.485c0,0.079,1.456,1.764,3.236,3.744c6.349,7.062,9.631,11.774,10.402,14.94c0.261,1.068,0.364,1.241,0.382,0.642
		c0.082-2.729-4.602-9.421-12.464-17.811C367.928,80.089,367.228,79.406,367.228,79.485 M356.775,85.508
		c-0.162,0.206-1.311,2.065-2.55,4.135c-3.966,6.614-6.091,9.349-11.3,14.527c-4.816,4.791-5.997,6.173-9.107,10.682
		c-1.452,2.102-5.877,8.677-5.954,8.846c-0.019,0.037-0.746,0.187-1.621,0.332c-0.875,0.145-1.245,0.279-0.822,0.298
		c2.23,0.099,2.398-0.05,5.856-5.195c4.912-7.308,6.903-9.884,9.764-12.621c4.797-4.592,6.024-5.901,8.04-8.591
		c2.076-2.768,4.782-6.896,6.587-10.05c1.561-2.727,1.046-2.854,6.056,1.517c1.82,1.591,3.046,2.59,2.726,2.223
		c-0.473-0.538-4.674-4.239-6.908-6.084C357.16,85.21,357.014,85.207,356.775,85.508 M367.803,94.952
		c3.482,3.72,4.091,4.313,2.716,2.634c-0.657-0.805-2.095-2.317-3.188-3.363C365.517,92.49,365.559,92.555,367.803,94.952
		 M371.935,99.727c0.391,0.637,0.346,0.73-0.747,1.607c-1.494,1.202-2.814,2.438-2.059,1.929c2.932-1.978,3.766-3.08,2.88-3.813
		C371.563,99.082,371.557,99.105,371.935,99.727 M380.91,101.686c-0.292,1.655-1.686,3.708-3.406,5.02
		c-2.938,2.24-2.951,2.252-1.822,1.65c2.724-1.449,5.743-5.295,5.533-7.041C381.131,100.622,381.089,100.673,380.91,101.686
		 M361.923,108.664c-4.51,3.966-9.619,9.786-9.619,10.957c0,0.335,0.344,0.979,0.762,1.431l0.761,0.821l-0.614-0.844
		c-0.338-0.465-0.614-1.071-0.614-1.347c0-1.218,6.105-8.055,10.534-11.799c0.885-0.746,1.526-1.361,1.425-1.365
		S363.27,107.48,361.923,108.664 M370.724,111.07c-2.004,1.22-3.84,2.429-4.082,2.687c-0.394,0.421-0.363,0.42,0.293-0.007
		c0.402-0.261,2.279-1.418,4.172-2.569c3.001-1.829,3.717-2.328,3.35-2.328C374.406,108.851,372.727,109.85,370.724,111.07
		 M363.416,116.074c-1.364,1.075-3.462,2.928-4.663,4.117c-2.052,2.033-2.244,2.151-3.218,2.002c-0.761-0.118-0.88-0.09-0.451,0.104
		c1.195,0.541,1.724,0.286,3.838-1.854c1.174-1.189,3.259-3.054,4.635-4.146c2.241-1.774,2.689-2.179,2.419-2.179
		C365.932,114.119,364.779,114.998,363.416,116.074 M348.11,121.044c-0.396,0.396-0.179,1.257,0.397,1.565
		c0.326,0.174,0.521,0.433,0.436,0.575c-0.088,0.142,0.139,0.467,0.503,0.723c0.363,0.255,0.618,0.54,0.561,0.633
		c-0.228,0.376,8.263,8.896,9.205,9.235c0.534,0.191,1.013,0.557,1.064,0.808c0.076,0.387,0.124,0.378,0.294-0.055
		c0.152-0.393-0.026-0.607-0.764-0.914c-0.896-0.375-5.99-4.864-5.521-4.865c0.117-0.001-0.676-0.839-1.762-1.864
		c-1.088-1.022-1.977-1.949-1.977-2.06s-0.551-0.927-1.224-1.818c-0.99-1.311-1.145-1.67-0.805-1.885
		c0.229-0.145,0.275-0.266,0.102-0.269C348.448,120.851,348.218,120.936,348.11,121.044 M322.476,122.049
		c-0.021,0.553,1.263,2.02,1.765,2.02c0.188,0-0.014-0.281-0.449-0.625c-0.438-0.344-0.908-0.904-1.045-1.244
		C322.57,121.765,322.489,121.719,322.476,122.049 M320.176,122.37c-0.536,0.535-0.428,0.943,0.453,1.719l0.805,0.71l-0.721-0.815
		c-0.612-0.693-0.667-0.904-0.364-1.392C320.756,121.941,320.69,121.856,320.176,122.37 M318.849,124.262
		c-0.656,0.656,2.617,4.479,3.416,3.985c0.147-0.092,0.061-0.283-0.195-0.426c-0.676-0.377-3.121-2.944-3.121-3.274
		c0-0.152,0.296-0.027,0.657,0.278l0.657,0.557l-0.557-0.656C319.075,123.981,319.111,124,318.849,124.262 M317.766,125.842
		c-0.377,0.704-0.104,1.137,1.303,2.076c0.689,0.462,0.636,0.369-0.234-0.396c-1.014-0.893-1.101-1.07-0.795-1.644
		c0.188-0.353,0.278-0.642,0.198-0.642C318.155,125.238,317.944,125.51,317.766,125.842 M348.793,125.622
		c0,0.05,0.428,0.479,0.951,0.951l0.951,0.859l-0.859-0.951C349.034,125.594,348.793,125.396,348.793,125.622 M356.424,125.996
		c0.146,0.176,0.197,0.388,0.114,0.471s0.033,0.305,0.258,0.49c0.429,0.356,1.361,0.16,1.361-0.288c0-0.355-0.401-0.328-0.787,0.059
		c-0.229,0.229-0.373,0.229-0.514,0c-0.109-0.177-0.052-0.318,0.13-0.318c0.18,0,0.23-0.154,0.114-0.342
		c-0.143-0.23-0.052-0.281,0.275-0.156c0.268,0.104,0.487,0.065,0.487-0.084c0-0.15-0.385-0.244-0.854-0.211
		C356.434,125.657,356.245,125.779,356.424,125.996 M328.895,127.302c0,0.173-0.131,0.229-0.292,0.131
		c-0.159-0.101-0.293-0.033-0.293,0.146s-0.15,0.233-0.338,0.118c-0.196-0.123-0.258-0.081-0.146,0.102
		c0.263,0.426,1.36,0.103,1.36-0.399c0-0.224-0.064-0.405-0.146-0.405C328.961,126.993,328.895,127.133,328.895,127.302
		 M357.718,127.51c-0.614,0.451-0.481,0.979,0.146,0.589c0.582-0.364,0.787-0.815,0.367-0.808
		C358.109,127.293,357.879,127.392,357.718,127.51 M350.841,127.67c0,0.053,0.428,0.479,0.951,0.951l0.951,0.86l-0.859-0.951
		C351.083,127.643,350.841,127.444,350.841,127.67 M320.117,128.575c0,0.08,0.593,0.554,1.315,1.052
		c0.726,0.498,1.317,0.84,1.317,0.76c0-0.079-0.593-0.554-1.317-1.053C320.71,128.836,320.117,128.494,320.117,128.575
		 M323.039,129.028c0.4,0.307,0.781,0.505,0.846,0.438c0.229-0.229-0.625-1.011-1.097-1.005
		C322.433,128.468,322.497,128.612,323.039,129.028 M329.042,129.042c-0.1,0.161,0.09,0.292,0.421,0.292
		c0.332,0,0.604-0.131,0.604-0.292s-0.19-0.293-0.424-0.293C329.412,128.749,329.141,128.881,329.042,129.042 M324.214,129.586
		c0,0.376,2.212,2.12,2.422,1.91c0.09-0.09,0.313,0.111,0.49,0.447c0.18,0.335,0.521,0.608,0.756,0.608s0.428,0.128,0.428,0.28
		c0,0.348,2.173,1.642,3.532,2.106c0.552,0.188,1.084,0.465,1.185,0.611c0.098,0.148,0.239,0.028,0.316-0.268
		c0.109-0.417-0.042-0.55-0.682-0.597c-0.452-0.033-1.155-0.279-1.563-0.546c-0.405-0.269-0.741-0.371-0.745-0.232
		c-0.002,0.139-0.101,0.121-0.219-0.041c-0.176-0.24-2.809-2.28-5.399-4.185C324.448,129.473,324.214,129.429,324.214,129.586
		 M354.633,131.163c1.213,1.292,1.477,1.524,1.477,1.305c0-0.047-0.625-0.673-1.392-1.39l-1.39-1.305L354.633,131.163
		 M330.066,135.037c0,0.201,1.791,1.089,1.925,0.955c0.063-0.063-0.343-0.334-0.905-0.602
		C330.525,135.122,330.066,134.964,330.066,135.037"/>
	<path id="path5" fill="#FFBE98" d="M369.622,8.442c-0.373,0.104,1.029,0.188,3.115,0.188c2.087,0,3.643-0.097,3.458-0.215
		C375.788,8.156,370.57,8.176,369.622,8.442 M365.452,9.794c-1.329,0.693-3.492,2.797-3.492,3.397c0,0.173,0.428-0.243,0.951-0.926
		c0.539-0.702,1.713-1.662,2.707-2.215C367.617,8.943,367.483,8.736,365.452,9.794 M378.054,9.124
		c2.313,2.099,3.218,2.836,2.634,2.146c-0.877-1.037-1.411-1.516-2.193-1.951C378.171,9.139,377.974,9.051,378.054,9.124
		 M361.408,14.663c-0.182,0.519-0.277,0.992-0.214,1.054c0.062,0.063,0.261-0.309,0.439-0.824c0.183-0.519,0.277-0.992,0.214-1.056
		C361.787,13.774,361.588,14.146,361.408,14.663 M376.362,15.38c-1.159,0.813-2.242,4.014-2.472,7.297
		c-0.147,2.153-1.414,1.683-1.896-0.708c-0.447-2.208-0.372-2.106-1.933-2.567c-1.644-0.485-2.038-0.082-2.021,2.059
		c0.015,1.621,0.816,3.931,1.704,4.911c0.919,1.015-1.136,3.659-3.596,4.627c-0.61,0.24-0.876,0.511-0.771,0.784
		c0.289,0.754-0.515,2.159-1.334,2.331c-1.639,0.344-3.204,1.368-5.872,3.842c-6.37,5.906-6.054,5.558-5.639,6.23
		c0.338,0.548,0.209,0.842-1.258,2.864c-4.593,6.339-4.894,9.718-1.637,18.348l1.215,3.216l-0.468,1.86
		c-0.413,1.646-0.435,2.975-0.024,1.604c1.595-5.344,3.647-15.829,3.885-19.823c0.104-1.781,0.36-3.815,0.568-4.519l0.378-1.276
		l-1.305-1.393l-1.303-1.395l4.211-3.961c6.949-6.537,10.247-6.968,13.167-1.718c0.186,0.331,0.877,1.497,1.539,2.591
		c0.662,1.096,1.375,2.518,1.584,3.159c0.209,0.646,0.438,1.004,0.504,0.801c0.155-0.461-1.313-3.585-2.503-5.322
		c-0.867-1.269-0.88-1.333-0.448-2.342c0.244-0.569,0.514-1.2,0.597-1.401c0.185-0.448,0.058-0.454,1.551,0.071
		c3.363,1.188,5.155,0.145,7.069-4.115c0.824-1.838,1.126-2.226,1.931-2.491c1.343-0.444,1.676-1.194,1.059-2.387
		c-0.791-1.528-1.271-3.727-1.298-5.93c-0.013-1.126-0.129-2.312-0.257-2.633c-0.159-0.397-0.059-0.833,0.313-1.362
		c0.742-1.055,0.695-1.393-0.06-0.434c-0.791,1.007-1.068,0.975-2.192-0.253C378.321,14.821,377.407,14.648,376.362,15.38
		 M360.896,19.605c0,1.527,0.049,2.152,0.107,1.39c0.062-0.765,0.062-2.015,0-2.78C360.945,17.451,360.896,18.076,360.896,19.605
		 M361.265,23.994c0.104,0.563,0.303,1.288,0.442,1.61c0.176,0.399,0.198,0.264,0.071-0.439c-0.104-0.563-0.303-1.288-0.442-1.608
		C361.16,23.153,361.138,23.291,361.265,23.994 M361.96,26.442c0,0.371,0.845,2.232,1.014,2.232c0.092,0-0.039-0.485-0.286-1.082
		C362.228,26.495,361.96,26.071,361.96,26.442 M373.804,47.403c0,1.288,0.091,2.111,0.202,1.829
		c0.112-0.282,0.203-1.105,0.203-1.829s-0.091-1.547-0.203-1.829C373.895,45.293,373.804,46.116,373.804,47.403 M364.538,50.288
		c-3.454,0.604-3.264,0.404-2.745,2.853c1.389,6.557,3.238,9.42,6.725,10.407c1.602,0.454,1.663,0.535,1.355,1.712
		c-1.721,6.561-2.838,13.667-2.27,14.436c0.288,0.389,0.361,0.029,0.392-1.936c0.034-2.204,0.572-5.45,1.735-10.459
		c0.241-1.046,0.503-2.186,0.576-2.531c0.133-0.609,0.239-0.625,3.066-0.472c1.612,0.091,5.55-0.004,8.75-0.207
		c5.392-0.342,5.884-0.332,6.679,0.14c1.308,0.771,5.741,0.297,5.873-0.629c0.05-0.348,0.347-0.696,0.659-0.778
		c0.32-0.083,0.568-0.4,0.568-0.725c0-0.317,0.196-0.741,0.438-0.941c0.624-0.518,0.547-0.842-0.292-1.224
		c-0.402-0.185-0.73-0.495-0.73-0.694c0-0.555-0.678-0.694-2.471-0.509l-1.641,0.169l0.08-0.981c0.133-1.632-0.666-1.395-2.13,0.633
		l-1.301,1.805l-3.514-0.193c-7.384-0.407-13.725-1.347-14.532-2.154c-0.586-0.586-1.103-2.446-1.44-5.188
		c-0.331-2.685-0.438-3.092-0.795-3.047C367.465,49.783,366.098,50.017,364.538,50.288 M373.106,51.646
		c-0.205,0.966-0.635,2.778-0.952,4.029c-0.32,1.254-0.521,2.438-0.449,2.636c0.073,0.195,0.221-0.037,0.331-0.521
		c0.107-0.481,0.529-2.231,0.933-3.889c0.404-1.656,0.686-3.236,0.621-3.511C373.528,50.115,373.31,50.68,373.106,51.646
		 M349.381,74.104c-0.172,0.684-0.505,1.761-0.74,2.393c-0.233,0.632-0.375,1.2-0.312,1.263c0.145,0.146,1.204-2.687,1.476-3.947
		C350.108,72.405,349.745,72.656,349.381,74.104 M352.085,118.947c0.004,0.643,0.064,0.872,0.134,0.508
		c0.07-0.364,0.067-0.89-0.006-1.17S352.082,118.302,352.085,118.947 M350.014,119.185c-0.349,0.372-0.636,0.888-0.636,1.146
		s-0.158,0.521-0.351,0.586c-0.215,0.071,0.174,0.799,0.995,1.866c1.591,2.068,2.147,2.572,2.562,2.316
		c0.168-0.104,0.306-0.027,0.306,0.17c0,0.196,0.084,0.272,0.188,0.171c0.26-0.26-0.487-1.111-0.803-0.915
		c-0.143,0.087-0.169-0.069-0.063-0.349c0.147-0.382,0.079-0.461-0.281-0.321c-0.298,0.113-0.429,0.052-0.353-0.168
		c0.065-0.193-0.218-0.746-0.633-1.229c-0.445-0.517-0.685-0.661-0.579-0.351c0.108,0.33,0.06,0.456-0.133,0.337
		c-0.171-0.106-0.238-0.377-0.151-0.604c0.087-0.227,0.008-0.74-0.175-1.144c-0.285-0.627-0.235-0.835,0.352-1.46
		c0.376-0.4,0.618-0.729,0.538-0.729C350.716,118.508,350.364,118.812,350.014,119.185 M352.012,120.651
		c0,0.721,1.308,1.608,3.313,2.254c1.383,0.444,2.08,0.834,2.267,1.268c0.25,0.576,0.268,0.579,0.198,0.041
		c-0.079-0.64-3.586-2.58-4.239-2.346c-0.199,0.071-0.335,0.036-0.303-0.079c0.081-0.289-0.741-1.524-1.014-1.524
		C352.112,120.263,352.012,120.438,352.012,120.651 M322.165,122.165c0,1.747,0.785,2.221,4.952,2.991
		c1.354,0.251,1.508,0.236,1.046-0.101c-0.297-0.219-1.011-0.47-1.586-0.559c-2.992-0.463-4.395-1.446-3.969-2.785
		c0.103-0.322,0.046-0.57-0.132-0.57C322.306,121.141,322.165,121.602,322.165,122.165 M319.511,123.788
		c-0.509,0.314,1.684,2.719,2.271,2.493c0.201-0.077,0.455,0.006,0.563,0.185c0.129,0.209,0.056,0.249-0.21,0.111
		c-0.226-0.117-0.093,0.066,0.296,0.407c0.391,0.341,0.874,0.556,1.078,0.478c0.205-0.079,0.438,0.016,0.516,0.206
		c0.076,0.192,0.148,0.218,0.158,0.059C324.222,127.124,319.943,123.52,319.511,123.788 M347.623,124.506
		c0.545,0.563,1.058,1.024,1.138,1.024c0.081,0-0.3-0.461-0.846-1.024c-0.546-0.563-1.058-1.022-1.139-1.022
		C346.696,123.482,347.077,123.943,347.623,124.506 M357.059,125.152c-0.36,0.069-0.656,0.251-0.656,0.404
		c0,0.151,0.329,0.193,0.729,0.095c0.877-0.221,1.007,0.338,0.144,0.612c-0.324,0.103-0.508,0.319-0.405,0.482
		c0.122,0.198,0.289,0.191,0.501-0.021c0.38-0.379,0.787-0.416,0.787-0.07c0,0.136-0.297,0.403-0.659,0.591
		c-0.63,0.329-0.624,0.337,0.146,0.188c0.928-0.184,1.028,0.045,0.295,0.646c-0.477,0.389-0.466,0.41,0.146,0.279
		c0.419-0.089,0.762,0.036,0.942,0.344c0.154,0.267,0.285,0.347,0.292,0.178c0.005-0.169-0.106-0.433-0.248-0.585
		c-0.143-0.151-0.481-0.97-0.755-1.813c-0.274-0.847-0.521-1.52-0.55-1.496C357.74,125.007,357.421,125.082,357.059,125.152
		 M328.091,127.003c-0.362,0.146-0.659,0.334-0.659,0.42c0,0.309,0.777,0.148,1.334-0.272
		C329.401,126.669,329.089,126.601,328.091,127.003 M329.197,127.505c-0.005,0.202-0.199,0.366-0.433,0.366
		c-0.23,0-0.506,0.137-0.607,0.305c-0.122,0.197,0.103,0.242,0.641,0.127c0.687-0.146,0.74-0.118,0.317,0.15
		c-0.282,0.179-0.514,0.479-0.514,0.662c0,0.245,0.097,0.241,0.353-0.015c0.426-0.428,1.112-0.462,1.112-0.06
		c0,0.161-0.198,0.292-0.439,0.292s-0.439,0.113-0.439,0.251c0,0.14,0.382,0.237,0.847,0.221c0.84-0.031,0.842-0.035,0.337-0.764
		c-0.279-0.401-0.655-0.995-0.836-1.315C329.354,127.403,329.202,127.304,329.197,127.505 M353.621,130.505
		c0.629,0.646,1.209,1.17,1.289,1.17c0.081,0-0.368-0.524-0.996-1.17c-0.629-0.644-1.209-1.171-1.29-1.171
		C352.544,129.334,352.992,129.861,353.621,130.505 M272.348,156.469c0.686,0.063,1.803,0.063,2.487,0
		c0.685-0.062,0.125-0.11-1.243-0.11C272.225,156.357,271.664,156.407,272.348,156.469 M266.261,157.959
		c-1.348,0.856-3.202,2.771-3.202,3.303c0,0.17,0.434-0.265,0.963-0.961c0.528-0.695,1.677-1.693,2.547-2.218
		c0.871-0.521,1.451-0.951,1.289-0.951S266.977,157.504,266.261,157.959 M280.322,158.102c0,0.05,0.428,0.478,0.951,0.949
		l0.951,0.859l-0.861-0.951C280.563,158.075,280.322,157.876,280.322,158.102 M373.309,160.86c0.852,0.059,2.167,0.058,2.928-0.002
		c0.759-0.062,0.063-0.108-1.546-0.107C373.08,160.751,372.459,160.801,373.309,160.86 M381.578,163.134
		c0.556,0.646,1.245,1.501,1.53,1.902l0.519,0.729l-0.421-0.879c-0.231-0.481-0.92-1.339-1.53-1.9l-1.108-1.025L381.578,163.134
		 M364.323,164.661c-0.495,0.6-0.899,1.221-0.899,1.382c0,0.16,0.218-0.035,0.484-0.433c0.267-0.398,0.751-1.021,1.075-1.382
		c0.323-0.362,0.512-0.658,0.415-0.658C365.301,163.57,364.817,164.061,364.323,164.661"/>
</g>
</svg>
