<?xml version="1.0" encoding="utf-8"?>
<!-- Generator: Adobe Illustrator 12.0.0, SVG Export Plug-In . SVG Version: 6.00 Build 51448)  -->
<!DOCTYPE svg PUBLIC "-//W3C//DTD SVG 1.1//EN" "http://www.w3.org/Graphics/SVG/1.1/DTD/svg11.dtd" [
	<!ENTITY ns_svg "http://www.w3.org/2000/svg">
	<!ENTITY ns_xlink "http://www.w3.org/1999/xlink">
]>
<svg  version="1.1" id="svg" xmlns="&ns_svg;" xmlns:xlink="&ns_xlink;" width="400" height="292.4" viewBox="0 0 400 292.4"
	 overflow="visible" enable-background="new 0 0 400 292.4" xml:space="preserve">
<g id="svgg">
	<path id="path1" fill="#790800" d="M167.893,0.598 M167.893,0.598 M68.15,0.878c-4.868,0.773-7.347,3.228-8.197,8.109
		c-0.941,5.402,1.501,13.837,4.005,13.837c0.924,0,3.081-1.711,3.775-2.995l0.579-1.07l-0.653-0.883
		c-1.286-1.74-1.72-4.918-0.892-6.537c0.281-0.551,1.553-0.699,1.85-0.22c0.1,0.161,0.432,0.293,0.739,0.293
		c0.741,0,1.14,0.817,1.395,2.854c0.244,1.959,1.299,2.541,1.458,0.804c0.575-6.3,3.326-9.636,5.791-7.022
		c2.013,2.136,3.628,0.066,2.174-2.782C78.232,1.457,74.067-0.062,68.15,0.878 M52.983,39.191c-0.41,0.26-0.681,1.48-0.328,1.48
		c0.099,0,0.328-0.395,0.511-0.878c0.182-0.481,0.31-0.876,0.283-0.873C53.423,38.924,53.213,39.045,52.983,39.191 M52.153,48.866
		c0,0.563,0.06,0.794,0.134,0.512c0.073-0.279,0.073-0.742,0-1.022C52.213,48.072,52.153,48.302,52.153,48.866 M48.569,70.661
		c1.454,1.752,17.026,3.168,16.942,1.541c-0.027-0.529-0.061-0.554-0.172-0.124c-0.32,1.239-14.5-0.169-16.019-1.591
		C48.812,70.012,48.157,70.164,48.569,70.661 M8.794,99.179c-0.524,0.33-0.448,2.684,0.151,4.654c0.523,1.727,0.522,2.09-0.01,2.09
		c-0.592,0-1.023-0.9-1.815-3.804c-0.646-2.363-0.673-2.408-0.543-0.902c0.075,0.871,0.521,2.78,0.991,4.242
		c0.47,1.463,1.263,3.978,1.762,5.585c1.825,5.886,3.057,6.863,3.19,2.536c0.077-2.465,0.031-2.745-0.465-2.875
		c-0.657-0.172-0.88-2.4-0.277-2.785c0.292-0.185,0.292-0.231,0-0.234c-0.202-0.003-0.366-0.139-0.366-0.298
		c0-0.16,0.381-0.292,0.846-0.292c1.414,0,1.258-0.694-0.578-2.564c-1.912-1.948-2.377-3.846-1.247-5.094
		C10.982,98.831,9.672,98.624,8.794,99.179 M4.937,100.717c-0.481,0.386,0.62,4.591,1.949,7.447c0.236,0.507,0.43,1.034,0.43,1.171
		c0.001,0.242,1.114,3.022,2.269,5.665c0.564,1.293,1.534,2.436,1.534,1.807c0-0.173-0.115-0.384-0.256-0.471
		c-0.447-0.274-1.676-3.15-2.512-5.875c-1.224-3.988-2.428-8.08-2.697-9.159C5.444,100.459,5.353,100.384,4.937,100.717
		 M77.249,125.53c-1.848,1.931-3.042,2.268-4.545,1.283c-0.838-0.549-0.96-0.193-0.421,1.226c0.351,0.923,2.347,0.907,4.82-0.037
		c0.712-0.271,1.515-0.41,1.785-0.306c0.901,0.345-0.393,1.3-2.636,1.945c-1.141,0.325-2.338,0.722-2.66,0.876
		c-1.19,0.569,2.001-0.079,3.929-0.803c1.058-0.395,3.204-1.158,4.769-1.697c4.814-1.658,7.571-3.191,7.103-3.95
		c-0.331-0.535-5.172-0.043-5.706,0.58c-0.755,0.881-3.511,0.75-3.511-0.166C80.176,123.226,79.079,123.62,77.249,125.53
		 M89.526,125.4c-0.949,1.144-13.278,5.981-15.243,5.981c-0.6,0-0.672,0.226-0.272,0.855c0.221,0.349,0.66,0.27,2.702-0.487
		c7.628-2.829,14.005-6.017,13.348-6.674C89.981,124.997,89.74,125.142,89.526,125.4"/>
	<path id="path2" fill="#005E84" d="M48.06,70.898C47.758,74.556,43.308,88,41.414,90.98c-1.511,2.377-4.463,3.464-12.299,4.525
		c-6.613,0.897-13.032,2.085-16.168,2.993c-1.879,0.544-2.224,1.107-2.061,3.36c0.1,1.382,0.05,1.644-0.261,1.386
		c-0.929-0.771-0.248,0.051,1.244,1.501c0.896,0.87,1.587,1.4,1.536,1.178c-0.163-0.723,6.484-1.58,18.122-2.336
		c11.665-0.758,15.623-2.714,19.733-9.751c1.474-2.522,3.579-6.982,5.1-10.808c0.653-1.64,0.926-1.708,1.765-0.438
		c0.772,1.167,3.909,6.416,3.909,6.539c0,0.052,0.411,0.787,0.913,1.641c2.615,4.432,4.251,8.154,4.474,10.181
		c0.098,0.885,0.376,3.52,0.619,5.852c0.86,8.268,3.002,18.221,3.895,18.101c0.629-0.085,0.925,0.11,0.925,0.607
		c0,1.353,2.186,0.926,3.716-0.726c0.855-0.923,2.153-1.454,1.68-0.688c-0.133,0.215,0.017,0.205,0.451-0.026
		c0.358-0.191,0.913-0.279,1.233-0.196c0.517,0.136,0.536,0.1,0.171-0.339c-1.118-1.336-2.276-9.876-2.467-18.195
		c-0.225-9.765-1.299-12.961-9.539-28.383l-2.268-4.243l-4.157,0.09c-5.353,0.114-11.768-0.927-13.092-2.123
		C48.165,70.296,48.108,70.32,48.06,70.898 M4.798,100.538c-0.53,0.425-0.526,0.431,0.082,0.138
		c0.519-0.251,0.662-0.214,0.771,0.203c0.12,0.462,0.137,0.463,0.167,0.018C5.868,100.177,5.436,100.026,4.798,100.538
		 M5.857,102.292c0.002,0.311,0.138,0.758,0.301,1c0.217,0.32,0.244,0.202,0.101-0.438C6.018,101.777,5.851,101.543,5.857,102.292
		 M6.779,108.574c0.171,0.491,0.366,0.838,0.432,0.772c0.145-0.146-0.407-1.665-0.605-1.665
		C6.53,107.681,6.608,108.083,6.779,108.574 M11.484,110.134c-0.026,0.339,0.047,0.471,0.16,0.294
		c0.114-0.175,0.401-0.381,0.638-0.455c0.319-0.104,0.277-0.182-0.16-0.296C11.675,109.56,11.519,109.672,11.484,110.134
		 M83.878,123.994c-0.074,0.121,0.478,0.18,1.227,0.132c2.137-0.137,2.396-0.278,0.574-0.315
		C84.763,123.79,83.953,123.873,83.878,123.994 M80.176,130.358c-0.403,0.229-0.6,0.419-0.439,0.419
		c0.161,0,0.621-0.189,1.024-0.419c0.402-0.23,0.6-0.418,0.439-0.418C81.039,129.94,80.578,130.128,80.176,130.358 M74.909,132.407
		c-0.564,0.217-0.827,0.398-0.586,0.403c0.242,0.005,0.834-0.172,1.317-0.395C76.77,131.9,76.245,131.892,74.909,132.407"/>
	<path id="path3" fill="#CC040F" d="M59.406,26.662c-0.399,0.159-0.958,0.5-1.243,0.757c-0.284,0.258-1.604,0.832-2.932,1.275
		c-2.577,0.861-4.609,1.678-4.609,1.852c0,0.239,0.95,2.354,2.21,4.919c1.188,2.421,1.283,2.753,0.854,3.015
		c-1.001,0.607-1.52,1.088-0.799,0.737c0.698-0.338,0.386,0.999-0.354,1.519c-0.179,0.125-0.287,1.942-0.272,4.597
		c0.014,2.712-0.083,4.324-0.255,4.218c-0.172-0.104-0.21,0.436-0.101,1.401c0.121,1.068,0.091,1.386-0.093,0.989
		c-0.311-0.672-0.476,0.318-0.352,2.121c0.036,0.521-0.069,0.949-0.233,0.949c-0.178,0-0.224,0.371-0.113,0.925
		c0.132,0.658,0.088,0.862-0.154,0.715c-0.307-0.19-0.45,0.308-0.422,1.474c0.032,1.369,2.222,3.619,3.55,3.647
		c2.43,0.052,4.087,1.107,2.167,1.381c-0.897,0.128-0.832,0.475,0.365,1.936c1.063,1.297,1.287,2.076,0.659,2.288
		c-0.285,0.098-0.278,0.23,0.036,0.61c0.49,0.594-0.081,1.494-0.779,1.226c-0.236-0.091-0.62-0.006-0.854,0.188
		c-0.333,0.275-0.553,0.272-1.01-0.011c-0.459-0.287-0.677-0.289-1.013-0.012c-0.253,0.21-0.527,0.247-0.669,0.09
		c-2.865-3.17-3.246-3.696-3.246-4.492c0-1.898-0.868-1.287-0.969,0.683c-0.031,0.58-0.138,1.056-0.239,1.057
		c-0.299,0.002-0.795,2.309-0.631,2.937c0.084,0.316,0.373,0.578,0.644,0.578s0.618,0.115,0.771,0.26
		c0.954,0.894,6.435,1.802,12.027,1.993l3.849,0.132l0.171-0.827c0.094-0.455,0.438-2.604,0.766-4.777
		c0.327-2.173,1.116-6.386,1.753-9.362c3.785-17.692,3.921-18.631,3.107-21.432c-0.264-0.905-0.643-1.824-0.842-2.041
		c-0.2-0.214-0.407-0.585-0.46-0.82c-0.208-0.92-2.876-4.779-4.059-5.869C64.307,26.26,61.378,25.875,59.406,26.662"/>
	<path id="path4" fill="#77ABBA" d="M70.44,0.504c0.519,0.064,1.441,0.066,2.048,0.002c0.607-0.063,0.182-0.114-0.944-0.115
		C70.417,0.387,69.92,0.439,70.44,0.504 M77.835,2.14c0,0.05,0.428,0.478,0.951,0.949l0.951,0.859l-0.86-0.951
		C78.076,2.113,77.835,1.914,77.835,2.14 M59.48,11.412c0,0.724,0.057,1.021,0.127,0.658c0.069-0.362,0.069-0.954,0-1.317
		C59.537,10.391,59.48,10.688,59.48,11.412 M47.155,73.783c-0.191,0.828-0.294,1.559-0.229,1.624
		c0.065,0.065,0.28-0.554,0.477-1.376c0.197-0.822,0.3-1.553,0.229-1.624C47.561,72.336,47.347,72.955,47.155,73.783 M68.048,76.811
		c4.827,9.069,7.535,15.029,8.774,19.312c0.688,2.375,0.946,2.503,0.416,0.206c-0.838-3.633-8.995-20.911-10.597-22.445
		C66.473,73.723,67.107,75.04,68.048,76.811 M45.821,78.647c-1.078,3.753-1.165,4.135-0.82,3.577
		c0.359-0.58,1.911-6.148,1.757-6.304C46.692,75.856,46.27,77.082,45.821,78.647 M56.767,81.931c0,0.159,0.151,0.26,0.337,0.22
		c0.185-0.041,1.326,1.54,2.535,3.511c1.209,1.972,2.244,3.541,2.298,3.486c0.097-0.099-2.538-4.629-3.812-6.558
		C57.525,81.683,56.767,81.315,56.767,81.931 M56.059,83.711c-0.268,0.671-0.432,1.274-0.365,1.341
		c0.067,0.067,0.341-0.426,0.609-1.097c0.269-0.67,0.433-1.272,0.366-1.341S56.328,83.041,56.059,83.711 M43.382,86.059
		c-0.51,1.338-0.887,2.473-0.837,2.521c0.159,0.16,1.965-4.354,1.864-4.661C44.355,83.759,43.893,84.722,43.382,86.059
		 M54.882,86.471c-0.632,1.512-0.548,1.683,0.163,0.334c0.326-0.619,0.526-1.193,0.443-1.275
		C55.406,85.447,55.133,85.87,54.882,86.471 M52.556,91.438c-2.607,5.011-4.391,7.204-7.682,9.442
		c-0.299,0.203-0.095,0.156,0.454-0.104c1.468-0.699,3.587-2.798,5.08-5.031c1.288-1.927,4.143-7.351,3.963-7.53
		C54.321,88.167,53.504,89.616,52.556,91.438 M62.473,90.417c0.249,0.483,0.519,0.878,0.6,0.878c0.08,0-0.058-0.395-0.308-0.878
		c-0.249-0.481-0.52-0.878-0.6-0.878C62.084,89.539,62.223,89.934,62.473,90.417 M40.525,91.662
		c-0.484,0.522-1.143,1.106-1.463,1.298c-0.321,0.192-0.429,0.356-0.24,0.366c0.443,0.022,2.069-1.345,2.453-2.063
		C41.69,90.489,41.537,90.57,40.525,91.662 M63.204,91.628c0,0.288,3.206,6.255,3.213,5.979c0.007-0.335-2.577-5.477-2.946-5.859
		C63.324,91.594,63.204,91.541,63.204,91.628 M35.991,93.953c-1.6,0.465-1.702,0.53-0.641,0.404
		c0.694-0.082,1.681-0.333,2.195-0.559C38.827,93.238,38.255,93.294,35.991,93.953 M29.021,95.164
		c-1.017,0.156-1.781,0.354-1.699,0.436c0.166,0.166,5.158-0.489,5.158-0.678C32.48,94.749,31.1,94.846,29.021,95.164
		 M22.092,96.269c-1.292,0.329,0.18,0.343,1.756,0.017l1.17-0.242l-1.024,0.001C23.431,96.045,22.575,96.146,22.092,96.269
		 M16.825,97.287c-0.805,0.207-1.2,0.379-0.878,0.382c0.322,0.004,1.244-0.162,2.049-0.369c0.804-0.207,1.199-0.379,0.877-0.383
		C18.552,96.914,17.63,97.08,16.825,97.287 M12.113,98.443c-0.499,0.217-1.223,0.362-1.609,0.321
		c-0.386-0.04-0.471-0.018-0.189,0.053c0.627,0.155,0.652,0.48,0.073,0.964c-0.242,0.2-0.437,0.512-0.435,0.694
		c0.003,0.181,0.132,0.132,0.288-0.109c0.207-0.319,0.284-0.079,0.284,0.878c0,0.956-0.077,1.196-0.284,0.877
		c-0.156-0.241-0.285-0.288-0.288-0.104c-0.002,0.183,0.242,0.638,0.544,1.01l0.548,0.677l-0.133-1.596
		c-0.072-0.877-0.164-1.726-0.204-1.881c-0.132-0.522,0.885-1.328,2.193-1.738c0.71-0.223,1.027-0.413,0.705-0.423
		C13.285,98.056,12.613,98.226,12.113,98.443 M66.559,98.464c0.123,0.322,0.392,1.64,0.6,2.928c0.236,1.466,0.387,1.944,0.405,1.281
		c0.04-1.449-0.493-4.123-0.896-4.49C66.426,97.96,66.397,98.036,66.559,98.464 M77.721,105.633
		c0.075,3.782,0.252,7.471,0.393,8.193c0.184,0.944,0.214,0.447,0.105-1.756c-0.084-1.69-0.26-5.377-0.393-8.193
		C77.596,98.986,77.591,99.065,77.721,105.633 M6.122,99.855c-0.385,0.249-0.415,0.536-0.181,1.721
		c0.388,1.961,0.779,1.791,0.598-0.259c-0.109-1.238-0.066-1.567,0.163-1.244c0.192,0.271,0.313,0.305,0.316,0.091
		C7.025,99.648,6.645,99.517,6.122,99.855 M42.429,101.829c-0.725,0.304-1.12,0.556-0.878,0.563
		c0.241,0.005,0.965-0.241,1.609-0.547C44.681,101.125,44.134,101.113,42.429,101.829 M38.332,102.877l-1.609,0.396l1.539-0.147
		c1.609-0.152,3.444-0.688,2.265-0.661C40.205,102.473,39.217,102.658,38.332,102.877 M34.751,103.499
		c0.364,0.07,0.891,0.067,1.17-0.006c0.28-0.073-0.018-0.131-0.661-0.127C34.616,103.369,34.387,103.429,34.751,103.499
		 M6.642,103.783c-0.197,0.318-0.089,0.718,0.715,2.654c0.183,0.441,0.36,1.003,0.392,1.244c0.191,1.449,0.53,2.37,0.781,2.119
		c0.175-0.175-0.083-1.397-0.701-3.315C7.291,104.814,6.756,103.598,6.642,103.783 M26.481,103.911
		c-1.77,0.134-3.482,0.3-3.804,0.369c-0.849,0.183,6.947-0.154,9.364-0.404l2.048-0.212l-2.194,0.001
		C30.688,103.666,28.252,103.777,26.481,103.911 M67.753,106.51c0.154,2.729,0.724,7.114,0.901,6.938
		c0.123-0.123-0.706-8.276-0.913-8.986C67.67,104.221,67.676,105.143,67.753,106.51 M16.971,104.852
		c-1.207,0.172-1.931,0.353-1.609,0.402c0.322,0.052,1.836-0.093,3.365-0.317c1.529-0.229,2.253-0.408,1.61-0.404
		C19.693,104.537,18.178,104.681,16.971,104.852 M12.032,107.946c-0.316,0.2-0.264,0.301,0.241,0.461
		c0.726,0.231,1.049,0.054,0.76-0.414C12.801,107.617,12.568,107.606,12.032,107.946 M8.486,110.408
		c0,0.602,0.969,3.103,1.157,2.987c0.295-0.184-0.571-3.08-0.921-3.08C8.592,110.315,8.486,110.356,8.486,110.408 M12.436,113.488
		c0,3.375-1.167,3.654-2.281,0.543c-0.069-0.193-0.234-0.251-0.366-0.128c-0.131,0.124,0.187,0.829,0.708,1.569
		c1.015,1.438,0.996,1.944-0.049,1.295c-0.589-0.367-0.611-0.359-0.244,0.084c0.539,0.651,1.059,0.61,1.937-0.152
		c0.737-0.64,1.16-5.5,0.514-5.901C12.535,110.723,12.436,111.933,12.436,113.488 M8.799,113.972c0,0.159,0.188,0.62,0.418,1.022
		c0.23,0.403,0.418,0.602,0.418,0.439s-0.188-0.622-0.418-1.024S8.799,113.811,8.799,113.972 M68.827,114.704
		c-0.008,1.099,0.731,4.342,0.766,3.365c0.012-0.322-0.154-1.441-0.369-2.487C68.939,114.192,68.832,113.955,68.827,114.704
		 M78.449,115.728c-0.039,0.863,0.784,5.737,1.005,5.957c0.215,0.211-0.047-1.793-0.606-4.642
		C78.643,115.999,78.463,115.406,78.449,115.728 M69.809,119.532c0.29,1.613,0.789,3.222,0.902,2.91
		c0.061-0.17-0.152-1.092-0.474-2.049C69.915,119.437,69.722,119.049,69.809,119.532 M79.624,122.495
		c-0.018,0.343,0.197,0.804,0.478,1.024c0.446,0.35,0.469,0.345,0.178-0.037c-0.184-0.241-0.399-0.702-0.478-1.024
		C79.665,121.902,79.657,121.904,79.624,122.495 M70.836,123.097c-0.036,0.518,0.554,1.951,0.73,1.774
		c0.085-0.084-0.04-0.596-0.276-1.137C71.053,123.194,70.849,122.907,70.836,123.097 M77.667,124.36
		c0,0.322,0.033,0.585,0.074,0.585c0.04,0,0.214-0.263,0.386-0.585c0.24-0.448,0.223-0.585-0.073-0.585
		C77.841,123.775,77.667,124.038,77.667,124.36 M80.765,123.994c0.014,0.67,0.509,0.964,0.659,0.391
		c0.106-0.403,0.021-0.608-0.252-0.608C80.946,123.775,80.763,123.873,80.765,123.994 M81.807,124.263
		c-0.261,0.678,0.128,0.958,1.075,0.771c0.928-0.182,1.007-0.438,0.31-1.005c-0.272-0.221-0.406-0.252-0.296-0.069
		c0.237,0.396-0.592,1.169-0.899,0.839c-0.116-0.125-0.047-0.284,0.154-0.356c0.417-0.149,0.499-0.667,0.104-0.667
		C82.111,123.775,81.91,123.994,81.807,124.263 M76.535,124.813c-0.275,0.42-0.918,0.944-1.429,1.168
		c-0.554,0.241-0.721,0.409-0.413,0.416c0.583,0.013,2.798-1.895,2.522-2.169C77.117,124.13,76.811,124.393,76.535,124.813
		 M88.828,125.024c-0.471,0.455-1.492,1.101-2.268,1.435c-0.775,0.333-1.41,0.719-1.41,0.856c0,0.524,3.747-1.297,3.996-1.944
		c0.202-0.528,0.978-0.563,0.978-0.045c0,0.209-0.164,0.565-0.365,0.79c-0.312,0.349-0.29,0.352,0.146,0.023
		c0.597-0.452,0.671-1.302,0.146-1.681C89.804,124.281,89.407,124.465,88.828,125.024 M71.777,126.604
		c-0.088,0.228-0.077,0.497,0.023,0.597c0.1,0.1,0.182-0.037,0.182-0.305c0-0.58,0.321-0.625,0.863-0.122
		c0.253,0.233,0.325,0.244,0.203,0.023c-0.105-0.187-0.026-0.397,0.176-0.47c0.202-0.071-0.005-0.131-0.46-0.134
		S71.864,126.375,71.777,126.604 M75.692,126.6c-0.105,0.104-0.687,0.288-1.292,0.403c-1.042,0.202-1.053,0.218-0.206,0.247
		c0.493,0.021,1.151-0.159,1.463-0.396c0.313-0.236,0.492-0.435,0.398-0.439C75.961,126.412,75.798,126.495,75.692,126.6
		 M83.281,127.707c-0.465,0.205-0.728,0.438-0.585,0.52c0.418,0.232,2.199-0.351,2.008-0.657
		C84.49,127.222,84.347,127.236,83.281,127.707 M80.541,128.65c-0.684,0.242-1.243,0.575-1.243,0.74s0.164,0.236,0.365,0.161
		c0.202-0.073,0.86-0.313,1.464-0.527c0.603-0.216,1.097-0.498,1.097-0.626C82.224,128.094,82.033,128.122,80.541,128.65
		 M77.762,129.691c-0.815,0.281-1.111,0.822-0.439,0.803c0.578-0.016,1.789-0.768,1.502-0.932
		C78.683,129.48,78.204,129.538,77.762,129.691 M81.346,130.066c-0.402,0.229-0.6,0.418-0.439,0.418
		c0.161,0,0.622-0.188,1.024-0.418c0.403-0.23,0.6-0.418,0.439-0.418C82.209,129.648,81.748,129.836,81.346,130.066 M73.027,130.472
		c-0.306,0.493,0.665,0.967,1.577,0.767c1.356-0.298,1.075-0.771-0.325-0.547c-0.883,0.141-1.159,0.102-1.007-0.145
		c0.114-0.185,0.142-0.337,0.062-0.337C73.253,130.212,73.115,130.329,73.027,130.472"/>
	<path id="path5" fill="#FFBE98" d="M67.055,0.639c-0.699,0.154-1.214,0.34-1.145,0.406c0.068,0.069,0.969-0.059,2.001-0.283
		c1.032-0.228,1.548-0.41,1.145-0.409C68.654,0.354,67.753,0.483,67.055,0.639 M74.909,0.789c0.241,0.087,0.998,0.398,1.682,0.692
		c0.684,0.294,1.244,0.479,1.244,0.41c0-0.251-2.335-1.307-2.842-1.283C74.588,0.626,74.569,0.667,74.909,0.789 M178.371,1.399
		c-0.555-0.295-0.572-0.279-0.195,0.178 M178.176,1.577 M62.018,3.438L61.01,4.535l1.097-1.008c0.603-0.555,1.097-1.048,1.097-1.097
		C63.204,2.206,62.956,2.417,62.018,3.438 M80.898,7.169c-0.076,0.241-0.202,0.645-0.28,0.895c-0.079,0.25-0.029,0.383,0.111,0.297
		s0.318-0.488,0.395-0.895C81.277,6.666,81.12,6.459,80.898,7.169 M74.701,7.974c-1.108,1.211-2.415,5.469-2.425,7.898
		c-0.005,1.109-1.449,0.063-1.616-1.17c-0.274-2.028-0.733-3.34-1.119-3.201c-0.186,0.067-0.698-0.061-1.138-0.283
		c-2.292-1.155-2.738,3.398-0.635,6.496c1.49,2.197-2.975,6.569-4.988,4.885c-0.44-0.369-0.415-0.293,0.094,0.282
		c1.166,1.321,0.283,3.158-1.52,3.161c-1.27,0.002-3.059,0.527-3.336,0.979c-0.125,0.204-1.346,0.743-2.714,1.195
		c-1.368,0.455-2.619,0.928-2.78,1.049s-0.736,0.313-1.277,0.431c-0.911,0.195-0.973,0.279-0.834,1.136
		c0.146,0.904,0.092,0.956-2.351,2.237c-13.655,7.164-14.099,11.338-2.723,25.59c1.537,1.926,2.961,3.729,3.163,4.002
		c0.362,0.492,0.212,1.369-1.08,6.313c-0.172,0.656-0.136,1.031,0.12,1.246c0.278,0.229,0.34,0.145,0.256-0.357
		c-0.136-0.814,1.105-5.594,1.502-5.788c0.158-0.077,0.367,0.35,0.465,0.949c0.121,0.744,0.626,1.58,1.589,2.634
		c0.777,0.849,1.517,1.663,1.645,1.809c0.136,0.156,0.408,0.119,0.66-0.09c0.336-0.277,0.554-0.275,1.013,0.012
		c0.457,0.283,0.677,0.286,1.01,0.011c0.234-0.194,0.618-0.279,0.854-0.188c0.698,0.27,1.269-0.632,0.779-1.226
		c-0.314-0.38-0.321-0.514-0.036-0.61c0.628-0.212,0.404-0.991-0.659-2.288c-1.197-1.461-1.262-1.808-0.365-1.936
		c1.923-0.273,0.263-1.329-2.172-1.381c-1.542-0.033-3.986-2.93-3.607-4.272c0.318-1.128,1.023-5.271,0.995-5.852
		c-0.016-0.322-0.315,0.857-0.665,2.625l-0.637,3.21l-0.614-0.869c-1.048-1.484-4.78-8.297-5.383-9.826
		c-1.173-2.976-0.902-3.354,4.157-5.83c3.456-1.688,3.684-1.729,3.57-0.647c-0.234,2.224-0.286,10.368-0.061,9.583
		c0.138-0.483,0.314-3.052,0.391-5.706c0.145-4.989,0.121-4.896,1.457-5.706c0.429-0.262,0.334-0.594-0.854-3.015
		c-1.26-2.563-2.21-4.68-2.21-4.919c0-0.174,2.032-0.989,4.609-1.852c1.328-0.443,2.645-1.015,2.927-1.271
		c1.717-1.554,5.692-1.561,7.405-0.014c2.309,2.086,4.958,6.76,5.821,10.271c0.598,2.431,0.784,2.297,0.307-0.222
		c-0.295-1.554-2.278-5.855-3.138-6.807c-0.408-0.45-0.418-0.667-0.08-1.69c0.56-1.696,0.929-1.91,2.342-1.344
		c3.122,1.249,4.955,0.309,6.978-3.579c1.035-1.989,1.347-2.351,2.372-2.754c1.355-0.532,1.497-1.145,0.708-3.035
		c-0.614-1.469-1.086-8.544-0.613-9.18c0.27-0.364,0.256-0.376-0.084-0.073c-0.655,0.584-1.128,0.437-2.088-0.659
		C76.991,7.09,75.642,6.944,74.701,7.974 M59.588,8.547c-0.099,0.369-0.168,0.936-0.154,1.255c0.014,0.322,0.145,0.072,0.293-0.556
		C60.012,8.03,59.89,7.418,59.588,8.547 M59.421,13.777c0.011,0.711,0.13,1.556,0.264,1.878c0.148,0.353,0.182-0.111,0.086-1.171
		C59.58,12.37,59.392,11.992,59.421,13.777 M60.445,18.727c0.105,0.4,0.308,0.855,0.451,1.01c0.418,0.447,0.29-0.195-0.202-1.01
		l-0.44-0.731L60.445,18.727 M71.128,42.135c-0.207,1.207-0.626,3.248-0.93,4.536c-0.574,2.434-0.683,3.296-0.377,2.99
		c0.161-0.161,0.764-2.861,1.603-7.178c0.166-0.854,0.252-1.776,0.191-2.048C71.555,40.164,71.335,40.929,71.128,42.135
		 M88.746,44.833c-0.162,0.207-0.528,0.999-0.813,1.761c-0.285,0.764-0.666,1.506-0.846,1.649
		c-1.165,0.934-13.526,3.842-16.331,3.842c-1.086,0-1.115-0.026-1.15-1.097l-0.035-1.098l-0.291,1.315
		c-2.389,10.788-3.178,15-2.733,14.589c0.111-0.103,0.384-1.309,0.606-2.68c0.796-4.919,0.949-5.179,3.036-5.179
		c1.548,0,3.898-0.665,7.856-2.224c8.509-3.349,9.517-3.67,10.916-3.479c1.935,0.262,5.657-1.232,5.791-2.325
		c0.051-0.413,0.231-0.751,0.4-0.751c0.171,0,0.245-0.328,0.166-0.739c-0.077-0.404-0.027-0.809,0.113-0.895
		c0.389-0.24,0.3-1.288-0.113-1.326c-0.201-0.019-0.535-0.052-0.741-0.073c-0.207-0.021-0.494-0.229-0.64-0.466
		c-0.248-0.401-1.902-0.182-3.718,0.491c-0.199,0.074-0.384-0.21-0.439-0.677C89.674,44.568,89.19,44.269,88.746,44.833
		 M65.822,69.066c-0.25,1.959-0.277,3.034-0.081,3.229c0.195,0.196,0.305-0.124,0.33-0.961c0.021-0.688,0.122-2.142,0.224-3.229
		C66.582,65.074,66.243,65.762,65.822,69.066 M10.189,100.51c-0.232,0.511-0.242,0.929-0.032,1.391
		c0.263,0.582,0.313,0.494,0.413-0.729C10.701,99.582,10.651,99.496,10.189,100.51 M7.662,101.134
		c-0.68,0.739,0.61,5.104,1.304,4.408c0.107-0.104-0.018-1.018-0.278-2.024c-0.259-1.011-0.509-2.053-0.556-2.317
		C8.059,100.783,7.994,100.774,7.662,101.134 M13.46,106.934c0,0.412-0.183,0.492-0.878,0.392c-0.483-0.071-0.878-0.02-0.878,0.113
		s0.237,0.242,0.527,0.242s0.668,0.141,0.841,0.313c0.224,0.224,0.371,0.087,0.512-0.473c0.108-0.435,0.125-0.86,0.037-0.948
		C13.532,106.485,13.46,106.647,13.46,106.934 M11.772,108.998c-0.048,0.573,0.081,0.738,0.594,0.761
		c0.619,0.027,0.615,0.04-0.076,0.237l-0.732,0.208l0.636,0.346c0.888,0.484,1.364-1.272,0.513-1.896
		C11.97,108.114,11.841,108.161,11.772,108.998 M81.083,123.684c0.322,0.08,0.437,0.364,0.365,0.907l-0.105,0.791l0.319-0.805
		c0.308-0.779,0.854-1.104,0.854-0.512c0,0.161-0.131,0.293-0.292,0.293c-0.161,0-0.293,0.132-0.293,0.293
		c0,0.534,0.638,0.302,0.792-0.29c0.084-0.32,0.271-0.508,0.417-0.418c0.145,0.089,0.186,0.317,0.091,0.508
		c-0.095,0.19,0.011,0.122,0.236-0.152c0.295-0.356,0.975-0.524,2.436-0.599c1.115-0.055,0.381-0.109-1.631-0.118
		S80.826,123.62,81.083,123.684 M77.333,124.248c0.447,0.447-2.194,2.16-3.33,2.16c-0.628,0-1.143-0.131-1.143-0.292
		s-0.263-0.293-0.585-0.293c-0.322,0-0.585,0.128-0.585,0.283c0,0.156,0.176,0.216,0.392,0.133c0.215-0.082,0.561,0.053,0.767,0.302
		c0.805,0.97,2.786,0.458,4.181-1.081c0.863-0.951,1.01-1.393,0.463-1.393C77.306,124.067,77.233,124.149,77.333,124.248
		 M78.079,128.128c0.308,0.195,0.282,0.288-0.123,0.444c-0.283,0.108-0.59,0.086-0.683-0.05c-0.093-0.138-0.697-0.085-1.34,0.112
		c-0.644,0.198-0.933,0.371-0.641,0.385c0.291,0.013,0.444,0.16,0.341,0.327c-0.232,0.375,1.124,0.078,2.256-0.49
		c1.078-0.542,1.292-0.986,0.475-0.98C77.882,127.879,77.8,127.951,78.079,128.128 M73.609,129.471
		c0.312,0.235,0.766,0.424,1.007,0.414c0.3-0.009,0.323-0.06,0.071-0.16c-0.202-0.081-0.293-0.27-0.202-0.416
		c0.091-0.147-0.197-0.269-0.639-0.269C73.075,129.042,73.065,129.06,73.609,129.471"/>
</g>
</svg>
