<?xml version="1.0" encoding="utf-8"?>
<!-- Generator: Adobe Illustrator 12.0.0, SVG Export Plug-In . SVG Version: 6.00 Build 51448)  -->
<!DOCTYPE svg PUBLIC "-//W3C//DTD SVG 1.1//EN" "http://www.w3.org/Graphics/SVG/1.1/DTD/svg11.dtd" [
	<!ENTITY ns_svg "http://www.w3.org/2000/svg">
	<!ENTITY ns_xlink "http://www.w3.org/1999/xlink">
]>
<svg  version="1.1" id="svg" xmlns="&ns_svg;" xmlns:xlink="&ns_xlink;" width="400" height="292.4" viewBox="0 0 400 292.4"
	 overflow="visible" enable-background="new 0 0 400 292.4" xml:space="preserve">
<g id="svgg">
	<path id="path1" fill="#790800" d="M270.889,156.831c-3.802,0.69-6.424,2.386-7.521,4.864c-2.699,6.103-0.306,17.821,3.437,16.813
		c2.28-0.612,4.332-3.697,3.127-4.698c-1.209-1.004-1.654-5.637-0.639-6.651c1.242-1.242,3.708,0.515,3.719,2.649
		c0.006,1.466,0.309,2.249,0.872,2.249c0.523,0,0.867-0.771,0.874-1.961c0.029-4.694,3.633-8.283,5.817-5.796
		c2.041,2.325,3.583-0.198,1.929-3.157C280.52,157.592,275.982,155.908,270.889,156.831 M250.768,226.052
		c0,0.246,0.231,0.521,0.512,0.611c0.283,0.09,0.777,0.28,1.099,0.422c2.979,1.313,16.826,1.722,16.826,0.496
		c0-0.161-0.293-0.207-0.659-0.104c-2.746,0.776-14.04,0.267-15.289-0.69c-0.16-0.124-0.652-0.311-1.097-0.417
		c-0.443-0.104-0.806-0.322-0.806-0.479c0-0.158-0.131-0.287-0.293-0.287C250.9,225.604,250.768,225.805,250.768,226.052
		 M239.576,250.677c-0.631,0.165-0.672,1.744-0.114,4.341c0.374,1.737,0.349,2.48-0.084,2.48c-0.458,0-1.237-1.976-1.616-4.096
		c-0.354-1.99-0.394-2.071-0.422-0.867c-0.018,0.731,0.176,2.114,0.432,3.073c0.254,0.959,0.891,3.471,1.412,5.581
		c1.293,5.218,2.816,8.161,3.215,6.206c0.475-2.316,0.427-4.897-0.094-5.063c-0.416-0.132-0.512-0.429-0.453-1.404
		c0.041-0.68,0.09-1.472,0.106-1.759c0.024-0.391,0.235-0.502,0.836-0.438c1.323,0.138,1.218-0.936-0.228-2.291
		c-1.987-1.866-2.576-3.682-1.61-4.958C241.695,250.506,241.242,250.242,239.576,250.677 M235.625,251.84
		c-0.62,0.25,0.575,5.024,2.846,11.364c0.346,0.966,0.817,2.334,1.049,3.041c0.42,1.289,0.906,2.08,1.278,2.08
		c0.109,0-0.218-0.889-0.728-1.975c-0.51-1.088-1.213-3.228-1.563-4.757c-0.349-1.527-0.886-3.636-1.191-4.682
		c-0.307-1.046-0.643-2.659-0.743-3.585C236.389,251.656,236.326,251.557,235.625,251.84 M232.484,278.854l-0.836,0.872l1.586,1.542
		c0.873,0.847,1.949,1.836,2.391,2.196c0.898,0.732,1.041,1.245,0.348,1.245c-0.711,0-1.592-0.546-3.42-2.12
		c-0.925-0.797-1.682-1.313-1.682-1.15c0,1.365,13.29,10.582,14.096,9.774c0.549-0.548-2.66-4.766-3.47-4.562
		c-0.461,0.115-0.679,0.042-0.679-0.23c0-0.221-0.262-0.563-0.584-0.766s-0.586-0.551-0.586-0.778c0-0.226-0.164-0.479-0.365-0.561
		c-0.247-0.103-0.137-0.334,0.338-0.718c1.332-1.078,0.669-1.543-2.811-1.973c-2.078-0.256-3.895-2.168-3.17-3.339
		C234.036,277.65,233.289,278.014,232.484,278.854 M229.855,282.595c-0.43,1.104,13.734,10.579,14.568,9.744
		c0.2-0.197,0.113-0.351-0.265-0.465c-1.519-0.459-4.022-1.945-6.406-3.805c-1.452-1.132-3.188-2.426-3.854-2.875
		c-0.668-0.449-1.59-1.206-2.047-1.683C230.611,282.226,230.091,281.986,229.855,282.595"/>
	<path id="path2" fill="#005E84" d="M250.768,227.094c0,0.309,0.188,1.712,0.414,3.118c1.5,9.28,2.541,16.764,2.369,17.04
		c-0.078,0.127-0.638,0.323-1.242,0.437c-3.377,0.627-8.735,2.513-9.843,3.463c-1.427,1.226-0.465,4.593,1.312,4.593
		c0.314,0,0.709,0.314,0.889,0.706c0.316,0.695,0.346,0.7,1.676,0.285c2.124-0.661,5.068-1.326,5.217-1.179
		c0.072,0.072-1.074,1.362-2.552,2.866c-1.478,1.503-3.429,3.563-4.338,4.574c-1.539,1.713-1.667,1.795-1.844,1.171
		c-0.112-0.392-0.203,0.143-0.222,1.283c-0.019,1.285-0.174,2.1-0.453,2.379c-0.233,0.234-0.332,0.54-0.219,0.679
		c0.112,0.142-0.187-0.072-0.664-0.477c-0.479-0.402-0.691-0.501-0.477-0.219c0.45,0.586,0.05,0.693-0.541,0.146
		c-0.217-0.201-0.316-0.225-0.221-0.053c0.095,0.172-0.051,0.649-0.323,1.063s-1.133,1.698-1.911,2.856
		c-3.158,4.697-3.833,6.744-2.626,7.951c0.714,0.714,2.988,1.225,3.515,0.789c0.193-0.16,0.603-0.212,0.906-0.116
		c0.436,0.139,0.793-0.187,1.667-1.512c1.794-2.723,3.233-4.385,7.293-8.418c4.31-4.283,4.673-4.61,8.948-8.053
		c4.422-3.56,5.163-4.396,5.79-6.523l0.532-1.812l7.445-0.178c7.713-0.185,7.899-0.211,9.709-1.337
		c4.315-2.688,3.278-5.413-6.994-18.382l-4.869-6.146l-5.875,0.102c-5.674,0.097-9.787-0.326-10.859-1.117
		C251.632,226.525,250.768,226.535,250.768,227.094 M269.038,243.888c1.263,1.542,1.333,1.488-2.376,1.743l-2.98,0.205l-0.094-3.168
		c-0.051-1.742-0.046-3.331,0.012-3.53C263.723,238.71,267.493,242.003,269.038,243.888 M241.111,254.956
		c0,0.051,0.429,0.479,0.951,0.951l0.951,0.86l-0.859-0.951C241.354,254.929,241.111,254.73,241.111,254.956 M238.948,264.4
		c-0.099,0.255-0.066,0.664,0.071,0.91c0.219,0.391,0.271,0.386,0.437-0.041c0.119-0.313,0.071-0.415-0.134-0.288
		c-0.215,0.132-0.256-0.008-0.124-0.424C239.426,263.84,239.214,263.706,238.948,264.4"/>
	<path id="path3" fill="#CC040F" d="M269.261,167.14c-0.192,0.191-0.351,0.479-0.351,0.641c0,0.159,0.177,0.048,0.393-0.248
		c0.299-0.407,0.602-0.49,1.244-0.34c0.622,0.145,0.732,0.119,0.411-0.1C270.368,166.695,269.688,166.713,269.261,167.14
		 M268.701,169.568c0.002,0.805,0.059,1.1,0.126,0.655c0.067-0.445,0.065-1.104-0.004-1.465
		C268.754,168.4,268.699,168.764,268.701,169.568 M264.521,181.949c-1.408,0.759-2.936,2.857-4.724,6.493
		c-0.832,1.688-1.813,3.52-2.183,4.065c-0.465,0.689-0.621,1.245-0.51,1.807c0.088,0.443-0.043,1.443-0.293,2.223
		c-0.252,0.778-0.541,2.073-0.646,2.878c-0.388,2.979-1.967,11.526-2.802,15.156c-0.475,2.059-0.79,3.858-0.703,3.998
		c0.086,0.14,0.044,0.299-0.096,0.353c-0.139,0.056-0.588,1.542-0.998,3.309l-0.743,3.21l0.601,0.521
		c0.331,0.287,0.838,0.521,1.124,0.521c0.288,0,0.597,0.118,0.685,0.261c0.383,0.617,6.923,1.292,10.824,1.115
		c5.319-0.24,5.31-0.234,5.515-2.89c0.091-1.18,0.45-3.563,0.796-5.296c0.833-4.16,0.938-3.938-2.337-4.936
		c-8.054-2.449-10.14-4.788-9.874-11.066c0.162-3.839,0.972-7.621,1.632-7.621c0.411,0,6.539,1.71,6.698,1.87
		c0.044,0.043-0.239,1.018-0.629,2.162c-2.004,5.896-1.688,6.686,3.856,9.581c2.576,1.345,2.089,2.029,3.761-5.272
		c2.313-10.104,2.053-12.466-2.047-18.69C268.988,181.992,266.723,180.76,264.521,181.949"/>
	<path id="path4" fill="#77ABBA" d="M261.993,168.252c0,1.529,0.049,2.154,0.108,1.392c0.062-0.767,0.062-2.018,0-2.78
		C262.042,166.097,261.993,166.723,261.993,168.252 M250.555,227.067c0,0.724,0.057,1.02,0.127,0.658c0.07-0.362,0.07-0.955,0-1.317
		S250.555,226.342,250.555,227.067 M269.204,227.723c-0.001,0.278,2.052,3.088,4.562,6.238c10.43,13.104,11.535,15.961,7.209,18.655
		c-1.809,1.126-1.996,1.152-9.699,1.337c-6.262,0.15-7.457,0.248-7.558,0.617c-0.081,0.295-0.04,0.328,0.123,0.1
		c0.168-0.234,2.464-0.372,7.558-0.446c8.858-0.135,10.438-0.626,11.74-3.666c1.275-2.984,0.219-4.95-8.764-16.313
		c-2.421-3.063-4.575-5.896-4.786-6.301C269.309,227.41,269.206,227.35,269.204,227.723 M250.947,230.139
		c0.086,0.966,0.273,2.217,0.416,2.778c0.203,0.805,0.227,0.646,0.104-0.73c-0.086-0.965-0.273-2.216-0.416-2.78
		C250.848,228.604,250.824,228.76,250.947,230.139 M251.988,236.723c-0.008,0.563,0.17,1.944,0.393,3.07l0.407,2.048l-0.165-1.9
		c-0.09-1.046-0.268-2.428-0.393-3.072l-0.229-1.17L251.988,236.723 M263.527,239.235c-0.262,0.683-0.207,0.914,0.102,0.426
		c0.214-0.337,0.873,0.167,3.135,2.396c1.575,1.553,2.803,2.882,2.727,2.952c-0.077,0.072-1.325,0.181-2.774,0.238l-2.633,0.106
		l-0.167-2.195l-0.167-2.194l-0.053,2.438l-0.054,2.438l3-0.207c3.731-0.256,3.658-0.202,2.396-1.744
		C267.18,241.621,263.73,238.708,263.527,239.235 M252.877,242.868c-0.006,0.402,0.085,1.502,0.202,2.444
		c0.142,1.132,0.108,1.747-0.099,1.813c-0.17,0.058-0.883,0.249-1.584,0.43c-1.75,0.447-1.414,0.596,0.494,0.218
		c1.895-0.376,1.895-0.377,1.396-3.295C253.066,243.189,252.883,242.465,252.877,242.868 M247.842,248.491
		c-0.563,0.168-0.891,0.354-0.727,0.414c0.162,0.061,0.887-0.075,1.609-0.301c0.721-0.228,1.049-0.413,0.727-0.414
		S248.404,248.324,247.842,248.491 M244.335,249.771c-1.043,0.399-2.004,0.921-2.136,1.154c-0.131,0.234-0.381,0.428-0.553,0.428
		c-0.209,0-0.201-0.138,0.028-0.413c0.351-0.422-0.104-1.022-0.485-0.642c-0.098,0.098-0.002,0.177,0.211,0.177
		c0.269,0,0.217,0.193-0.17,0.636c-0.308,0.35-0.394,0.539-0.191,0.422c0.27-0.158,0.365,0.132,0.365,1.11
		c0,1.439,1.324,3.392,2.302,3.392c0.267,0,0.617,0.296,0.778,0.658c0.347,0.784,0.396,0.782,3.93-0.186l2.768-0.757l-2.026,2.044
		c-1.115,1.124-1.912,2.043-1.771,2.043c0.338,0,4.342-4.111,4.17-4.284c-0.146-0.146-3.097,0.521-5.214,1.181
		c-1.331,0.415-1.358,0.41-1.676-0.285c-0.179-0.392-0.573-0.706-0.888-0.706c-0.896,0-2.08-1.631-2.08-2.867
		c0-1.336,0.888-2.16,3.266-3.024c0.939-0.345,1.709-0.674,1.709-0.73C246.672,248.919,246.232,249.041,244.335,249.771
		 M238.891,250.881c-0.086,0.225-0.113,0.98-0.059,1.684c0.095,1.234,0.102,1.223,0.238-0.405
		C239.212,250.45,239.17,250.151,238.891,250.881 M236.809,251.294c-0.263,0.167-0.283,0.706-0.078,2.117
		c0.149,1.041,0.275,2.02,0.278,2.171c0.005,0.174,0.111,0.173,0.287-0.003c0.177-0.176,0.181-0.979,0.015-2.159
		c-0.146-1.032-0.199-1.984-0.117-2.119C237.377,251.004,237.268,251.002,236.809,251.294 M235.593,255.157
		c0,0.242,0.114,0.703,0.253,1.024c0.157,0.367,0.25,0.423,0.25,0.146c0-0.242-0.113-0.703-0.25-1.022
		C235.686,254.935,235.593,254.881,235.593,255.157 M263.129,256.438c-0.213,0.798-0.763,1.73-1.383,2.352
		c-0.566,0.566-1.029,1.126-1.029,1.243s0.459-0.232,1.02-0.776c1.012-0.978,2.074-3.156,1.857-3.806
		C263.533,255.266,263.324,255.711,263.129,256.438 M237.318,256.255c0.039,0.851,1.102,3.915,1.266,3.651
		c0.249-0.404-0.371-2.993-0.716-2.993c-0.138,0-0.173-0.198-0.081-0.438c0.093-0.241,0.023-0.439-0.155-0.439
		C237.454,256.035,237.313,256.134,237.318,256.255 M242.795,259.163c-0.443,0.116-0.456,0.189-0.094,0.551
		c0.564,0.565,0.724,0.526,0.671-0.168c-0.024-0.319-0.049-0.567-0.056-0.551C243.311,259.014,243.076,259.089,242.795,259.163
		 M241.907,260.497c-0.189,0.528,0.323,1.391,0.825,1.391c0.233,0,0.428-0.132,0.428-0.292s-0.189-0.294-0.422-0.294
		c-0.231,0-0.512-0.146-0.621-0.322c-0.135-0.22,0.003-0.261,0.421-0.126c0.714,0.226,0.86-0.274,0.159-0.543
		C242.078,260.072,242.059,260.076,241.907,260.497 M245.208,261.95c-0.885,0.979-1.79,2.057-2.01,2.395
		c-0.222,0.34,0.09,0.09,0.69-0.556c0.6-0.643,1.631-1.729,2.291-2.414c0.658-0.684,1.071-1.233,0.918-1.225
		C246.943,260.161,246.094,260.969,245.208,261.95 M257.938,262.071c-1.287,1.05-3.064,2.521-3.951,3.271
		c-1.865,1.584-8.813,8.312-8.698,8.426c0.042,0.042,1.705-1.503,3.692-3.437c1.99-1.932,5.31-4.892,7.375-6.578
		c3.244-2.646,4.385-3.671,4.014-3.606C260.318,260.155,259.225,261.021,257.938,262.071 M238.479,260.876
		c0,0.768,1.014,3.92,1.198,3.734c0.278-0.278-0.62-3.895-0.968-3.895C238.582,260.717,238.479,260.789,238.479,260.876
		 M239.648,265.267c0,0.408,1.017,2.057,1.689,2.737l0.748,0.76l-0.486-0.732c-0.271-0.402-0.701-1.225-0.959-1.829
		C240.244,265.277,239.648,264.715,239.648,265.267 M238.693,270.007c-1.59,2.196-3.188,4.808-3.035,4.959
		c0.076,0.076,0.302-0.169,0.5-0.544c0.349-0.663,2.414-3.808,3.38-5.146c0.261-0.362,0.403-0.659,0.317-0.659
		S239.246,269.243,238.693,270.007 M243.579,275.73c-1.466,1.872-3.711,5.177-3.517,5.177c0.08,0,0.564-0.625,1.082-1.39
		c0.516-0.766,1.646-2.279,2.514-3.365s1.471-1.968,1.344-1.959C244.874,274.202,244.234,274.894,243.579,275.73 M234.674,276.518
		c-0.372,0.729-0.801,1.17-1.14,1.17c-0.3,0-0.718,0.229-0.931,0.512c-0.33,0.436-0.326,0.458,0.021,0.147
		c0.578-0.518,1.104-0.454,1.264,0.146c0.09,0.35,0.146,0.281,0.172-0.219c0.029-0.597,0.094-0.65,0.338-0.293
		c0.268,0.39,0.293,0.39,0.242,0c-0.055-0.396,0.393-1.737,0.791-2.383c0.086-0.14,0.084-0.251-0.002-0.251
		C235.343,275.347,235.003,275.874,234.674,276.518 M234.382,279.119c0,0.278,1.431,1.641,1.544,1.472
		c0.047-0.065-0.283-0.477-0.73-0.907C234.748,279.25,234.382,278.996,234.382,279.119 M231.602,279.446
		c-0.102,0.162,0.504,0.985,1.344,1.829l1.527,1.534l-1.377-1.54c-0.758-0.849-1.297-1.67-1.199-1.829
		c0.1-0.159,0.113-0.289,0.033-0.289S231.701,279.284,231.602,279.446 M234.896,280.834c0.379,0.362,0.912,0.65,1.185,0.642
		c0.329-0.015,0.252-0.116-0.229-0.31c-0.398-0.159-0.933-0.446-1.186-0.64C234.414,280.333,234.518,280.472,234.896,280.834
		 M236.43,280.728c0,0.062,0.389,0.17,0.863,0.237c0.475,0.07,0.795,0.021,0.714-0.111
		C237.861,280.62,236.43,280.505,236.43,280.728 M230.369,281.419c0.162,1.04,3.22,3.865,3.57,3.298
		c0.103-0.166-0.043-0.391-0.326-0.499c-0.281-0.106-0.896-0.634-1.364-1.168c-0.47-0.532-1.003-0.884-1.188-0.776
		c-0.185,0.104-0.237,0.084-0.119-0.047c0.119-0.134,0.07-0.417-0.108-0.635c-0.411-0.493,0.075-0.516,0.624-0.025
		c0.35,0.312,0.354,0.29,0.021-0.146c-0.213-0.279-0.566-0.512-0.789-0.512C230.471,280.907,230.325,281.138,230.369,281.419
		 M237.381,281.694c0.282,0.074,0.743,0.074,1.023,0c0.283-0.074,0.052-0.134-0.512-0.134
		C237.33,281.56,237.1,281.62,237.381,281.694 M232.334,282.169c0,0.05,0.428,0.479,0.951,0.951l0.951,0.86l-0.86-0.951
		C232.575,282.142,232.334,281.943,232.334,282.169 M239.555,284.345c0.627,0.46,0.823,0.459,1.211-0.01
		c0.242-0.293,0.088-0.373-0.701-0.364C239.184,283.978,239.118,284.027,239.555,284.345 M240.049,285.358
		c0.201,0.322,0.381,0.388,0.506,0.185c0.107-0.174,0.354-0.414,0.547-0.533c0.198-0.12-0.022-0.201-0.506-0.185
		C239.861,284.853,239.782,284.93,240.049,285.358 M234.67,285.585c0.4,0.304,0.786,0.49,0.857,0.418
		c0.211-0.211-0.508-0.811-1.069-0.893C234.073,285.054,234.127,285.174,234.67,285.585 M240.979,285.569
		c-0.201,0.323,0.263,0.672,0.531,0.402c0.278-0.278,0.227-0.677-0.088-0.677C241.27,285.296,241.07,285.419,240.979,285.569
		 M235.85,286.056c-0.008,0.523,1.08,1.372,1.301,1.013c0.107-0.173-0.045-0.402-0.336-0.51c-0.291-0.108-0.627-0.337-0.746-0.512
		C235.917,285.827,235.854,285.829,235.85,286.056 M237.602,287.783c0.199,0.242,0.562,0.439,0.803,0.439
		c0.357,0,0.371-0.082,0.074-0.439c-0.201-0.241-0.562-0.438-0.804-0.438C237.318,287.345,237.305,287.426,237.602,287.783
		 M236.869,288.667c0.322,0.264,0.849,0.605,1.171,0.765l0.585,0.286l-0.585-0.477c-0.322-0.262-0.849-0.606-1.171-0.764
		l-0.585-0.287L236.869,288.667 M238.917,288.808c0.101,0.159,0.298,0.292,0.44,0.292c0.145,0,0.613,0.325,1.045,0.726
		c0.431,0.4,0.904,0.652,1.05,0.563c0.147-0.093-0.265-0.551-0.912-1.021C239.371,288.522,238.57,288.245,238.917,288.808
		 M241.869,290.522c-0.182,0.293,1.686,1.212,2.462,1.212c0.407,0,0.521,0.144,0.401,0.512c-0.14,0.434-0.115,0.443,0.15,0.073
		c0.452-0.629,0.398-0.878-0.191-0.878c-0.283,0-1.002-0.26-1.596-0.579C242.502,290.544,241.95,290.391,241.869,290.522"/>
	<path id="path5" fill="#FFBE98" d="M272.348,156.469c0.686,0.063,1.803,0.063,2.487,0c0.685-0.062,0.125-0.11-1.243-0.11
		C272.225,156.357,271.664,156.407,272.348,156.469 M266.261,157.959c-1.348,0.856-3.202,2.771-3.202,3.303
		c0,0.17,0.434-0.265,0.963-0.961c0.528-0.695,1.677-1.693,2.547-2.218c0.871-0.521,1.451-0.951,1.289-0.951
		S266.977,157.504,266.261,157.959 M280.322,158.102c0,0.05,0.428,0.478,0.951,0.949l0.951,0.859l-0.861-0.951
		C280.563,158.075,280.322,157.876,280.322,158.102 M262.361,163.142c-0.101,0.262-0.17,0.693-0.156,0.964
		c0.014,0.268,0.141,0.1,0.283-0.375C262.764,162.807,262.666,162.35,262.361,163.142 M277.65,163.77
		c-1.272,0.79-2.89,4.786-2.89,7.146c0,2.188-1.614,1.678-1.852-0.584c-0.248-2.375-0.361-2.555-1.865-2.976
		c-2.517-0.704-3.088,3.385-0.91,6.513c0.991,1.424-0.327,3.415-3.063,4.626c-0.766,0.338-1.322,0.73-1.236,0.87
		c0.27,0.434-0.465,1.677-1.232,2.088c-1.428,0.764-3.396,3.342-4.891,6.403c-0.824,1.688-1.882,3.665-2.35,4.389
		c-0.467,0.724-0.827,1.604-0.801,1.955c0.026,0.352-0.42,1.471-0.996,2.488c-2.696,4.766-3.389,8.294-2.144,10.941
		c0.371,0.791,0.64,1.834,0.595,2.317c-0.306,3.237,1.531-5.751,2.152-10.534c0.104-0.805,0.395-2.1,0.646-2.878
		c0.25-0.778,0.381-1.778,0.293-2.223c-0.115-0.576,0.053-1.126,0.582-1.905c0.41-0.603,1.195-2.087,1.748-3.298
		c4.012-8.802,7.729-9.886,11.944-3.483c4.093,6.214,4.406,8.693,2.271,17.98c-0.678,2.95-1.232,5.571-1.232,5.828
		c0,1.065,0.385-0.063,0.934-2.758c0.324-1.58,0.775-3.73,1.006-4.776c1.758-8.009,1.322-10.744-2.601-16.284
		c-1.339-1.892-0.819-2.922,0.999-1.981c2.897,1.498,5.287,0.255,7.508-3.91c0.756-1.419,1.149-1.845,1.963-2.111
		c1.443-0.479,1.633-0.996,1.013-2.799c-0.698-2.029-0.983-9.032-0.388-9.526c0.217-0.18,0.395-0.473,0.395-0.648
		c0-0.179-0.205-0.029-0.456,0.327c-0.633,0.905-0.991,0.822-2.254-0.521C279.335,163.169,278.816,163.047,277.65,163.77
		 M262.076,171.909c0.098,0.644,0.292,1.368,0.429,1.61c0.304,0.529-0.008-1.339-0.364-2.195
		C261.986,170.955,261.963,171.171,262.076,171.909 M263.079,175.421c0,0.161,0.188,0.621,0.418,1.024
		c0.229,0.402,0.418,0.6,0.418,0.438c0-0.159-0.188-0.622-0.418-1.022C263.268,175.457,263.079,175.26,263.079,175.421
		 M258.834,198.171c-2.415,9.617-0.132,13.729,9.198,16.566c3.198,0.973,3.127,0.854,2.504,4.142
		c-0.519,2.732-0.576,3.564-0.207,2.982c0.397-0.627,1.729,0.084,2.194,1.172c0.558,1.298,4.606,3.447,5.346,2.835
		c0.254-0.211,0.738-0.426,1.079-0.478c0.339-0.053,0.717-0.257,0.838-0.452c0.122-0.197,0.358-0.375,0.524-0.396
		c0.168-0.02,0.436-0.053,0.597-0.073c0.389-0.049,0.379-1.205-0.011-1.205c-0.168,0-0.268-0.355-0.221-0.788
		c0.069-0.649-0.121-0.908-1.087-1.473c-2.226-1.299-2.091-1.143-1.528-1.764c0.277-0.307,0.506-0.713,0.506-0.902
		c0-0.425,0.142-0.422,1.658,0.031c0.67,0.201,1.537,0.71,1.928,1.132c1.074,1.159,5.627,2.153,5.953,1.301
		c0.088-0.227,0.463-0.487,0.834-0.582c0.373-0.093,0.746-0.434,0.83-0.758c0.084-0.322,0.362-0.589,0.621-0.589
		c0.58,0,0.619-1.048,0.049-1.267c-0.229-0.088-0.459-0.46-0.512-0.827c-0.076-0.526-0.437-0.771-1.705-1.158
		c-1.522-0.464-1.605-0.539-1.537-1.382c0.106-1.343-0.385-1.386-2.185-0.191l-1.634,1.085l-3.248-1.186
		c-4.948-1.808-7.198-2.898-7.203-3.489c-0.004-0.42-0.051-0.435-0.271-0.088c-0.465,0.733-6.834-2.884-7.299-4.144
		c-0.304-0.819,0.162-3.646,1.012-6.146c0.391-1.146,0.674-2.119,0.63-2.162c-0.159-0.16-6.287-1.87-6.698-1.87
		C259.509,196.05,259.188,196.76,258.834,198.171 M253.609,211.412c-0.286,0.96-0.58,3.365-0.408,3.365
		c0.23,0,0.854-3.165,0.708-3.591C253.838,210.979,253.711,211.076,253.609,211.412 M252.376,217.337
		c-0.265,1.247-0.599,2.599-0.744,3c-0.146,0.402-0.452,1.653-0.685,2.779c-0.231,1.127-0.518,2.312-0.637,2.634
		c-0.146,0.398-0.117,0.492,0.088,0.292c0.272-0.267,2.099-7.261,2.576-9.875C253.352,214.1,252.857,215.067,252.376,217.337
		 M274.543,216.74c3.081,0.878,3.273,1.019,2.048,1.503c-1.864,0.737-2.211,0.695-3.795-0.455
		C270.139,215.858,270.561,215.605,274.543,216.74 M269.77,222.702c-0.01,0.229-0.115,1.378-0.231,2.556
		c-0.118,1.179-0.129,2.194-0.022,2.26c0.226,0.14,0.646-4.858,0.426-5.077C269.855,222.355,269.779,222.474,269.77,222.702
		 M241.818,250.436c0.086,0.14-0.104,0.487-0.42,0.775c-0.731,0.661-0.765,2.356-0.065,3.362c0.812,1.168,2.702,3.1,2.704,2.762
		c0-0.169-0.157-0.465-0.35-0.658c-0.193-0.191-0.275-0.351-0.183-0.351s-0.341-0.511-0.965-1.136
		c-1.257-1.257-1.672-3.652-0.698-4.025c0.498-0.19,0.604-0.982,0.131-0.982C241.802,250.183,241.732,250.297,241.818,250.436
		 M236.883,251.037c-0.115,0.188-0.015,0.242,0.251,0.14c0.312-0.117,0.497,0.077,0.626,0.662c0.303,1.365,0.377,1.46,0.424,0.538
		c0.037-0.761,0.076-0.8,0.295-0.292c0.229,0.53,0.254,0.516,0.271-0.171c0.012-0.416-0.145-0.762-0.346-0.77
		c-0.2-0.009-0.582-0.104-0.848-0.216C237.292,250.819,236.988,250.867,236.883,251.037 M238.352,254.865
		c0.146,1.246,1.303,3.074,1.293,2.04c-0.01-1.096-0.375-1.895-0.593-1.293c-0.161,0.448-0.274,0.288-0.528-0.747l-0.322-1.317
		L238.352,254.865 M243.635,258.903c-0.092,0.148-0.533,0.227-0.98,0.171c-0.756-0.095-0.762-0.087-0.102,0.12
		c1.061,0.332,1.165,1.005,0.124,0.798c-0.788-0.156-0.797-0.146-0.175,0.178c0.835,0.438,0.861,0.944,0.036,0.684
		c-0.418-0.135-0.556-0.094-0.421,0.126c0.109,0.178,0.39,0.322,0.621,0.322s0.422,0.147,0.422,0.327
		c0,0.185-0.258,0.261-0.585,0.175c-0.322-0.086-0.585-0.05-0.585,0.077c0,0.7,1.183,0.489,1.346-0.238
		c0.096-0.43,0.289-1.231,0.43-1.785C244.021,258.852,243.957,258.383,243.635,258.903 M242.868,263.807
		c0,0.409,0.118,0.675,0.265,0.585c0.146-0.093,0.196-0.43,0.112-0.749C243.034,262.838,242.868,262.91,242.868,263.807
		 M233.797,277.396c-0.343,0.221-0.352,0.284-0.039,0.288c0.268,0.003,0.354,0.243,0.26,0.734c-0.076,0.402-0.021,0.731,0.121,0.731
		c0.146,0,0.23-0.46,0.192-1.024c-0.038-0.563-0.075-1.021-0.082-1.019C234.242,277.11,234.038,277.24,233.797,277.396
		 M234.264,279.691c-0.274,0.446,1.219,1.473,2.416,1.661c0.586,0.092,1.528,0.237,2.092,0.327c0.563,0.087,1.213,0.311,1.445,0.496
		c0.327,0.265,0.372,0.259,0.201-0.026c-0.264-0.438-1.936-1.343-2.128-1.152c-0.284,0.285-2.623-0.448-3.22-1.008
		C234.703,279.644,234.369,279.52,234.264,279.691 M231.609,280.345c0.172,0.542,0.111,0.593-0.476,0.405
		c-0.368-0.117,0.283,0.587,1.451,1.565c2.022,1.695,3.794,2.33,2.496,0.896c-0.358-0.396-0.601-0.463-0.865-0.24
		c-0.231,0.19-0.433,0.199-0.542,0.022c-0.096-0.155-0.05-0.326,0.104-0.38c0.154-0.054-0.316-0.727-1.043-1.494
		C231.872,280.21,231.48,279.94,231.609,280.345 M240.529,283.13c-0.002,0.179-0.299,0.475-0.661,0.659
		c-0.587,0.302-0.548,0.321,0.366,0.177l1.022-0.159l-0.729,0.643l-0.732,0.642l0.878-0.191c0.695-0.154,0.771-0.129,0.366,0.117
		c-0.282,0.171-0.512,0.451-0.512,0.625c0,0.197,0.162,0.179,0.445-0.058c0.244-0.204,0.541-0.273,0.657-0.158
		c0.116,0.116-0.052,0.415-0.373,0.663c-0.569,0.44-0.565,0.447,0.132,0.281c0.395-0.094,0.918-0.011,1.162,0.184
		c0.245,0.194,0.154-0.025-0.203-0.49c-0.357-0.464-0.652-0.99-0.652-1.17c-0.002-0.181-0.264-0.723-0.584-1.204
		C240.792,283.204,240.529,282.954,240.529,283.13"/>
</g>
</svg>
