<?xml version="1.0" encoding="utf-8"?>
<!-- Generator: Adobe Illustrator 12.0.0, SVG Export Plug-In . SVG Version: 6.00 Build 51448)  -->
<!DOCTYPE svg PUBLIC "-//W3C//DTD SVG 1.1//EN" "http://www.w3.org/Graphics/SVG/1.1/DTD/svg11.dtd" [
	<!ENTITY ns_svg "http://www.w3.org/2000/svg">
	<!ENTITY ns_xlink "http://www.w3.org/1999/xlink">
]>
<svg  version="1.1" id="svg" xmlns="&ns_svg;" xmlns:xlink="&ns_xlink;" width="400" height="292.4" viewBox="0 0 400 292.4"
	 overflow="visible" enable-background="new 0 0 400 292.4" xml:space="preserve">
<g id="svgg">
	<path id="path1" fill="#790800" d="M169.942,156.26c-5.407,0.854-7.723,3.719-8.038,9.943c-0.326,6.429,1.879,12.201,4.34,11.362
		c2.028-0.692,4.157-3.132,3.507-4.021c-2.59-3.538-2.013-8.221,0.893-7.247c1.355,0.454,1.916,1.577,1.973,3.949
		c0.05,2.065,1.249,1.11,1.657-1.32c0.955-5.688,3.321-7.875,5.753-5.316c2.078,2.185,3.402-0.544,1.689-3.482
		C179.762,156.778,175.511,155.381,169.942,156.26 M151.112,225.86c0.862,1.395,16.778,4.603,17.452,3.517
		c0.208-0.334-0.155-0.42-2.004-0.471c-4.364-0.121-12.597-1.805-14.248-2.915C151.663,225.555,150.869,225.468,151.112,225.86
		 M120.413,240.71c-0.244,0.584-0.649,1.803-0.901,2.707c-0.252,0.905-0.714,2.567-1.026,3.693c-1.192,4.299-2.045,8.729-1.74,9.036
		c0.203,0.203,0.299-0.058,0.299-0.813c0-1.632,3.121-11.721,4.414-14.267c0.481-0.947,0.491-1.089,0.089-1.244
		C120.882,239.568,120.894,239.558,120.413,240.71 M122.044,241.563c-2.518,5.355-5.011,15.057-3.87,15.057
		c0.702,0,3.086-3.702,3.126-4.854c0.057-1.664,1.519-3.29,2.277-2.533c0.865,0.865,1.471-0.078,1.095-1.706
		c-0.69-2.994,0.081-5.536,1.679-5.536c0.634,0,0.365-0.594-0.401-0.885c-1.443-0.549-1.683-0.272-3.496,4.028
		c-0.288,0.686-0.64,1.244-0.781,1.244c-0.849,0-0.45-2.146,0.938-5.048c0.289-0.603,0.42-1.097,0.292-1.097
		C122.774,240.234,122.388,240.832,122.044,241.563 M161.407,286.052c-0.648,1.688,0.262,2.349,4.002,2.908
		c1.528,0.229,2.113,0.542,1.839,0.985c-0.283,0.458-2.648,0.397-4.556-0.113c-1.979-0.531-2.112-0.53-1.112,0.015
		c0.434,0.234,1.817,0.564,3.072,0.731c1.256,0.168,3.139,0.443,4.185,0.612c2.57,0.415,7.652,0.669,8.604,0.431
		c0.808-0.203,0.639-1.338-0.202-1.357c-0.195-0.008-1.145-0.387-2.111-0.846c-1.49-0.707-1.824-0.772-2.205-0.438
		c-0.464,0.403-1.745,0.255-1.745-0.205c0-0.144-0.198-0.258-0.439-0.258c-0.242,0-0.439-0.141-0.439-0.312
		c0-0.17-0.123-0.232-0.272-0.141c-0.418,0.258-0.716-0.436-0.346-0.805c1.157-1.156-0.2-1.533-2.315-0.645
		c-2.376,1-3.61,0.961-4.72-0.149C161.625,285.444,161.638,285.449,161.407,286.052 M160.996,291.275
		c0.11,0.77,1.797,1.012,8.133,1.166c2.495,0.06,4.075,0.059,3.512-0.003c-1.923-0.213-7.458-1.017-9.597-1.394
		C160.951,290.678,160.911,290.682,160.996,291.275 M177.323,292.319l-0.732,0.234l0.805,0.027c0.442,0.018,0.804-0.102,0.804-0.263
		s-0.032-0.28-0.073-0.263C178.087,292.072,177.725,292.19,177.323,292.319"/>
	<path id="path2" fill="#005E84" d="M161.612,167.228c0.002,0.965,0.057,1.323,0.122,0.799c0.065-0.526,0.063-1.316-0.003-1.756
		C161.664,165.832,161.611,166.26,161.612,167.228 M151.07,227.897c0.092,1.096,0.367,2.771,0.612,3.727
		c0.928,3.623,1.954,19.922,1.27,20.187c-0.396,0.15-4.077-1.406-13.523-5.724c-2.253-1.028-5.193-2.065-9.071-3.199
		c-2.868-0.839-3.906-0.642-4.7,0.895c-0.535,1.034-0.344,2.932,0.352,3.51c0.253,0.209,0.402,0.738,0.356,1.266
		c-0.105,1.228,0.134,1.52,1.426,1.732c1.675,0.278,6.931,2.688,12.954,5.937c10.9,5.88,14.178,6.878,17.557,5.346
		c3.392-1.538,4.419-4.097,5.131-12.787c0.166-2.025,0.265-2.368,0.606-2.085c0.224,0.186,0.408,0.426,0.408,0.533
		c0,0.105,1.166,2.33,2.591,4.938l2.592,4.744l-0.554,2.664c-0.863,4.152-4.063,15.704-5.908,21.329
		c-0.396,1.207-0.6,2.239-0.452,2.292c0.147,0.054,0.268,0.683,0.268,1.397c0,1.931,1.833,2.399,4.137,1.062
		c0.792-0.461,1.896-0.306,1.57,0.221c-0.1,0.162-0.109,0.295-0.02,0.295c0.483,0,5.516-12.578,8.605-21.507
		c1.804-5.214,1.924-5.723,1.935-8.191l0.013-2.635l-5.194-12.074c-2.857-6.644-5.196-12.238-5.199-12.438
		c-0.003-0.25-0.083-0.234-0.263,0.048c-0.553,0.873-11.762-1.076-15.941-2.771l-1.725-0.7L151.07,227.897 M120.628,239.722
		c-0.292,0.363-0.854,1.96-0.592,1.683c0.205-0.219,1.074-2.049,0.972-2.049C120.96,239.356,120.789,239.521,120.628,239.722
		 M116.975,254.544c0.127,1.497,0.082,1.826-0.223,1.639c-0.253-0.156-0.312-0.122-0.174,0.102c0.668,1.08,1.083-1.553,0.478-3.028
		C116.915,252.913,116.882,253.448,116.975,254.544 M162.131,292.135c0.067,0.062,0.912,0.185,1.878,0.273
		c1.154,0.107,1.455,0.082,0.878-0.075C163.984,292.089,161.913,291.94,162.131,292.135"/>
	<path id="path3" fill="#CC040F" d="M163.143,181.439c0.106,0.171,0.015,0.273-0.202,0.229c-0.561-0.113-1.762,0.604-1.559,0.933
		c0.094,0.149-0.014,0.204-0.238,0.116c-0.237-0.091-0.855,0.341-1.478,1.028c-0.589,0.652-1.071,1.093-1.071,0.98
		c0-0.354-0.73,0.506-0.744,0.877c-0.008,0.191-0.153,0.322-0.324,0.292c-0.372-0.071-2.916,2.846-2.801,3.211
		c0.044,0.141-0.046,0.178-0.2,0.083c-0.285-0.176-0.701,0.299-0.794,0.905c-0.028,0.187,0.528,0.755,1.236,1.263
		c1.477,1.061,1.477,1.063,0.715,4.058c-0.314,1.234-0.652,3.165-0.751,4.291c-0.275,3.123-1.493,10.664-2.937,18.176
		c-1.481,7.704-1.482,7.723-0.78,7.723c0.286,0,0.78,0.174,1.097,0.387c1.72,1.156,9.982,2.831,13.961,2.831h2.48l0.177-2.269
		c0.097-1.246,0.437-4.247,0.756-6.67c0.749-5.684,0.808-5.426-1.345-5.864c-5.765-1.177-7.673-4.385-8.177-13.741l-0.19-3.526
		l1.871-0.343c1.029-0.188,2.595-0.426,3.481-0.528l1.609-0.187l0.016,4.933c0.021,6.793,0.357,7.582,3.471,8.166l1.127,0.211
		l-0.134-0.91c-0.074-0.501-0.051-0.945,0.05-0.989c0.34-0.148,2.062-11.182,2.022-12.955c-0.091-4.063-4.365-11.256-7.494-12.613
		C164.866,181.046,162.859,180.978,163.143,181.439"/>
	<path id="path4" fill="#77ABBA" d="M172.421,155.879c0.443,0.067,1.167,0.067,1.61,0c0.442-0.065,0.08-0.122-0.805-0.122
		C172.341,155.757,171.979,155.812,172.421,155.879 M182.525,162.089c0.066,0.455-0.03,1.142-0.216,1.521
		c-0.32,0.658-0.315,0.665,0.118,0.124c0.482-0.603,0.619-2.076,0.216-2.325C182.511,161.327,182.458,161.633,182.525,162.089
		 M150.738,227.067c-0.019,0.885,0.172,2.465,0.424,3.511c0.253,1.046,0.641,3.35,0.864,5.121l0.405,3.218l-0.135-2.73
		c-0.074-1.503-0.341-3.526-0.592-4.496c-0.252-0.973-0.564-2.771-0.694-3.998C150.784,225.564,150.771,225.534,150.738,227.067
		 M168.837,229.521c0,0.357,2.14,5.16,2.25,5.049c0.103-0.104-1.872-4.882-2.121-5.131
		C168.895,229.368,168.837,229.405,168.837,229.521 M171.188,235.128c0.006,0.153,0.209,0.607,0.451,1.012l0.441,0.729l-0.191-0.729
		C171.689,235.374,171.169,234.626,171.188,235.128 M172.182,237.411c0.385,1.222,4.082,9.539,4.192,9.429
		c0.124-0.124-3.564-8.753-4.072-9.525C172.066,236.952,172.043,236.969,172.182,237.411 M152.694,245.304l0.14,6.388l-1.143-0.488
		c-1.993-0.849-2.537-1.04-2.649-0.928c-0.217,0.216,3.678,1.711,3.977,1.525c0.202-0.125,0.25-1.596,0.14-4.343
		C152.866,240.107,152.548,238.631,152.694,245.304 M121.482,239.552c0.496,0.134,1,0.976,0.582,0.976
		c-0.201,0-1.215,1.84-1.215,2.204c0,0.394,0.571,0.057,0.724-0.427c0.098-0.311,0.493-1.026,0.877-1.594
		c0.384-0.564,0.524-0.962,0.31-0.88c-0.214,0.082-0.476,0.009-0.582-0.163c-0.107-0.172-0.416-0.297-0.688-0.277
		C121.035,239.421,121.034,239.435,121.482,239.552 M126.998,241.624c-0.003,0.201-0.224,0.366-0.492,0.366
		c-1.126,0-0.042,0.329,1.404,0.426c1.455,0.1,1.495,0.084,0.547-0.187c-0.563-0.162-1.121-0.446-1.239-0.632
		C127.06,241.349,127.001,241.356,126.998,241.624 M125.644,243.316c-0.267,0.407-0.432,0.794-0.367,0.857
		c0.065,0.065,0.34-0.269,0.611-0.739C126.492,242.382,126.313,242.295,125.644,243.316 M130.358,242.851
		c0.322,0.13,1.573,0.532,2.78,0.896s2.392,0.73,2.634,0.814c0.241,0.085,0.341,0.047,0.222-0.085
		c-0.275-0.304-5.193-1.901-5.782-1.879C129.928,242.609,129.98,242.698,130.358,242.851 M124.644,243.469
		c-0.177,0.331-0.279,0.732-0.226,0.893c0.053,0.159,0.248-0.112,0.433-0.604C125.235,242.74,125.12,242.579,124.644,243.469
		 M120.313,244.108c-0.546,1.798-0.65,2.563-0.348,2.563c0.164,0,0.3-0.099,0.302-0.22c0.001-0.121,0.191-0.842,0.422-1.602
		c0.231-0.762,0.306-1.453,0.167-1.539S120.473,243.584,120.313,244.108 M136.942,245.015c0.403,0.227,1.061,0.5,1.463,0.605
		l0.732,0.193l-0.732-0.413c-0.402-0.229-1.06-0.5-1.463-0.607l-0.731-0.191L136.942,245.015 M125.272,246.27
		c-0.019,0.342,0.17,0.792,0.419,0.999c0.304,0.252,0.425,0.76,0.366,1.542c-0.06,0.794,0.042,1.211,0.319,1.307
		c0.284,0.098,0.331,0.02,0.157-0.263c-0.137-0.224-0.21-0.776-0.163-1.231c0.048-0.456-0.108-1.048-0.346-1.315
		c-0.238-0.271-0.497-0.753-0.576-1.074C125.313,245.677,125.304,245.679,125.272,246.27 M139.283,245.936
		c0,0.214,2.118,1.056,2.271,0.901c0.073-0.071-0.358-0.338-0.958-0.589C139.406,245.753,139.283,245.723,139.283,245.936
		 M163.599,247.44c0.023,0.891,0.07,0.985,0.222,0.445c0.275-0.977,5.065,7.694,5.31,9.611c0.164,1.284,0.172,1.293,0.327,0.354
		c0.134-0.813-0.243-1.699-2.426-5.694c-1.421-2.602-2.584-4.82-2.584-4.927c0-0.107-0.198-0.359-0.439-0.561
		C163.631,246.358,163.574,246.465,163.599,247.44 M118.722,249.086c-1.082,3.104-1.164,3.438-0.839,3.438
		c0.286,0,0.673-0.881,0.772-1.756c0.027-0.241,0.253-0.911,0.501-1.488c0.709-1.646,0.877-2.316,0.58-2.316
		C119.585,246.964,119.129,247.919,118.722,249.086 M142.004,247.149c0.36,0.358,6.442,3.039,6.582,2.898
		c0.078-0.076-0.173-0.265-0.557-0.415c-0.385-0.148-1.864-0.812-3.289-1.472C142.205,246.989,141.632,246.777,142.004,247.149
		 M176.445,247.397c0,0.077,0.625,1.559,1.39,3.292c1.467,3.327,1.762,5.512,1.175,8.711c-0.18,0.979-0.164,1.052,0.101,0.438
		c1.004-2.327,0.712-5.234-0.907-9.007C176.851,247.68,176.445,246.885,176.445,247.397 M124.985,248.442
		c-0.022,0.41-0.139,0.872-0.259,1.024c-0.121,0.154-0.044,0.133,0.171-0.05c0.215-0.182,0.332-0.644,0.26-1.024
		C125.026,247.703,125.024,247.703,124.985,248.442 M163.275,249.963c-0.001,0.686-0.189,2.493-0.419,4.021
		c-0.459,3.06-0.421,3.675,0.1,1.604c0.396-1.571,0.791-6.868,0.512-6.868C163.363,248.719,163.276,249.279,163.275,249.963
		 M122.766,249.331c0.091,0.147-0.073,0.271-0.364,0.271c-0.435,0.004-0.454,0.052-0.104,0.271c0.233,0.148,0.55,0.192,0.703,0.099
		c0.155-0.098,0.183-0.019,0.063,0.178c-0.126,0.204-0.481,0.27-0.85,0.16c-0.611-0.185-0.615-0.17-0.111,0.354
		c0.418,0.436,0.571,0.465,0.764,0.152c0.133-0.215,0.326-0.379,0.428-0.365c0.512,0.068,0.567-0.005,0.246-0.327
		c-0.542-0.542-0.415-0.938,0.161-0.503c0.434,0.328,0.456,0.325,0.149-0.02C123.446,249.146,122.508,248.913,122.766,249.331
		 M128.895,250.913c2.273,0.819,8.875,4.036,14.485,7.057c4.348,2.344,7.746,3.824,9.275,4.049c0.742,0.106,0.429-0.065-0.936-0.521
		c-2.63-0.874-4.306-1.681-11.235-5.405c-6.062-3.259-11.011-5.517-12.637-5.766C127.264,250.238,127.702,250.482,128.895,250.913
		 M121.526,250.963c0.112,0.188,0.039,0.401-0.164,0.477c-0.285,0.104-0.276,0.224,0.042,0.537c0.347,0.342,0.372,0.34,0.171-0.015
		c-0.176-0.309-0.112-0.367,0.25-0.229c0.632,0.243,0.627-0.194-0.008-0.71C121.544,250.802,121.413,250.775,121.526,250.963
		 M117.337,255.035c0,1.718-0.517,2.105-0.914,0.688c-0.171-0.612-0.202-0.629-0.227-0.11c-0.041,0.833,0.517,1.302,1.548,1.302
		c0.807,0,0.833-0.031,0.335-0.395c-0.446-0.326-0.508-0.636-0.354-1.757c0.112-0.82,0.072-1.359-0.101-1.359
		C117.466,253.402,117.337,254.135,117.337,255.035 M161.798,258.122c-0.605,1.462-1.748,2.624-3.337,3.394
		c-1.037,0.502-1.215,0.655-0.597,0.522c1.779-0.383,3.766-2.284,4.367-4.178C162.541,256.884,162.234,257.07,161.798,258.122
		 M168.283,261.716c-0.207,0.926-0.313,1.743-0.237,1.819c0.196,0.196,0.871-2.724,0.729-3.15
		C168.711,260.193,168.49,260.792,168.283,261.716 M177.39,264.442c-0.512,1.554-0.881,2.874-0.822,2.933
		c0.06,0.062,0.531-1.159,1.047-2.708c0.516-1.549,0.886-2.869,0.822-2.933C178.373,261.67,177.902,262.888,177.39,264.442
		 M154.572,262.39c0.443,0.065,1.167,0.065,1.609,0c0.443-0.068,0.081-0.122-0.804-0.122
		C154.492,262.268,154.129,262.322,154.572,262.39 M167.253,265.863c-0.269,1.072-0.435,2.004-0.369,2.07
		c0.067,0.064,0.341-0.759,0.61-1.829c0.27-1.071,0.436-2.003,0.369-2.069C167.797,263.969,167.523,264.792,167.253,265.863
		 M174.728,271.728c-0.842,2.188-1.475,4.036-1.408,4.103c0.067,0.067,0.804-1.675,1.639-3.872c0.834-2.194,1.468-4.042,1.408-4.103
		C176.306,267.796,175.569,269.539,174.728,271.728 M166.075,270.099c-0.276,0.982-0.444,1.847-0.374,1.918
		c0.071,0.068,0.354-0.68,0.63-1.662c0.277-0.985,0.445-1.85,0.375-1.918C166.635,268.366,166.352,269.114,166.075,270.099
		 M164.015,277.183c-1.816,6.063-1.728,5.732-1.383,5.187c0.382-0.604,3.085-9.655,2.93-9.81
		C165.493,272.491,164.796,274.571,164.015,277.183 M172.855,276.578c-0.083,0.209-0.757,1.864-1.499,3.679
		c-1.276,3.122-1.65,4.269-1.074,3.284c0.508-0.866,2.965-7.1,2.846-7.219C173.061,276.255,172.938,276.37,172.855,276.578
		 M162.641,284.492c0.158,1.766,0.511,1.953,0.389,0.205c-0.056-0.797-0.191-1.449-0.301-1.449
		C162.62,283.248,162.58,283.808,162.641,284.492 M169.422,284.857c-0.17,0.447-0.272,0.832-0.228,0.854
		c0.045,0.023,0.345,0.233,0.667,0.469c0.563,0.406,0.566,0.4,0.094-0.156c-0.368-0.437-0.416-0.715-0.193-1.115
		c0.165-0.293,0.225-0.608,0.134-0.698C169.805,284.119,169.592,284.41,169.422,284.857 M167.244,285.562
		c-0.09,0.146,0.1,0.194,0.422,0.11c0.341-0.089,0.586-0.009,0.586,0.191c0,0.189,0.133,0.261,0.297,0.16
		c0.164-0.103,0.222-0.309,0.129-0.456C168.462,285.219,167.459,285.215,167.244,285.562 M164.123,286.573
		c0.327,0.146,0.915,0.135,1.396-0.027c0.747-0.252,0.691-0.275-0.566-0.253C163.914,286.313,163.702,286.385,164.123,286.573
		 M170.111,287.704c-0.298,0.34-0.378,0.523-0.177,0.405c0.212-0.124,0.366-0.062,0.366,0.15c0,0.207,0.2,0.12,0.463-0.2
		c0.424-0.521,0.448-0.523,0.292-0.032c-0.108,0.341-0.043,0.494,0.177,0.421c0.577-0.192,0.566-0.648-0.023-1.016
		C170.747,287.144,170.562,287.19,170.111,287.704 M172.202,288.222c0.099,0.159,0.034,0.293-0.146,0.293
		c-0.18,0-0.237,0.146-0.127,0.322c0.139,0.228,0.276,0.203,0.451-0.071c0.341-0.538,0.323-0.836-0.049-0.836
		C172.161,287.93,172.102,288.061,172.202,288.222 M160.899,289.173c-0.241,0.474-0.093,1.392,0.224,1.392
		c0.219,0,0.399-0.131,0.399-0.292s-0.146-0.293-0.324-0.293c-0.178,0-0.248-0.197-0.156-0.439
		C161.175,289.192,161.051,288.875,160.899,289.173 M164.96,290.185c0.362,0.067,0.954,0.067,1.317,0
		c0.362-0.07,0.065-0.127-0.659-0.127C164.894,290.058,164.598,290.115,164.96,290.185 M162.289,290.505
		c-0.191,0.311,2.273,0.833,5.012,1.065c2.975,0.252,2.083-0.312-1.059-0.667c-1.588-0.181-3.089-0.406-3.336-0.5
		C162.66,290.308,162.382,290.354,162.289,290.505 M177.876,290.644c0.776,0.986-1.1,1.388-4.948,1.053
		c-2.9-0.252-3.849,0.161-1.119,0.487c2.562,0.306,5.473,0.238,5.923-0.136c0.207-0.171,0.435-0.252,0.507-0.18
		c0.072,0.072,0.15-0.118,0.173-0.422s-0.18-0.726-0.451-0.938C177.518,290.163,177.509,290.176,177.876,290.644"/>
	<path id="path5" fill="#FFBE98" d="M168.105,156.255c-0.369,0.158-0.423,0.251-0.146,0.251c0.241,0,0.702-0.111,1.024-0.251
		c0.369-0.157,0.423-0.252,0.146-0.252C168.888,156.003,168.427,156.116,168.105,156.255 M176.445,156.024
		c0.08,0.079,0.604,0.298,1.164,0.486c0.559,0.189,0.888,0.22,0.731,0.064c-0.157-0.154-0.681-0.374-1.164-0.488
		C176.693,155.973,176.364,155.944,176.445,156.024 M165.115,157.692c-1.105,0.8-2.423,2.335-2.423,2.821
		c0,0.118,0.382-0.311,0.85-0.955c0.467-0.646,1.323-1.467,1.902-1.823c0.929-0.574,1.269-0.896,0.95-0.896
		C166.337,156.84,165.762,157.223,165.115,157.692 M180.834,158.594c0.344,0.483,0.691,0.88,0.771,0.88
		c0.081,0-0.135-0.396-0.478-0.88c-0.344-0.48-0.691-0.877-0.772-0.877C180.275,157.718,180.49,158.113,180.834,158.594
		 M182.151,160.644c0.249,0.481,0.519,0.878,0.6,0.878c0.08,0-0.058-0.396-0.308-0.878c-0.249-0.483-0.519-0.878-0.6-0.878
		C181.763,159.766,181.901,160.161,182.151,160.644 M176.649,163.284c-0.907,0.713-1.836,3.081-2.291,5.836
		c-0.475,2.874-2.01,3.204-2.01,0.432c0-3.271-3.357-4.797-3.922-1.782c-0.245,1.305,0.277,3.86,0.993,4.866
		c1.788,2.513-3.206,6.807-5.195,4.469c-0.57-0.67-0.631-0.693-0.364-0.142c0.177,0.365,0.579,0.825,0.894,1.021
		c1.061,0.663,0.166,2.842-1.174,2.857c-1.657,0.021-10.805,8.324-10.388,9.429c0.077,0.202-0.659,1.42-1.635,2.707
		c-4.931,6.505-5.024,9.75-0.446,15.473c1.745,2.18,1.839,2.378,1.746,3.658l-0.098,1.352l0.265-1.17
		c0.42-1.854,1.71-10.345,1.89-12.436c0.09-1.046,0.459-3.14,0.82-4.649l0.655-2.747l-0.997-0.764
		c-2.391-1.833-2.522-1.277,1.194-5.062c7.082-7.208,9.396-7.289,13.815-0.484c2.655,4.088,2.975,5.082,2.95,9.17
		c-0.015,2.508,0.054,3.261,0.242,2.634c1.017-3.391-0.11-8.07-2.868-11.909l-1.034-1.438l0.629-1.261l0.629-1.259l1.434,0.545
		c3.364,1.278,5.053,0.283,7.393-4.354c0.582-1.154,0.938-1.539,1.429-1.546c1.537-0.022,2.127-1.485,1.271-3.151
		c-0.616-1.2-0.762-8.56-0.184-9.303c0.424-0.545,0.419-0.545-0.199-0.021c-0.625,0.532-1.844,0.461-1.844-0.106
		C180.249,162.903,177.861,162.331,176.649,163.284 M161.855,172.056c0,0.239,0.113,0.7,0.252,1.022
		c0.158,0.369,0.251,0.423,0.251,0.146c0-0.241-0.113-0.702-0.251-1.024C161.948,171.833,161.855,171.779,161.855,172.056
		 M163.131,196.201c-1.127,0.213-2.299,0.398-2.606,0.411c-1.161,0.048,0.032,10.455,1.535,13.387
		c1.055,2.059,3.697,3.696,6.582,4.084c1.843,0.248,1.805-0.04,0.923,6.928c-0.42,3.317-0.718,6.598-0.664,7.287
		c0.08,1.008,0.149,0.775,0.348-1.156c0.248-2.406,0.252-2.414,1.089-2.414c0.462,0,0.84-0.134,0.84-0.293
		c0-0.161,0.247-0.293,0.549-0.293c0.748,0,1.242-0.642,0.909-1.179c-0.145-0.233-0.193-0.71-0.106-1.055
		c0.121-0.481-0.122-0.853-1.036-1.588c-1.331-1.069-1.411-1.307-0.704-2.089c0.376-0.415,0.411-0.622,0.147-0.888
		c-0.39-0.39-0.454-1.941-0.102-2.494c0.182-0.288,0.987-0.307,3.726-0.076c1.921,0.16,5.205,0.208,7.297,0.105
		c3.518-0.17,3.891-0.137,4.963,0.438c2.351,1.261,6.888,0.041,6.888-1.854c0-0.205,0.197-0.535,0.439-0.734
		c0.619-0.516,0.547-0.841-0.268-1.213c-0.389-0.179-0.771-0.569-0.85-0.871c-0.121-0.461-0.428-0.552-1.909-0.552
		c-1.738,0-1.764-0.012-1.71-0.793c0.09-1.297-0.744-1.138-1.808,0.346c-1.076,1.498-1.699,1.611-5.599,1.03
		c-1.046-0.154-3.087-0.418-4.535-0.583c-1.449-0.162-3.33-0.438-4.182-0.609l-1.548-0.313l0.139-1.806l0.138-1.805l-0.323,1.705
		l-0.324,1.706l-1.037-0.195c-3.01-0.564-3.36-1.404-3.381-8.117l-0.016-4.901l-0.878,0.027
		C165.574,195.801,164.257,195.988,163.131,196.201 M172.689,200.949c-0.536,3.127-0.687,4.7-0.386,4.025
		c0.315-0.708,1.042-5.686,0.856-5.87C173.087,199.032,172.875,199.862,172.689,200.949 M152.21,214.976
		c-0.444,2.105-0.723,4.188-0.56,4.188c0.214,0,1.195-5.263,1.014-5.442C152.578,213.635,152.374,214.201,152.21,214.976
		 M151.138,220.483c-0.119,0.644-0.381,1.98-0.582,2.975c-0.2,0.992-0.268,1.961-0.149,2.152c0.129,0.21,0.215,0.074,0.215-0.341
		c0-0.379,0.226-1.706,0.503-2.948c0.276-1.243,0.441-2.428,0.366-2.634C151.416,219.481,151.258,219.839,151.138,220.483
		 M123.107,240.417c-0.227,1.156,0.27,1.6,0.903,0.803c0.273-0.342,0.694-0.703,0.935-0.806c0.242-0.101,0.084-0.116-0.35-0.034
		c-0.541,0.104-0.873,0-1.056-0.327C123.319,239.661,123.242,239.726,123.107,240.417 M122.202,242.861
		c-0.532,1.33-0.611,1.84-0.183,1.177c0.322-0.499,0.392-0.015,0.106,0.732c-0.15,0.389-0.237,0.408-0.435,0.097
		c-0.17-0.268-0.249-0.138-0.252,0.415c-0.007,1.32,0.459,0.92,1.194-1.025C123.609,241.67,123.205,240.355,122.202,242.861
		 M125.402,242.745c-0.254,0.254-0.387,0.583-0.296,0.731c0.091,0.146,0.042,0.269-0.109,0.269c-0.628,0-0.565,2.182,0.118,4.089
		c0.134,0.373,0.189,0.374,0.414,0.01c0.143-0.23,0.153-0.557,0.021-0.724c-0.821-1.039-0.346-3.864,0.758-4.506
		c0.473-0.276,0.479-0.315,0.048-0.323C126.086,242.286,125.657,242.49,125.402,242.745 M123.157,249.525
		c0.19,0.36,0.56,0.658,0.823,0.658s0.423-0.034,0.356-0.076c-0.068-0.042-0.438-0.339-0.823-0.659l-0.701-0.582L123.157,249.525
		 M122.437,250.308c0.31,0.25,0.477,0.54,0.372,0.645c-0.105,0.105-0.391,0.025-0.637-0.179c-0.278-0.231-0.446-0.253-0.446-0.061
		c0,0.171,0.132,0.395,0.293,0.492c0.463,0.286,0.34,0.731-0.15,0.543c-0.319-0.122-0.39-0.035-0.257,0.313
		c0.102,0.265,0.005,0.715-0.216,0.998c-0.51,0.653,0.586-0.527,1.321-1.428c0.585-0.714,0.394-1.459-0.426-1.673
		C122.045,249.898,122.105,250.041,122.437,250.308 M118.962,256.311c-0.284,0.313-0.864,0.622-1.289,0.688l-0.775,0.119
		l0.754,0.044c0.467,0.027,1.015-0.235,1.441-0.688c0.378-0.402,0.619-0.731,0.535-0.731
		C119.545,255.743,119.245,255.998,118.962,256.311 M161.26,285.355c-0.178,0.285-0.315,0.685-0.305,0.888
		c0.01,0.204,0.138,0.074,0.283-0.288c0.286-0.711,1.161-0.911,1.161-0.265c0,0.506,0.831,1.232,1.717,1.504
		c0.686,0.21,4.136-0.92,4.136-1.355c0-0.274-0.504-0.165-2.139,0.47c-1.614,0.625-3.421,0.127-3.421-0.943
		C162.692,284.675,161.689,284.669,161.26,285.355 M170.183,286.703c-0.097,0.272-0.261,0.693-0.365,0.936
		c-0.131,0.304,0.005,0.267,0.441-0.12c0.659-0.585,1.281-0.418,0.68,0.184c-0.191,0.19-0.342,0.484-0.337,0.653
		s0.201,0.054,0.436-0.257c0.234-0.312,0.512-0.479,0.617-0.372c0.105,0.104,0.025,0.391-0.179,0.637
		c-0.264,0.318-0.273,0.446-0.032,0.446c0.185,0,0.413-0.198,0.506-0.439c0.271-0.708,0.752-0.508,0.522,0.217
		c-0.182,0.574-0.15,0.608,0.256,0.271c0.585-0.486,0.357-1.118-0.48-1.328c-0.354-0.089-0.923-0.423-1.266-0.742
		C170.413,286.257,170.344,286.25,170.183,286.703 M160.673,287.236c-0.016,0.342,0.166,0.784,0.404,0.98
		c0.376,0.313,0.347,0.437-0.22,0.937c-0.359,0.318-0.455,0.472-0.213,0.343c0.241-0.129,0.683-0.195,0.983-0.145
		c0.33,0.054,0.467-0.035,0.348-0.229c-0.108-0.175,0.008-0.314,0.261-0.314c0.251,0,0.423,0.154,0.383,0.348
		s0.19,0.388,0.512,0.436l0.585,0.09l-0.585-0.271c-0.544-0.25-0.533-0.271,0.146-0.302c0.549-0.025,0.368-0.162-0.722-0.549
		c-1.065-0.378-1.507-0.707-1.653-1.231C160.722,286.684,160.699,286.675,160.673,287.236 M165.033,289.354l0.731,0.246
		l-0.877,0.145c-0.616,0.104-0.42,0.158,0.658,0.189c0.858,0.023,1.536-0.085,1.536-0.249c0-0.16-0.181-0.292-0.402-0.292
		c-0.221,0-0.847-0.064-1.39-0.145C164.472,289.133,164.428,289.151,165.033,289.354 M160.546,290.173
		c-0.266,0.269-0.247,1.786,0.025,1.954c0.12,0.075,0.219-0.378,0.219-1.006c0-0.629-0.011-1.143-0.024-1.143
		C160.752,289.978,160.653,290.066,160.546,290.173"/>
</g>
</svg>
