<?xml version="1.0" encoding="utf-8"?>
<!-- Generator: Adobe Illustrator 12.0.0, SVG Export Plug-In . SVG Version: 6.00 Build 51448)  -->
<!DOCTYPE svg PUBLIC "-//W3C//DTD SVG 1.1//EN" "http://www.w3.org/Graphics/SVG/1.1/DTD/svg11.dtd" [
	<!ENTITY ns_svg "http://www.w3.org/2000/svg">
	<!ENTITY ns_xlink "http://www.w3.org/1999/xlink">
]>
<svg  version="1.1" id="svg" xmlns="&ns_svg;" xmlns:xlink="&ns_xlink;" width="400" height="292.4" viewBox="0 0 400 292.4"
	 overflow="visible" enable-background="new 0 0 400 292.4" xml:space="preserve">
<g id="svgg">
	<path id="path1" fill="#790800" d="M272.167,1.621c-4.833,1.049-6.92,3.36-7.624,8.443c-0.742,5.353,1.596,13.349,3.9,13.343
		c2.246-0.005,5.216-3.824,3.853-4.955c-0.974-0.808-1.634-4.296-1.151-6.092c0.201-0.753,1.44-1.195,1.942-0.693
		c0.181,0.184,0.61,0.33,0.956,0.33c0.68,0,1.3,1.473,1.309,3.106c0.015,2.379,1.254,1.995,1.672-0.52
		c1.039-6.229,3.183-8.425,5.67-5.81c2.048,2.149,3.518-0.277,1.947-3.217C282.684,1.892,277.893,0.379,272.167,1.621
		 M253.695,71.333c0.002,0.571,1.484,1.245,4.307,1.957c2.33,0.589,13.854,0.538,14.053-0.061c0.09-0.27-0.134-0.309-0.854-0.147
		c-1.645,0.366-10.189,0.247-12.24-0.17c-1.046-0.213-2.175-0.438-2.508-0.505c-0.334-0.064-1.092-0.446-1.684-0.847
		C253.841,70.929,253.693,70.898,253.695,71.333 M242.063,96.17c-0.48,0.195-0.465,2.417,0.035,4.541
		c0.477,2.02,0.223,2.654-0.627,1.574c-0.348-0.442-0.754-1.655-0.964-2.878c-0.2-1.162-0.479-2.311-0.623-2.553
		c-0.465-0.786,0.087,2.664,0.935,5.853c0.449,1.689,0.91,3.533,1.021,4.096c0.301,1.514,1.295,4.764,1.612,5.269
		c0.512,0.817,1.659-0.784,1.858-2.59c0.148-1.373,0.102-1.584-0.387-1.712c-0.475-0.124-0.549-0.399-0.508-1.889l0.047-1.739
		l0.88,0.088c1.351,0.135,1.324-0.761-0.063-2.213c-2.137-2.239-2.788-4.241-1.68-5.161C244.475,96.128,243.377,95.64,242.063,96.17
		 M238.259,97.341c-0.739,0.3,2.539,11.871,4.341,15.314c0.697,1.337,0.724,0.599,0.026-0.816c-0.599-1.219-1.045-2.756-2.532-8.739
		c-0.566-2.28-1.029-4.553-1.029-5.05C239.064,97.152,238.958,97.059,238.259,97.341 M234.975,124.349l-0.617,0.864l1.402,1.413
		c0.771,0.777,1.863,1.757,2.426,2.181c0.779,0.584,0.944,0.85,0.688,1.113c-0.515,0.533-1.399,0.111-3.495-1.667
		c-1.049-0.89-1.971-1.556-2.048-1.478c-0.269,0.268,6.331,5.533,10.483,8.365c3.349,2.281,4.832,1.938,2.75-0.64
		c-0.543-0.671-1.146-1.525-1.342-1.901c-0.274-0.53-0.516-0.646-1.063-0.509c-0.474,0.118-0.707,0.055-0.707-0.195
		c0-0.205-0.265-0.538-0.585-0.739c-0.322-0.201-0.586-0.551-0.586-0.778c0-0.226-0.164-0.479-0.365-0.563
		c-0.254-0.105-0.164-0.329,0.292-0.729c1.256-1.102,0.622-1.626-2.362-1.954c-2.115-0.23-3.477-1.278-3.527-2.718
		C236.275,123.249,235.775,123.224,234.975,124.349 M232.506,128.055c-0.1,0.261-0.031,0.656,0.153,0.88
		c0.924,1.111,13.104,8.885,13.924,8.885c0.698,0,0.392-0.521-0.424-0.719c-1.043-0.258-3.966-2.085-6.448-4.036
		c-1.08-0.851-2.495-1.902-3.145-2.34c-0.648-0.439-1.695-1.326-2.326-1.974C232.962,127.445,232.77,127.368,232.506,128.055"/>
	<path id="path2" fill="#005E84" d="M253.693,72.089c0,0.06,0.142,0.815,0.313,1.684c0.414,2.085,1.334,8.065,1.885,12.257
		c0.243,1.851,0.553,4.056,0.688,4.901c0.294,1.838,0.21,1.933-2.146,2.417c-2.447,0.502-8.32,2.515-8.918,3.057
		c-0.275,0.248-0.641,0.451-0.812,0.451c-0.354,0-0.667,0.677-0.667,1.442c0,1.021,1.689,2.946,2.588,2.946
		c0.593,0,0.921,0.201,1.15,0.706l0.322,0.706l2.139-0.674c1.178-0.37,2.732-0.77,3.455-0.883l1.318-0.211l-2.947,3.029
		c-1.621,1.667-3.397,3.547-3.951,4.18c-2.909,3.325-5.225,5.378-5.408,4.795c-0.102-0.315-0.232-0.522-0.297-0.459
		c-0.063,0.063,0.029,0.501,0.205,0.973c0.297,0.794,0.188,1.058-1.434,3.495c-2.695,4.054-4.216,7.107-3.865,7.765
		c0.666,1.244,3.406,2.027,3.959,1.131c0.117-0.188,0.588-0.246,1.153-0.14c0.901,0.169,1.013,0.091,1.942-1.36
		c3.033-4.736,8.511-10.185,18.076-17.977c2.988-2.432,3.508-3.104,3.961-5.12l0.353-1.566l7.44-0.177
		c8.522-0.202,9.781-0.489,11.209-2.556c2.22-3.214,1.359-5.021-8.129-17.045l-4.941-6.266l-6.163,0.092
		c-6.317,0.092-8.917-0.215-11.075-1.303C254.341,71.999,253.693,71.864,253.693,72.089 M269.934,86.927
		c3.836,4.246,3.887,3.9-0.619,4.19l-2.377,0.153l-0.184-1.348c-0.256-1.866-0.232-6.236,0.035-6.235
		C266.909,83.688,268.325,85.146,269.934,86.927 M238.055,97.246c-0.293,0.215-0.461,0.577-0.371,0.804
		c0.129,0.326,0.168,0.314,0.188-0.054c0.013-0.257,0.318-0.61,0.682-0.784c0.362-0.175,0.52-0.327,0.35-0.338
		S238.35,97.031,238.055,97.246 M245.063,101.829c0.629,0.646,1.209,1.17,1.289,1.17s-0.369-0.524-0.996-1.17
		c-0.629-0.644-1.209-1.171-1.289-1.171C243.984,100.658,244.434,101.185,245.063,101.829 M240.275,103.584
		c0,0.242,0.113,0.703,0.252,1.025c0.158,0.369,0.25,0.423,0.25,0.146c0-0.239-0.112-0.702-0.25-1.022
		C240.368,103.362,240.275,103.308,240.275,103.584 M239.816,105.633c0.106,0.402,0.316,0.931,0.467,1.17
		c0.189,0.307,0.212,0.218,0.076-0.292c-0.108-0.401-0.318-0.929-0.467-1.171C239.704,105.035,239.682,105.124,239.816,105.633
		 M232.314,127.907c-0.278,0.521-0.225,0.721,0.345,1.244l0.677,0.622l-0.525-0.634c-0.418-0.509-0.459-0.758-0.197-1.243
		c0.181-0.336,0.262-0.61,0.181-0.61S232.497,127.565,232.314,127.907 M238.479,129.099c0.422,0.509,0.361,0.76-0.22,0.909
		c-0.462,0.121-0.463,0.14-0.017,0.168c0.722,0.052,0.965-0.542,0.418-1.019C238.4,128.932,238.318,128.905,238.479,129.099"/>
	<path id="path3" fill="#CC040F" d="M266.803,27.356c-2.21,0.626-3.166,1.841-5.074,6.452c-0.584,1.408-1.396,3.066-1.803,3.683
		c-0.988,1.494-0.869,1.669,2.223,3.312c3.963,2.104,3.813,1.93,2.771,3.271c-3.561,4.583-3.87,6.089-1.771,8.596
		c2.092,2.499,9.696,9.075,10.484,9.067c0.335-0.004,0.334-0.046-0.002-0.259c-0.329-0.208-0.313-0.305,0.085-0.526
		c0.341-0.188,0.654-1.201,1.038-3.326c0.305-1.68,1.098-5.49,1.766-8.467c2.016-8.988,1.893-11.047-0.953-15.938
		C272.314,27.632,270.387,26.342,266.803,27.356 M256.913,55.797c0,0.271-0.19,1.292-0.421,2.27
		c-1.243,5.235-1.631,7.239-1.455,7.521c0.107,0.173,0.066,0.399-0.092,0.502c-0.641,0.418-1.295,4.482-0.807,5.021
		c1.484,1.641,8.694,2.715,14.811,2.206c3.232-0.271,3.121-0.155,3.591-3.695c0.472-3.553,0.737-3.1-3.19-5.441
		c-4.516-2.693-7.92-5.063-9.996-6.963C257.092,55.152,256.913,55.048,256.913,55.797"/>
	<path id="path4" fill="#77ABBA" d="M266.697,4.17l-0.859,0.951l0.951-0.86c0.523-0.472,0.951-0.898,0.951-0.949
		C267.74,3.084,267.498,3.283,266.697,4.17 M276.977,79.493c4.336,5.499,6.514,8.074,4.656,5.511
		c-1.582-2.186-8.566-10.9-8.902-11.107C272.548,73.782,274.458,76.301,276.977,79.493 M253.986,75.025
		c0,0.921,0.953,6.637,1.084,6.506c0.158-0.158-0.729-6.657-0.937-6.864C254.055,74.585,253.986,74.746,253.986,75.025
		 M255.327,83.833c0.085,1.127,0.274,2.509,0.42,3.073c0.2,0.771,0.228,0.52,0.108-1.028c-0.088-1.128-0.276-2.511-0.422-3.07
		C255.236,82.04,255.211,82.297,255.327,83.833 M266.568,86.133c0,1.348,0.084,3.054,0.186,3.792l0.184,1.348l2.377-0.153
		c4.484-0.289,4.416-0.088,1.177-3.479l-2.517-2.635l2.381,2.685c2.688,3.03,2.72,2.925-0.855,3.076l-2.189,0.093l-0.188-0.878
		c-0.33-1.531-0.281-6.215,0.058-5.634c0.164,0.281,0.444,0.513,0.621,0.513c0.178,0,0.086-0.265-0.205-0.585
		C266.718,83.305,266.568,83.575,266.568,86.133 M283.852,88.515c1.283,1.883,2.219,2.978,1.563,1.827
		c-0.474-0.826-2.792-4.022-2.92-4.022C282.419,86.32,283.029,87.308,283.852,88.515 M256.246,90.424l0.15,2.203l-1.82,0.376
		c-1.002,0.207-1.764,0.436-1.693,0.504c0.227,0.229,3.43-0.522,3.682-0.86c0.135-0.181,0.082-1.248-0.112-2.374l-0.354-2.049
		L256.246,90.424 M285.93,91.88c0.411,1.271,0.537,1.434,0.537,0.69c0-0.318-0.195-0.834-0.435-1.146
		C285.637,90.908,285.627,90.949,285.93,91.88 M250.768,93.993c-0.563,0.167-0.886,0.355-0.717,0.417
		c0.17,0.063,0.828-0.077,1.463-0.31C252.839,93.615,252.301,93.538,250.768,93.993 M248.04,94.938
		c-1.271,0.454-1.897,0.933-0.783,0.6c1.086-0.325,2.53-0.975,2.194-0.988C249.29,94.544,248.654,94.719,248.04,94.938
		 M286.208,95.26c-0.019,0.331-0.362,1.05-0.765,1.595c-0.758,1.025-0.83,1.171-0.59,1.171c0.373,0,1.646-2.365,1.525-2.833
		C286.26,94.73,286.238,94.739,286.208,95.26 M241.492,97.44c0,0.885,0.055,1.247,0.121,0.804c0.068-0.442,0.068-1.166,0-1.609
		C241.547,96.192,241.492,96.554,241.492,97.44 M243.616,96.92c-0.869,1.24-0.591,2.466,0.903,3.977l1.359,1.373l-1.213-1.386
		c-1.2-1.365-1.491-2.384-1.025-3.591c0.146-0.385,0.235-0.404,0.426-0.101c0.162,0.264,0.223,0.179,0.188-0.27
		C244.195,96.117,244.178,96.117,243.616,96.92 M240.162,97.293c0.076,0.403,0.191,0.732,0.253,0.732s0.112-0.329,0.112-0.732
		c0-0.4-0.114-0.729-0.252-0.729C240.137,96.562,240.086,96.891,240.162,97.293 M239.098,97.513c0.021,0.36,0.121,1.053,0.228,1.534
		c0.282,1.303,0.668,0.42,0.438-1.006C239.564,96.796,239.039,96.378,239.098,97.513 M283.102,98.626
		c-0.644,0.307-1,0.559-0.789,0.563c0.426,0.008,2.105-0.811,2.105-1.024C284.418,97.992,284.505,97.962,283.102,98.626
		 M244.038,99.117c0,0.478,1.735,2.421,2.151,2.41c0.185-0.005,0.104-0.145-0.176-0.306c-0.281-0.164-0.841-0.783-1.242-1.378
		C244.368,99.252,244.038,98.925,244.038,99.117 M237.898,99.659c0.002,0.308,0.138,0.758,0.301,0.999
		c0.217,0.321,0.244,0.203,0.101-0.439C238.059,99.144,237.893,98.91,237.898,99.659 M272.882,99.479l-6.123,0.153l-0.352,1.566
		c-0.472,2.091-0.948,2.673-4.689,5.711c-1.758,1.428-3.247,2.733-3.309,2.9c-0.15,0.401,5.411-4.133,6.608-5.392
		c1.049-1.101,1.844-2.781,1.844-3.898v-0.74l6.365-0.017c3.5-0.012,6.891-0.126,7.533-0.261l1.172-0.24l-1.465,0.028
		C279.663,99.31,276.25,99.394,272.882,99.479 M239.648,100.914c0,0.216,0.441,1.592,1.037,3.226
		c0.424,1.168,0.401-0.163-0.028-1.698C240.232,100.93,239.648,100.046,239.648,100.914 M253.855,101.269
		c0.109,0.177-1.276,1.821-3.143,3.729c-1.836,1.877-3.705,3.864-4.152,4.415c-0.649,0.798-0.869,0.917-1.08,0.585
		c-0.201-0.318-0.266-0.264-0.269,0.241c-0.007,0.981,0.337,0.816,1.753-0.84c1.676-1.958,1.438-1.706,4.955-5.314
		c2.477-2.541,2.932-3.136,2.396-3.136C253.919,100.951,253.736,101.076,253.855,101.269 M247.268,101.398
		c-0.006,0.165,0.181,0.57,0.412,0.902l0.422,0.604l2.705-0.758c1.485-0.417,2.502-0.796,2.258-0.843
		c-0.244-0.049-1.455,0.234-2.691,0.629l-2.249,0.714l-0.422-0.775C247.471,101.446,247.275,101.233,247.268,101.398
		 M244.723,104.507c0.084,0.268,0.063,0.573-0.046,0.684c-0.879,0.879-0.104,2.211,1.117,1.921c0.08-0.021-0.183-0.233-0.586-0.478
		c-0.675-0.405-0.681-0.427-0.073-0.262c0.854,0.231,0.877-0.385,0.027-0.699c-0.542-0.198-0.563-0.261-0.146-0.421
		c0.268-0.102,0.485-0.059,0.485,0.099c0,0.154,0.132,0.282,0.293,0.282c0.49,0,0.326-0.591-0.22-0.793
		c-0.281-0.104-0.623-0.33-0.76-0.503C244.664,104.145,244.628,104.211,244.723,104.507 M240.818,105.179
		c0,0.896,0.705,3.085,0.925,2.864c0.325-0.326-0.267-2.997-0.666-2.997C240.936,105.048,240.818,105.107,240.818,105.179
		 M240.109,107.096c0.106,0.4,0.316,0.929,0.467,1.17c0.189,0.305,0.212,0.216,0.076-0.292c-0.108-0.403-0.318-0.931-0.467-1.173
		C239.996,106.498,239.973,106.587,240.109,107.096 M241.697,108.799c0,0.635,0.962,2.961,1.17,2.833
		c0.273-0.17-0.622-3.064-0.95-3.068C241.796,108.56,241.697,108.667,241.697,108.799 M257.059,110.795
		c-5.271,4.53-10.066,9.589-12.384,13.065c-1.229,1.845-1.384,1.974-2.163,1.803c-0.461-0.101-0.998-0.052-1.193,0.11
		c-0.194,0.162-0.814,0.35-1.379,0.418l-1.021,0.124l1.08,0.046c0.594,0.026,1.168-0.094,1.273-0.268
		c0.119-0.19,0.633-0.237,1.334-0.119c0.631,0.105,1.141,0.072,1.141-0.073c0-1.285,7.072-9.148,13.313-14.803
		C258.393,109.891,258.393,109.65,257.059,110.795 M243.045,112.485c0.098,0.255,0.307,0.463,0.464,0.463
		c0.384,0,0.144-0.665-0.294-0.811C243.001,112.066,242.936,112.2,243.045,112.485 M242.361,114.308
		c-0.199,0.459-1.166,2.086-2.147,3.612c-0.983,1.529-2.19,3.609-2.682,4.621l-0.896,1.842l0.829,0.865
		c0.456,0.478,0.967,0.866,1.133,0.866c0.168,0,0.012-0.205-0.346-0.454c-1.604-1.125-1.063-2.75,2.907-8.737
		c0.95-1.436,1.692-2.8,1.646-3.03C242.757,113.649,242.57,113.823,242.361,114.308 M235.54,126.774
		c1.213,1.292,1.476,1.522,1.476,1.304c0-0.046-0.625-0.672-1.391-1.389l-1.389-1.307L235.54,126.774 M233.113,126.311
		c-0.451,0.45-0.129,1.265,0.84,2.113c1.404,1.233,1.953,1.154,0.732-0.104c-0.539-0.557-1.065-0.962-1.168-0.899
		c-0.103,0.064-0.205-0.147-0.229-0.472c-0.039-0.511,0.021-0.537,0.45-0.199c0.445,0.351,0.455,0.336,0.095-0.124
		C233.378,126.046,233.378,126.046,233.113,126.311 M234.967,127.67c0,0.053,0.428,0.479,0.951,0.951l0.951,0.86l-0.859-0.951
		C235.209,127.643,234.967,127.444,234.967,127.67 M241.884,129.269c-0.379,0.612,0.918,1.646,1.613,1.287
		c0.661-0.344,0.653-0.352-0.19-0.196l-0.877,0.16l0.711-0.563l0.711-0.56l-0.947,0.108c-0.569,0.066-0.872-0.004-0.766-0.179
		c0.098-0.158,0.112-0.288,0.032-0.288C242.09,129.042,241.961,129.144,241.884,129.269 M235.73,129.575
		c-0.094,0.153,0.023,0.441,0.264,0.64c0.24,0.199,0.438,0.247,0.441,0.106c0.002-0.14,0.131-0.058,0.287,0.184
		c0.155,0.242,0.284,0.294,0.289,0.118C237.018,130.142,235.93,129.252,235.73,129.575 M237.309,130.751
		c0,0.147,0.196,0.433,0.438,0.632c0.241,0.2,0.438,0.253,0.438,0.117s0.205,0.045,0.455,0.403c0.252,0.355,0.662,0.648,0.914,0.648
		c0.373,0,0.391-0.079,0.098-0.436c-0.199-0.239-0.465-0.372-0.592-0.294c-0.125,0.078-0.302-0.047-0.39-0.277
		C238.48,131.05,237.309,130.366,237.309,130.751 M243.648,130.992c-0.107,0.108-0.195,0.38-0.195,0.607
		c0,0.34,0.074,0.335,0.439-0.028c0.239-0.242,0.438-0.514,0.438-0.606C244.331,130.736,243.887,130.754,243.648,130.992
		 M236.139,131.793c0,0.081,0.592,0.556,1.315,1.055c0.724,0.496,1.317,0.84,1.317,0.759c0-0.08-0.594-0.556-1.317-1.054
		C236.73,132.055,236.139,131.713,236.139,131.793 M240.23,133.281c0.199,0.24,0.465,0.372,0.592,0.295
		c0.126-0.078,0.299,0.043,0.386,0.268c0.216,0.563,2.759,2.28,2.94,1.986c0.08-0.13-0.705-0.854-1.748-1.611
		C240.512,132.849,239.516,132.418,240.23,133.281 M246.962,134.994c1.306,1.818,0.918,2.368-1.01,1.431
		c-0.718-0.349-1.376-0.521-1.462-0.382c-0.159,0.257,1.871,1.192,2.591,1.192c1.306,0,0.724-2.484-0.806-3.429
		C246.111,133.704,246.42,134.239,246.962,134.994"/>
	<path id="path5" fill="#FFBE98" d="M274.989,1.092c0.688,0.063,1.741,0.063,2.341-0.001c0.6-0.063,0.036-0.112-1.251-0.111
		S274.301,1.031,274.989,1.092 M267.248,3.438c-0.635,0.604-0.814,0.819-0.404,0.482c0.412-0.337,1.075-0.831,1.473-1.097
		c0.398-0.266,0.58-0.484,0.404-0.484C268.544,2.341,267.882,2.835,267.248,3.438 M284.393,4.828
		c0.508,0.993,0.896,1.479,0.899,1.13c0.002-0.184-0.267-0.644-0.597-1.022C284.223,4.391,284.157,4.368,284.393,4.828
		 M264.375,8.193c-0.111,0.506-0.141,0.979-0.066,1.055s0.219-0.285,0.322-0.799C264.875,7.229,264.639,6.993,264.375,8.193
		 M279.555,8.419c-1.209,0.983-1.918,2.937-2.589,7.134c-0.37,2.313-1.259,1.682-1.911-1.357l-0.438-2.046l-1.404-0.256
		c-1.63-0.299-1.643-0.291-1.968,1.162c-0.336,1.484,0.134,3.783,1.06,5.183c1.145,1.728-0.369,4.171-3.222,5.202
		c-0.685,0.248-1.013,0.525-0.914,0.778c0.185,0.479-0.899,2.688-1.394,2.839c-0.193,0.06-0.705,0.185-1.135,0.277
		c-1.117,0.243-4.924,6.404-4.924,7.968c0,0.146-0.464,0.97-1.031,1.83c-0.599,0.908-0.967,1.776-0.875,2.064
		c0.088,0.279-0.426,1.603-1.174,3.02c-2.662,5.049-3.158,8.164-1.736,10.916c0.621,1.199,0.72,1.708,0.592,3.05
		c-0.104,1.096-0.068,1.423,0.113,1.023c0.146-0.322,0.275-0.882,0.287-1.244c0.028-0.929,0.121-0.881,2.461,1.261
		c2.004,1.835,4.65,3.669,10.728,7.438c1.997,1.239,2.764,1.874,2.722,2.256c-0.513,4.67-0.242,5.444,0.362,1.043
		c0.188-1.378,1.052-1.36,1.582,0.031c0.489,1.293,4.438,3.417,5.323,2.865c0.296-0.186,0.807-0.335,1.136-0.335
		s0.674-0.197,0.769-0.439c0.092-0.241,0.408-0.438,0.703-0.438c0.772,0,0.995-0.541,0.465-1.127
		c-0.261-0.288-0.388-0.77-0.295-1.121c0.133-0.503-0.109-0.77-1.326-1.452c-1.563-0.877-1.777-1.257-1.053-1.86
		c1.184-0.979-0.041-1.311-2.058-0.557l-1.604,0.601l-0.988-0.609c-1.928-1.191-2.313-3.177-0.535-2.771
		c3.104,0.708,7.556,2.311,8.005,2.88c0.897,1.144,5.567,2.106,5.907,1.22c0.1-0.259,0.453-0.47,0.785-0.47s0.69-0.229,0.799-0.513
		c0.107-0.281,0.466-0.742,0.796-1.024l0.6-0.512l-0.608-0.518c-0.334-0.284-0.549-0.695-0.476-0.911
		c0.168-0.505-0.306-0.795-2.208-1.354c-1.482-0.436-1.857-0.788-1.244-1.167c0.461-0.284,0.342-1.315-0.15-1.315
		c-0.243,0-1.139,0.462-1.988,1.025l-1.547,1.027l-2.033-0.694c-6.553-2.232-6.803-2.438-5.982-4.871
		c0.137-0.4,0.332-1.258,0.435-1.9c0.103-0.646,0.448-2.272,0.771-3.618c0.319-1.346,0.541-2.729,0.492-3.072
		c-0.08-0.56-1.931,7.595-3.013,13.274c-0.229,1.207-0.526,2.568-0.658,3.027l-0.241,0.835l-1.746-1.402
		c-11.43-9.188-11.924-10.344-7.067-16.6c1.028-1.323,1.155-1.172-2.726-3.275c-1.688-0.916-3.104-1.695-3.142-1.73
		c-0.039-0.035,0.319-0.679,0.797-1.43c0.478-0.752,1.337-2.503,1.911-3.89c1.281-3.1,2.85-5.602,3.727-5.949
		c4.566-1.816,6.491-0.785,10.076,5.395c2.036,3.512,2.535,5.282,2.372,8.416c-0.139,2.663-0.135,2.686,0.271,1.389
		c0.937-2.988-1.07-9.15-4.185-12.852c-0.81-0.963-0.85-1.182-0.338-1.882c0.343-0.468,0.468-0.473,1.646-0.056
		c3.348,1.18,5.246,0.126,7.385-4.097c0.831-1.641,1.182-2.052,1.917-2.24c1.539-0.399,1.696-0.86,0.961-2.784
		c-0.912-2.378-1.315-8.729-0.61-9.597c0.467-0.569,0.463-0.571-0.132-0.071c-0.837,0.704-1.024,0.659-2.131-0.514
		C281.617,7.773,280.557,7.603,279.555,8.419 M264.038,12.582c0,1.368,0.05,1.928,0.112,1.244c0.061-0.684,0.061-1.803,0-2.487
		C264.088,10.655,264.038,11.214,264.038,12.582 M264.27,16.385c0,0.242,0.113,0.703,0.252,1.024c0.158,0.369,0.25,0.423,0.25,0.147
		c0-0.242-0.111-0.703-0.25-1.024C264.361,16.164,264.27,16.11,264.27,16.385 M265.127,19.459c0,0.161,0.188,0.621,0.418,1.024
		c0.23,0.4,0.418,0.6,0.418,0.438s-0.188-0.622-0.418-1.022C265.314,19.495,265.127,19.298,265.127,19.459 M255.775,59.373
		c-0.469,2.186-0.724,3.998-0.537,3.83c0.248-0.222,1.173-4.988,1.002-5.158C256.159,57.963,255.95,58.561,255.775,59.373
		 M254.76,63.987c-0.299,1.014-0.81,4.253-0.689,4.373c0.068,0.065,0.354-0.943,0.635-2.244
		C255.152,64.042,255.191,62.525,254.76,63.987 M253.553,69.495c-0.418,2.019-0.449,2.336-0.182,1.902
		c0.339-0.554,0.74-2.633,0.508-2.633C253.783,68.764,253.637,69.093,253.553,69.495 M243.965,96.722
		c-0.811,1.636-0.664,2.609,0.602,4.016c0.613,0.68,1.426,1.632,1.804,2.115c0.377,0.481,0.616,0.68,0.534,0.438
		c-0.504-1.454-0.527-1.716-0.172-1.836c0.207-0.071,0.125-0.088-0.185-0.038c-1.819,0.291-3.536-3.964-1.901-4.71
		c0.701-0.318,0.816-0.836,0.211-0.95C244.648,95.719,244.247,96.152,243.965,96.722 M239.064,96.562
		c-0.582,0.376,0.147,0.376,1.022,0l0.585-0.252l-0.585-0.018C239.766,96.285,239.305,96.406,239.064,96.562 M241.084,96.394
		c-0.096,0.096-0.059,0.915,0.083,1.818c0.312,1.989,0.108,2.404-0.315,0.644l-0.306-1.271l0.149,1.463
		c0.178,1.736,0.675,3.129,1.035,2.905c0.143-0.088,0.26,0.002,0.26,0.199s0.058,0.3,0.13,0.229c0.071-0.07-0.005-0.719-0.169-1.438
		s-0.387-2.078-0.495-3.019C241.348,96.985,241.18,96.297,241.084,96.394 M246.379,104.155c0,0.243-0.259,0.326-0.732,0.236
		c-0.864-0.166-0.994,0.227-0.146,0.447c0.322,0.084,0.585,0.313,0.585,0.504c0,0.216-0.199,0.275-0.512,0.156
		c-0.41-0.156-0.439-0.121-0.146,0.174c0.568,0.572,0.434,0.896-0.293,0.698l-0.658-0.178l0.668,0.393
		c0.694,0.409,0.607,0.879-0.109,0.604c-0.227-0.087-0.411-0.027-0.411,0.132c0,0.323,1.147,0.707,1.208,0.404
		c0.021-0.106,0.068-0.456,0.105-0.777c0.039-0.322,0.217-1.105,0.396-1.74c0.179-0.634,0.261-1.216,0.187-1.292
		C246.441,103.842,246.379,103.949,246.379,104.155 M245.501,109.437c0,0.481,0.108,0.878,0.242,0.878
		c0.133,0,0.185-0.396,0.112-0.878c-0.07-0.483-0.181-0.878-0.242-0.878S245.501,108.954,245.501,109.437 M236.139,122.9
		c-0.293,0.187-0.318,0.282-0.074,0.285c0.213,0.003,0.365,0.382,0.365,0.903c0,1.517,1.228,2.441,3.789,2.862
		c1.199,0.197,2.385,0.516,2.635,0.707c0.252,0.194,0.205,0.058-0.104-0.305c-0.307-0.359-0.749-0.653-0.98-0.653
		c-0.274,0-0.36-0.171-0.242-0.481c0.152-0.396,0.108-0.417-0.25-0.118c-1.41,1.172-5.198-0.933-4.293-2.385
		c0.203-0.322,0.238-0.508,0.076-0.406c-0.16,0.099-0.334-0.017-0.388-0.255C236.604,122.743,236.452,122.699,236.139,122.9
		 M234.859,127.517c2.283,2.039,3.912,2.921,3.912,2.117c0-0.154-0.221-0.197-0.487-0.096c-0.304,0.116-0.415,0.07-0.296-0.123
		c0.232-0.375-2.264-2.486-2.592-2.191c-0.127,0.113-0.146,0.059-0.041-0.124c0.265-0.463-0.426-0.969-1.24-0.906
		C233.502,126.24,233.575,126.369,234.859,127.517 M243.182,128.495c-0.013,0.263-0.312,0.554-0.666,0.647
		c-0.354,0.093-0.58,0.234-0.498,0.315c0.435,0.436,1.637-0.294,1.414-0.854C243.256,128.157,243.195,128.131,243.182,128.495
		 M242.984,130.066c-0.599,0.452-0.319,0.534,0.596,0.176c0.326-0.128,0.438-0.301,0.262-0.409
		C243.675,129.73,243.289,129.835,242.984,130.066 M243.169,130.786c-0.237,0.15-0.339,0.364-0.228,0.476
		c0.113,0.112,0.408,0.035,0.658-0.172c0.248-0.207,0.549-0.271,0.666-0.146c0.114,0.125,0.047,0.287-0.154,0.357
		c-0.201,0.072-0.366,0.247-0.366,0.391c0,0.143,0.2,0.183,0.442,0.09c0.244-0.094,0.664,0.009,0.935,0.228
		c0.272,0.223,0.18-0.023-0.205-0.552C244.186,130.457,243.876,130.338,243.169,130.786"/>
</g>
</svg>
