<?xml version="1.0" encoding="utf-8"?>
<!-- Generator: Adobe Illustrator 12.0.0, SVG Export Plug-In . SVG Version: 6.00 Build 51448)  -->
<!DOCTYPE svg PUBLIC "-//W3C//DTD SVG 1.1//EN" "http://www.w3.org/Graphics/SVG/1.1/DTD/svg11.dtd" [
	<!ENTITY ns_svg "http://www.w3.org/2000/svg">
	<!ENTITY ns_xlink "http://www.w3.org/1999/xlink">
]>
<svg  version="1.1" id="svg" xmlns="&ns_svg;" xmlns:xlink="&ns_xlink;" width="400" height="292.4" viewBox="0 0 400 292.4"
	 overflow="visible" enable-background="new 0 0 400 292.4" xml:space="preserve">
<g id="svgg">
	<path id="path1" fill="#790800" d="M167.893,0.598c-5.171,1.271-7.541,4.643-7.542,10.728c-0.001,3.679,2.265,10.317,3.608,10.57
		c2.597,0.492,5.523-3.07,4.166-5.07c-1.346-1.983-1.708-4.993-0.742-6.157c0.405-0.485,1.622-0.574,1.893-0.135
		c0.099,0.161,0.428,0.293,0.731,0.293c0.747,0,0.881,0.29,1.115,2.415c0.344,3.114,1.25,2.786,1.917-0.695
		c1.075-5.604,3.13-7.418,5.54-4.884l1.166,1.228l0.691-0.805c0.911-1.059,0.868-2.062-0.165-3.861
		C178.172,0.565,173.543-0.791,167.893,0.598 M172.123,39.21c0,0.563,0.061,0.794,0.134,0.514c0.074-0.282,0.074-0.742,0-1.024
		C172.184,38.416,172.123,38.647,172.123,39.21 M149.525,70.038c0,1.122,7.442,3.102,13.899,3.696c4.019,0.37,3.95,0.371,3.95-0.069
		c0-0.258-0.438-0.335-1.493-0.262c-3.511,0.243-12.573-1.626-15.294-3.155C149.812,69.813,149.525,69.756,149.525,70.038
		 M119.13,83.917c-0.268,0.508-2.112,6.772-2.861,9.719c-0.681,2.677-1.198,6.084-0.978,6.44c0.114,0.184,0.278-0.498,0.364-1.516
		c0.152-1.785,3.134-11.32,4.148-13.268c0.251-0.479,0.458-1.024,0.459-1.21C120.265,83.512,119.41,83.385,119.13,83.917
		 M120.608,85.208c-2.379,4.995-5.015,15.495-3.786,15.086c0.779-0.26,3.238-4.109,2.931-4.591
		c-0.215-0.336-0.131-0.692,0.318-1.336c1.132-1.624,1.314-1.734,2.132-1.296c0.877,0.469,1.386-0.03,1.132-1.11
		c-0.784-3.337-0.401-5.27,1.187-5.993c0.908-0.412,0.902-0.639-0.03-1.063c-1.412-0.645-1.922-0.077-3.374,3.749
		c-0.277,0.729-0.681,1.325-0.898,1.325c-0.709,0-0.595-1.233,0.326-3.533C121.53,83.987,121.571,83.188,120.608,85.208
		 M159.797,130.078c-0.42,1.512,1.948,2.77,5.221,2.77c0.829,0,0.76,0.824-0.087,1.037c-0.378,0.097-1.762-0.01-3.076-0.23
		c-1.314-0.223-2.281-0.297-2.148-0.164c1.249,1.249,16.674,2.421,16.564,1.259c-0.059-0.625-4.492-2.502-5.064-2.145
		c-1.105,0.688-3.8-1.138-2.943-1.994c0.883-0.883-0.576-1.041-2.57-0.279c-2.861,1.093-4.346,0.887-5.207-0.723
		C160.126,128.932,160.114,128.94,159.797,130.078 M159.181,134.863c0,1.003,16.756,2.26,17.349,1.301
		c0.105-0.171-0.812-0.229-2.377-0.156c-2.538,0.121-11.405-0.801-13.507-1.404C159.269,134.207,159.181,134.223,159.181,134.863"/>
	<path id="path2" fill="#005E84" d="M149.236,70.824c-0.002,0.569,0.184,1.759,0.415,2.643c1.306,5.017,2.511,22.223,1.556,22.216
		c-0.201-0.001-2.736-1.068-5.633-2.371c-10.452-4.7-13.345-5.81-17.838-6.836c-1.121-0.259-2.154-0.627-2.295-0.822
		c-0.172-0.237-0.202-0.18-0.089,0.167c0.103,0.32-0.005,0.59-0.276,0.694c-1.272,0.486-1.685,4.167-0.518,4.613
		c0.352,0.137,0.426,0.45,0.31,1.316l-0.153,1.139l2.09,0.662c2.755,0.873,6.788,2.775,13.119,6.189
		c16.029,8.642,20.583,7.389,21.702-5.972c0.418-4.999,0.34-4.96,2.374-1.192c0.934,1.729,2.203,4.077,2.821,5.216
		c1.287,2.375,1.278,2.748-0.196,8.464c-0.415,1.609-0.885,3.449-1.043,4.088c-0.43,1.732-2.183,7.7-3.507,11.938
		c-0.642,2.055-1.069,3.895-0.949,4.088c0.12,0.192,0.182,0.843,0.139,1.439c-0.114,1.585,2.876,2.021,4.4,0.644
		c0.483-0.438,0.581-0.438,1.262,0.01c0.455,0.298,0.739,0.358,0.739,0.156c0-0.311,2.235-6.104,3.096-8.025
		c2.181-4.871,6.014-15.954,6.716-19.414c0.589-2.908-0.093-5.134-4.538-14.821c-0.25-0.544-4.671-10.896-5.28-12.361
		c-0.151-0.362-0.441-0.658-0.646-0.659c-5.702-0.003-16.562-2.428-17.558-3.92C149.338,69.933,149.239,70.254,149.236,70.824
		 M116.919,90.292c-0.107,0.428-0.139,0.836-0.07,0.905c0.069,0.069,0.213-0.226,0.321-0.655c0.108-0.428,0.139-0.836,0.07-0.903
		C117.171,89.568,117.027,89.863,116.919,90.292 M115.33,96.854c0,0.242,0.113,0.703,0.252,1.023
		c0.158,0.368,0.251,0.423,0.251,0.146c0-0.242-0.113-0.702-0.251-1.024C115.423,96.632,115.33,96.578,115.33,96.854 M116.19,99.105
		c-0.013,0.674,0.081,1.291,0.208,1.369c0.128,0.077,0.184-0.343,0.125-0.935C116.363,97.921,116.216,97.728,116.19,99.105
		 M165.691,135.388c0.282,0.072,0.743,0.072,1.024,0c0.282-0.073,0.052-0.136-0.512-0.136
		C165.64,135.254,165.41,135.315,165.691,135.388 M164.521,136.266c0.281,0.072,0.742,0.072,1.024,0
		c0.282-0.074,0.051-0.136-0.512-0.136S164.239,136.192,164.521,136.266 M170.373,136.574c1.086,0.056,2.864,0.056,3.95,0
		c1.087-0.056,0.198-0.102-1.975-0.102C170.176,136.472,169.287,136.518,170.373,136.574"/>
	<path id="path3" fill="#CC040F" d="M167.432,10.593c-0.193,0.193-0.351,0.481-0.351,0.643c0,0.159,0.177,0.048,0.393-0.248
		c0.272-0.371,0.632-0.492,1.162-0.393c0.423,0.081,0.699,0.034,0.614-0.103C169.021,10.122,167.837,10.188,167.432,10.593
		 M166.868,12.875c0,0.726,0.057,1.021,0.127,0.658c0.07-0.362,0.07-0.954,0-1.316C166.925,11.854,166.868,12.151,166.868,12.875
		 M160.059,26.395c-1.253,0.611-8.504,7.488-8.471,8.034c0.008,0.135,1.32,1.231,2.916,2.438c3.43,2.594,3.346,2.292,1.239,4.438
		l-1.683,1.713l-0.173,2.997c-0.159,2.75-0.12,3.081,0.471,4.021c1.014,1.612,4.915,6.218,7.861,9.281l2.693,2.8l1.857-0.328
		c2.293-0.404,1.99,0.058,2.66-4.035c0.314-1.912,1.036-6.239,1.606-9.62c1.584-9.387,1.551-10.85-0.328-14.568
		C167.265,26.753,163.925,24.503,160.059,26.395 M152.529,57.422c-0.496,1.034-3.047,11.914-2.864,12.21
		c0.912,1.477,11.539,3.951,16.232,3.781l1.769-0.063l0.004-1.636c0.003-0.897,0.089-1.964,0.193-2.364
		c0.182-0.708,0.169-0.717-0.39-0.225c-0.801,0.707-5.074-2.319-5.074-3.596c0-0.472-1.649-2.039-6.144-5.836
		c-1.207-1.021-2.468-2.097-2.802-2.396C152.859,56.773,152.838,56.776,152.529,57.422"/>
	<path id="path4" fill="#77ABBA" d="M149.718,75.049c0.102,0.804,0.295,1.789,0.429,2.195c0.153,0.465,0.178,0.146,0.066-0.872
		c-0.098-0.886-0.291-1.873-0.429-2.195C149.626,73.811,149.601,74.138,149.718,75.049 M167.374,73.78
		c0,0.303,4.182,10.278,5.564,13.271c1.128,2.442,4.128,9.651,4.531,10.888c0.737,2.258,0.065,5.254-3.195,14.238
		c-0.577,1.591-1.044,2.973-1.039,3.073c0.058,1.205,3.961-10.215,4.532-13.259c0.598-3.194,0.686-2.895-4.176-14.203
		c-2.181-5.073-4.402-10.261-4.936-11.53C167.778,74.174,167.374,73.391,167.374,73.78 M150.463,79.005
		c-0.009,0.402,0.165,2.838,0.387,5.413l0.404,4.684l-0.161-3.95C150.947,81.555,150.505,77.244,150.463,79.005 M120.404,83.677
		c0.097,0.157-0.027,0.678-0.274,1.154c-0.247,0.479-0.34,0.938-0.206,1.021c0.309,0.19,1.17-1.605,1.002-2.094
		c-0.069-0.199-0.255-0.364-0.412-0.364C120.357,83.394,120.308,83.522,120.404,83.677 M122.797,84.492
		c-0.074,0.12,0.317,0.229,0.869,0.241c0.618,0.014,0.859-0.068,0.629-0.215C123.823,84.219,122.973,84.203,122.797,84.492
		 M125.165,85.143c0.408,0.465,0.496,1,0.127,0.771c-1.205-0.745-2.247,4.396-1.068,5.272c0.335,0.249,0.399,0.63,0.256,1.521
		c-0.181,1.133-0.15,1.199,0.649,1.375c0.462,0.104,1.224,0.309,1.692,0.455c0.469,0.148,0.911,0.211,0.983,0.139
		c0.072-0.069-0.595-0.341-1.481-0.598l-1.612-0.469l0.155-1.153c0.117-0.873,0.044-1.193-0.3-1.327
		c-1.295-0.497-0.801-3.791,0.712-4.749l0.854-0.541l-0.666-0.557C125.099,84.977,124.963,84.914,125.165,85.143 M119.219,86.811
		c-0.133,0.454-0.261,0.958-0.285,1.119c-0.024,0.159-0.143,0.556-0.264,0.878c-1.191,3.173-1.166,3.07-0.776,3.07
		c0.384,0,2.1-5.358,1.81-5.649C119.57,86.094,119.351,86.357,119.219,86.811 M128.31,86.566c1.127,0.289,2.748,0.761,3.604,1.048
		c0.855,0.287,1.623,0.454,1.706,0.371c0.216-0.217-4.475-1.607-6.041-1.791C126.575,86.076,126.749,86.165,128.31,86.566
		 M135.651,88.919c0.979,0.464,2.098,0.924,2.487,1.024c0.388,0.099-0.095-0.199-1.075-0.662c-0.979-0.463-2.098-0.924-2.487-1.023
		C134.188,88.158,134.671,88.456,135.651,88.919 M151.28,92.594c0,2.989,0.031,2.968-2.448,1.874
		c-1.096-0.481-2.049-0.819-2.119-0.752c-0.141,0.143,4.091,1.97,4.56,1.97c0.183,0,0.3-1.08,0.3-2.78
		c0-1.529-0.066-2.78-0.147-2.78C151.346,90.124,151.28,91.236,151.28,92.594 M162.026,90.324c-0.077,0.132-0.218,1.754-0.314,3.604
		c-0.214,4.107,0.018,3.937,0.322-0.237l0.219-3.02l1.609,3.005c0.886,1.652,2.168,4.064,2.85,5.359s1.241,2.175,1.243,1.956
		c0.004-0.374-0.494-1.343-4.147-8.068C162.215,89.989,162.218,89.994,162.026,90.324 M142.467,91.916
		c1.67,0.797,3.104,1.382,3.186,1.3s-0.166-0.271-0.55-0.419c-0.385-0.147-1.736-0.745-3.003-1.323
		c-1.268-0.58-2.387-1.046-2.488-1.03C139.512,90.456,140.796,91.119,142.467,91.916 M116.02,93.05
		c-0.111,0.508-0.141,0.981-0.066,1.058c0.075,0.074,0.22-0.285,0.323-0.799C116.52,92.087,116.284,91.85,116.02,93.05
		 M116.926,93.834c-0.546,1.604-0.54,1.559-0.208,1.559c0.142,0,0.329-0.23,0.415-0.514c0.086-0.279,0.29-0.938,0.453-1.463
		C118.05,91.923,117.447,92.305,116.926,93.834 M121.141,92.921c0,0.152-0.329,0.658-0.731,1.125
		c-0.559,0.65-0.653,0.941-0.402,1.243c0.412,0.497,0.934,0.519,0.755,0.029c-0.074-0.201-0.315-0.323-0.536-0.271
		c-0.315,0.073-0.326,0.017-0.049-0.266c0.279-0.284,0.448-0.281,0.804,0.015c0.28,0.231,0.452,0.256,0.452,0.063
		c0-0.171-0.132-0.394-0.293-0.492c-0.161-0.099-0.292-0.325-0.292-0.501c0-0.177,0.263-0.083,0.585,0.209
		c0.444,0.401,0.583,0.43,0.576,0.118C121.999,93.738,121.141,92.482,121.141,92.921 M128.749,95.177
		c0.402,0.185,2.114,0.989,3.804,1.792c4.002,1.902,4.097,1.942,4.097,1.759c0-0.233-7.813-3.925-8.256-3.9
		C128.187,94.837,128.347,94.995,128.749,95.177 M115.875,97.584c-0.184,0.884-0.245,1.889-0.137,2.229
		c0.143,0.45,0.088,0.586-0.199,0.488c-0.218-0.07-0.48-0.516-0.581-0.984c-0.176-0.813-0.187-0.818-0.22-0.107
		c-0.038,0.834,0.437,1.448,1.122,1.448c0.346,0,0.453-0.329,0.453-1.39c0-0.766,0.096-1.817,0.212-2.342
		c0.118-0.527,0.095-0.949-0.052-0.949C116.327,95.977,116.058,96.7,115.875,97.584 M136.942,99.023c0,0.209,3.307,1.937,3.445,1.8
		c0.069-0.07-0.678-0.532-1.66-1.028C137.746,99.3,136.942,98.952,136.942,99.023 M160.672,100.521
		c-0.466,1.849-1.644,3.529-3.074,4.388c-0.658,0.396-1.052,0.719-0.875,0.721c1.594,0.016,5.379-5.365,4.438-6.308
		C161.079,99.24,160.859,99.78,160.672,100.521 M140.746,101.09c0,0.08,0.922,0.61,2.048,1.18c1.127,0.565,2.049,0.965,2.049,0.885
		c0-0.081-0.922-0.611-2.049-1.178C141.668,101.408,140.746,101.009,140.746,101.09 M167.261,102.707
		c-0.128,0.726-0.556,2.616-0.951,4.204c-0.396,1.588-0.66,2.948-0.586,3.022c0.163,0.163,0.245-0.114,1.209-4.113
		c0.421-1.748,0.719-3.46,0.663-3.804C167.532,101.627,167.405,101.889,167.261,102.707 M145.282,103.5
		c0.37,0.371,4.656,2.134,5.173,2.128c0.213-0.003-0.733-0.47-2.101-1.038C144.794,103.112,144.951,103.168,145.282,103.5
		 M151.508,105.977c0.684,0.271,3.933,0.282,4.352,0.017c0.186-0.118-0.831-0.215-2.259-0.216
		C152.172,105.778,151.231,105.867,151.508,105.977 M164.615,113.286c-0.461,1.665-1.489,5.134-2.285,7.709
		c-1.878,6.072-1.828,5.813-1.198,6.311c0.485,0.381,0.5,0.375,0.156-0.065c-0.321-0.411-0.132-1.3,1.218-5.706
		c2.387-7.798,3.17-10.607,3.053-10.958C165.501,110.402,165.076,111.621,164.615,113.286 M172.081,117.948
		c-0.504,1.32-0.862,2.454-0.796,2.521c0.067,0.066,0.534-0.959,1.038-2.277c0.504-1.32,0.862-2.455,0.795-2.521
		C173.052,115.602,172.585,116.628,172.081,117.948 M170.699,121.319c-0.109,0.304-0.771,1.973-1.47,3.708
		c-1.211,3.007-1.556,4.093-0.995,3.137c0.577-0.982,2.956-7.106,2.816-7.248C170.967,120.833,170.809,121.014,170.699,121.319
		 M160.936,128.78c0,0.179-0.181,0.255-0.403,0.17c-0.492-0.189-1.066,0.337-1.041,0.955c0.012,0.289,0.111,0.223,0.275-0.182
		c0.184-0.456,0.426-0.593,0.859-0.479c0.425,0.111,0.603,0.02,0.603-0.313c0-0.263-0.066-0.476-0.146-0.476
		C161.002,128.456,160.936,128.602,160.936,128.78 M165.651,129.148c-0.268,0.324-0.179,0.376,0.477,0.274l0.807-0.122l-0.732,0.445
		c-0.902,0.548-0.415,0.594,0.562,0.052c0.706-0.391,0.706-0.392,0.092-0.721C166.082,128.664,166.052,128.666,165.651,129.148
		 M161.713,129.993c0.174,0.281,2.482,0.278,2.926-0.005c0.186-0.118-0.427-0.215-1.362-0.215S161.638,129.872,161.713,129.993
		 M168.845,130.933c-0.202,0.242-0.517,0.356-0.7,0.253c-0.183-0.104-0.23-0.077-0.104,0.061c0.39,0.428,1.117,0.402,1.289-0.047
		C169.568,130.58,169.274,130.417,168.845,130.933 M169.333,131.801c-0.388,0.297-0.426,0.436-0.146,0.529
		c0.21,0.07,0.557-0.081,0.771-0.337c0.352-0.419,0.375-0.416,0.232,0.039c-0.191,0.61,0.276,0.979,0.5,0.396
		c0.097-0.251,0.426-0.362,0.836-0.285c0.372,0.068,0.215-0.063-0.348-0.293C169.896,131.321,169.964,131.323,169.333,131.801
		 M159.908,134.023c-0.074,0.12,0.449,0.365,1.162,0.544c1.56,0.393,1.915,0.407,1.915,0.073
		C162.985,134.314,160.087,133.733,159.908,134.023 M163.716,134.894c0.1,0.161,0.799,0.296,1.554,0.3
		c0.755,0.003,1.899,0.134,2.543,0.289c3.263,0.787,8.57,0.62,8.87-0.28c0.086-0.259,0.002-0.311-0.251-0.155
		c-1.011,0.625-2.954,0.658-6.976,0.118C164.696,134.527,163.453,134.469,163.716,134.894 M162.765,136.266
		c0.282,0.072,0.743,0.072,1.024,0c0.282-0.074,0.052-0.136-0.512-0.136C162.714,136.132,162.484,136.192,162.765,136.266
		 M176.28,136.346c-0.155,0.153-1.729,0.323-3.497,0.377l-3.215,0.095l3.256,0.062c2.593,0.052,3.331-0.025,3.621-0.377
		C176.848,136.018,176.725,135.901,176.28,136.346 M165.838,136.569c0.523,0.063,1.379,0.063,1.902,0
		c0.523-0.065,0.095-0.118-0.951-0.118S165.315,136.504,165.838,136.569 M172.421,155.879c0.443,0.067,1.167,0.067,1.61,0
		c0.442-0.065,0.08-0.122-0.805-0.122C172.341,155.757,171.979,155.812,172.421,155.879"/>
	<path id="path5" fill="#FFBE98" d="M178.176,1.577c0.229,0.277,0.689,0.649,1.025,0.828c0.554,0.295,0.571,0.279,0.194-0.178
		c-0.228-0.277-0.689-0.649-1.024-0.828C177.816,1.104,177.799,1.12,178.176,1.577 M175.156,7.407
		c-0.891,0.891-1.842,3.486-2.094,5.716c-0.334,2.949-1.676,3.315-1.963,0.534c-0.232-2.246-0.566-2.739-2.018-2.985
		c-2.247-0.379-2.725,2.377-1.003,5.781c0.965,1.907,0.879,2.414-0.678,4.003c-1.606,1.638-3.054,2.049-4.072,1.155
		c-0.696-0.611-0.687-0.582,0.081,0.267c1.374,1.52,0.617,3.362-1.474,3.59c-2.362,0.259-10.9,7.527-10.585,9.015
		c0.057,0.267-0.714,1.564-1.714,2.886c-5.364,7.086-5.097,10.726,1.273,17.382l1.29,1.35l-0.331,1.826
		c-0.183,1.008-0.267,1.895-0.188,1.975c0.08,0.079,0.302-0.656,0.494-1.633l0.35-1.778l2.816,2.401
		c5.351,4.563,7.059,6.172,7.059,6.647c0,1.156,4.271,4.302,4.976,3.665c0.441-0.398,0.473-0.229,0.403,2.124l-0.076,2.558
		l0.274-2.19c0.285-2.282,0.888-3.199,2.114-3.214c0.675-0.011,0.962-0.771,0.499-1.327c-0.272-0.329-0.278-0.535-0.026-0.839
		c0.264-0.318,0.117-0.596-0.696-1.31c-0.566-0.497-1.03-1.102-1.03-1.343c0-0.27-0.169-0.374-0.439-0.27
		c-0.241,0.093-0.439,0.03-0.439-0.136s0.23-0.347,0.512-0.399c0.376-0.072,0.592-0.563,0.811-1.839l0.3-1.742l7.263,0.063
		c5.883,0.055,7.381,0.149,7.886,0.502c1.111,0.778,5.759,0.416,5.759-0.446c0-0.281,0.263-0.58,0.585-0.664
		c0.336-0.088,0.586-0.399,0.586-0.73c0-0.315,0.189-0.732,0.421-0.926c0.535-0.444,0.301-1.081-0.471-1.283
		c-0.327-0.085-0.508-0.296-0.401-0.468c0.254-0.411-1.219-0.964-1.95-0.732c-1.078,0.344-1.957-0.093-1.897-0.938
		c0.08-1.121-0.52-1.155-1.463-0.082c-1.443,1.643-1.578,1.734-2.582,1.734c-1.11,0-9.981-1.101-11.555-1.434l-1.024-0.216
		l0.057-1.883c0.075-2.472-0.335-1.236-0.769,2.312c-0.317,2.596-1.122,7.102-1.3,7.279c-0.055,0.054-0.936,0.246-1.958,0.426
		l-1.857,0.328l-2.693-2.8c-2.946-3.063-6.847-7.669-7.861-9.281c-0.591-0.938-0.63-1.271-0.471-4.021l0.173-2.997l1.683-1.713
		c2.107-2.146,2.191-1.845-1.239-4.438c-1.596-1.207-2.908-2.305-2.916-2.438c-0.094-1.546,8.878-8.681,10.913-8.681
		c4.581,0,10.173,8.342,9.765,14.566c-0.121,1.837-0.089,2.306,0.113,1.674c0.968-3.034-0.154-7.318-3.007-11.48l-0.849-1.236
		l0.632-1.47c0.72-1.674,0.592-1.62,2.433-0.993c2.988,1.018,4.3,0.299,6.454-3.541c1.049-1.867,1.554-2.485,2.154-2.637
		c1.749-0.437,2.003-1.363,0.925-3.38c-0.512-0.955-0.902-8.203-0.471-8.739c0.283-0.354,0.238-0.356-0.313-0.015
		c-0.59,0.368-0.729,0.313-1.696-0.684C177.378,6.514,176.188,6.375,175.156,7.407 M160.157,11.412c0,1.207,0.052,1.701,0.115,1.097
		c0.063-0.603,0.063-1.591,0-2.192C160.209,9.711,160.157,10.205,160.157,11.412 M171.343,46.167
		c-0.296,1.815-0.476,3.364-0.398,3.442c0.206,0.206,1.184-5.569,1.051-6.205C171.934,43.109,171.64,44.353,171.343,46.167
		 M153.47,47.379c-0.183,0.73-0.203,0.736-0.604,0.188c-0.569-0.778-0.522-2.193,0.097-2.881
		C153.543,44.04,153.871,45.781,153.47,47.379 M151.146,61.01c-0.113,0.482-0.656,2.704-1.206,4.938
		c-0.55,2.23-0.983,4.47-0.962,4.974c0.033,0.754,0.078,0.685,0.258-0.399c0.12-0.726,0.703-3.201,1.295-5.505
		c0.593-2.306,1.02-4.347,0.95-4.536C151.41,60.288,151.26,60.527,151.146,61.01 M120.997,83.684
		c-0.098,0.157-0.007,0.224,0.202,0.146c0.213-0.08,0.536,0.191,0.731,0.614c0.288,0.621,0.279,0.729-0.048,0.604
		c-0.247-0.095-0.576,0.221-0.863,0.823c-0.514,1.083-0.617,1.77-0.144,0.955c0.166-0.285,0.421-0.445,0.566-0.354
		c0.144,0.089,0.541-0.384,0.881-1.051c0.34-0.666,0.483-1.128,0.318-1.024c-0.164,0.102-0.442-0.082-0.617-0.408
		C121.679,83.344,121.28,83.226,120.997,83.684 M123.624,86.964c-0.779,0.928-0.875,2.551-0.247,4.188
		c0.319,0.831,0.645,0.13,0.376-0.81c-0.419-1.461-0.331-2.096,0.452-3.249C125.097,85.778,124.697,85.689,123.624,86.964
		 M120.171,87.895c-0.286,0.746-0.247,1.937,0.064,1.937c0.145,0,0.408-0.415,0.585-0.922c0.39-1.118,0.395-1.206,0.054-0.996
		c-0.148,0.091-0.321,0.007-0.386-0.187C120.416,87.51,120.294,87.575,120.171,87.895 M151.055,89.832
		c0,0.563,0.061,0.793,0.134,0.512c0.074-0.28,0.074-0.741,0-1.022C151.116,89.038,151.055,89.268,151.055,89.832 M121.434,92.857
		c0,0.63,0.839,1.616,1.102,1.295c0.222-0.271,0.115-0.511-0.399-0.896C121.75,92.967,121.434,92.787,121.434,92.857
		 M120.849,93.875c0,0.171,0.131,0.395,0.292,0.492c0.161,0.1,0.293,0.331,0.293,0.515c0,0.24-0.098,0.236-0.351-0.017
		c-0.512-0.512-0.957-0.431-0.521,0.095c0.203,0.245,0.289,0.527,0.189,0.626c-0.099,0.102-0.382,0.017-0.627-0.188
		c-0.518-0.432-0.61,0.006-0.107,0.509c0.256,0.256,0.243,0.466-0.057,0.863c-0.218,0.288,0.09,0.014,0.685-0.61
		c1.182-1.24,1.309-1.678,0.642-2.23C121.011,93.699,120.849,93.679,120.849,93.875 M117.498,100.057
		c-0.283,0.312-0.863,0.622-1.288,0.687l-0.775,0.119l0.754,0.044c0.467,0.027,1.015-0.235,1.441-0.688
		c0.378-0.4,0.619-0.729,0.535-0.729C118.082,99.488,117.782,99.744,117.498,100.057 M159.794,128.836
		c-0.271,0.448-0.279,0.54-0.027,0.304c0.2-0.189,0.577-0.275,0.839-0.192c0.285,0.09,0.359,0.05,0.184-0.1
		c-0.161-0.139-0.363-0.343-0.45-0.453C160.253,128.283,160.008,128.481,159.794,128.836 M161.318,130.075
		c1.114,0.979,5.356,0.55,4.721-0.478c-0.089-0.145-0.542-0.064-1.008,0.177c-1.098,0.566-3.038,0.565-3.509-0.001
		c-0.201-0.241-0.513-0.437-0.695-0.431C160.646,129.349,160.867,129.677,161.318,130.075 M168.219,131.163
		c-0.343,0.655-0.342,0.656,0.283,0.103c0.697-0.619,0.761-0.761,0.345-0.761C168.692,130.505,168.409,130.801,168.219,131.163
		 M169.225,131.26c-0.319,0.678-0.032,1.022,0.343,0.414c0.1-0.159,0.321-0.292,0.492-0.292c0.194,0,0.172,0.167-0.059,0.446
		c-0.203,0.245-0.288,0.527-0.189,0.627c0.1,0.101,0.265-0.036,0.366-0.3c0.102-0.264,0.384-0.481,0.628-0.481
		c0.364,0,0.377,0.08,0.073,0.446c-0.203,0.245-0.296,0.521-0.206,0.61c0.091,0.091,0.305-0.098,0.475-0.416
		c0.31-0.578,0.194-0.723-1.292-1.587C169.693,130.633,169.409,130.873,169.225,131.26 M159.278,132.051
		c0,0.242,0.366,0.387,0.981,0.387c0.965,0,0.827-0.22-0.371-0.583C159.485,131.73,159.278,131.797,159.278,132.051
		 M161.949,132.827c0.106,0.171,0.02,0.321-0.191,0.332c-0.958,0.051,0.94,0.526,2.178,0.544c1.421,0.021,1.917-0.445,0.731-0.688
		C162.603,132.591,161.768,132.533,161.949,132.827 M158.922,133.358c-0.026,0.507,0.118,0.648,0.624,0.624
		c0.467-0.024,0.515-0.072,0.165-0.164c-0.272-0.072-0.553-0.354-0.625-0.625C158.994,132.843,158.946,132.891,158.922,133.358
		 M164.082,133.34c-0.282,0.074-0.743,0.074-1.024,0c-0.282-0.072-0.051-0.134,0.512-0.134S164.364,133.266,164.082,133.34
		 M176.781,135.347c-0.024,0.489-0.207,1.084-0.407,1.315c-0.201,0.234-0.125,0.213,0.169-0.048
		c0.359-0.318,0.492-0.749,0.408-1.317l-0.126-0.844L176.781,135.347 M163.643,136.559c0.282,0.071,0.743,0.071,1.024,0
		c0.282-0.074,0.051-0.136-0.512-0.136S163.361,136.485,163.643,136.559 M168.325,136.851c0.281,0.072,0.742,0.072,1.024,0
		c0.282-0.073,0.051-0.136-0.512-0.136S168.043,136.778,168.325,136.851 M168.105,156.255c-0.369,0.158-0.423,0.251-0.146,0.251
		c0.241,0,0.702-0.111,1.024-0.251c0.369-0.157,0.423-0.252,0.146-0.252C168.888,156.003,168.427,156.116,168.105,156.255
		 M176.445,156.024c0.08,0.079,0.604,0.298,1.164,0.486c0.559,0.189,0.888,0.22,0.731,0.064c-0.157-0.154-0.681-0.374-1.164-0.488
		C176.693,155.973,176.364,155.944,176.445,156.024"/>
</g>
</svg>
