<?xml version="1.0" standalone="no"?>
<!DOCTYPE svg PUBLIC "-//W3C//DTD SVG 20010904//EN"
 "http://www.w3.org/TR/2001/REC-SVG-20010904/DTD/svg10.dtd">
<svg version="1.0" xmlns="http://www.w3.org/2000/svg"
 width="192.000000pt" height="116.000000pt" viewBox="0 0 192.000000 116.000000"
 preserveAspectRatio="xMidYMid meet">
<metadata>
Created by potrace 1.15, written by Peter Selinger 2001-2017
</metadata>
<g transform="translate(0.000000,116.000000) scale(0.100000,-0.100000)"
fill="#000000" stroke="none">
<path d="M493 723 c-23 -2 -46 -9 -51 -16 -6 -7 -12 -46 -13 -88 -4 -97 4
-109 76 -109 35 0 57 -5 65 -15 7 -9 29 -15 55 -15 26 0 48 6 55 15 11 13 68
15 399 15 288 0 390 3 399 12 18 18 16 172 -2 187 -11 9 -115 12 -397 11 -336
-1 -385 -3 -401 -17 -21 -19 -91 -13 -117 11 -10 9 -19 15 -22 14 -2 -1 -23
-3 -46 -5z m555 -39 c26 -18 30 -69 6 -102 -14 -20 -24 -22 -99 -22 -75 0 -85
2 -99 22 -17 24 -21 65 -8 84 24 36 157 48 200 18z"/>
</g>
</svg>
