<?xml version="1.0" standalone="no"?>
<!DOCTYPE svg PUBLIC "-//W3C//DTD SVG 20010904//EN"
 "http://www.w3.org/TR/2001/REC-SVG-20010904/DTD/svg10.dtd">
<svg version="1.0" xmlns="http://www.w3.org/2000/svg"
 width="242.000000pt" height="115.000000pt" viewBox="0 0 242.000000 115.000000"
 preserveAspectRatio="xMidYMid meet">
<metadata>
Created by potrace 1.15, written by Peter Selinger 2001-2017
</metadata>
<g transform="translate(0.000000,115.000000) scale(0.100000,-0.100000)"
fill="#000000" stroke="none">
<path d="M523 773 c-23 -2 -46 -9 -51 -16 -6 -7 -12 -46 -13 -88 -4 -97 4
-109 76 -109 35 0 57 -5 65 -15 7 -9 29 -15 55 -15 26 0 48 6 55 15 11 13 87
15 569 15 420 0 560 3 569 12 18 18 16 172 -2 187 -11 9 -158 12 -567 11 -494
0 -555 -2 -571 -17 -21 -19 -90 -13 -117 11 -10 9 -19 15 -22 14 -2 -1 -23 -3
-46 -5z m745 -39 c26 -18 30 -69 6 -102 -14 -21 -23 -22 -134 -22 -111 0 -120
1 -134 22 -9 12 -16 34 -16 48 0 55 31 69 155 70 75 0 106 -4 123 -16z m132
-41 c0 -17 16 -18 197 -17 109 1 189 -2 178 -7 -18 -7 -18 -8 -2 -8 10 -1 17
-7 15 -13 -6 -16 -107 -23 -121 -9 -6 6 -20 11 -32 10 -17 -1 -16 -2 5 -9 24
-8 23 -8 -8 -9 -20 -1 -35 5 -38 14 -4 8 -10 15 -15 15 -5 0 -9 -7 -9 -15 0
-8 -9 -15 -20 -15 -11 0 -20 -4 -20 -10 0 -5 -12 -9 -27 -9 -19 1 -22 3 -10 6
16 4 15 7 -8 19 -15 8 -35 14 -44 13 -9 -1 -5 -4 9 -9 17 -5 2 -7 -45 -6 -59
1 -70 4 -73 19 -3 12 4 20 17 24 12 3 21 12 21 19 0 8 7 14 15 14 8 0 15 -8
15 -17z"/>
</g>
</svg>
