<?xml version="1.0" standalone="no"?>
<!DOCTYPE svg PUBLIC "-//W3C//DTD SVG 20010904//EN"
 "http://www.w3.org/TR/2001/REC-SVG-20010904/DTD/svg10.dtd">
<svg version="1.0" xmlns="http://www.w3.org/2000/svg"
 width="207.000000pt" height="138.000000pt" viewBox="0 0 207.000000 138.000000"
 preserveAspectRatio="xMidYMid meet">
<metadata>
Created by potrace 1.15, written by Peter Selinger 2001-2017
</metadata>
<g transform="translate(0.000000,138.000000) scale(0.100000,-0.100000)"
fill="#000000" stroke="none">
<path d="M403 873 c-23 -2 -46 -9 -51 -16 -6 -7 -12 -46 -13 -88 -4 -97 4
-109 76 -109 35 0 57 -5 65 -15 7 -9 29 -15 55 -15 26 0 48 6 55 15 11 13 83
15 534 15 393 0 525 3 534 12 18 18 16 172 -2 187 -11 9 -149 12 -532 11 -461
0 -520 -2 -536 -17 -21 -19 -91 -13 -117 11 -10 9 -19 15 -22 14 -2 -1 -23 -3
-46 -5z m675 -39 c26 -18 30 -69 6 -102 -14 -20 -24 -22 -99 -22 -75 0 -85 2
-99 22 -17 24 -21 65 -8 84 24 36 157 48 200 18z m132 -41 c0 -17 16 -18 197
-17 109 1 189 -2 178 -7 -18 -7 -18 -8 -2 -8 10 -1 17 -7 15 -13 -6 -16 -107
-23 -121 -9 -6 6 -20 11 -32 10 -17 -1 -16 -2 5 -9 24 -8 23 -8 -8 -9 -20 -1
-35 5 -38 14 -4 8 -10 15 -15 15 -5 0 -9 -7 -9 -15 0 -8 -9 -15 -20 -15 -11 0
-20 -4 -20 -10 0 -5 -12 -9 -27 -9 -19 1 -22 3 -10 6 16 4 15 7 -8 19 -15 8
-35 14 -44 13 -9 -1 -5 -4 9 -9 17 -5 2 -7 -45 -6 -59 1 -70 4 -73 19 -3 12 4
20 17 24 12 3 21 12 21 19 0 8 7 14 15 14 8 0 15 -8 15 -17z"/>
</g>
</svg>
