<?xml version="1.0" encoding="utf-8"?>
<!-- Generator: Adobe Illustrator 12.0.0, SVG Export Plug-In . SVG Version: 6.00 Build 51448)  -->
<!DOCTYPE svg PUBLIC "-//W3C//DTD SVG 1.1//EN" "http://www.w3.org/Graphics/SVG/1.1/DTD/svg11.dtd" [
	<!ENTITY ns_svg "http://www.w3.org/2000/svg">
	<!ENTITY ns_xlink "http://www.w3.org/1999/xlink">
]>
<svg  version="1.1" id="svg" xmlns="&ns_svg;" xmlns:xlink="&ns_xlink;" width="400" height="401.313" viewBox="0 0 400 401.313"
	 overflow="visible" enable-background="new 0 0 400 401.313" xml:space="preserve">
<g id="svgg">
	<path id="path0" fill="#7F7F7F" d="M185.352-59.485l-2.2,0.27l2,0.059c1.1,0.032,2.27-0.116,2.6-0.329
		c0.33-0.213,0.42-0.361,0.2-0.329C187.731-59.781,186.562-59.633,185.352-59.485 M207.15-59.465c0.44,0.178,1.881,0.322,3.201,0.32
		c3.016-0.004,2.457-0.218-1.201-0.459C207.523-59.711,206.688-59.653,207.15-59.465 M173.151-58.285
		c-1.107,0.282-1.123,0.309-0.2,0.347c0.55,0.022,1.27-0.134,1.6-0.347C175.232-58.725,174.88-58.725,173.151-58.285
		 M220.951-58.303c0.33,0.223,0.945,0.409,1.367,0.412c1.022,0.008,0.703-0.221-0.768-0.55
		C220.676-58.637,220.514-58.6,220.951-58.303 M168.852-57.603c0.495,0.096,1.305,0.096,1.8,0c0.495-0.095,0.09-0.173-0.9-0.173
		C168.762-57.776,168.356-57.698,168.852-57.603 M225.052-57.609c0.386,0.1,1.015,0.1,1.399,0c0.385-0.101,0.07-0.183-0.699-0.183
		C224.98-57.792,224.666-57.71,225.052-57.609 M165.151-57.085c-1.019,0.438,0.032,0.438,1.4,0c0.804-0.257,0.843-0.323,0.2-0.332
		C166.312-57.423,165.592-57.274,165.151-57.085 M228.951-57.103c0.33,0.223,0.945,0.409,1.367,0.412
		c1.022,0.008,0.703-0.221-0.768-0.55C228.676-57.437,228.514-57.4,228.951-57.103 M161.852-56.409c0.385,0.1,1.015,0.1,1.4,0
		c0.385-0.101,0.07-0.183-0.7-0.183C161.782-56.592,161.467-56.51,161.852-56.409 M309.352-24.174c0,0.076,0.585,0.567,1.301,1.09
		c0.804,0.589,1.084,0.686,0.732,0.254C310.852-23.486,309.352-24.478,309.352-24.174 M323.752-12.885
		c0.746,0.77,1.446,1.4,1.557,1.4c0.111,0-0.41-0.63-1.156-1.4c-0.746-0.771-1.447-1.4-1.558-1.4S323.006-13.655,323.752-12.885
		 M68.53-10.385l-1.378,1.5l1.5-1.378c1.396-1.284,1.684-1.622,1.378-1.622C69.963-11.885,69.289-11.21,68.53-10.385 M64.129-6.385
		l-1.378,1.5l1.5-1.378c1.396-1.284,1.684-1.622,1.378-1.622C65.563-7.885,64.889-7.21,64.129-6.385 M336.552-0.885
		c0.746,0.77,1.447,1.4,1.558,1.4c0.109,0-0.411-0.63-1.157-1.4c-0.746-0.771-1.446-1.4-1.558-1.4
		C335.284-2.285,335.806-1.655,336.552-0.885 M57.729,0.015l-1.378,1.5l1.5-1.378c1.396-1.284,1.684-1.622,1.378-1.622
		C59.164-1.485,58.489-0.81,57.729,0.015 M53.729,4.415l-1.378,1.5l1.5-1.378c1.396-1.284,1.684-1.622,1.378-1.622
		C55.164,2.915,54.489,3.59,53.729,4.415 M344.552,7.84c0,0.069,0.585,0.654,1.3,1.3l1.301,1.175l-1.176-1.3
		C344.882,7.803,344.552,7.531,344.552,7.84 M46.475,12.815c-0.705,0.821-1.233,1.7-1.022,1.7c0.082,0,0.548-0.54,1.036-1.2
		C47.453,12.011,47.443,11.687,46.475,12.815 M372.184,50.539c-0.018,0.342,0.248,0.972,0.591,1.4
		c0.611,0.764,0.615,0.763,0.254-0.024c-0.202-0.44-0.469-1.07-0.591-1.4C372.244,49.997,372.211,50,372.184,50.539 M16.651,65.415
		c-0.43,1.175-0.42,1.226,0.112,0.524c0.509-0.672,0.809-1.824,0.476-1.824C17.178,64.115,16.913,64.7,16.651,65.415
		 M381.384,73.339c-0.019,0.342,0.248,0.972,0.59,1.4c0.612,0.764,0.616,0.763,0.254-0.024c-0.201-0.44-0.468-1.07-0.59-1.4
		C381.444,72.797,381.41,72.8,381.384,73.339 M7.845,96.115c0,0.77,0.082,1.085,0.183,0.7c0.1-0.385,0.1-1.015,0-1.4
		C7.927,95.03,7.845,95.345,7.845,96.115 M387.853,98.315c0.005,0.88,0.087,1.193,0.183,0.695c0.097-0.497,0.093-1.217-0.008-1.6
		C387.927,97.028,387.848,97.435,387.853,98.315 M7.397,98.182c-0.025,0.367-0.15,0.997-0.276,1.4
		c-0.218,0.695-0.207,0.696,0.227,0.02c0.251-0.391,0.376-1.021,0.276-1.4C7.462,97.583,7.439,97.581,7.397,98.182 M388.157,101.548
		c0.003,0.422,0.188,1.037,0.412,1.367c0.297,0.438,0.334,0.276,0.139-0.6C388.379,100.844,388.149,100.525,388.157,101.548
		 M6.652,103.115c0.004,0.88,0.086,1.193,0.182,0.695c0.096-0.497,0.092-1.217-0.008-1.6C6.727,101.828,6.647,102.235,6.652,103.115
		 M6.198,106.182c-0.025,0.367-0.15,0.997-0.276,1.4c-0.218,0.695-0.207,0.696,0.227,0.02c0.251-0.391,0.376-1.021,0.276-1.4
		C6.263,105.583,6.24,105.581,6.198,106.182 M5.061,114.915c0,0.99,0.078,1.395,0.173,0.9c0.096-0.495,0.096-1.305,0-1.8
		C5.139,113.52,5.061,113.925,5.061,114.915 M4.645,118.115c0,0.77,0.082,1.085,0.183,0.7c0.1-0.385,0.1-1.015,0-1.4
		C4.727,117.03,4.645,117.345,4.645,118.115 M390.672,121.715c0,1.21,0.074,1.705,0.167,1.1c0.091-0.605,0.091-1.595,0-2.2
		C390.746,120.01,390.672,120.505,390.672,121.715 M4.245,122.115c0,0.77,0.082,1.085,0.183,0.7c0.1-0.385,0.1-1.015,0-1.4
		C4.327,121.03,4.245,121.345,4.245,122.115 M391.115,133.515c-0.001,3.739,0.06,5.323,0.134,3.521
		c0.073-1.806,0.074-4.866,0.001-6.801C391.177,128.299,391.115,129.775,391.115,133.515 M390.672,145.315
		c0,1.21,0.074,1.705,0.167,1.1c0.091-0.604,0.091-1.594,0-2.199C390.746,143.61,390.672,144.105,390.672,145.315 M4.252,145.515
		c0.004,0.88,0.086,1.192,0.182,0.694c0.096-0.496,0.092-1.217-0.008-1.6C4.327,144.228,4.248,144.635,4.252,145.515 M5.065,151.915
		c0.003,1.101,0.081,1.504,0.173,0.896c0.092-0.608,0.09-1.509-0.005-2C5.139,150.318,5.063,150.815,5.065,151.915 M6.01,160.116
		c0.317,1.725,0.544,2.051,0.536,0.766c-0.003-0.531-0.183-1.236-0.4-1.566C5.87,158.893,5.829,159.129,6.01,160.116 M6.652,164.315
		c0.004,0.881,0.086,1.193,0.182,0.695c0.096-0.497,0.092-1.217-0.008-1.6C6.726,163.027,6.647,163.435,6.652,164.315
		 M7.196,168.315c0.329,1.471,0.558,1.79,0.55,0.768c-0.003-0.422-0.189-1.037-0.412-1.367C7.037,167.277,7,167.439,7.196,168.315
		 M387.853,168.715c0.005,0.88,0.087,1.193,0.183,0.695c0.097-0.498,0.093-1.218-0.008-1.601
		C387.927,167.428,387.848,167.834,387.853,168.715 M7.845,171.315c0,0.77,0.082,1.085,0.183,0.7c0.1-0.386,0.1-1.015,0-1.399
		C7.927,170.23,7.845,170.545,7.845,171.315 M385.816,177.932c-0.257,0.561-0.458,1.236-0.449,1.502
		c0.009,0.264,0.281-0.131,0.605-0.88C386.656,176.98,386.513,176.405,385.816,177.932 M380.616,195.932
		c-0.67,1.471-0.542,1.785,0.183,0.447c0.339-0.625,0.541-1.211,0.449-1.301C381.156,194.987,380.873,195.372,380.616,195.932
		 M16.476,201.516c0.202,0.439,0.468,1.068,0.59,1.398c0.193,0.52,0.227,0.516,0.254-0.023c0.018-0.342-0.248-0.973-0.59-1.399
		C16.118,200.727,16.114,200.728,16.476,201.516 M348.15,255.016c-0.59,0.803-0.687,1.084-0.254,0.732
		c0.655-0.533,1.647-2.033,1.344-2.033C349.164,253.715,348.674,254.299,348.15,255.016 M47.343,255.704
		c0.466,0.651,1.051,1.313,1.3,1.467c0.25,0.156-0.05-0.379-0.666-1.188C46.64,254.23,46.136,254.006,47.343,255.704
		 M52.151,261.116c0.746,0.77,1.447,1.399,1.557,1.399s-0.411-0.631-1.157-1.399c-0.746-0.771-1.447-1.4-1.557-1.4
		C50.884,259.716,51.406,260.345,52.151,261.116 M342.958,261.109c-0.743,0.767-1.274,1.455-1.18,1.531
		c0.096,0.074,0.778-0.553,1.52-1.395C344.98,259.333,344.764,259.247,342.958,261.109 M334.537,270.415l-2.187,2.301l2.301-2.186
		c2.138-2.033,2.482-2.414,2.187-2.414C336.775,268.116,335.74,269.15,334.537,270.415 M329.258,275.125
		c-0.822,0.766-1.353,1.391-1.18,1.391c0.175,0,0.928-0.631,1.674-1.399C331.492,273.318,331.194,273.325,329.258,275.125
		 M66.552,275.915c0.746,0.771,1.447,1.399,1.557,1.399c0.11,0-0.411-0.629-1.157-1.399s-1.447-1.399-1.557-1.399
		S65.806,275.145,66.552,275.915 M79.496,286.825c0.316,0.512,2.656,2.243,2.656,1.965c0-0.099-0.661-0.685-1.468-1.299
		C79.875,286.874,79.34,286.575,79.496,286.825 M266.455,320.382 M160.651,323.59c0.385,0.102,1.015,0.102,1.4,0
		c0.385-0.101,0.07-0.183-0.7-0.182C160.581,323.408,160.267,323.491,160.651,323.59 M247.424,325.309 M243.854,325.822
		 M167.665,324.807 M238.585,326.454 M171.852,325.383 M181.616,326.441c0.957,0.268,1.982,0.2,3.019,0.138
		C183.598,326.642,182.573,326.709,181.616,326.441 M219.157,333.143c1.613,0.477,3.571,0.812,5.519,1.096
		C223.213,331.938,220.452,335.004,219.157,333.143"/>
	<path id="path1" fill="#FFFFFF" d="M174.952-65.691c0,0.499-0.672,0.606-3.8,0.606c-3.111,0-3.8,0.109-3.8,0.6
		c0,0.497-0.757,0.6-4.413,0.6c-3.553,0-4.457,0.117-4.642,0.6c-0.14,0.364-0.745,0.6-1.538,0.6c-2.132,0-3.807,0.462-3.807,1.05
		c0,0.411-0.663,0.55-2.613,0.55c-1.953,0-2.67,0.151-2.842,0.6c-0.169,0.44-0.863,0.6-2.6,0.6c-1.738,0-2.432,0.16-2.6,0.6
		c-0.17,0.441-0.866,0.6-2.625,0.6c-2.058,0-2.424,0.112-2.604,0.8c-0.168,0.643-0.546,0.8-1.92,0.8c-1.151,0-1.786,0.196-1.941,0.6
		c-0.134,0.351-0.734,0.6-1.442,0.6c-0.812,0-1.213,0.199-1.213,0.6c0,0.453-0.489,0.6-2,0.6c-1.511,0-2,0.147-2,0.6
		c0,0.387-0.391,0.602-1.1,0.605c-1.713,0.009-2.9,0.435-2.9,1.042c0,0.389-0.534,0.553-1.8,0.553c-1.333,0-1.8,0.156-1.8,0.6
		c0,0.419-0.422,0.6-1.4,0.6c-0.978,0-1.4,0.181-1.4,0.6c0,0.404-0.404,0.6-1.237,0.6c-0.901,0-1.295,0.217-1.447,0.8
		c-0.148,0.567-0.546,0.8-1.363,0.8c-0.758,0-1.153,0.205-1.153,0.6c0,0.419-0.422,0.6-1.4,0.6c-0.978,0-1.4,0.181-1.4,0.6
		c0,0.4-0.4,0.6-1.2,0.6c-0.8,0-1.2,0.2-1.2,0.6c0,0.404-0.404,0.6-1.237,0.6c-0.901,0-1.295,0.217-1.447,0.8
		c-0.149,0.569-0.546,0.8-1.375,0.8c-0.668,0-1.265,0.257-1.396,0.6c-0.132,0.342-0.728,0.6-1.388,0.6
		c-0.762,0-1.157,0.205-1.157,0.6c0,0.33-0.27,0.6-0.6,0.6s-0.6,0.262-0.6,0.582c0,0.348-0.562,0.687-1.4,0.844
		c-0.802,0.151-1.4,0.5-1.4,0.819c0,0.35-0.443,0.555-1.2,0.555c-0.8,0-1.2,0.2-1.2,0.6c0,0.333-0.356,0.6-0.8,0.6
		c-0.44,0-0.755,0.225-0.7,0.5c0.057,0.285-0.392,0.556-1.046,0.631c-0.724,0.083-1.219,0.414-1.346,0.9
		c-0.141,0.537-0.553,0.769-1.367,0.769c-0.668,0-1.265,0.257-1.396,0.6c-0.127,0.33-0.481,0.6-0.788,0.6
		c-0.306,0-0.557,0.27-0.557,0.6s-0.27,0.6-0.6,0.6s-0.6,0.27-0.6,0.6c0,0.333-0.356,0.6-0.8,0.6c-0.44,0-1.16,0.36-1.6,0.8
		s-0.98,0.8-1.2,0.8c-0.22,0-0.4,0.27-0.4,0.6c0,0.333-0.356,0.6-0.8,0.6c-0.44,0-0.8,0.248-0.8,0.55c0,0.302-0.54,0.658-1.2,0.79
		c-0.704,0.141-1.2,0.492-1.2,0.85c0,0.336-0.27,0.61-0.6,0.61c-0.33,0-0.6,0.27-0.6,0.6c0,0.333-0.356,0.6-0.8,0.6
		c-0.44,0-0.755,0.225-0.7,0.5c0.057,0.285-0.392,0.556-1.046,0.631c-0.724,0.083-1.219,0.414-1.346,0.9
		c-0.111,0.423-0.45,0.769-0.755,0.769c-0.304,0-0.553,0.27-0.553,0.6s-0.276,0.6-0.613,0.6c-0.336,0-0.716,0.27-0.842,0.6
		c-0.127,0.33-0.481,0.6-0.788,0.6c-0.306,0-0.557,0.27-0.557,0.6s-0.27,0.6-0.6,0.6c-0.333,0-0.6,0.356-0.6,0.8
		c0,0.533-0.267,0.8-0.8,0.8c-0.444,0-0.8,0.267-0.8,0.6c0,0.33-0.27,0.6-0.6,0.6c-0.33,0-0.6,0.27-0.6,0.6s-0.27,0.6-0.6,0.6
		s-0.6,0.249-0.6,0.553c0,0.305-0.36,0.648-0.8,0.763c-0.44,0.115-0.8,0.496-0.8,0.847c0,0.35-0.27,0.637-0.6,0.637
		c-0.33,0-0.6,0.27-0.6,0.6s-0.27,0.6-0.6,0.6s-0.6,0.27-0.6,0.6s-0.27,0.6-0.6,0.6s-0.6,0.249-0.6,0.553
		c0,0.305-0.36,0.648-0.8,0.763c-0.44,0.115-0.8,0.496-0.8,0.847c0,0.35-0.27,0.637-0.6,0.637s-0.6,0.27-0.6,0.6s-0.27,0.6-0.6,0.6
		c-0.33,0-0.6,0.27-0.6,0.6c0,0.33-0.27,0.6-0.6,0.6c-0.333,0-0.6,0.356-0.6,0.8c0,0.533-0.267,0.8-0.8,0.8
		c-0.444,0-0.8,0.267-0.8,0.6c0,0.33-0.27,0.6-0.6,0.6c-0.33,0-0.6,0.27-0.6,0.6c0,0.33-0.27,0.6-0.6,0.6s-0.6,0.276-0.6,0.613
		c0,0.336-0.27,0.716-0.6,0.842c-0.33,0.127-0.6,0.46-0.6,0.741c0,0.281-0.36,0.605-0.8,0.72c-0.541,0.141-0.8,0.546-0.8,1.247
		c0,0.655-0.221,1.037-0.6,1.037c-0.333,0-0.6,0.356-0.6,0.8c0,0.444-0.267,0.8-0.6,0.8c-0.33,0-0.6,0.249-0.6,0.553
		c0,0.305-0.36,0.648-0.8,0.763c-0.541,0.141-0.8,0.546-0.8,1.247c0,0.655-0.221,1.037-0.6,1.037c-0.333,0-0.6,0.355-0.6,0.8
		c0,0.444-0.267,0.8-0.6,0.8c-0.33,0-0.6,0.27-0.6,0.6s-0.27,0.6-0.6,0.6c-0.334,0-0.6,0.356-0.6,0.804
		c0,0.442-0.36,1.112-0.8,1.489c-0.44,0.377-0.8,0.915-0.8,1.196c0,0.281-0.27,0.511-0.6,0.511s-0.6,0.251-0.6,0.557
		c0,0.307-0.27,0.661-0.6,0.788c-0.351,0.134-0.6,0.734-0.6,1.442c0,0.946-0.176,1.213-0.8,1.213c-0.622,0-0.8,0.267-0.8,1.2
		c0,0.8-0.2,1.2-0.6,1.2c-0.33,0-0.6,0.251-0.6,0.557c0,0.307-0.27,0.661-0.6,0.788c-0.351,0.134-0.6,0.734-0.6,1.442
		c0,0.812-0.199,1.213-0.6,1.213c-0.373,0-0.6,0.377-0.6,0.997c0,0.563-0.348,1.213-0.8,1.496c-0.44,0.275-0.8,0.726-0.8,1.003
		s-0.27,0.504-0.6,0.504c-0.4,0-0.6,0.4-0.6,1.2c0,0.8-0.2,1.2-0.6,1.2c-0.419,0-0.6,0.422-0.6,1.4c0,1.133-0.152,1.4-0.8,1.4
		c-0.616,0-0.8,0.267-0.8,1.157c0,0.66-0.258,1.256-0.6,1.388c-0.351,0.134-0.6,0.734-0.6,1.442c0,0.812-0.199,1.213-0.6,1.213
		c-0.419,0-0.6,0.422-0.6,1.4c0,0.978-0.181,1.4-0.6,1.4c-0.395,0-0.6,0.395-0.6,1.153c0,0.817-0.233,1.215-0.8,1.363
		c-0.583,0.152-0.8,0.546-0.8,1.447c0,0.833-0.196,1.237-0.6,1.237c-0.4,0-0.6,0.4-0.6,1.2s-0.2,1.2-0.6,1.2
		c-0.419,0-0.6,0.422-0.6,1.4c0,0.963-0.183,1.4-0.586,1.4c-0.401,0-0.669,0.626-0.849,1.976c-0.146,1.106-0.505,2.069-0.813,2.187
		c-0.344,0.132-0.552,0.825-0.552,1.837c0,1.076-0.203,1.703-0.6,1.855c-0.407,0.157-0.6,0.795-0.6,1.988
		c0,1.295-0.158,1.757-0.6,1.757c-0.419,0-0.6,0.422-0.6,1.4s-0.181,1.4-0.6,1.4c-0.33,0-0.623,0.225-0.652,0.5
		c-0.12,1.154-0.265,2.961-0.305,3.8c-0.025,0.514-0.3,0.9-0.643,0.9c-0.472,0-0.6,0.556-0.6,2.6c0,2.044-0.128,2.6-0.6,2.6
		c-0.472,0-0.6,0.556-0.6,2.6c0,1.995-0.134,2.6-0.575,2.6c-0.38,0-0.672,0.643-0.859,1.887c-0.156,1.038-0.527,2.131-0.824,2.429
		c-0.387,0.386-0.542,1.738-0.542,4.713c0,3.441-0.105,4.171-0.6,4.171c-0.493,0-0.6,0.711-0.6,4c0,3.289-0.107,4-0.6,4
		c-0.508,0-0.6,0.978-0.6,6.4c0,4-0.15,6.4-0.4,6.4c-0.258,0-0.4,4.467-0.4,12.6c0,8.133,0.142,12.601,0.4,12.601
		c0.25,0,0.4,2.399,0.4,6.399c0,5.422,0.092,6.399,0.6,6.399c0.493,0,0.6,0.711,0.6,4s0.107,4,0.6,4c0.495,0,0.6,0.73,0.6,4.172
		c0,2.98,0.155,4.326,0.543,4.715c0.299,0.299,0.673,1.582,0.832,2.854c0.176,1.411,0.51,2.395,0.857,2.528
		c0.384,0.147,0.568,0.853,0.568,2.175c0,1.473,0.148,1.957,0.6,1.957c0.472,0,0.6,0.557,0.6,2.6c0,2.045,0.128,2.601,0.6,2.601
		c0.452,0,0.6,0.485,0.6,1.967c0,2.341,0.288,3.233,1.043,3.233c0.394,0,0.557,0.529,0.557,1.813c0,1.242,0.189,1.885,0.6,2.043
		c0.33,0.127,0.6,0.646,0.6,1.158s0.27,1.2,0.6,1.529c0.337,0.337,0.6,1.314,0.6,2.229c0,1.111,0.174,1.629,0.548,1.629
		c0.357,0,0.642,0.699,0.814,2c0.182,1.369,0.45,2,0.852,2c0.403,0,0.586,0.436,0.586,1.398c0,0.979,0.181,1.399,0.6,1.399
		c0.4,0,0.6,0.399,0.6,1.201c0,0.799,0.2,1.198,0.6,1.198c0.419,0,0.6,0.422,0.6,1.4c0,1.133,0.152,1.4,0.8,1.4
		c0.622,0,0.8,0.266,0.8,1.199c0,0.801,0.2,1.199,0.6,1.199c0.445,0,0.6,0.469,0.6,1.813c0,1.241,0.189,1.885,0.6,2.041
		c0.33,0.127,0.6,0.639,0.6,1.139s0.258,1.123,0.574,1.386c0.316,0.264,0.69,1.004,0.832,1.649c0.142,0.644,0.513,1.172,0.826,1.172
		c0.312,0,0.568,0.359,0.568,0.8c0,0.444,0.267,0.801,0.6,0.801c0.4,0,0.6,0.399,0.6,1.199c0,0.801,0.2,1.2,0.6,1.2
		c0.404,0,0.6,0.404,0.6,1.236c0,0.901,0.217,1.295,0.8,1.446c0.44,0.115,0.8,0.459,0.8,0.765c0,0.303,0.27,0.553,0.6,0.553
		c0.401,0,0.6,0.4,0.6,1.213c0,0.708,0.249,1.308,0.6,1.441c0.33,0.127,0.6,0.668,0.6,1.2c0,0.533,0.27,1.074,0.6,1.199
		c0.33,0.127,0.6,0.48,0.6,0.789c0,0.305,0.36,0.558,0.8,0.558c0.648,0,0.8,0.266,0.8,1.399c0,0.978,0.181,1.398,0.6,1.398
		c0.33,0,0.6,0.271,0.6,0.602c0,0.329,0.27,0.601,0.6,0.601c0.373,0,0.6,0.377,0.6,0.995c0,0.563,0.348,1.214,0.8,1.496
		c0.44,0.275,0.8,0.728,0.8,1.004s0.27,0.505,0.6,0.505c0.33,0,0.6,0.27,0.6,0.6s0.27,0.601,0.6,0.601c0.333,0,0.6,0.354,0.6,0.801
		c0,0.443,0.267,0.799,0.6,0.799c0.379,0,0.6,0.383,0.6,1.037c0,0.701,0.259,1.105,0.8,1.248c0.44,0.113,0.8,0.457,0.8,0.762
		s0.27,0.555,0.6,0.555c0.333,0,0.6,0.355,0.6,0.799c0,0.444,0.267,0.802,0.6,0.802c0.356,0,0.6,0.366,0.6,0.901
		c0,0.521,0.593,1.447,1.4,2.188c0.77,0.707,1.4,1.471,1.4,1.696c0,0.227,0.27,0.412,0.6,0.412s0.6,0.302,0.6,0.668
		c0,0.365,0.118,0.547,0.263,0.402c0.362-0.361,1.381,0.535,1.109,0.975c-0.121,0.195,0.151,0.355,0.604,0.355
		c0.557,0,0.824,0.26,0.824,0.801c0,0.443,0.267,0.799,0.6,0.799c0.33,0,0.6,0.271,0.6,0.601s0.27,0.601,0.6,0.601
		c0.33,0,0.6,0.271,0.6,0.602c0,0.328,0.27,0.6,0.6,0.6c0.333,0,0.6,0.355,0.6,0.801c0,0.439,0.36,1.158,0.8,1.601
		c0.44,0.438,0.8,0.979,0.8,1.198c0,0.222,0.27,0.4,0.6,0.4c0.33,0,0.6,0.27,0.6,0.6s0.18,0.601,0.4,0.601
		c0.22,0,0.76,0.36,1.2,0.801c0.44,0.439,1.16,0.8,1.6,0.8c0.444,0,0.8,0.268,0.8,0.602c0,0.329,0.27,0.6,0.6,0.6s0.6,0.271,0.6,0.6
		c0,0.33,0.27,0.601,0.6,0.601c0.33,0,0.6,0.258,0.6,0.574c0,0.313,0.36,0.687,0.8,0.825c0.44,0.141,0.8,0.513,0.8,0.828
		c0,0.314,0.27,0.572,0.6,0.572s0.6,0.281,0.6,0.623c0,0.344,0.192,0.506,0.427,0.359c0.235-0.145,0.526,0.113,0.647,0.576
		c0.12,0.463,0.37,0.842,0.554,0.842c0.462,0,2.372,1.947,2.372,2.418c0,0.209,0.54,0.381,1.2,0.381c0.8,0,1.2,0.201,1.2,0.602
		c0,0.332,0.356,0.601,0.8,0.601c0.444,0,0.8,0.267,0.8,0.601c0,0.329,0.249,0.6,0.553,0.6c0.305,0,0.648,0.359,0.763,0.801
		c0.141,0.541,0.546,0.799,1.247,0.799c0.655,0,1.037,0.223,1.037,0.602c0,0.332,0.356,0.601,0.8,0.601s0.8,0.267,0.8,0.601
		c0,0.33,0.27,0.6,0.6,0.6s0.6,0.275,0.6,0.609c0,0.362,0.503,0.711,1.234,0.856c0.679,0.138,1.329,0.491,1.443,0.791
		c0.115,0.299,0.459,0.543,0.766,0.543c0.306,0,0.557,0.271,0.557,0.601s0.27,0.6,0.6,0.6s0.6,0.27,0.6,0.6
		c0,0.42,0.422,0.602,1.4,0.602c1.272,0,1.605,0.299,1.447,1.3c-0.026,0.165,0.493,0.301,1.153,0.301c0.8,0,1.2,0.199,1.2,0.601
		c0,0.332,0.356,0.6,0.8,0.6c0.444,0,0.8,0.268,0.8,0.6c0,0.379,0.381,0.602,1.027,0.602c0.655,0,1.504,0.506,2.347,1.398
		c0.726,0.771,1.704,1.4,2.173,1.4c0.492,0,0.853,0.254,0.853,0.6c0,0.4,0.4,0.602,1.2,0.602c0.8,0,1.2,0.199,1.2,0.601
		c0,0.418,0.422,0.601,1.4,0.601c1.133,0,1.4,0.151,1.4,0.8c0,0.647,0.267,0.8,1.4,0.8c0.978,0,1.4,0.182,1.4,0.6
		c0,0.4,0.4,0.602,1.2,0.602c0.8,0,1.2,0.199,1.2,0.601c0,0.418,0.422,0.601,1.4,0.601s1.4,0.181,1.4,0.6c0,0.4,0.4,0.6,1.2,0.6
		c0.933,0,1.2,0.18,1.2,0.801c0,0.648,0.267,0.801,1.4,0.801c0.978,0,1.4,0.181,1.4,0.602c0,0.398,0.4,0.6,1.2,0.6
		s1.2,0.199,1.2,0.6c0,0.451,0.484,0.6,1.953,0.6c1.617,0,1.99,0.14,2.163,0.801c0.15,0.574,0.546,0.801,1.404,0.801
		c0.693,0,1.291,0.252,1.425,0.602c0.157,0.409,0.8,0.6,2.042,0.6c1.314,0,1.813,0.158,1.813,0.578c0,0.406,0.566,0.613,1.9,0.699
		c1.258,0.082,1.866,0.291,1.8,0.623c-0.055,0.273,0.035,0.479,0.2,0.451c1.182-0.188,2.5,0.131,2.5,0.602
		c0,0.67,1.221,1.033,3.5,1.041c1.242,0.004,1.7,0.168,1.7,0.604c0,0.474,0.556,0.601,2.6,0.601c2.044,0,2.6,0.129,2.6,0.601
		s0.556,0.601,2.6,0.601c1.934,0,2.6,0.14,2.6,0.547c0,0.543,1.92,1.039,4.057,1.049c0.582,0.003,1.161,0.273,1.288,0.604
		c0.186,0.484,1.11,0.601,4.83,0.601c3.744,0,4.561,0.104,4.388,0.551c-0.17,0.443,0.56,0.566,3.707,0.617
		c7.22,1.014,14.509,2.148,21.813,3.129c3.652,0.49,7.308,0.941,10.959,1.32c24.105,2.605,49.105-0.395,70.904-11.526
		c2.755-1.422,5.441-2.93,8.047-4.51c1.831-1.087,3.645-2.218,5.438-3.393c1.795-1.175,3.571-2.393,5.327-3.653
		c2.901-1.694,5.746-3.494,8.527-5.401c5.562-3.815,10.869-8.062,15.87-12.753c0.66,0,1.256-0.258,1.389-0.6
		c0.126-0.33,0.506-0.6,0.842-0.6c0.337,0,0.613-0.271,0.613-0.602s0.27-0.601,0.6-0.601c0.333,0,0.601-0.355,0.601-0.8
		c0-0.625,0.268-0.801,1.214-0.801c0.708,0,1.308-0.248,1.441-0.6c0.127-0.33,0.48-0.6,0.787-0.6s0.558-0.271,0.558-0.602
		s0.271-0.602,0.601-0.602s0.601-0.247,0.601-0.553c0-0.305,0.359-0.647,0.8-0.763c0.439-0.114,0.801-0.496,0.801-0.847
		c0-0.352,0.27-0.637,0.6-0.637s0.601-0.271,0.601-0.602c0-0.375,0.38-0.602,1.014-0.602c0.556,0,1.116-0.27,1.242-0.6
		c0.127-0.33,0.469-0.6,0.761-0.6c0.291,0,0.645-0.36,0.784-0.801c0.14-0.439,0.512-0.799,0.826-0.799s0.573-0.271,0.573-0.602
		s0.271-0.602,0.601-0.602s0.6-0.27,0.6-0.6s0.271-0.6,0.602-0.6c0.329,0,0.6-0.271,0.6-0.6c0-0.33,0.258-0.602,0.573-0.602
		c0.313,0,0.687-0.36,0.827-0.801c0.14-0.439,0.512-0.801,0.826-0.801s0.572-0.27,0.572-0.6s0.271-0.6,0.602-0.6
		c0.329,0,0.6-0.271,0.6-0.601s0.2-0.601,0.444-0.601c0.613,0,2.341-1.69,2.349-2.301c0.004-0.274,0.277-0.5,0.607-0.5
		c0.329,0,0.6-0.271,0.6-0.6c0-0.33,0.271-0.601,0.601-0.601s0.601-0.249,0.601-0.554c0-0.306,0.359-0.647,0.8-0.763
		c0.44-0.114,0.8-0.495,0.8-0.848c0-0.351,0.271-0.638,0.602-0.638s0.6-0.252,0.6-0.557c0-0.308,0.271-0.662,0.601-0.789
		c0.33-0.125,0.601-0.664,0.601-1.195c0-0.648,0.279-1.039,0.852-1.188c0.569-0.148,0.772-0.43,0.613-0.847
		c-0.167-0.437-0.001-0.624,0.548-0.624c0.435,0,0.787-0.271,0.787-0.602s0.271-0.6,0.601-0.6s0.601-0.27,0.601-0.6
		s0.27-0.601,0.6-0.601c0.333,0,0.602-0.356,0.602-0.801c0-0.438,0.256-0.8,0.566-0.8c0.313,0,0.688-0.54,0.832-1.2
		c0.146-0.66,0.521-1.199,0.832-1.199c0.313,0,0.568-0.252,0.568-0.558c0-0.309,0.27-0.661,0.6-0.788
		c0.33-0.126,0.602-0.506,0.602-0.843c0-0.338,0.256-0.612,0.566-0.612c0.313,0,0.688-0.54,0.832-1.199
		c0.146-0.659,0.521-1.2,0.832-1.2c0.313,0,0.568-0.275,0.568-0.613c0-0.336,0.27-0.715,0.6-0.842s0.602-0.48,0.602-0.787
		c0-0.308,0.27-0.558,0.6-0.558c0.396,0,0.602-0.396,0.602-1.153c0-0.816,0.231-1.216,0.8-1.362c0.438-0.115,0.8-0.479,0.8-0.804
		c0-0.328,0.27-0.699,0.6-0.826c0.33-0.125,0.602-0.687,0.602-1.241c0-0.634,0.225-1.013,0.6-1.013c0.419,0,0.602-0.422,0.602-1.4
		s0.181-1.4,0.6-1.4c0.33,0,0.6-0.27,0.6-0.6s0.251-0.6,0.559-0.6c0.61,0,1.043-0.842,1.043-2.033c0-0.422,0.27-0.768,0.6-0.768
		c0.4,0,0.602-0.399,0.602-1.199c0-0.801,0.198-1.2,0.6-1.2c0.333,0,0.601-0.356,0.601-0.8c0-0.44,0.257-0.801,0.567-0.801
		c0.313,0,0.688-0.539,0.832-1.199c0.145-0.66,0.52-1.2,0.832-1.2c0.383,0,0.568-0.457,0.568-1.399c0-0.979,0.181-1.4,0.6-1.4
		c0.396,0,0.601-0.396,0.601-1.156c0-0.66,0.259-1.256,0.601-1.389c0.351-0.135,0.6-0.733,0.6-1.441
		c0-0.771,0.203-1.213,0.559-1.213c0.674,0,1.043-0.862,1.043-2.434c0-0.771,0.203-1.168,0.6-1.168c0.419,0,0.601-0.422,0.601-1.398
		s0.182-1.399,0.601-1.399c0.415,0,0.6-0.418,0.6-1.354c0-1.018,0.199-1.405,0.801-1.563c0.527-0.139,0.801-0.547,0.801-1.199
		c0-0.543,0.275-1.217,0.614-1.498c0.338-0.279,0.587-0.797,0.555-1.147c-0.151-1.58,0.071-2.438,0.631-2.438
		c0.453,0,0.6-0.488,0.6-2c0-1.511,0.147-2,0.602-2c0.452,0,0.6-0.488,0.6-2c0-1.732,0.107-2,0.801-2c0.614,0,0.8-0.267,0.8-1.15
		c0-0.633,0.271-1.375,0.601-1.648c0.397-0.33,0.601-1.227,0.601-2.662c0-1.555,0.169-2.229,0.601-2.394
		c0.446-0.172,0.6-0.884,0.6-2.788c0-1.898,0.142-2.557,0.549-2.557c0.543,0,1.038-1.92,1.048-4.057
		c0.002-0.582,0.273-1.162,0.604-1.289c0.46-0.176,0.601-0.934,0.601-3.242c0-2.412,0.119-3.012,0.601-3.012
		c0.499,0,0.6-0.779,0.6-4.601c0-3.822,0.102-4.601,0.601-4.601s0.601-0.777,0.601-4.6c0-2.8,0.157-4.6,0.399-4.6
		c0.263,0,0.399-7.268,0.399-21s-0.138-21-0.399-21c-0.241,0-0.399-1.733-0.399-4.4c0-3.644-0.104-4.4-0.601-4.4
		c-0.492,0-0.601-0.711-0.601-4c0-3.289-0.106-4-0.6-4c-0.477,0-0.601-0.575-0.601-2.771c0-1.823-0.188-2.961-0.553-3.324
		c-0.303-0.303-0.681-1.666-0.839-3.028c-0.2-1.721-0.459-2.477-0.849-2.477c-0.405,0-0.562-0.551-0.562-2c0-1.511-0.146-2-0.6-2
		c-0.472,0-0.601-0.553-0.601-2.58c0-1.922-0.159-2.669-0.624-2.93c-0.402-0.225-0.633-0.94-0.646-2.019
		c-0.02-1.361-0.163-1.671-0.776-1.671c-0.637,0-0.753-0.308-0.753-2c0-1.511-0.146-2-0.6-2c-0.445,0-0.601-0.468-0.601-1.813
		c0-1.242-0.188-1.885-0.601-2.042c-0.344-0.132-0.601-0.729-0.601-1.4s-0.256-1.268-0.601-1.4c-0.336-0.129-0.6-0.725-0.6-1.355
		c0-1.53-0.375-2.39-1.043-2.39c-0.37,0-0.559-0.47-0.559-1.4c0-0.978-0.181-1.4-0.6-1.4s-0.601-0.422-0.601-1.4
		s-0.182-1.4-0.601-1.4c-0.399,0-0.6-0.4-0.6-1.2c0-0.933-0.179-1.2-0.801-1.2c-0.647,0-0.801-0.267-0.801-1.4
		c0-0.978-0.181-1.4-0.6-1.4c-0.444,0-0.601-0.467-0.601-1.8s-0.155-1.8-0.601-1.8c-0.369,0-0.6-0.375-0.6-0.971
		c0-0.535-0.263-1.233-0.58-1.552c-0.319-0.319-0.699-1.052-0.845-1.629c-0.145-0.576-0.514-1.048-0.818-1.048
		c-0.309,0-0.559-0.36-0.559-0.8s-0.225-0.755-0.5-0.7c-0.299,0.06-0.55-0.422-0.625-1.2c-0.076-0.805-0.344-1.3-0.698-1.3
		c-0.316,0-0.575-0.339-0.575-0.753c0-0.417-0.357-0.847-0.8-0.963c-0.541-0.141-0.802-0.546-0.802-1.247
		c0-0.655-0.221-1.037-0.6-1.037c-0.401,0-0.6-0.401-0.6-1.213c0-0.708-0.249-1.308-0.602-1.442c-0.33-0.127-0.6-0.481-0.6-0.788
		c0-0.306-0.271-0.557-0.602-0.557c-0.402,0-0.6-0.404-0.6-1.237c0-0.901-0.217-1.295-0.8-1.447c-0.44-0.115-0.8-0.458-0.8-0.763
		c0-0.304-0.271-0.553-0.602-0.553c-0.395,0-0.6-0.395-0.6-1.157c0-0.66-0.258-1.256-0.602-1.388c-0.33-0.126-0.6-0.506-0.6-0.842
		c0-0.337-0.251-0.613-0.557-0.613c-0.309,0-0.661-0.27-0.788-0.6c-0.126-0.33-0.507-0.6-0.844-0.6c-0.415,0-0.611-0.39-0.611-1.213
		c0-0.708-0.249-1.308-0.602-1.442c-0.33-0.127-0.6-0.48-0.6-0.788c0-0.306-0.271-0.557-0.601-0.557c-0.329,0-0.601-0.27-0.601-0.6
		c0-0.333-0.354-0.6-0.8-0.6c-0.648,0-0.8-0.267-0.8-1.4c0-0.978-0.183-1.4-0.602-1.4c-0.33,0-0.6-0.27-0.6-0.6
		s-0.271-0.6-0.601-0.6s-0.601-0.27-0.601-0.6s-0.249-0.6-0.553-0.6c-0.306,0-0.648-0.36-0.764-0.8c-0.114-0.44-0.495-0.8-0.848-0.8
		c-0.35,0-0.637-0.27-0.637-0.6s-0.271-0.6-0.601-0.6s-0.601-0.27-0.601-0.6s-0.271-0.6-0.6-0.6c-0.335,0-0.602-0.356-0.602-0.804
		c0-0.442-0.359-1.112-0.8-1.489c-0.439-0.377-0.8-0.915-0.8-1.196c0-0.281-0.271-0.511-0.601-0.511s-0.601-0.27-0.601-0.6
		c0-0.33-0.271-0.6-0.601-0.6c-0.329,0-0.601-0.171-0.601-0.379c0-0.551-1.812-2.421-2.346-2.421c-0.25,0-0.454-0.27-0.454-0.6
		c0-0.33-0.271-0.6-0.601-0.6s-0.601-0.27-0.601-0.6s-0.249-0.6-0.553-0.6c-0.306,0-0.647-0.36-0.764-0.8
		c-0.115-0.44-0.496-0.8-0.847-0.8s-0.638-0.27-0.638-0.6c0-0.33-0.271-0.6-0.601-0.6s-0.601-0.27-0.601-0.6s-0.251-0.6-0.557-0.6
		c-0.308,0-0.655-0.253-0.773-0.562c-0.118-0.31-0.768-0.684-1.442-0.832c-0.674-0.148-1.228-0.525-1.228-0.838
		c0-0.312-0.271-0.568-0.6-0.568c-0.33,0-0.601-0.27-0.601-0.6s-0.271-0.6-0.601-0.6s-0.601-0.27-0.601-0.6
		c0-0.33-0.249-0.6-0.553-0.6c-0.306,0-0.654-0.383-0.776-0.852c-0.148-0.569-0.43-0.772-0.847-0.613
		c-0.436,0.167-0.624,0.001-0.624-0.548c0-0.433-0.271-0.787-0.601-0.787s-0.601-0.27-0.601-0.6c0-0.419-0.422-0.6-1.399-0.6
		c-0.979,0-1.399-0.181-1.399-0.6c0-0.33-0.271-0.6-0.601-0.6c-0.556,0-0.787-0.496-0.632-1.349c0.035-0.192-0.195-0.25-0.513-0.128
		c-0.353,0.135-0.656-0.08-0.779-0.551c-0.145-0.553-0.553-0.772-1.438-0.772c-0.834,0-1.237-0.196-1.237-0.6
		c0-0.33-0.271-0.6-0.601-0.6s-0.604-0.225-0.606-0.5c-0.012-0.86-1.857-2.3-2.948-2.3c-0.661,0-1.045-0.22-1.045-0.6
		c0-0.33-0.27-0.6-0.6-0.6s-0.601-0.27-0.601-0.6c0-0.419-0.423-0.6-1.399-0.6c-1.134,0-1.4-0.152-1.4-0.8
		c0-0.44-0.251-0.8-0.557-0.8c-0.309,0-0.661-0.27-0.788-0.6c-0.126-0.33-0.666-0.6-1.2-0.6c-0.533,0-1.072-0.27-1.199-0.6
		c-0.135-0.351-0.733-0.6-1.442-0.6c-0.666,0-1.213-0.171-1.213-0.379c0-0.831-1.935-2.421-2.945-2.421
		c-0.688,0-1.055-0.217-1.055-0.624c0-0.343-0.171-0.518-0.38-0.388c-0.209,0.129-0.575-0.131-0.813-0.577
		c-0.286-0.535-0.838-0.811-1.62-0.811c-0.796,0-1.187-0.2-1.187-0.61c0-0.357-0.494-0.709-1.19-0.848
		c-0.654-0.131-1.396-0.487-1.648-0.79c-0.252-0.304-0.867-0.552-1.365-0.552c-0.5,0-1.014-0.27-1.141-0.6
		c-0.156-0.411-0.799-0.6-2.041-0.6c-1.346,0-1.813-0.155-1.813-0.6c0-0.4-0.399-0.6-1.2-0.6c-0.933,0-1.199-0.178-1.199-0.8
		c0-0.648-0.269-0.8-1.4-0.8c-0.979,0-1.398-0.181-1.398-0.6c0-0.4-0.4-0.6-1.201-0.6c-0.8,0-1.199-0.2-1.199-0.6
		c0-0.451-0.483-0.6-1.952-0.6c-1.617,0-1.99-0.138-2.164-0.8c-0.149-0.575-0.545-0.8-1.404-0.8c-0.692,0-1.29-0.252-1.424-0.6
		c-0.157-0.411-0.801-0.6-2.043-0.6c-1.313,0-1.813-0.159-1.813-0.578c0-0.406-0.565-0.614-1.899-0.7
		c-1.259-0.081-1.865-0.291-1.8-0.622c0.056-0.275-0.034-0.479-0.2-0.453c-1.744,0.276-3.673-0.131-3.892-0.822
		c-0.192-0.605-0.604-0.77-1.885-0.752c-1.111,0.016-1.756-0.185-2.001-0.625c-0.271-0.482-0.962-0.648-2.7-0.648
		c-1.709,0-2.397-0.161-2.567-0.6c-0.168-0.442-0.867-0.6-2.642-0.6c-1.776,0-2.414-0.145-2.414-0.548
		c0-0.616-1.985-1.041-4.899-1.048c-1.306-0.003-1.899-0.169-1.899-0.532c0-0.393-0.949-0.553-3.697-0.623
		c-2.729-0.07-3.779-0.246-4.021-0.672c-0.252-0.45-1.326-0.577-4.89-0.577c-3.852,0-4.532-0.092-4.344-0.587
		c0.197-0.512-2.653-0.59-22.211-0.606C177.601-66.295,174.952-66.226,174.952-65.691 M214.15-60.262
		c1.432,0.224,4.242,0.561,6.25,0.75c2.006,0.189,3.985,0.518,4.399,0.729c0.412,0.213,2.191,0.496,3.951,0.63
		c1.76,0.133,3.74,0.417,4.399,0.63c0.66,0.213,2.279,0.562,3.601,0.777c2.554,0.415,5.235,1.062,7.199,1.736
		c0.659,0.227,2.153,0.558,3.321,0.736c1.166,0.179,2.336,0.494,2.601,0.701c0.263,0.207,1.36,0.492,2.438,0.632
		c1.076,0.141,2.156,0.415,2.398,0.609c0.242,0.195,1.037,0.481,1.768,0.638c0.73,0.156,1.812,0.535,2.4,0.843
		s1.354,0.561,1.697,0.563c0.342,0.001,0.971,0.266,1.398,0.589c0.428,0.323,1.137,0.594,1.576,0.603
		c0.439,0.008,1.314,0.284,1.946,0.612c0.629,0.329,1.35,0.604,1.6,0.612c0.25,0.007,1.175,0.361,2.054,0.786
		c0.881,0.425,1.875,0.779,2.211,0.786c0.338,0.008,0.967,0.257,1.4,0.554c0.436,0.297,1.284,0.661,1.889,0.808
		c0.605,0.147,1.102,0.444,1.102,0.66c0,0.215,0.287,0.392,0.639,0.392c0.35,0,1.115,0.261,1.699,0.58
		c0.584,0.32,3.734,1.858,6.998,3.419c3.268,1.561,6.688,3.314,7.602,3.896c0.914,0.583,2.474,1.493,3.463,2.023
		c0.99,0.53,1.894,1.114,2.009,1.298c0.114,0.184,0.653,0.528,1.198,0.765c0.547,0.237,1.47,0.743,2.05,1.125
		c0.582,0.382,2.034,1.274,3.229,1.983c1.195,0.71,2.664,1.745,3.265,2.3c0.601,0.556,1.189,1.011,1.313,1.011
		c0.122,0,1.328,0.861,2.679,1.914c1.352,1.052,3.178,2.399,4.058,2.992c0.881,0.594,2.123,1.532,2.763,2.087
		c0.639,0.554,1.27,1.011,1.399,1.016c0.131,0.005,0.958,0.656,1.838,1.446c2.173,1.95,7.932,7.226,9.765,8.945
		c0.819,0.77,2.108,1.955,2.863,2.633c0.756,0.678,2.542,2.537,3.973,4.131c1.431,1.593,3.996,4.369,5.703,6.167
		c1.706,1.798,3.596,3.989,4.198,4.869s1.321,1.744,1.598,1.92c0.274,0.176,0.501,0.581,0.501,0.9c0,0.319,0.165,0.58,0.367,0.58
		c0.201,0,0.733,0.593,1.182,1.318c0.449,0.725,1.139,1.698,1.533,2.163c0.396,0.464,0.987,1.239,1.317,1.722s1.545,2.151,2.7,3.708
		c1.154,1.556,2.101,3.068,2.101,3.359c0,0.292,0.15,0.53,0.336,0.53c0.185,0,0.546,0.405,0.804,0.9
		c0.259,0.495,0.827,1.44,1.266,2.1c0.438,0.66,1.072,1.74,1.409,2.4c0.336,0.66,0.964,1.74,1.395,2.4
		c0.431,0.66,0.906,1.457,1.058,1.772s0.873,1.48,1.604,2.591c0.732,1.11,1.33,2.255,1.33,2.545c0,0.289,0.184,0.743,0.407,1.009
		c0.681,0.808,3.593,6.756,3.593,7.338c0,0.3,0.181,0.545,0.399,0.545c0.22,0,0.4,0.203,0.4,0.451s0.614,1.733,1.365,3.3
		c2.241,4.672,3.034,6.568,3.034,7.256c0,0.357,0.271,0.92,0.601,1.25s0.6,1.003,0.6,1.495c0,0.492,0.265,1.244,0.588,1.672
		c0.322,0.427,0.593,1.143,0.601,1.591c0.007,0.449,0.372,1.521,0.813,2.385c0.44,0.864,0.8,1.781,0.8,2.039
		c0,0.258,0.27,0.985,0.599,1.615c0.327,0.63,0.598,1.53,0.6,2c0.002,0.47,0.271,1.37,0.601,2c0.328,0.63,0.599,1.65,0.601,2.266
		c0.001,0.616,0.247,1.606,0.546,2.2c0.3,0.594,0.659,1.962,0.801,3.04c0.142,1.077,0.438,2.176,0.655,2.44
		c0.219,0.264,0.52,1.354,0.665,2.421c0.146,1.067,0.505,2.398,0.798,2.959s0.536,1.92,0.541,3.02s0.268,2.72,0.584,3.6
		c0.317,0.88,0.586,2.693,0.595,4.029c0.01,1.336,0.274,3.226,0.59,4.2c2.171,6.728,2.198,43.264,0.038,51.571
		c-0.314,1.21-0.66,3.496-0.767,5.08c-0.106,1.583-0.385,3.236-0.618,3.673c-0.234,0.437-0.426,1.724-0.426,2.86
		c0,1.136-0.244,2.633-0.545,3.326c-0.3,0.693-0.735,2.16-0.97,3.261c-0.557,2.63-1.252,5.313-1.762,6.8
		c-0.228,0.66-0.561,2.169-0.741,3.354c-0.18,1.184-0.521,2.345-0.756,2.58c-0.234,0.234-0.427,0.891-0.427,1.457
		c0,0.567-0.247,1.387-0.55,1.82c-0.302,0.433-0.686,1.42-0.852,2.189s-0.549,1.755-0.852,2.189
		c-0.302,0.434-0.549,1.164-0.549,1.623s-0.265,1.184-0.587,1.611c-0.323,0.428-0.594,1.146-0.601,1.6s-0.276,1.173-0.601,1.601
		c-0.323,0.429-0.593,1.103-0.601,1.498c-0.007,0.397-0.391,1.567-0.854,2.601c-0.462,1.033-1.226,2.733-1.696,3.778
		c-0.472,1.045-0.993,1.9-1.16,1.9c-0.166,0-0.302,0.286-0.302,0.637c0,0.353-0.262,1.117-0.58,1.701
		c-0.317,0.584-1.653,3.312-2.969,6.062c-1.314,2.75-2.816,5.631-3.34,6.399c-0.522,0.771-1.079,1.67-1.235,2
		c-0.157,0.33-0.599,1.076-0.979,1.657c-0.384,0.58-1.326,2.087-2.097,3.343c-0.771,1.258-1.712,2.763-2.094,3.344
		c-0.383,0.58-0.877,1.476-1.103,1.986c-0.225,0.512-0.691,1.215-1.041,1.563c-0.349,0.35-1.055,1.279-1.566,2.07
		c-0.514,0.789-1.353,1.914-1.864,2.498s-1.201,1.461-1.531,1.947c-0.33,0.484-1.168,1.639-1.862,2.563
		c-0.693,0.924-1.74,2.387-2.326,3.249c-0.585,0.862-2.088,2.671-3.339,4.017c-1.25,1.349-3.532,3.865-5.072,5.595
		c-4.066,4.565-13.018,13.369-13.594,13.369c-0.073,0-1.12,0.944-2.326,2.1c-1.469,1.407-2.455,2.314-3.891,3.478
		c-1.437,1.163-3.322,2.582-6.589,5.011c-4.206,4.335-8.626,8.273-13.233,11.84c-2.303,1.782-4.653,3.473-7.046,5.071
		c-1.998,1.597-4.024,3.14-6.075,4.627c-2.053,1.487-4.131,2.919-6.235,4.29c-2.833,1.953-5.749,3.787-8.745,5.491
		c-17.188,10.602-36.673,13.813-56.273,12.938c-3.268-0.146-6.537-0.405-9.8-0.764c-8.845-2.04-16.845-2.04-25.82-3.991
		c-3.228-0.556-6.472-1.117-9.748-1.661c-2.405-0.481-4.805-0.96-7.199-1.411c-1.859-0.136-3.569-0.395-3.801-0.576
		c-0.232-0.183-1.49-0.449-2.796-0.597c-1.305-0.146-2.583-0.44-2.84-0.653s-1.349-0.502-2.426-0.646
		c-1.078-0.142-2.446-0.5-3.04-0.8c-0.594-0.299-1.674-0.545-2.4-0.546c-0.726-0.003-1.836-0.271-2.466-0.601s-1.62-0.6-2.2-0.6
		c-0.58-0.003-1.537-0.256-2.127-0.564c-0.59-0.307-1.637-0.684-2.327-0.834c-0.69-0.15-1.737-0.526-2.327-0.836
		c-0.59-0.307-1.354-0.561-1.697-0.563c-0.342-0.001-0.972-0.266-1.4-0.59c-0.427-0.322-1.136-0.594-1.576-0.603
		c-0.44-0.008-1.316-0.284-1.946-0.612s-1.35-0.604-1.6-0.611s-1.174-0.361-2.054-0.785c-0.88-0.426-1.881-0.779-2.224-0.787
		c-0.342-0.008-0.972-0.277-1.4-0.602c-0.427-0.322-1.069-0.592-1.427-0.6c-0.358-0.007-0.875-0.283-1.149-0.613
		s-0.823-0.601-1.22-0.601c-0.398,0-0.993-0.271-1.323-0.6c-0.33-0.33-0.838-0.603-1.128-0.604c-0.291,0-1.069-0.359-1.729-0.797
		s-1.493-0.795-1.851-0.797s-0.875-0.271-1.149-0.604c-0.274-0.33-0.814-0.601-1.2-0.601c-0.386,0-0.926-0.271-1.2-0.601
		c-0.274-0.329-0.795-0.6-1.158-0.6c-0.363,0-1.568-0.586-2.678-1.301c-1.11-0.715-2.861-1.746-3.891-2.291
		c-1.03-0.545-1.873-1.131-1.873-1.301c0-0.168-0.229-0.309-0.509-0.309c-0.436,0-1.975-0.896-5.329-3.101
		c-0.419-0.274-1.172-0.679-1.673-0.896c-0.5-0.215-1.13-0.58-1.4-0.811c-0.269-0.229-2.199-1.656-4.289-3.174
		c-2.09-1.518-4.084-3.012-4.431-3.32c-0.346-0.309-0.931-0.678-1.3-0.818c-0.368-0.141-0.669-0.442-0.669-0.668
		c0-0.229-0.19-0.414-0.421-0.414c-0.563,0-5.979-4.336-5.979-4.787c0-0.194-0.246-0.411-0.546-0.483
		c-1.325-0.313-13.75-12.289-19.226-18.528c-1.737-1.979-3.309-3.66-3.493-3.732c-0.184-0.074-0.335-0.309-0.335-0.523
		c0-0.213-0.518-0.873-1.152-1.467c-0.634-0.592-1.857-2.104-2.718-3.359c-0.861-1.256-2.061-2.875-2.667-3.6
		c-0.606-0.725-2.348-3.027-3.871-5.117c-1.524-2.09-2.958-4.021-3.187-4.289c-0.229-0.27-0.597-0.9-0.817-1.4
		c-0.22-0.5-0.712-1.387-1.094-1.967c-0.382-0.582-1.324-2.086-2.094-3.344s-1.714-2.762-2.099-3.344
		c-0.384-0.58-0.897-1.552-1.139-2.156s-0.603-1.1-0.801-1.1c-0.199,0-0.361-0.248-0.361-0.553c0-0.303-0.258-0.767-0.574-1.027
		c-0.316-0.262-0.698-1.039-0.849-1.727c-0.151-0.687-0.523-1.498-0.826-1.802c-0.303-0.303-0.551-0.887-0.551-1.299
		c0-0.41-0.169-0.853-0.375-0.979s-0.844-1.263-1.418-2.522c-0.574-1.262-1.305-2.771-1.625-3.354
		c-0.32-0.584-0.582-1.271-0.582-1.527c0-0.258-0.27-0.736-0.6-1.066s-0.6-0.926-0.6-1.322c0-0.397-0.27-0.946-0.6-1.221
		c-0.33-0.273-0.606-0.791-0.614-1.148c-0.007-0.358-0.361-1.37-0.786-2.252c-0.425-0.879-0.785-1.959-0.799-2.399
		c-0.015-0.438-0.291-1.147-0.614-1.576c-0.323-0.428-0.593-1.147-0.6-1.6c-0.007-0.453-0.277-1.173-0.6-1.6
		c-0.323-0.428-0.587-1.114-0.587-1.527c0-0.412-0.215-1.143-0.478-1.623c-0.787-1.438-2.318-6.01-2.32-6.928
		c-0.001-0.471-0.271-1.37-0.6-2c-0.328-0.63-0.605-1.686-0.614-2.346c-0.009-0.66-0.274-1.65-0.588-2.2
		c-0.314-0.55-0.578-1.603-0.586-2.341c-0.008-0.735-0.278-1.905-0.602-2.6c-0.323-0.693-0.76-2.25-0.971-3.459
		c-0.211-1.211-0.572-2.92-0.803-3.801c-0.23-0.88-0.426-2.5-0.434-3.6c-0.009-1.1-0.275-2.721-0.592-3.6
		c-0.317-0.881-0.587-2.681-0.599-4c-0.012-1.32-0.319-3.301-0.682-4.4c-1-3.027-0.996-39.919,0.004-42.55
		c0.366-0.963,0.665-2.695,0.665-3.85c0-1.155,0.27-2.865,0.6-3.8s0.608-2.533,0.617-3.55c0.01-1.018,0.181-2.57,0.379-3.45
		c0.199-0.88,0.634-2.77,0.966-4.2c0.333-1.43,0.811-3.59,1.063-4.8s0.71-2.791,1.017-3.514c0.307-0.722,0.558-1.897,0.558-2.611
		c0-0.713,0.243-1.652,0.54-2.086c0.298-0.434,0.649-1.607,0.781-2.607c0.133-1,0.519-2.35,0.858-3
		c0.339-0.65,0.617-1.386,0.619-1.636c0.001-0.25,0.271-0.97,0.6-1.6c0.328-0.63,0.598-1.529,0.6-1.997
		c0.001-0.468,0.252-1.059,0.558-1.313c0.307-0.254,0.649-0.951,0.762-1.549c0.234-1.237,1.239-4.084,2.1-5.947
		c0.32-0.694,0.582-1.456,0.582-1.695c0-0.238,0.514-1.471,1.142-2.739c3.984-8.049,5.262-10.758,5.26-11.157
		c-0.001-0.248,0.268-0.675,0.598-0.949c0.33-0.274,0.6-0.823,0.6-1.22c0-0.398,0.227-0.961,0.505-1.251
		c0.277-0.291,0.736-0.979,1.019-1.529c1.187-2.305,1.813-3.412,2.038-3.6c0.319-0.268,1.092-1.534,1.831-3
		c0.333-0.66,0.963-1.74,1.4-2.4c0.437-0.66,0.966-1.586,1.175-2.058s0.527-0.922,0.706-1c0.179-0.078,0.686-0.849,1.126-1.713
		c0.44-0.863,0.98-1.763,1.2-2c0.22-0.236,0.919-1.194,1.554-2.129c0.635-0.935,1.31-1.7,1.5-1.7s0.346-0.172,0.346-0.383
		c0-0.375,5.009-7.209,6.195-8.451c0.333-0.348,0.605-0.759,0.605-0.913s0.495-0.771,1.1-1.37c0.605-0.6,2.53-2.709,4.278-4.687
		c6.982-7.9,9.034-9.928,18.608-18.396c0.995-0.88,1.99-1.789,2.212-2.02c0.957-1,4.174-3.38,4.569-3.38
		c0.238,0,0.433-0.149,0.433-0.33c0-0.182,0.997-1.037,2.215-1.9c1.218-0.864,2.552-1.84,2.963-2.17s1.145-0.87,1.631-1.2
		c0.485-0.33,1.627-1.146,2.537-1.814c2.313-1.697,4.749-3.273,6.454-4.175c0.44-0.232,1.34-0.778,2-1.213
		c0.66-0.434,1.65-1.013,2.2-1.286c0.55-0.272,1.09-0.605,1.2-0.739c0.278-0.339,4.363-2.679,5.7-3.266
		c0.605-0.265,1.1-0.609,1.1-0.763s0.528-0.396,1.172-0.538c0.645-0.142,1.387-0.516,1.649-0.832s0.68-0.574,0.928-0.574
		c0.248-0.001,1.711-0.628,3.251-1.394c1.54-0.766,2.948-1.396,3.129-1.399c0.18-0.004,0.598-0.277,0.928-0.607s0.925-0.6,1.323-0.6
		c0.397,0,0.946-0.27,1.22-0.6c0.274-0.33,0.802-0.6,1.173-0.6c0.371,0,1.023-0.264,1.451-0.587c0.427-0.323,1.043-0.593,1.368-0.6
		c0.67-0.015,4.463-1.428,6.07-2.262c0.584-0.303,1.404-0.551,1.823-0.551s1.111-0.264,1.539-0.587
		c0.427-0.323,1.108-0.593,1.514-0.6c0.406-0.007,1.216-0.267,1.8-0.577c1.577-0.838,6.169-2.236,7.344-2.236
		c0.565,0,1.542-0.269,2.172-0.598c0.63-0.328,1.65-0.598,2.266-0.6c0.616-0.001,1.606-0.247,2.2-0.546
		c0.594-0.299,1.962-0.659,3.04-0.8c1.077-0.142,2.167-0.43,2.421-0.64c0.254-0.211,1.712-0.56,3.241-0.775
		c1.528-0.215,3.588-0.574,4.578-0.799c0.99-0.224,2.741-0.415,3.892-0.425c1.15-0.009,2.77-0.274,3.6-0.589
		c0.829-0.314,3.038-0.673,4.908-0.796c1.87-0.124,4.3-0.382,5.4-0.575C184.389-60.725,211.02-60.752,214.15-60.262"/>
	<path id="path2" fill="#030104" d="M247.951,5.167c-23.564,2.369-32.867,32.549-14.875,48.261c2.012,1.757,4.417,3.195,7.017,4.287
		c2.605,1.095,5.406,1.844,8.208,2.223c3.05,0.555,6.087,0.533,8.997-0.003c2.909-0.536,5.691-1.586,8.23-3.089
		c2.539-1.502,4.835-3.458,6.772-5.804s3.518-5.083,4.623-8.148c1.061-2.739,1.771-5.63,2.038-8.492
		c0.28-2.856,0.115-5.684-0.573-8.286C274.676,12.083,262.5,3.704,247.951,5.167 M164.603,42.938
		c-3.97,1.986-5.301,3.949-8.394,12.377c-1.091,2.97-2.564,6.75-3.274,8.4c-0.711,1.65-1.795,4.44-2.409,6.2
		c-1.092,3.127-2.042,5.592-2.774,7.2c-0.82,1.801-2.341,5.734-3.002,7.765c-0.388,1.191-1.488,3.955-2.445,6.142
		c-2.937,6.717-2.816,10.579,0.446,14.207c5.894,6.556,14.745,3.646,17.827-5.86c0.742-2.29,2.333-6.357,4.169-10.654
		c0.281-0.66,1.095-2.82,1.807-4.8c0.713-1.98,1.975-5.22,2.806-7.2s2.061-5.166,2.733-7.08c1.879-5.35,2.74-6.846,3.788-6.584
		c3.797,0.949,15.389,4.047,17.543,4.688c3.066,0.912,3.4,1.478,2.107,3.577c-0.475,0.77-1.002,1.85-1.171,2.4
		c-0.169,0.55-1.725,4.007-3.458,7.681c-1.733,3.675-3.151,6.792-3.151,6.927c0,0.134-0.815,1.87-1.811,3.858
		c-0.997,1.987-2.275,4.72-2.84,6.073c-0.566,1.354-1.729,3.857-2.584,5.563c-0.856,1.706-2.019,4.201-2.584,5.544
		c-0.566,1.343-2.098,4.675-3.405,7.403c-1.307,2.729-2.376,5.051-2.376,5.16c0,0.109-1.157,2.606-2.572,5.548
		c-1.414,2.942-2.762,6.045-2.995,6.896c-0.233,0.852-1.047,2.537-1.81,3.748c-0.762,1.209-2.051,3.369-2.864,4.799
		c-0.812,1.431-2.322,3.951-3.355,5.601c-1.032,1.649-2.419,3.998-3.082,5.218c-0.663,1.221-1.831,3.2-2.596,4.4
		c-1.72,2.699-6.087,9.959-7.447,12.382c-0.556,0.989-2.151,3.635-3.545,5.878c-1.394,2.243-2.534,4.234-2.534,4.426
		c0,0.192-0.772,1.506-1.717,2.922c-0.944,1.416-2.59,4.098-3.659,5.959c-2.392,4.166-2.831,4.53-6.824,5.658
		c-1.76,0.497-5.36,1.696-8,2.665c-2.64,0.97-6.33,2.204-8.2,2.744c-1.87,0.542-5.56,1.774-8.2,2.745
		c-2.64,0.969-6.33,2.201-8.2,2.742c-1.87,0.539-5.65,1.801-8.4,2.801s-6.62,2.299-8.6,2.883c-6.514,1.924-9.634,6.371-9.57,13.646
		c0.096,11.072,12.281,17.715,22.251,12.131c1.251-0.7,7.662-3.094,13.119-4.897c2.97-0.982,7.2-2.422,9.4-3.197
		c4.135-1.461,6.458-2.252,18-6.129c3.74-1.258,8.33-2.871,10.2-3.59c1.87-0.717,4.57-1.682,6-2.143
		c3.549-0.604,5.549-4.604,8.481-7.088c2.159-2.984,4.504-6.596,6.109-9.554c0.835-1.541,1.925-3.349,2.422-4.018
		c0.496-0.67,1.709-2.65,2.694-4.4c1.465-2.602,2.83-4.964,4.068-7.044c2.775-2.5,3.775-6.5,5.775-9.5c22,12,38,36,36.729,61.768
		c-0.247,2.928-0.685,5.84-1.311,8.703s-1.441,5.68-2.445,8.415c-0.643,2.222-1.303,4.438-1.931,6.647
		c-3.141,11.047-5.486,21.911-1.042,32.467c2,7,13,10,19,4c6.222-6.222,8.691-14.024,10.033-22.353
		c0.335-2.082,0.6-4.196,0.835-6.327c1.84-10.896,3.757-22.033,4.661-32.933c0.292-3.633,0.458-7.236,0.386-10.766
		c0.085-15.622-3.915-33.622-16.915-43.622c-19-15-7-31,1.312-46.026c1.103-2.54,2.341-5.208,2.771-5.939s1.502-3.029,2.387-5.106
		c0.885-2.078,2.393-5.349,3.35-7.271c0.959-1.922,2.148-4.445,2.646-5.607c1.425-3.34,2.354-2.077,5.652,7.676
		c0.899,2.66,1.771,5.017,1.934,5.237c0.164,0.22,0.604,1.334,0.976,2.476c1.402,4.299,4.09,6.952,7.296,7.78
		c2.46-0.277,5.065-0.552,7.754-0.861c11.925-1.358,24.925,0.642,36.925-3.358c7-3,15-8,17-16c1-6-1-16-8-14
		c-21,4-49,17-54.785-12.969c-1.16-3.031-2.26-6.167-3.47-9.238c-1.21-3.069-2.532-6.078-4.128-8.84
		c-1.838-2.804-3.855-5.292-5.952-7.363c-4.194-4.142-8.735-6.626-12.787-6.626c-0.368,0-1.739-0.341-3.047-0.758
		c-1.31-0.417-3.459-1.063-4.778-1.433c-3.039-0.854-6.138-1.81-7.31-2.255c-0.5-0.19-2.75-0.802-5-1.359
		c-6.018-1.493-8.545-2.188-11.891-3.272c-1.65-0.535-6.06-1.768-9.8-2.74c-3.74-0.973-7.784-2.041-8.987-2.376
		C170.698,40.849,168.285,41.094,164.603,42.938"/>
	<path id="path3" fill="#0076A0" d="M187.751-59.493c-0.33,0.218-2.49,0.412-4.8,0.431c-2.31,0.02-5.1,0.198-6.2,0.396
		s-3.35,0.552-5,0.786c-1.65,0.235-4.31,0.69-5.911,1.011c-1.602,0.321-3.672,0.583-4.6,0.582c-0.929-0.001-2.499,0.253-3.489,0.565
		c-2.013,0.634-4.509,1.284-7.2,1.874c-0.99,0.218-2.119,0.572-2.509,0.788c-0.39,0.216-1.56,0.504-2.6,0.639
		c-1.04,0.136-2.09,0.402-2.334,0.593c-0.243,0.19-1.233,0.511-2.2,0.714c-1.895,0.397-4.6,1.315-6.617,2.247
		c-0.694,0.32-1.534,0.582-1.868,0.582s-1.117,0.252-1.74,0.561c-2.231,1.104-4.171,1.839-4.857,1.839
		c-0.383,0-1.052,0.247-1.486,0.549c-0.434,0.302-1.374,0.676-2.089,0.832c-0.715,0.155-1.3,0.434-1.3,0.619
		c0,0.185-0.528,0.452-1.172,0.594c-0.645,0.142-1.387,0.516-1.649,0.832c-0.262,0.316-0.699,0.574-0.971,0.574
		s-1.703,0.63-3.18,1.4s-2.866,1.4-3.086,1.4c-0.219,0-0.669,0.27-0.999,0.6s-0.925,0.6-1.323,0.6c-0.397,0-0.946,0.27-1.22,0.6
		s-0.763,0.6-1.086,0.6c-0.323,0-1.045,0.36-1.605,0.8c-0.559,0.44-1.248,0.8-1.53,0.8c-0.282,0-0.572,0.154-0.646,0.343
		c-0.073,0.189-2.082,1.494-4.463,2.9c-2.382,1.406-4.812,2.87-5.4,3.252c-0.589,0.383-1.352,0.833-1.697,1
		c-1.649,0.802-16.142,11.71-18.611,14.008c-1.122,1.043-3.636,3.337-5.589,5.097c-4.551,4.103-6.818,6.367-10.773,10.763
		c-1.76,1.956-4.165,4.565-5.345,5.797c-1.179,1.232-2.772,3.185-3.539,4.34c-0.766,1.155-1.556,2.1-1.755,2.1
		s-0.361,0.21-0.361,0.466c0,0.257-0.271,0.752-0.603,1.1c-0.909,0.957-7.201,9.347-7.524,10.034c-0.155,0.33-0.638,1.14-1.073,1.8
		s-1.015,1.65-1.288,2.2c-0.272,0.55-0.604,1.09-0.736,1.2c-0.131,0.11-0.765,1.145-1.408,2.3c-0.642,1.154-1.303,2.099-1.468,2.1
		c-0.165,0-0.3,0.192-0.3,0.426c0,0.235-0.855,1.903-1.9,3.708c-1.045,1.805-2.199,3.909-2.564,4.674
		c-0.365,0.766-1.597,3.372-2.737,5.792s-2.584,5.48-3.208,6.8c-1.277,2.702-2.281,5.35-2.787,7.349
		c-0.188,0.742-0.536,1.543-0.773,1.78c-0.237,0.237-0.437,0.71-0.445,1.051c-0.007,0.341-0.361,1.34-0.786,2.22
		c-0.425,0.88-0.785,1.96-0.799,2.4c-0.015,0.44-0.291,1.149-0.614,1.576c-0.323,0.428-0.588,1.148-0.589,1.6
		c-0.002,0.453-0.272,1.34-0.6,1.97c-0.329,0.63-0.598,1.571-0.598,2.092c0,0.52-0.262,1.624-0.582,2.454
		c-0.321,0.829-0.76,2.408-0.978,3.508c-0.504,2.558-1.191,5.272-1.72,6.8c-0.228,0.66-0.563,2.418-0.744,3.906
		c-0.181,1.488-0.509,3.288-0.729,4c-0.22,0.712-0.584,2.734-0.808,4.494c-0.224,1.76-0.586,4.46-0.806,6
		c-1.071,7.509-1.339,11.212-1.52,21.01c-0.128,6.929-0.033,11.856,0.273,14.2c0.257,1.976,0.628,5.702,0.823,8.283
		c0.195,2.581,0.531,5.021,0.746,5.423s0.517,2.34,0.671,4.307c0.154,1.967,0.432,3.873,0.618,4.235
		c0.187,0.362,0.442,1.712,0.568,3c0.214,2.19,0.673,4.165,1.988,8.542c0.297,0.99,0.665,2.657,0.816,3.705
		c0.152,1.048,0.425,1.997,0.607,2.109c0.182,0.113,0.446,1.055,0.588,2.095c0.141,1.04,0.511,2.458,0.823,3.151
		c0.311,0.693,0.566,1.604,0.566,2.023s0.264,1.112,0.587,1.54c0.323,0.427,0.594,1.046,0.603,1.376
		c0.008,0.33,0.267,1.083,0.575,1.674c0.308,0.59,0.69,1.67,0.848,2.399c0.159,0.729,0.536,1.683,0.838,2.116
		c0.302,0.435,0.555,1.154,0.562,1.601c0.007,0.444,0.277,1.16,0.6,1.586c0.323,0.43,0.587,1.121,0.587,1.539
		c0,0.42,0.248,1.239,0.552,1.823c0.303,0.585,1.18,2.412,1.949,4.063c0.768,1.648,2.306,4.889,3.417,7.199
		c1.111,2.311,2.125,4.471,2.255,4.801c0.13,0.328,0.593,1.139,1.03,1.799s0.993,1.695,1.235,2.301c0.242,0.604,0.585,1.1,0.762,1.1
		c0.177,0,0.52,0.496,0.762,1.101c0.242,0.604,0.791,1.642,1.22,2.301c0.429,0.66,1.013,1.599,1.299,2.084
		c2.518,4.285,4.243,6.976,5.377,8.384c0.738,0.916,1.342,1.842,1.342,2.059c0,0.213,0.27,0.492,0.6,0.619
		c0.33,0.126,0.6,0.506,0.6,0.842c0,0.338,0.155,0.613,0.344,0.613c0.19,0,1.095,1.094,2.012,2.43
		c0.916,1.336,1.843,2.641,2.059,2.898c0.216,0.26,1.156,1.459,2.089,2.664s2.617,3.186,3.742,4.399
		c3.095,3.34,3.994,4.338,6.059,6.728c2.374,2.746,5.977,6.418,7.371,7.514c1,0.785,7.096,6.247,8.87,7.947
		c0.448,0.43,2.803,2.264,5.234,4.078c2.431,1.813,4.735,3.578,5.12,3.92c0.385,0.342,0.82,0.621,0.966,0.621
		c0.147,0,0.552,0.274,0.9,0.61c1.513,1.457,4.228,3.272,10.634,7.11c0.44,0.263,1.574,0.974,2.52,1.578
		c0.946,0.605,1.85,1.101,2.009,1.101c0.159,0,1.191,0.594,2.294,1.319c1.103,0.728,3.439,2.009,5.191,2.847
		c1.752,0.84,5.003,2.405,7.223,3.479c2.221,1.076,4.246,1.955,4.5,1.955c0.255,0,0.463,0.18,0.463,0.398
		c0,0.221,0.225,0.406,0.5,0.414c0.275,0.008,1.22,0.361,2.1,0.787c0.88,0.424,1.96,0.783,2.4,0.799
		c0.44,0.016,1.149,0.291,1.576,0.613c0.428,0.322,1.058,0.588,1.4,0.59c0.343,0.002,1.14,0.271,1.77,0.6
		c0.63,0.328,1.35,0.604,1.6,0.611s1.174,0.361,2.054,0.787c0.88,0.424,1.969,0.777,2.42,0.785s1.001,0.195,1.223,0.416
		c0.392,0.393,2.494,1.053,6.957,2.182c1.21,0.307,3.28,0.83,4.6,1.166c1.32,0.334,3.21,0.811,4.2,1.057
		c0.99,0.248,2.634,0.707,3.654,1.021c1.019,0.314,2.562,0.572,3.427,0.572c2.405,0.438,4.815,0.917,7.23,1.418
		c2.093,0.27,4.176,0.583,6.251,0.926c2.076,0.344,4.144,0.717,6.209,1.104c9.378,1.394,19.378,4.394,28.619,5.167
		c3.381,0.373,6.768,0.57,10.146,0.601c20.271,0.178,40.246-5.665,57.148-15.54c2.527-1.555,4.99-3.19,7.382-4.896
		c1.974-1.414,3.921-2.888,5.844-4.418c2.359-1.496,4.661-3.079,6.918-4.754c4.514-3.352,8.857-7.073,13.002-11.19
		c2.9-2.187,6.156-4.635,7.472-5.798c0.385-0.341,0.84-0.619,1.011-0.619c0.172,0,0.609-0.313,0.973-0.698
		c0.363-0.386,0.897-0.882,1.188-1.101c4.926-3.733,15.48-13.813,21.527-20.555c1.65-1.84,3.513-3.907,4.138-4.596
		s1.69-2.016,2.368-2.951c0.677-0.936,1.38-1.699,1.563-1.699s0.332-0.172,0.332-0.383c0-0.375,5.009-7.209,6.194-8.451
		c0.333-0.348,0.604-0.844,0.604-1.1c0-0.258,0.163-0.467,0.362-0.467c0.198,0,0.857-0.855,1.465-1.9s1.213-1.99,1.347-2.1
		s0.467-0.65,0.738-1.199c0.272-0.551,0.853-1.541,1.286-2.201s0.98-1.561,1.213-2c0.509-0.961,1.059-1.862,2.47-4.049
		c1.497-2.318,8.091-15.578,10.219-20.551c0.329-0.771,0.848-1.91,1.149-2.531c0.303-0.623,0.551-1.438,0.551-1.813
		s0.247-1.033,0.55-1.468c0.302-0.435,0.686-1.42,0.852-2.188c0.166-0.77,0.549-1.755,0.851-2.189
		c0.303-0.434,0.55-1.103,0.55-1.485c0-0.64,0.323-1.519,1.813-4.925c0.289-0.66,0.646-1.92,0.792-2.797
		c0.146-0.879,0.386-1.778,0.53-2c0.146-0.223,0.477-1.394,0.733-2.604c0.617-2.889,1.297-5.514,1.809-7
		c0.229-0.66,0.54-2.01,0.694-3c0.153-0.99,0.482-2.43,0.73-3.199c0.248-0.771,0.646-2.931,0.883-4.801
		c1.057-8.311,1.553-11.52,2.039-13.199c0.396-1.367,0.521-6.33,0.521-20.601c0-14.271-0.125-19.234-0.521-20.6
		c-0.486-1.68-0.982-4.89-2.039-13.2c-0.237-1.87-0.635-4.03-0.883-4.8s-0.577-2.21-0.73-3.2c-0.154-0.99-0.467-2.34-0.694-3
		c-0.454-1.321-1.105-3.826-1.715-6.6c-0.218-0.99-0.564-2.107-0.771-2.483c-0.207-0.375-0.494-1.455-0.639-2.4
		c-0.145-0.944-0.436-1.937-0.646-2.206c-0.212-0.268-0.534-1.078-0.718-1.8c-0.421-1.655-1.449-4.533-2.206-6.171
		c-0.319-0.694-0.582-1.538-0.582-1.877c0-0.339-0.166-0.718-0.369-0.844c-0.202-0.125-0.496-0.81-0.653-1.522
		c-0.624-2.845-9.585-21.414-12.593-26.097c-0.849-1.32-2.038-3.345-2.646-4.5c-0.607-1.155-1.229-2.1-1.382-2.1
		s-0.473-0.495-0.711-1.1c-0.527-1.34-0.978-2.053-3.081-4.892c-0.899-1.215-2.32-3.198-3.157-4.408s-1.771-2.47-2.075-2.8
		c-0.304-0.33-1.479-1.86-2.611-3.4c-2.007-2.728-5.883-7.217-9.52-11.025c-6.878-7.2-8.628-8.888-15.969-15.401
		c-1.007-0.894-2.372-2.114-3.031-2.71c-0.66-0.596-1.92-1.574-2.801-2.174c-0.88-0.599-1.803-1.27-2.051-1.49
		c-0.248-0.22-0.851-0.67-1.337-1c-0.488-0.33-1.258-0.915-1.711-1.3c-0.453-0.385-0.932-0.7-1.063-0.7
		c-0.133,0-0.901-0.585-1.711-1.3c-0.808-0.715-1.863-1.57-2.346-1.9c-0.48-0.33-1.261-0.884-1.729-1.232
		c-0.471-0.347-1.124-0.754-1.454-0.904c-0.329-0.15-1.14-0.629-1.8-1.064s-1.648-1.018-2.197-1.296
		c-0.859-0.434-4.119-2.48-5.428-3.404c-0.418-0.297-1.539-0.922-4.934-2.751c-0.967-0.521-1.957-1.103-2.199-1.293
		c-0.244-0.19-0.938-0.464-1.543-0.608c-0.604-0.145-1.1-0.44-1.1-0.656c0-0.215-0.203-0.392-0.451-0.392
		c-0.441,0-5.971-2.499-7.148-3.232c-0.33-0.205-0.871-0.474-1.2-0.596c-0.329-0.123-1.319-0.553-2.2-0.955
		c-3.344-1.53-5.649-2.409-8.6-3.279c-0.771-0.227-1.57-0.576-1.779-0.775c-0.209-0.2-0.66-0.369-1-0.377
		c-0.342-0.007-1.342-0.361-2.221-0.786c-0.881-0.425-1.9-0.779-2.27-0.786c-0.365-0.008-1.176-0.267-1.799-0.576
		c-0.623-0.309-1.941-0.766-2.933-1.015c-4.067-1.025-6.324-1.595-8.601-2.172c-1.319-0.334-3.211-0.812-4.2-1.061
		c-0.99-0.25-2.699-0.701-3.8-1.002c-1.101-0.302-3.241-0.655-4.758-0.785c-1.518-0.131-3.047-0.386-3.399-0.569
		c-0.354-0.182-2.171-0.461-4.035-0.618c-1.866-0.158-3.756-0.481-4.198-0.718C219.098-59.278,188.957-60.287,187.751-59.493
		 M259.652,6.115c12.165,3.04,20.348,16.2,19.314,28.721c-0.198,2.507-0.765,4.989-1.732,7.368
		C272.5,53.156,262.5,61.156,250.219,60.018c-3.267-0.126-6.28-0.75-9.019-1.775c-19.121-7.164-24.716-34.063-6.521-47.865
		C241.482,5.217,250.143,3.739,259.652,6.115 M174.564,41.922c1.203,0.335,5.247,1.403,8.987,2.376c3.74,0.972,8.15,2.205,9.8,2.74
		c3.346,1.084,5.873,1.779,11.891,3.272c2.25,0.557,4.5,1.169,5,1.359c1.172,0.445,4.27,1.401,7.31,2.255
		c1.319,0.371,3.47,1.016,4.778,1.433c1.307,0.417,2.679,0.758,3.047,0.758c4.052,0,8.593,2.484,12.786,6.626
		c2.097,2.071,4.115,4.56,5.953,7.362c1.563,1.842,2.812,3.988,3.87,6.3c1.059,2.313,1.927,4.792,2.735,7.304
		c2.778,8.449,3.778,17.449,11.778,22.449c14,9,26-3,40-6c6-1,12,2,12,8c0,27-34,26-53.926,26.354
		c-2.689,0.309-5.295,0.583-7.755,0.859c-3.205-0.827-5.892-3.48-7.294-7.779c-0.373-1.142-0.813-2.256-0.977-2.476
		c-0.162-0.22-1.033-2.577-1.934-5.237c-3.299-9.753-4.229-11.016-5.652-7.676c-0.496,1.162-1.686,3.685-2.645,5.607
		s-2.467,5.193-3.351,7.271c-0.885,2.077-1.958,4.375-2.387,5.106c-0.431,0.731-1.668,3.399-2.771,5.939
		c-2.311,13.031-20.311,23.031-10.311,34.031c16,18,28,39,26.205,63.003c-0.217,3.419-0.573,6.858-1.034,10.302
		c-0.922,6.886-2.259,13.783-3.781,20.555c-0.231,2.324-0.479,4.65-0.769,6.96c-0.871,6.931-2.121,13.681-4.621,20.181
		c-2,5-6,8-11,9c-8,1-15-4-15-12c0.5-9,3-17.75,4.913-26.44c0.638-2.896,1.208-5.781,1.609-8.613
		c0.06-2.743,0.128-5.519,0.169-8.308c0.041-2.79,0.056-5.593,0.009-8.393c0.3-25.246-12.7-49.246-35.7-60.246c-2,3-3,7-5.776,9.495
		c-1.238,2.08-2.603,4.442-4.068,7.044c-0.985,1.75-2.198,3.73-2.694,4.4c-0.497,0.669-1.587,2.477-2.422,4.018
		c-1.604,2.958-3.95,6.569-6.109,9.553c-2.931,2.49-4.931,6.49-8.481,7.089c-1.43,0.461-4.13,1.427-6,2.144
		c-1.87,0.718-6.46,2.33-10.2,3.588c-11.542,3.877-13.865,4.668-18,6.13c-2.2,0.776-6.43,2.215-9.4,3.196
		c-5.457,1.806-11.868,4.198-13.119,4.898c-9.97,5.584-22.155-1.059-22.251-12.131c-0.064-7.273,3.056-11.723,9.57-13.646
		c1.98-0.584,5.85-1.882,8.6-2.882c2.75-1.001,6.53-2.262,8.4-2.801c1.87-0.541,5.56-1.774,8.2-2.743
		c2.64-0.97,6.33-2.203,8.2-2.744c1.87-0.54,5.56-1.774,8.2-2.744c2.64-0.969,6.24-2.168,8-2.665
		c3.993-1.128,4.432-1.492,6.824-5.658c1.069-1.861,2.715-4.543,3.659-5.959c0.945-1.416,1.717-2.73,1.717-2.922
		s1.14-2.183,2.534-4.426c1.394-2.243,2.989-4.889,3.545-5.878c1.36-2.423,5.727-9.683,7.447-12.382c0.765-1.2,1.933-3.18,2.596-4.4
		c0.663-1.22,2.05-3.568,3.082-5.218c1.033-1.649,2.543-4.17,3.355-5.601c0.813-1.43,2.102-3.59,2.864-4.799
		c0.763-1.211,1.577-2.896,1.81-3.748c0.233-0.851,1.581-3.954,2.995-6.896c1.415-2.942,2.572-5.439,2.572-5.548
		s1.069-2.431,2.376-5.16c1.307-2.728,2.839-6.06,3.405-7.403c0.565-1.343,1.728-3.838,2.584-5.544
		c0.855-1.706,2.018-4.209,2.584-5.563c0.565-1.353,1.843-4.086,2.84-6.073c0.996-1.988,1.811-3.724,1.811-3.858
		c0-0.135,1.418-3.252,3.151-6.927c1.733-3.674,3.289-7.131,3.458-7.681s0.696-1.63,1.171-2.4c1.293-2.099,0.959-2.665-2.107-3.577
		c-2.154-0.64-13.746-3.738-17.543-4.688c-1.048-0.262-1.909,1.234-3.788,6.584c-0.672,1.914-1.902,5.1-2.733,7.08
		s-2.093,5.22-2.806,7.2c-0.712,1.98-1.526,4.14-1.807,4.8c-1.836,4.297-3.427,8.364-4.169,10.654
		c-3.082,9.506-11.933,12.416-17.827,5.86c-3.262-3.628-3.383-7.49-0.446-14.207c0.957-2.187,2.057-4.951,2.445-6.142
		c0.661-2.031,2.182-5.964,3.002-7.765c0.732-1.608,1.682-4.073,2.774-7.2c0.614-1.76,1.698-4.55,2.409-6.2
		c0.71-1.65,2.183-5.43,3.274-8.4C160.643,43.236,165.785,39.484,174.564,41.922"/>
	<path id="path4" fill="#99C8D9" d="M181.552-60.228c-1.1,0.193-3.53,0.451-5.4,0.575c-1.87,0.123-4.079,0.482-4.908,0.796
		c-0.83,0.315-2.45,0.58-3.6,0.589c-1.151,0.01-2.902,0.201-3.892,0.425c-0.99,0.225-3.05,0.584-4.578,0.799
		c-1.529,0.215-2.987,0.564-3.241,0.775c-0.254,0.21-1.344,0.498-2.421,0.64c-1.078,0.141-2.446,0.501-3.04,0.8
		c-0.594,0.299-1.584,0.545-2.2,0.546c-0.616,0.002-1.636,0.272-2.266,0.6c-0.63,0.329-1.607,0.598-2.172,0.598
		c-1.175,0-5.767,1.398-7.344,2.236c-0.584,0.31-1.394,0.57-1.8,0.577c-0.406,0.007-1.087,0.277-1.514,0.6
		c-0.428,0.323-1.12,0.587-1.539,0.587c-0.419,0-1.239,0.248-1.823,0.551c-1.607,0.834-5.4,2.247-6.07,2.262
		c-0.325,0.007-0.941,0.277-1.368,0.6c-0.428,0.323-1.08,0.587-1.451,0.587c-0.371,0-0.899,0.27-1.173,0.6
		c-0.274,0.33-0.823,0.6-1.22,0.6c-0.398,0-0.993,0.27-1.323,0.6s-0.748,0.603-0.928,0.607c-0.181,0.003-1.589,0.633-3.129,1.399
		c-1.54,0.766-3.003,1.393-3.251,1.394c-0.248,0-0.666,0.258-0.928,0.574c-0.262,0.316-1.004,0.69-1.649,0.832
		c-0.644,0.142-1.172,0.384-1.172,0.538c0,0.154-0.495,0.498-1.1,0.763c-1.337,0.587-5.422,2.927-5.7,3.266
		c-0.11,0.134-0.65,0.467-1.2,0.739c-0.55,0.273-1.54,0.852-2.2,1.286c-0.66,0.435-1.56,0.981-2,1.213
		c-1.705,0.902-4.141,2.478-6.454,4.175c-0.91,0.668-2.052,1.484-2.537,1.814c-0.486,0.33-1.22,0.87-1.631,1.2
		c-0.411,0.33-1.745,1.306-2.963,2.17c-1.218,0.863-2.215,1.718-2.215,1.9c0,0.181-0.195,0.33-0.433,0.33
		c-0.395,0-3.612,2.38-4.569,3.38c-0.222,0.231-1.217,1.14-2.212,2.02C61.364-5.217,59.312-3.189,52.33,4.711
		c-1.748,1.978-3.673,4.087-4.278,4.687c-0.605,0.599-1.1,1.216-1.1,1.37s-0.272,0.565-0.605,0.913
		c-1.186,1.242-6.195,8.076-6.195,8.451c0,0.211-0.156,0.383-0.346,0.383s-0.865,0.765-1.5,1.7
		c-0.635,0.935-1.334,1.893-1.554,2.129c-0.22,0.237-0.76,1.137-1.2,2c-0.44,0.864-0.947,1.635-1.126,1.713
		c-0.179,0.078-0.497,0.528-0.706,1c-0.209,0.472-0.738,1.398-1.175,2.058c-0.437,0.66-1.067,1.74-1.4,2.4
		c-0.739,1.466-1.512,2.732-1.831,3c-0.225,0.188-0.851,1.295-2.038,3.6c-0.283,0.55-0.742,1.238-1.019,1.529
		c-0.278,0.29-0.505,0.853-0.505,1.251c0,0.397-0.27,0.946-0.6,1.22c-0.33,0.274-0.599,0.701-0.598,0.949
		c0.002,0.399-1.276,3.108-5.26,11.157c-0.628,1.268-1.142,2.501-1.142,2.739c0,0.239-0.262,1.001-0.582,1.695
		c-0.861,1.863-1.866,4.71-2.1,5.947c-0.113,0.598-0.455,1.295-0.762,1.549c-0.306,0.254-0.557,0.845-0.558,1.313
		c-0.002,0.468-0.272,1.367-0.6,1.997c-0.329,0.63-0.599,1.35-0.6,1.6c-0.002,0.25-0.28,0.986-0.619,1.636
		c-0.339,0.65-0.725,2-0.858,3c-0.132,1-0.483,2.173-0.781,2.607c-0.297,0.434-0.54,1.373-0.54,2.086
		c0,0.714-0.251,1.889-0.558,2.611c-0.307,0.723-0.765,2.304-1.017,3.514s-0.73,3.37-1.063,4.8c-0.332,1.43-0.767,3.32-0.966,4.2
		c-0.198,0.88-0.369,2.432-0.379,3.45c-0.009,1.017-0.287,2.615-0.617,3.55c-0.33,0.935-0.6,2.645-0.6,3.8
		c0,1.155-0.299,2.887-0.665,3.85c-1,2.631-1.004,39.523-0.004,42.55c0.363,1.1,0.67,3.08,0.682,4.4
		c0.012,1.319,0.282,3.119,0.599,4c0.317,0.879,0.583,2.5,0.592,3.6c0.008,1.1,0.204,2.72,0.434,3.6
		c0.231,0.881,0.592,2.59,0.803,3.801c0.211,1.209,0.648,2.766,0.971,3.459c0.324,0.694,0.594,1.864,0.602,2.6
		c0.008,0.738,0.272,1.791,0.586,2.341c0.314,0.55,0.579,1.54,0.588,2.2c0.009,0.66,0.286,1.716,0.614,2.346
		c0.329,0.63,0.599,1.529,0.6,2c0.002,0.918,1.533,5.49,2.32,6.928c0.263,0.479,0.478,1.211,0.478,1.623
		c0,0.413,0.264,1.1,0.587,1.527c0.323,0.427,0.593,1.146,0.6,1.6c0.007,0.451,0.277,1.172,0.6,1.6
		c0.323,0.428,0.599,1.137,0.614,1.576c0.014,0.439,0.374,1.521,0.799,2.4c0.425,0.881,0.779,1.893,0.786,2.25
		c0.008,0.358,0.284,0.875,0.614,1.149c0.33,0.273,0.6,0.822,0.6,1.22c0,0.398,0.27,0.994,0.6,1.323c0.33,0.33,0.6,0.81,0.6,1.066
		c0,0.256,0.262,0.944,0.582,1.528c0.32,0.584,1.051,2.093,1.625,3.354c0.574,1.261,1.212,2.396,1.418,2.523
		c0.206,0.127,0.375,0.567,0.375,0.979c0,0.412,0.248,0.996,0.551,1.299c0.303,0.305,0.675,1.115,0.826,1.803
		c0.151,0.687,0.533,1.463,0.849,1.726c0.316,0.262,0.574,0.726,0.574,1.028c0,0.304,0.162,0.552,0.361,0.552
		c0.198,0,0.559,0.493,0.801,1.1c0.242,0.604,0.755,1.576,1.139,2.156c0.385,0.582,1.329,2.086,2.099,3.344
		c0.77,1.257,1.712,2.763,2.094,3.343c0.382,0.582,0.874,1.467,1.094,1.969c0.22,0.5,0.588,1.131,0.817,1.399
		c0.229,0.27,1.663,2.199,3.187,4.289c1.523,2.091,3.265,4.394,3.871,5.117s1.806,2.344,2.667,3.601
		c0.861,1.256,2.084,2.768,2.718,3.358c0.634,0.594,1.152,1.254,1.152,1.467c0,0.216,0.151,0.449,0.335,0.523
		c0.184,0.073,1.756,1.754,3.493,3.733c5.476,6.238,17.901,18.215,19.226,18.527c0.3,0.072,0.546,0.289,0.546,0.482
		c0,0.451,5.416,4.789,5.979,4.789c0.231,0,0.421,0.186,0.421,0.412s0.301,0.528,0.669,0.67c0.369,0.141,0.954,0.51,1.3,0.817
		c0.347,0.31,2.341,1.804,4.431,3.32s4.02,2.944,4.289,3.174c0.27,0.229,0.9,0.595,1.4,0.812c0.501,0.215,1.254,0.619,1.673,0.895
		c3.354,2.205,4.893,3.102,5.329,3.102c0.28,0,0.509,0.14,0.509,0.308c0,0.17,0.843,0.756,1.873,1.301
		c1.03,0.545,2.781,1.576,3.891,2.291c1.11,0.715,2.315,1.301,2.678,1.301s0.884,0.271,1.158,0.601c0.274,0.33,0.814,0.6,1.2,0.6
		c0.386,0,0.926,0.271,1.2,0.602s0.791,0.601,1.149,0.603s1.191,0.36,1.851,0.797c0.66,0.438,1.438,0.797,1.729,0.797
		c0.29,0.002,0.798,0.273,1.128,0.604c0.33,0.33,0.925,0.6,1.323,0.6c0.397,0,0.946,0.271,1.22,0.602s0.791,0.605,1.149,0.611
		c0.358,0.008,1,0.277,1.427,0.602c0.428,0.322,1.058,0.593,1.4,0.601c0.343,0.009,1.344,0.361,2.224,0.787
		c0.88,0.424,1.804,0.778,2.054,0.785c0.25,0.008,0.97,0.282,1.6,0.612c0.63,0.326,1.506,0.604,1.946,0.611s1.149,0.279,1.576,0.604
		c0.428,0.322,1.058,0.588,1.4,0.589c0.343,0.002,1.107,0.256,1.697,0.563c0.59,0.309,1.637,0.684,2.327,0.836
		c0.69,0.149,1.737,0.526,2.327,0.834c0.59,0.309,1.547,0.562,2.127,0.563c0.58,0,1.57,0.271,2.2,0.601
		c0.63,0.327,1.74,0.598,2.466,0.6c0.726,0.001,1.806,0.246,2.4,0.546c0.594,0.3,1.962,0.659,3.04,0.8
		c1.077,0.143,2.169,0.432,2.426,0.645c0.257,0.213,1.535,0.508,2.84,0.654c1.306,0.146,2.564,0.414,2.796,0.598
		c0.232,0.181,1.942,0.439,3.801,0.574c2.395,0.451,4.795,0.93,7.2,1.411c3.276,0.544,6.521,1.104,9.749,1.66
		c8.976,1.95,16.976,1.95,25.821,3.99c3.263,0.358,6.532,0.617,9.8,0.764c19.601,0.875,39.085-2.337,56.273-12.938
		c2.995-1.703,5.911-3.537,8.744-5.49c2.104-1.371,4.182-2.802,6.234-4.289c2.051-1.487,4.077-3.031,6.075-4.627
		c2.393-1.6,4.742-3.289,7.046-5.072c4.606-3.565,9.027-7.504,13.232-11.838c3.268-2.43,5.152-3.848,6.589-5.011
		c1.436-1.163,2.422-2.07,3.89-3.478c1.206-1.154,2.254-2.1,2.327-2.1c0.576,0,9.526-8.805,13.594-13.369
		c1.54-1.729,3.822-4.246,5.072-5.594c1.251-1.347,2.753-3.154,3.338-4.018c0.586-0.863,1.634-2.324,2.327-3.249
		c0.694-0.924,1.532-2.077,1.862-2.563c0.33-0.485,1.019-1.362,1.531-1.946c0.512-0.584,1.352-1.709,1.863-2.498
		c0.514-0.791,1.22-1.722,1.567-2.069c0.348-0.35,0.816-1.054,1.041-1.564c0.225-0.512,0.72-1.406,1.102-1.986
		c0.383-0.581,1.324-2.086,2.095-3.344c0.771-1.256,1.713-2.762,2.097-3.342c0.382-0.582,0.822-1.328,0.979-1.658
		c0.157-0.33,0.714-1.229,1.236-2c0.522-0.77,2.025-3.649,3.34-6.399c1.315-2.75,2.65-5.478,2.969-6.062s0.579-1.35,0.579-1.701
		s0.137-0.637,0.303-0.637c0.167,0,0.688-0.855,1.16-1.9c0.472-1.045,1.234-2.745,1.696-3.777c0.463-1.033,0.848-2.203,0.854-2.602
		c0.008-0.396,0.276-1.07,0.601-1.498s0.593-1.146,0.601-1.6c0.007-0.453,0.276-1.174,0.601-1.601
		c0.322-0.428,0.587-1.152,0.587-1.611s0.247-1.189,0.549-1.623c0.303-0.435,0.686-1.42,0.852-2.189s0.55-1.756,0.852-2.189
		s0.549-1.253,0.549-1.82c0-0.566,0.192-1.223,0.428-1.457c0.234-0.235,0.575-1.396,0.756-2.58c0.182-1.185,0.515-2.693,0.741-3.354
		c0.51-1.486,1.204-4.17,1.762-6.8c0.232-1.101,0.67-2.567,0.97-3.261s0.545-2.19,0.545-3.326c0-1.137,0.19-2.424,0.425-2.86
		c0.235-0.436,0.513-2.09,0.619-3.673c0.105-1.584,0.451-3.87,0.767-5.08c2.159-8.307,2.133-44.843-0.038-51.571
		c-0.314-0.974-0.58-2.864-0.59-4.2s-0.276-3.149-0.595-4.029c-0.316-0.88-0.58-2.5-0.584-3.6c-0.005-1.1-0.248-2.459-0.541-3.02
		s-0.651-1.892-0.798-2.959c-0.146-1.067-0.446-2.157-0.665-2.421c-0.219-0.264-0.515-1.363-0.656-2.439
		c-0.141-1.078-0.501-2.446-0.8-3.04c-0.299-0.594-0.545-1.584-0.546-2.2c-0.002-0.616-0.271-1.636-0.601-2.266s-0.6-1.53-0.601-2
		c-0.002-0.47-0.271-1.37-0.6-2c-0.329-0.63-0.599-1.357-0.599-1.615c0-0.258-0.359-1.176-0.801-2.039
		c-0.44-0.863-0.806-1.936-0.813-2.385c-0.008-0.448-0.277-1.164-0.602-1.591c-0.322-0.428-0.587-1.18-0.587-1.672
		c0-0.492-0.27-1.165-0.6-1.495s-0.602-0.893-0.602-1.25c0-0.688-0.793-2.584-3.033-7.256c-0.751-1.567-1.365-3.052-1.365-3.3
		s-0.181-0.451-0.4-0.451c-0.219,0-0.399-0.245-0.399-0.545c0-0.582-2.912-6.53-3.594-7.338c-0.224-0.266-0.406-0.72-0.406-1.009
		c0-0.29-0.599-1.435-1.33-2.545c-0.73-1.11-1.452-2.276-1.604-2.591c-0.15-0.315-0.627-1.112-1.058-1.772s-1.059-1.74-1.396-2.4
		s-0.971-1.74-1.408-2.4c-0.438-0.66-1.008-1.605-1.266-2.1s-0.62-0.9-0.804-0.9c-0.186,0-0.336-0.238-0.336-0.53
		c0-0.291-0.945-1.803-2.102-3.359c-1.154-1.557-2.369-3.225-2.699-3.708s-0.924-1.258-1.317-1.722
		c-0.396-0.465-1.085-1.438-1.533-2.163c-0.447-0.725-0.979-1.318-1.182-1.318s-0.367-0.261-0.367-0.58
		c0-0.319-0.227-0.724-0.501-0.9c-0.276-0.176-0.995-1.04-1.598-1.92c-0.604-0.88-2.492-3.071-4.198-4.869
		c-1.707-1.798-4.273-4.574-5.703-6.167c-1.431-1.594-3.217-3.453-3.973-4.131c-0.755-0.678-2.044-1.863-2.863-2.633
		c-1.833-1.719-7.592-6.995-9.765-8.945c-0.88-0.79-1.707-1.441-1.838-1.446c-0.132-0.005-0.762-0.462-1.399-1.016
		c-0.64-0.555-1.882-1.493-2.763-2.087c-0.88-0.593-2.706-1.94-4.058-2.992c-1.351-1.053-2.557-1.914-2.679-1.914
		c-0.123,0-0.713-0.455-1.313-1.011c-0.601-0.555-2.068-1.59-3.265-2.3c-1.194-0.709-2.647-1.601-3.229-1.983
		c-0.58-0.382-1.502-0.888-2.049-1.125c-0.545-0.237-1.086-0.581-1.199-0.765c-0.115-0.184-1.02-0.768-2.01-1.298
		c-0.988-0.53-2.547-1.44-3.463-2.023c-0.914-0.582-4.334-2.335-7.601-3.896c-3.265-1.561-6.414-3.099-6.998-3.419
		c-0.584-0.319-1.351-0.58-1.7-0.58s-0.638-0.177-0.638-0.392c0-0.216-0.496-0.513-1.101-0.66c-0.605-0.147-1.455-0.511-1.89-0.808
		s-1.063-0.546-1.399-0.554c-0.336-0.007-1.332-0.361-2.211-0.786c-0.881-0.425-1.805-0.779-2.055-0.786
		c-0.25-0.008-0.971-0.283-1.6-0.612c-0.631-0.328-1.506-0.604-1.946-0.612c-0.44-0.009-1.149-0.28-1.576-0.603
		c-0.429-0.323-1.058-0.588-1.399-0.589c-0.344-0.002-1.106-0.255-1.696-0.563c-0.591-0.308-1.67-0.687-2.399-0.843
		c-0.73-0.157-1.525-0.443-1.769-0.638c-0.242-0.194-1.322-0.468-2.399-0.609c-1.078-0.14-2.176-0.425-2.438-0.632
		c-0.266-0.207-1.436-0.522-2.602-0.701c-1.166-0.178-2.66-0.509-3.32-0.736c-1.963-0.674-4.646-1.321-7.199-1.736
		c-1.32-0.215-2.939-0.564-3.602-0.777c-0.658-0.213-2.64-0.497-4.398-0.63c-1.76-0.134-3.539-0.417-3.951-0.63
		c-0.414-0.212-2.395-0.541-4.4-0.729c-2.007-0.189-4.817-0.526-6.248-0.75C211.02-60.752,184.389-60.725,181.552-60.228
		 M211.352-59.474c3.41,0.228,7.82,0.673,9.801,0.988c1.979,0.315,4.859,0.77,6.399,1.009c8.64,1.346,12.599,2.122,15.825,3.104
		c0.756,0.23,2.186,0.621,3.175,0.869c8.466,2.116,10.106,2.579,11.073,3.125c0.48,0.272,1.172,0.494,1.539,0.494
		c0.365,0,1.143,0.255,1.727,0.566s2.23,0.961,3.661,1.445s3.167,1.13,3.86,1.435c0.693,0.304,1.477,0.554,1.738,0.554
		c0.264,0,0.955,0.243,1.539,0.539c0.584,0.297,1.69,0.824,2.461,1.173c1.881,0.85,11.652,5.516,14.4,6.876
		c2.313,1.145,3.508,1.809,5.268,2.931c0.588,0.375,3.467,2.104,6.399,3.841c2.933,1.739,7.493,4.802,10.133,6.808
		c2.641,2.007,5.565,4.164,6.5,4.794c3.258,2.197,11.381,9.49,18.301,16.432c7.96,7.985,13.566,14.334,15.755,17.841
		c0.354,0.569,1.143,1.649,1.75,2.4c3.104,3.834,6.468,8.705,9.319,13.499c1.746,2.934,3.48,5.814,3.854,6.4
		c0.766,1.204,7.051,13.794,9.316,18.666c1.574,3.381,1.6,3.441,2.979,7.2c0.484,1.32,1.139,2.991,1.453,3.714
		c0.314,0.722,0.572,1.594,0.572,1.938c0,0.343,0.255,1.102,0.565,1.686c0.701,1.317,1.937,5.028,2.814,8.462
		c0.365,1.43,0.919,3.5,1.229,4.6c0.311,1.1,0.682,2.63,0.824,3.4s0.374,1.58,0.513,1.8c0.14,0.22,0.486,1.48,0.771,2.8
		c0.52,2.41,0.818,4.136,1.876,10.8c0.314,1.98,0.763,4.77,0.995,6.2c1.74,10.683,1.851,40.123,0.176,47.4
		c-0.305,1.32-0.556,3.094-0.559,3.943c-0.004,0.848-0.266,2.738-0.582,4.199c-0.315,1.461-0.749,3.918-0.963,5.457
		c-0.422,3.053-0.978,5.699-1.85,8.801c-1.251,4.451-2.228,8.189-3.079,11.8c-0.233,0.989-0.565,1.979-0.738,2.2
		c-0.171,0.22-0.495,1.029-0.722,1.8c-0.226,0.771-0.797,2.39-1.271,3.601c-0.475,1.209-1.025,2.739-1.227,3.399
		c-0.2,0.658-0.522,1.56-0.716,2c-0.194,0.439-0.764,1.879-1.266,3.199c-0.893,2.35-2.457,5.77-6.498,14.199
		c-1.668,3.48-6.193,11.498-8.696,15.406c-0.33,0.516-1.386,2.229-2.345,3.809s-2.071,3.201-2.474,3.604
		c-0.401,0.401-1.05,1.236-1.441,1.855c-1.119,1.771-8.747,11.773-10.16,13.326c-0.702,0.771-2.826,3.109-4.722,5.201
		c-4.085,4.506-7.243,7.691-11.06,11.16c-1.54,1.397-3.609,3.295-4.601,4.213c-1.457,1.352-4.247,3.635-8.199,6.713
		c-0.984,0.766-3.732,2.821-6.243,4.751c-3.965,4.093-8.159,7.806-12.55,11.159c-2.195,1.677-4.44,3.264-6.737,4.765
		c-1.92,1.455-3.864,2.87-5.833,4.24c-2.985,2.13-6.051,4.15-9.19,6.044c-18.982,12.246-42.027,17.605-65.13,15.417
		c-3.301-0.313-6.602-0.779-9.89-1.402c-7.675-0.019-15.675-4.019-25.037-4.422c-3.302-0.729-6.565-1.488-9.78-2.254
		c-3.172-0.466-6.5-1.05-9.24-1.601s-4.89-1.066-5.699-1.396c-0.369-0.15-1.751-0.527-3.071-0.838
		c-6.127-1.438-10.028-2.564-11.274-3.262c-0.48-0.271-1.172-0.49-1.538-0.49c-0.366,0-1.142-0.254-1.726-0.564
		c-0.584-0.312-2.232-0.957-3.662-1.436c-1.43-0.479-3.078-1.123-3.662-1.434c-0.584-0.312-1.366-0.566-1.738-0.566
		s-1.154-0.256-1.738-0.568c-0.584-0.312-2.772-1.371-4.862-2.354c-2.09-0.984-5.357-2.527-7.261-3.434
		c-1.903-0.904-3.572-1.646-3.708-1.646c-0.136,0-1.008-0.49-1.939-1.093c-2.611-1.685-3.214-2.039-4.284-2.516
		c-0.545-0.242-1.085-0.582-1.2-0.755c-0.114-0.173-0.697-0.565-1.295-0.875c-2.823-1.459-9.285-5.583-12.713-8.114
		c-7.462-5.511-11.815-8.854-12.819-9.843c-1.118-1.103-3.242-3.036-8.354-7.604c-4.131-3.69-3.699-3.262-6.827-6.793
		c-2.436-2.75-4.488-5.014-8.12-8.957c-0.836-0.907-2.088-2.461-2.781-3.45c-0.694-0.99-1.45-2.002-1.68-2.25
		s-0.689-0.854-1.019-1.345c-0.33-0.491-2.055-2.81-3.834-5.149c-1.779-2.34-4.029-5.573-5-7.185
		c-0.971-1.61-2.036-3.351-2.366-3.866c-1.176-1.836-6.203-10.382-6.348-10.789c-0.081-0.229-1.403-3.025-2.937-6.216
		c-3.515-7.31-4.849-10.229-5.48-12c-0.526-1.478-2.864-7.894-3.862-10.601c-1.232-3.341-2.099-6.05-2.368-7.399
		c-0.154-0.771-0.524-2.211-0.823-3.201c-0.3-0.99-0.833-2.969-1.186-4.399c-0.353-1.43-0.903-3.5-1.221-4.601
		c-0.556-1.92-0.84-3.457-1.774-9.6c-0.235-1.54-0.621-3.97-0.86-5.4c-2.516-15.096-2.487-45.703,0.051-54.396
		c0.224-0.769,0.408-1.98,0.408-2.692c0-1.432,0.895-6.493,1.858-10.511c0.343-1.43,0.763-3.23,0.934-4
		c1.348-6.086,3.876-15.072,4.631-16.462c0.317-0.584,0.577-1.343,0.577-1.686c0-0.344,0.257-1.216,0.572-1.938
		c0.315-0.723,0.972-2.394,1.46-3.714c0.488-1.32,1.131-2.967,1.428-3.66c0.297-0.694,0.54-1.456,0.54-1.695
		c0-0.238,0.516-1.471,1.147-2.739c0.631-1.268,2.044-4.196,3.14-6.506c3.67-7.734,4.096-8.589,5.407-10.866
		c1.263-2.19,7.456-12.548,8.428-14.094c0.398-0.634,9.9-13.367,11.565-15.499c0.283-0.363,2.145-2.433,4.138-4.6
		c1.993-2.168,4.423-4.831,5.399-5.919c2.248-2.503,4.095-4.35,6.598-6.598c1.088-0.976,3.734-3.39,5.881-5.364
		c2.147-1.974,5.837-5.018,8.2-6.766c2.363-1.748,4.747-3.519,5.297-3.935c4.614-3.496,6.859-5.012,11.2-7.566
		c2.75-1.618,5.09-3.047,5.2-3.175c0.11-0.129,0.65-0.458,1.2-0.73c0.55-0.273,1.54-0.844,2.2-1.269
		c1.251-0.805,1.952-1.158,11.281-5.667c6.855-3.313,10.067-4.747,10.669-4.766c0.247-0.007,1.17-0.361,2.05-0.786
		c0.88-0.425,1.879-0.779,2.22-0.786c0.341-0.008,0.791-0.177,1-0.377c0.209-0.199,1.01-0.548,1.78-0.775
		c1.917-0.566,4.832-1.604,5.8-2.066c0.44-0.21,1.52-0.553,2.4-0.762c0.88-0.21,3.04-0.772,4.8-1.249
		c1.76-0.478,3.977-1.026,4.927-1.22c0.949-0.193,1.91-0.464,2.134-0.603c0.931-0.575,5.813-1.528,15.139-2.955
		c1.65-0.253,4.44-0.718,6.2-1.034c1.76-0.315,4.46-0.593,6-0.617c1.54-0.023,3.88-0.177,5.2-0.341
		C188.875-59.932,204.468-59.934,211.352-59.474"/>
</g>
</svg>
