<?xml version="1.0" standalone="no"?>
<!DOCTYPE svg PUBLIC "-//W3C//DTD SVG 20010904//EN"
 "http://www.w3.org/TR/2001/REC-SVG-20010904/DTD/svg10.dtd">
<svg version="1.0" xmlns="http://www.w3.org/2000/svg"
 width="1000.000000pt" height="731.000000pt" viewBox="0 0 1000.000000 731.000000"
 preserveAspectRatio="xMidYMid meet">

<g transform="translate(0.000000,731.000000) scale(0.100000,-0.100000)"
fill="#000000" stroke="none">
<path d="M4178 7296 c-119 -32 -172 -117 -170 -276 1 -136 64 -280 115 -264
33 10 72 42 91 74 16 29 16 31 -5 59 -23 31 -40 131 -22 131 5 0 8 -14 5 -30
-2 -17 2 -37 9 -46 11 -14 13 -14 21 0 5 9 16 16 24 16 22 0 8 39 -24 69 -21
19 -23 23 -7 17 11 -4 25 -8 30 -9 17 -3 23 -19 30 -70 5 -36 11 -47 23 -45
16 3 23 21 41 110 21 102 74 136 125 82 15 -17 30 -25 40 -21 20 8 30 49 21
84 -10 40 -83 109 -130 122 -52 14 -158 13 -217 -3z"/>
<path d="M1682 7289 c-99 -19 -162 -81 -183 -179 -24 -113 8 -290 65 -357 21
-24 23 -24 57 -10 39 16 89 69 89 94 0 9 -8 25 -17 35 -10 12 -17 39 -19 76
-1 31 0 44 2 27 3 -16 10 -40 16 -53 11 -22 12 -22 30 -2 10 10 18 30 18 43 0
29 -33 62 -55 53 -10 -3 -14 -2 -10 5 8 12 67 1 77 -15 4 -6 8 -27 8 -46 1
-88 41 -78 59 15 18 102 50 155 93 155 5 0 23 -14 39 -31 25 -27 31 -29 45
-18 42 34 30 96 -29 157 -53 55 -165 75 -285 51z"/>
<path d="M6780 7271 c-47 -15 -87 -40 -118 -75 -76 -86 -78 -284 -5 -419 26
-47 31 -52 61 -50 36 1 65 22 93 67 17 28 17 30 -7 74 -29 55 -32 123 -6 143
15 13 16 12 3 -4 -15 -19 -10 -79 9 -102 9 -11 16 -12 30 -2 14 8 16 13 7 19
-9 6 -9 8 1 8 16 0 7 37 -16 63 -14 16 -14 17 9 14 25 -4 36 -28 38 -85 1 -28
4 -33 23 -30 19 3 23 13 34 74 6 38 19 84 27 101 27 51 74 58 107 16 17 -22
25 -25 38 -17 31 20 38 61 18 97 -52 91 -104 117 -231 116 -49 0 -101 -4 -115
-8z"/>
<path d="M9217 7090 c-120 -30 -176 -95 -191 -221 -12 -98 25 -248 77 -313 20
-24 28 -28 52 -22 35 9 95 70 95 96 0 10 -9 34 -19 52 -11 18 -22 51 -25 73
l-6 40 15 -40 c9 -22 19 -43 24 -48 11 -11 40 36 36 59 -2 10 -4 22 -4 26 -1
4 -13 14 -28 23 l-28 16 30 -6 c39 -8 45 -14 52 -61 13 -85 47 -80 57 9 17
146 84 206 140 125 15 -21 16 -21 36 -3 11 10 20 31 20 47 0 41 -52 112 -97
134 -43 21 -175 29 -236 14z"/>
<path d="M2014 6832 c4 -7 2 -19 -4 -27 -9 -11 -9 -15 -1 -15 18 0 25 30 11
43 -10 9 -11 9 -6 -1z"/>
<path d="M4511 6819 c-13 -10 -19 -19 -14 -19 13 0 49 27 43 33 -3 3 -16 -3
-29 -14z"/>
<path d="M7124 6791 c0 -15 3 -17 13 -9 7 6 10 14 7 19 -9 15 -20 10 -20 -10z"/>
<path d="M4000 6653 c-37 -18 -210 -184 -210 -202 0 -8 86 -81 133 -112 6 -4
-8 -29 -30 -55 -38 -45 -41 -55 -47 -127 -6 -78 -6 -79 30 -125 19 -26 81 -98
137 -161 l102 -113 49 6 c27 3 53 9 56 13 4 5 15 55 24 113 9 58 28 173 41
256 14 84 25 170 25 193 0 51 -27 125 -70 188 -33 47 -33 48 -18 90 14 40 14
42 -5 47 -31 8 -39 -2 -22 -28 24 -36 6 -38 -36 -4 -47 38 -109 46 -159 21z
m215 -3 c3 -5 2 -10 -4 -10 -5 0 -13 5 -16 10 -3 6 -2 10 4 10 5 0 13 -4 16
-10z"/>
<path d="M1496 6650 c-15 -5 -36 -15 -45 -22 -9 -8 -55 -27 -103 -43 -101 -34
-98 -22 -36 -149 36 -77 37 -81 19 -90 -24 -10 -31 -46 -31 -155 0 -47 -9
-143 -21 -213 l-21 -126 31 -46 c31 -44 34 -46 81 -46 51 0 66 -15 30 -28 -19
-7 -19 -9 9 -42 31 -36 39 -60 20 -60 -8 0 -8 -4 1 -15 15 -18 3 -38 -18 -30
-8 3 -19 0 -23 -7 -6 -10 -11 -10 -20 -1 -6 6 -18 9 -26 6 -25 -10 -108 87
-101 117 2 7 -2 14 -8 17 -13 5 -37 -93 -40 -167 -4 -96 -110 -429 -161 -508
-37 -57 -89 -77 -280 -107 -254 -41 -334 -55 -408 -74 -38 -10 -83 -19 -100
-19 -45 -3 -51 -15 -37 -82 7 -34 15 -67 19 -75 3 -8 1 -15 -5 -15 -12 0 -29
42 -37 91 -10 55 -16 61 -53 48 -18 -6 -32 -12 -32 -14 0 -14 99 -284 126
-342 34 -75 41 -81 75 -63 16 9 19 22 19 85 0 65 -2 75 -17 76 -15 0 -15 2 2
8 l20 8 -20 5 c-19 5 -19 6 -1 7 20 1 20 1 0 16 -18 14 -18 14 4 8 12 -3 22
-2 22 1 0 4 -10 11 -22 16 -22 8 -22 9 5 9 20 1 27 6 27 21 0 12 8 21 23 25
48 10 189 25 342 35 381 26 472 66 587 263 41 70 128 263 128 285 0 21 14 13
34 -21 100 -167 189 -329 205 -372 11 -29 25 -105 31 -176 25 -261 76 -493
111 -502 11 -3 19 -12 19 -21 0 -30 58 -20 91 15 16 18 32 29 35 27 2 -3 -9
-19 -25 -37 -21 -23 -38 -31 -63 -31 -19 0 -39 5 -45 11 -17 17 -24 -5 -12
-40 10 -30 13 -31 48 -25 20 4 54 13 75 21 22 7 41 11 44 9 11 -12 -13 -25
-73 -41 -69 -19 -92 -35 -53 -36 19 0 20 -2 5 -7 -15 -7 -16 -10 -4 -26 14
-19 16 -19 78 4 125 45 339 152 339 170 0 31 -23 40 -96 40 -61 0 -73 -3 -77
-17 -4 -16 -5 -15 -6 1 -1 20 -1 20 -16 0 -9 -12 -13 -13 -10 -4 4 11 -1 16
-15 17 -13 1 -20 -4 -20 -15 -1 -9 -7 0 -15 21 -27 78 -47 224 -59 450 l-13
232 -38 95 c-39 99 -156 338 -219 449 l-37 65 16 110 c9 61 29 172 45 246 108
501 106 482 56 585 -19 39 -41 79 -49 90 -13 17 -13 23 1 53 14 28 14 34 2 42
-8 5 -18 6 -23 3 -5 -3 -4 -9 2 -13 9 -5 8 -10 -4 -20 -14 -11 -19 -7 -16 13
1 5 -2 6 -7 3 -4 -3 -21 4 -38 15 -30 20 -79 23 -128 9z m-1231 -1869 c0 -21
-3 -37 -7 -34 -14 8 -8 73 7 73 0 0 1 -18 0 -39z m-108 -13 c-3 -7 -5 -2 -5
12 0 14 2 19 5 13 2 -7 2 -19 0 -25z m10 -50 c-3 -8 -6 -5 -6 6 -1 11 2 17 5
13 3 -3 4 -12 1 -19z m114 -305 c13 -16 12 -17 -3 -4 -10 7 -18 15 -18 17 0 8
8 3 21 -13z m1756 -225 c-3 -8 -6 -5 -6 6 -1 11 2 17 5 13 3 -3 4 -12 1 -19z"/>
<path d="M4170 6636 c0 -2 8 -10 18 -17 15 -13 16 -12 3 4 -13 16 -21 21 -21
13z"/>
<path d="M6670 6633 c-43 -8 -70 -44 -135 -176 l-62 -128 61 -31 c33 -17 71
-37 83 -45 l22 -15 -39 -57 c-22 -32 -46 -74 -55 -94 -14 -33 -13 -36 14 -73
37 -53 263 -254 283 -254 12 0 111 487 111 540 -1 58 -34 144 -85 220 -25 38
-38 67 -34 77 4 9 1 20 -6 25 -22 13 -31 9 -17 -8 10 -12 4 -11 -26 5 -38 20
-62 23 -115 14z"/>
<path d="M9561 6627 c-1 -10 -4 -16 -8 -14 -5 3 -14 -1 -21 -9 -16 -18 -2 -18
22 -1 11 8 16 20 13 28 -4 10 -6 9 -6 -4z"/>
<path d="M9087 6448 c-35 -10 -82 -47 -225 -181 l-53 -50 32 -33 c24 -25 30
-38 25 -56 -4 -13 -11 -75 -16 -138 -9 -118 -61 -370 -106 -520 -32 -106 -126
-311 -198 -433 -29 -51 -88 -130 -130 -177 -101 -112 -155 -192 -266 -390 -51
-91 -105 -179 -121 -195 -16 -17 -29 -36 -29 -42 0 -6 26 -34 57 -62 71 -63
46 -69 -29 -8 l-54 44 -17 -23 c-9 -13 -17 -27 -17 -33 0 -20 337 -241 367
-241 8 0 18 11 24 24 10 21 6 31 -27 80 -24 34 -45 55 -54 52 -9 -1 -21 3 -28
10 -9 10 -8 15 6 24 14 9 13 10 -8 5 -23 -6 -24 -5 -7 8 14 12 15 20 8 40 -10
26 -21 31 -95 41 -22 3 -46 12 -55 20 -17 18 -24 76 -9 76 6 0 7 -7 4 -16 -9
-24 11 -51 48 -64 61 -20 78 -8 162 118 128 193 178 256 299 373 118 116 197
217 292 377 31 50 59 92 62 92 20 0 291 -248 343 -314 30 -38 36 -51 27 -62
-6 -8 -66 -55 -132 -106 -205 -156 -366 -331 -353 -384 6 -24 55 -54 88 -54 7
0 50 35 95 78 45 43 134 111 198 152 63 41 150 98 193 125 52 34 88 66 110 99
79 118 25 242 -221 518 -102 113 -102 111 -61 303 42 203 43 189 -4 203 -81
25 -118 75 -153 209 -10 42 -19 82 -19 88 0 7 29 17 69 24 93 15 91 15 91 -16
0 -37 28 -165 37 -174 5 -4 18 -10 30 -13 20 -6 23 1 53 130 23 97 31 149 26
180 -6 44 -42 125 -79 177 -18 27 -19 31 -4 68 14 37 14 39 -3 39 -9 0 -24 -8
-31 -17 -12 -16 -12 -17 1 -6 13 10 16 8 16 -7 0 -18 -2 -18 -21 -5 -71 52
-85 57 -138 43z m-1092 -2288 c10 -11 16 -20 13 -20 -3 0 -13 9 -23 20 -10 11
-16 20 -13 20 3 0 13 -9 23 -20z m95 -77 c0 -7 -58 36 -66 49 -4 7 9 -1 29
-16 20 -16 37 -30 37 -33z m130 53 c0 -2 -7 -7 -16 -10 -8 -3 -12 -2 -9 4 6
10 25 14 25 6z m-99 -73 c13 -16 12 -17 -3 -4 -10 7 -18 15 -18 17 0 8 8 3 21
-13z m44 -33 c10 -11 16 -20 13 -20 -3 0 -13 9 -23 20 -10 11 -16 20 -13 20 3
0 13 -9 23 -20z m110 -78 c-3 -3 -11 0 -18 7 -9 10 -8 11 6 5 10 -3 15 -9 12
-12z"/>
<path d="M6380 5730 l-43 -200 37 -248 c20 -136 36 -257 36 -269 0 -17 -8 -23
-41 -28 -56 -10 -201 -59 -239 -81 -21 -13 -30 -26 -30 -45 0 -32 35 -79 60
-79 9 0 24 -9 31 -20 14 -20 14 -20 79 0 35 12 70 19 76 18 7 -2 -37 -54 -97
-115 l-109 -113 0 35 c0 21 -5 35 -12 35 -10 0 -9 3 1 9 11 7 10 11 -5 20 -18
11 -18 12 1 6 16 -4 21 0 22 15 1 11 -4 20 -13 20 -8 0 -14 4 -14 9 0 5 8 7
19 4 38 -10 31 26 -14 77 -48 54 -54 75 -30 106 8 10 15 22 15 27 0 12 -58 8
-66 -5 -9 -15 -6 -86 6 -127 5 -19 5 -31 -1 -31 -13 0 -27 39 -35 100 -7 54
-23 68 -25 23 -2 -24 -2 -25 -6 -5 -5 25 -31 30 -39 7 -7 -18 46 -210 91 -326
l34 -89 -53 -83 c-29 -45 -63 -101 -75 -125 -21 -40 -21 -45 -7 -67 18 -27 79
-43 99 -27 7 6 22 9 33 6 16 -4 28 6 57 49 67 101 212 247 403 405 118 98 144
130 144 183 0 16 17 17 193 21 170 3 196 5 226 23 77 45 94 116 48 199 -28 51
-127 184 -247 331 l-81 100 6 70 c3 39 7 78 8 89 1 14 -32 40 -132 102 -74 47
-163 109 -197 139 -34 30 -64 55 -66 55 -3 0 -24 -90 -48 -200z m427 -682 c-7
-4 -40 -8 -74 -8 l-63 0 0 88 1 87 74 -80 c48 -53 69 -82 62 -87z m-810 -250
c-3 -7 -5 -2 -5 12 0 14 2 19 5 13 2 -7 2 -19 0 -25z m140 -124 c-3 -3 -12 -4
-19 -1 -8 3 -5 6 6 6 11 1 17 -2 13 -5z m-90 -76 c-3 -8 -6 -5 -6 6 -1 11 2
17 5 13 3 -3 4 -12 1 -19z"/>
<path d="M4718 5913 c6 -2 18 -2 25 0 6 3 1 5 -13 5 -14 0 -19 -2 -12 -5z"/>
<path d="M3771 5727 c-46 -193 -47 -197 -26 -298 31 -157 48 -499 24 -499 -6
0 -95 38 -198 84 -191 86 -306 129 -376 142 -22 4 -51 15 -64 25 -49 39 -63
27 -117 -106 -7 -19 -8 -18 -11 5 -2 14 8 51 21 83 29 63 18 79 -13 20 -11
-21 -20 -33 -20 -28 0 6 6 21 14 35 20 34 19 40 -8 40 -21 0 -27 -10 -50 -87
-59 -194 -84 -318 -67 -337 9 -12 48 -14 54 -4 1 2 18 26 38 54 28 40 34 55
25 64 -10 10 -8 12 7 6 14 -5 17 -3 12 10 -5 14 -4 15 8 5 18 -15 32 15 15 35
-14 17 2 19 19 2 9 -9 15 -9 24 0 8 8 9 26 2 66 -10 55 -3 94 19 108 23 15 27
8 7 -12 -23 -23 -27 -82 -7 -102 7 -7 13 -26 13 -42 -1 -26 4 -30 61 -47 34
-11 119 -49 190 -86 70 -36 175 -90 232 -120 129 -66 197 -87 267 -81 65 6
119 43 145 102 16 37 34 147 41 248 3 36 6 33 72 -89 l70 -128 -18 -85 c-10
-47 -47 -186 -84 -310 -42 -143 -65 -241 -64 -267 1 -32 -3 -43 -14 -43 -13 0
-34 -37 -34 -60 0 -11 87 -40 121 -40 15 0 31 -4 34 -10 8 -13 -59 -13 -108 1
-41 11 -62 4 -37 -11 13 -8 12 -10 -2 -10 -21 0 -24 -23 -5 -38 14 -12 308
-35 382 -30 48 3 50 4 50 33 0 26 -7 33 -60 58 -51 25 -63 27 -80 16 -18 -11
-19 -10 -7 4 11 13 10 16 -7 22 -12 3 -21 11 -21 17 0 6 -9 3 -20 -7 -20 -18
-29 -8 -10 11 8 8 6 15 -4 23 -12 10 -7 29 35 126 113 269 209 555 209 624 0
24 -44 137 -131 341 l-131 305 6 63 c6 61 6 63 -14 57 -25 -8 -107 54 -116 88
-5 18 -97 102 -224 204 l-27 22 -42 -172z m349 -1661 c22 9 43 14 46 11 3 -3
-16 -13 -41 -23 -48 -18 -94 -12 -102 13 -3 9 5 8 25 -3 27 -13 35 -13 72 2z
m-27 -123 c-7 -2 -19 -2 -25 0 -7 3 -2 5 12 5 14 0 19 -2 13 -5z m94 -9 c-3
-3 -12 -4 -19 -1 -8 3 -5 6 6 6 11 1 17 -2 13 -5z m70 -10 c-3 -3 -12 -4 -19
-1 -8 3 -5 6 6 6 11 1 17 -2 13 -5z"/>
<path d="M4192 5729 c2 -6 8 -10 13 -10 5 0 11 4 13 10 2 6 -4 11 -13 11 -9 0
-15 -5 -13 -11z"/>
<path d="M8756 4331 c-21 -23 -14 -41 41 -108 24 -31 30 -43 19 -43 -9 0 -34
24 -57 53 -42 53 -67 73 -56 44 4 -11 2 -14 -8 -11 -8 3 -16 -4 -20 -16 -6
-18 5 -35 61 -92 103 -105 234 -218 253 -218 9 0 22 9 28 19 10 17 8 30 -18
85 -17 36 -36 64 -42 62 -7 -1 -9 -1 -4 1 15 9 6 25 -10 19 -15 -5 -14 -3 2
10 20 16 19 16 -5 11 -24 -6 -24 -5 -6 8 19 15 19 15 -5 16 -17 1 -19 3 -6 6
29 8 20 39 -15 52 -87 32 -103 44 -106 84 -4 41 -19 48 -46 18z m-25 -98 c13
-16 12 -17 -3 -4 -10 7 -18 15 -18 17 0 8 8 3 21 -13z m69 -78 c30 -30 52 -55
49 -55 -2 0 -29 25 -59 55 -30 30 -52 55 -49 55 2 0 29 -25 59 -55z m105 -115
c27 -27 47 -50 44 -50 -3 0 -27 23 -54 50 -27 28 -47 50 -44 50 3 0 27 -22 54
-50z"/>
<path d="M5871 4206 l-22 -23 61 -56 c33 -31 60 -58 60 -61 0 -14 -47 12 -90
51 -26 24 -51 39 -54 34 -4 -5 18 -31 46 -57 29 -26 44 -41 33 -34 -11 8 -35
27 -53 44 -25 24 -35 27 -44 18 -9 -9 -10 -17 -2 -30 23 -35 330 -232 363
-232 6 0 16 10 22 23 9 20 5 32 -28 80 -27 41 -43 56 -56 53 -15 -4 -16 -2 -5
11 11 14 10 15 -12 8 -24 -7 -25 -7 -5 9 20 17 19 17 -5 10 -25 -6 -25 -6 -5
11 20 16 20 16 -5 11 -23 -5 -23 -4 -7 8 36 27 0 56 -71 56 -38 0 -82 37 -82
70 0 26 -11 25 -39 -4z m125 -208 c4 -7 -9 1 -29 16 -20 16 -37 30 -37 33 0 7
58 -36 66 -49z m84 -65 c0 -7 -58 36 -66 49 -4 7 9 -1 29 -16 20 -16 37 -30
37 -33z"/>
<path d="M1537 3406 c-73 -21 -121 -58 -148 -113 -21 -42 -24 -62 -24 -168 0
-111 2 -125 29 -182 37 -82 54 -97 92 -83 37 14 62 37 81 73 13 25 12 31 -5
60 -22 36 -36 107 -21 107 5 0 9 -9 9 -20 0 -11 5 -29 12 -39 11 -18 12 -18
30 4 16 21 22 88 6 79 -4 -2 -9 0 -13 6 -10 15 -35 12 -35 -5 0 -8 -5 -15 -10
-15 -7 0 -7 7 0 21 9 17 17 19 43 13 18 -3 34 -8 36 -10 1 -1 6 -27 10 -56 5
-44 9 -53 25 -53 16 0 22 11 32 65 15 84 37 136 62 149 31 17 41 14 73 -21
l30 -33 20 24 c26 32 23 69 -9 116 -43 62 -100 88 -197 92 -47 1 -100 -3 -128
-11z"/>
<path d="M4223 3406 c-83 -20 -126 -55 -160 -126 -12 -26 -17 -64 -17 -150 -1
-120 17 -189 62 -248 24 -31 61 -22 108 25 36 36 42 66 19 97 -20 26 -29 96
-16 128 9 25 12 26 44 16 36 -11 47 -34 47 -94 0 -17 6 -24 19 -24 20 0 25 9
36 74 11 67 36 116 66 131 27 14 30 14 65 -17 l36 -32 19 23 c26 31 24 60 -7
107 -59 91 -178 124 -321 90z"/>
<path d="M6723 3386 c-73 -23 -110 -53 -139 -113 -51 -103 -42 -277 19 -387
20 -36 27 -41 56 -39 23 1 44 12 67 34 42 41 50 65 30 88 -19 21 -37 109 -24
117 4 3 8 2 7 -3 -9 -52 17 -85 46 -57 22 22 19 60 -7 85 l-23 21 25 -7 c33
-10 40 -22 40 -71 0 -41 15 -60 37 -46 5 4 15 36 22 72 15 76 32 113 63 134
31 22 36 21 69 -15 33 -36 54 -33 70 8 21 56 -57 160 -138 182 -51 15 -168 13
-220 -3z"/>
<path d="M9231 3272 c-71 -20 -134 -80 -152 -142 -19 -70 -14 -195 10 -268 26
-77 68 -142 91 -142 27 0 81 42 101 78 17 33 17 34 -7 69 -13 20 -25 44 -25
54 -6 91 0 103 49 93 27 -5 32 -12 38 -43 10 -61 15 -71 33 -71 15 0 20 11 25
53 11 83 26 128 51 153 31 31 37 30 78 -6 32 -28 35 -29 49 -12 26 30 28 52 9
90 -42 81 -103 112 -218 111 -43 0 -102 -8 -132 -17z"/>
<path d="M4225 3119 c-10 -43 10 -77 40 -71 37 7 27 70 -15 92 -16 8 -19 5
-25 -21z"/>
<path d="M9259 3003 c-6 -43 19 -122 32 -101 5 7 14 13 21 13 17 1 12 42 -7
72 -15 22 -44 32 -46 16z"/>
<path d="M1865 2919 c-17 -11 -23 -19 -14 -19 17 0 57 26 49 33 -3 2 -18 -4
-35 -14z"/>
<path d="M4541 2919 c-13 -10 -19 -19 -14 -19 13 0 49 27 43 33 -3 3 -16 -3
-29 -14z"/>
<path d="M7054 2895 c-10 -8 -14 -14 -9 -15 15 0 40 18 34 24 -3 3 -14 -1 -25
-9z"/>
<path d="M9580 2800 c-8 -5 -12 -11 -9 -14 3 -3 14 1 25 9 21 16 8 20 -16 5z"/>
<path d="M1270 2775 c-47 -14 -97 -28 -112 -31 -16 -4 -28 -13 -28 -21 0 -13
31 -91 69 -176 16 -33 16 -46 5 -115 -7 -42 -18 -124 -24 -182 -6 -58 -25
-172 -41 -255 -44 -220 -60 -315 -55 -324 7 -10 -44 -206 -86 -331 -39 -120
-91 -225 -121 -244 -37 -24 -123 -44 -322 -75 -104 -17 -221 -37 -260 -46 -38
-8 -99 -21 -134 -27 l-63 -11 6 -56 c3 -31 8 -69 12 -86 5 -27 4 -28 -9 -12
-8 9 -20 44 -26 77 -7 33 -13 60 -15 60 -14 0 -66 -24 -66 -30 0 -15 79 -236
115 -322 27 -64 42 -88 55 -88 29 0 43 27 46 95 2 52 -1 67 -14 75 -15 8 -15
10 3 10 l20 1 -20 9 c-19 8 -19 9 -1 9 20 1 20 1 0 16 -18 14 -18 14 4 8 29
-7 29 5 0 18 l-23 10 23 -5 c20 -4 27 7 23 36 -2 16 124 33 354 48 313 21 417
51 508 149 53 57 141 216 187 336 13 33 26 64 30 68 9 10 142 -214 205 -344
43 -90 46 -100 60 -245 17 -170 44 -330 72 -419 15 -47 24 -61 40 -63 12 -2
25 -12 28 -23 10 -30 50 -23 95 17 48 44 54 31 7 -14 -33 -32 -88 -44 -102
-22 -3 6 -11 10 -17 10 -12 0 -3 -59 11 -73 8 -8 80 6 146 28 18 6 18 5 -3
-14 -12 -11 -47 -25 -77 -32 -53 -12 -74 -29 -37 -29 12 0 14 -2 4 -8 -15 -10
-5 -42 13 -42 34 0 386 157 399 178 4 6 1 20 -6 32 -11 17 -23 20 -82 20 -54
0 -72 -4 -82 -17 -13 -17 -14 -17 -8 -1 9 26 -5 22 -16 -5 -9 -22 -9 -22 -10
3 -1 23 -2 23 -10 5 -8 -19 -9 -19 -9 -1 -1 20 -1 20 -16 0 -14 -18 -14 -18
-8 4 4 16 1 22 -10 22 -29 0 -56 180 -66 445 -8 177 -11 209 -35 278 -30 89
-125 292 -209 446 l-57 104 10 86 c6 47 26 167 46 266 l36 180 -76 114 c-42
62 -76 117 -76 121 0 8 140 90 152 90 3 0 13 -18 23 -40 10 -22 22 -40 27 -40
15 0 8 109 -10 158 -11 27 -35 74 -56 104 -31 48 -35 59 -26 82 5 15 10 29 10
32 0 9 -29 3 -36 -8 -5 -7 -3 -8 6 -3 9 5 11 4 6 -4 -6 -9 -13 -8 -29 3 -12 9
-33 24 -46 33 -38 27 -124 26 -221 -2z m-1213 -1927 c-3 -8 -6 -5 -6 6 -1 11
2 17 5 13 3 -3 4 -12 1 -19z m50 -170 c-3 -8 -6 -5 -6 6 -1 11 2 17 5 13 3 -3
4 -12 1 -19z m52 -138 c11 -24 11 -24 -3 -6 -9 11 -16 24 -16 30 0 12 5 7 19
-24z m1971 -254 c0 -2 -8 -10 -17 -17 -16 -13 -17 -12 -4 4 13 16 21 21 21 13z
m-333 -142 c-3 -3 -12 -4 -19 -1 -8 3 -5 6 6 6 11 1 17 -2 13 -5z"/>
<path d="M4039 2761 c-24 -17 -81 -68 -127 -114 l-84 -84 40 -31 40 -32 -19
-72 c-11 -39 -19 -86 -19 -104 0 -42 -54 -376 -84 -519 -24 -114 -23 -179 3
-295 15 -69 33 -315 29 -407 l-3 -83 -145 66 c-208 94 -332 143 -413 161 -38
9 -78 24 -88 34 -40 40 -77 11 -110 -86 -13 -37 -14 -38 -17 -13 -2 14 7 50
19 78 12 28 20 53 17 55 -2 3 -18 8 -36 11 l-31 6 -25 -83 c-40 -132 -78 -297
-74 -327 2 -19 10 -28 24 -30 30 -4 119 109 101 128 -8 9 -9 11 0 6 15 -8 44
4 37 16 -4 6 -9 6 -14 -2 -5 -9 -9 -9 -14 -1 -4 6 -2 11 4 11 6 0 8 4 5 10 -9
14 8 13 23 -2 16 -16 16 4 0 21 -11 11 -9 11 9 0 37 -22 49 -1 34 64 -13 59
-4 100 24 111 26 10 27 8 5 -14 -21 -21 -28 -94 -10 -105 6 -3 10 -21 10 -39
0 -31 3 -33 53 -46 28 -7 140 -58 247 -113 342 -175 345 -177 438 -177 127 0
183 81 199 292 l8 97 68 -123 c37 -68 67 -136 67 -150 0 -32 -65 -285 -123
-478 -35 -114 -44 -157 -40 -193 5 -38 10 -46 31 -52 23 -5 36 -2 95 22 9 4
17 3 17 -2 0 -5 -20 -16 -45 -25 -52 -20 -87 -12 -105 23 -13 24 -24 16 -34
-24 -6 -25 -3 -29 26 -41 18 -8 55 -17 83 -22 41 -6 46 -9 29 -16 -13 -6 -41
-4 -81 5 -61 14 -62 14 -67 -9 -15 -58 7 -64 262 -64 l182 0 0 24 c0 20 -11
30 -62 54 -48 22 -66 27 -77 18 -12 -9 -13 -7 -7 8 7 20 7 20 -15 0 l-22 -19
13 25 13 25 -23 -20 -23 -20 12 23 c8 14 8 22 1 22 -5 0 -10 -4 -10 -10 0 -5
-5 -10 -11 -10 -8 0 -8 5 1 15 10 12 10 18 0 30 -10 12 3 53 70 221 112 281
160 427 166 504 l6 65 -137 318 -136 317 20 161 c29 220 32 202 -36 218 -77
17 -119 45 -144 93 -24 47 -44 142 -54 250 -7 86 -11 82 80 93 28 4 58 9 68
12 15 4 17 -6 17 -110 0 -150 5 -175 44 -198 17 -10 40 -19 52 -19 19 0 23 13
48 163 38 235 35 268 -39 388 -34 55 -36 63 -25 90 15 36 7 48 -19 25 -18 -16
-21 -16 -56 9 -49 33 -82 32 -136 -4z m-1008 -1518 c-12 -20 -14 -14 -5 12 4
9 9 14 11 11 3 -2 0 -13 -6 -23z m1147 -1210 c-10 -2 -26 -2 -35 0 -10 3 -2 5
17 5 19 0 27 -2 18 -5z m79 -9 c-3 -3 -12 -4 -19 -1 -8 3 -5 6 6 6 11 1 17 -2
13 -5z m86 -11 c-7 -2 -21 -2 -30 0 -10 3 -4 5 12 5 17 0 24 -2 18 -5z"/>
<path d="M4195 2780 c-4 -6 1 -7 11 -3 14 5 16 3 10 -13 -5 -14 -4 -16 5 -7
12 12 5 33 -11 33 -5 0 -12 -4 -15 -10z"/>
<path d="M6604 2761 c-33 -20 -81 -89 -115 -166 -12 -28 -33 -67 -46 -87 -14
-20 -22 -41 -19 -46 3 -5 1 -25 -5 -45 -5 -20 -19 -89 -30 -154 -11 -65 -24
-145 -30 -178 -6 -33 -29 -136 -52 -230 -23 -93 -41 -190 -40 -215 1 -25 13
-121 28 -214 14 -93 29 -197 32 -230 l5 -62 -53 -13 c-162 -40 -249 -84 -249
-125 0 -24 46 -81 63 -78 10 2 17 -4 17 -12 0 -25 13 -25 85 -5 39 10 73 18
76 17 4 -2 -40 -52 -98 -112 -91 -95 -105 -106 -99 -79 6 25 4 32 -11 36 -16
4 -16 5 1 6 20 1 20 1 0 16 -19 15 -19 15 1 9 l20 -6 -20 17 c-20 17 -20 17 3
10 12 -3 22 -2 22 4 0 5 -10 12 -22 14 -20 4 -19 4 5 6 39 2 35 25 -13 77 -43
47 -53 91 -25 114 23 19 3 33 -35 25 -33 -7 -33 -7 -27 -59 3 -28 9 -67 12
-86 6 -32 5 -34 -9 -16 -8 10 -18 42 -21 71 -9 72 -14 78 -53 64 -18 -6 -32
-12 -32 -14 0 -13 74 -256 99 -324 l30 -83 -41 -61 c-82 -120 -105 -169 -96
-203 5 -18 18 -35 33 -42 32 -15 75 -16 75 -2 0 7 6 8 17 2 14 -8 26 3 66 61
71 101 190 221 355 359 150 126 171 149 181 201 l7 32 189 5 c166 4 194 7 224
25 51 30 76 69 76 120 0 52 -50 129 -233 359 l-118 149 8 71 c4 39 14 108 23
154 9 46 15 85 13 86 -1 2 -37 13 -78 25 -194 58 -261 138 -246 291 8 72 25
151 36 163 5 6 146 -26 167 -38 1 0 -6 -28 -16 -60 -10 -33 -22 -79 -26 -102
-6 -38 -4 -45 19 -67 43 -39 165 -100 171 -84 16 43 75 347 75 384 0 58 -28
136 -74 209 -21 32 -36 66 -33 76 3 10 -1 20 -9 23 -9 3 -11 0 -7 -12 5 -14 1
-13 -18 4 -54 48 -87 54 -135 25z m136 -1574 c-3 -3 -35 -7 -71 -9 l-67 -4 -6
44 c-3 25 -6 63 -6 86 l0 41 77 -77 c42 -43 75 -79 73 -81z m-813 -214 c-3
-10 -5 -4 -5 12 0 17 2 24 5 18 2 -7 2 -21 0 -30z m10 -55 c-3 -8 -6 -5 -6 6
-1 11 2 17 5 13 3 -3 4 -12 1 -19z m20 -70 c-3 -8 -6 -5 -6 6 -1 11 2 17 5 13
3 -3 4 -12 1 -19z m20 -90 c-3 -8 -6 -5 -6 6 -1 11 2 17 5 13 3 -3 4 -12 1
-19z"/>
<path d="M9150 2632 c-25 -8 -60 -38 -163 -140 l-98 -96 76 -76 76 -76 -26
-24 c-14 -13 -41 -47 -61 -76 l-37 -53 12 -98 c18 -144 48 -324 59 -353 6 -17
28 -34 61 -49 56 -27 65 -41 25 -41 -20 0 -25 -4 -20 -16 3 -9 9 -34 13 -56 4
-30 3 -39 -5 -34 -8 5 -12 0 -12 -13 0 -26 -18 -37 -26 -16 -5 12 -10 13 -20
4 -11 -9 -15 -7 -20 5 -4 10 -13 14 -23 11 -24 -7 -56 89 -47 138 5 29 -2 59
-36 146 -24 61 -46 111 -50 111 -4 0 -12 -19 -19 -42 -79 -300 -223 -592 -374
-759 -41 -45 -97 -114 -124 -153 -58 -85 -221 -376 -225 -402 -2 -12 -10 -18
-21 -16 -19 4 -55 -25 -55 -44 0 -7 25 -34 55 -61 86 -76 62 -84 -28 -10 -49
42 -75 44 -41 5 l19 -23 -23 20 c-20 16 -25 17 -32 5 -6 -8 -8 -19 -7 -25 5
-14 228 -166 303 -206 99 -53 122 -22 57 76 -29 45 -40 54 -57 50 -21 -6 -21
-6 -1 11 20 16 20 16 -3 11 -20 -5 -21 -3 -10 10 11 14 10 15 -12 8 -24 -7
-25 -7 -5 9 20 17 20 17 -5 11 -21 -5 -22 -4 -7 5 41 26 3 60 -66 60 -40 0
-73 22 -80 52 l-6 23 17 -21 c10 -12 27 -26 39 -33 26 -13 73 -15 73 -2 0 5 8
7 18 5 11 -3 25 8 41 33 124 197 224 326 352 453 109 109 152 160 221 265 47
72 93 144 102 162 9 17 21 35 26 38 14 9 183 -139 299 -261 75 -78 90 -98 80
-110 -6 -8 -66 -56 -133 -106 -135 -103 -258 -221 -330 -316 -43 -57 -47 -66
-37 -88 15 -33 68 -56 96 -42 11 6 56 44 99 85 72 68 183 146 387 273 110 69
159 150 145 242 -12 78 -101 209 -263 387 l-76 83 11 87 c12 86 20 121 106
490 25 106 46 213 46 237 0 52 -29 133 -69 193 -22 33 -27 49 -20 62 26 49 28
67 9 72 -16 4 -19 0 -16 -24 2 -16 -1 -29 -6 -29 -5 0 -6 -6 -2 -12 4 -7 -8 1
-27 19 -38 35 -76 53 -99 45z m-1100 -2327 c13 -14 21 -25 18 -25 -2 0 -15 11
-28 25 -13 14 -21 25 -18 25 2 0 15 -11 28 -25z m81 -62 c13 -16 12 -17 -3 -4
-17 13 -22 21 -14 21 2 0 10 -8 17 -17z m114 -86 c26 -25 -34 16 -65 43 l-35
32 45 -33 c25 -18 50 -37 55 -42z m64 -33 c14 -12 -19 -1 -35 12 -18 14 -18
14 6 3 14 -6 27 -13 29 -15z"/>
<path d="M9256 2597 c3 -10 9 -15 12 -12 3 3 0 11 -7 18 -10 9 -11 8 -5 -6z"/>
<path d="M6930 1785 c0 -2 10 -10 23 -16 20 -11 21 -11 8 4 -13 16 -31 23 -31
12z"/>
<path d="M6936 1735 c10 -8 23 -15 28 -15 6 0 1 7 -10 15 -10 8 -23 15 -28 15
-6 0 -1 -7 10 -15z"/>
<path d="M6916 1705 c10 -8 23 -15 28 -15 6 0 1 7 -10 15 -10 8 -23 15 -28 15
-6 0 -1 -7 10 -15z"/>
<path d="M9980 1380 c0 -11 5 -20 10 -20 6 0 10 9 10 20 0 11 -4 20 -10 20 -5
0 -10 -9 -10 -20z"/>
<path d="M8772 500 c-22 -18 -22 -20 -7 -49 8 -17 29 -47 47 -66 52 -60 21
-52 -35 8 -29 31 -56 57 -59 57 -4 0 -15 -12 -24 -26 l-17 -25 84 -86 c104
-105 228 -213 245 -213 7 0 18 9 25 21 15 30 -36 148 -66 149 l-20 1 20 9 c18
8 18 9 -5 10 -23 1 -23 2 -5 10 18 8 18 9 -5 10 -18 2 -20 4 -7 7 25 7 21 22
-5 17 l-23 -5 22 10 c38 17 18 48 -43 66 -62 18 -90 50 -80 90 8 31 -9 33 -42
5z m23 -160 c53 -58 54 -60 11 -20 -26 25 -57 59 -68 75 -25 35 -22 32 57 -55z
m120 -130 c33 -33 57 -60 54 -60 -2 0 -31 27 -64 60 -33 33 -57 60 -54 60 2 0
31 -27 64 -60z"/>
<path d="M5803 343 l-17 -26 57 -52 c31 -29 57 -55 57 -58 0 -13 -36 8 -83 47
-51 42 -50 42 -77 -6 -9 -14 5 -28 82 -81 136 -95 264 -169 285 -165 32 6 27
46 -13 104 -30 44 -41 53 -58 48 -21 -6 -21 -6 -1 11 20 16 20 16 -3 12 -12
-3 -20 -1 -16 4 3 5 0 9 -7 9 -7 0 -4 7 7 16 18 15 18 15 -11 10 -29 -6 -29
-6 -7 7 36 21 8 47 -62 56 -63 9 -86 27 -86 68 0 31 -25 29 -47 -4z m95 -181
c15 -13 4 -7 -23 12 -28 19 -60 45 -70 57 -19 22 34 -17 93 -69z m127 -95 c26
-25 -34 16 -65 43 l-35 32 45 -33 c25 -18 50 -37 55 -42z"/>
</g>
</svg>
