<?xml version="1.0" encoding="utf-8"?>
<!-- Generator: Adobe Illustrator 12.0.0, SVG Export Plug-In . SVG Version: 6.00 Build 51448)  -->
<!DOCTYPE svg PUBLIC "-//W3C//DTD SVG 1.1//EN" "http://www.w3.org/Graphics/SVG/1.1/DTD/svg11.dtd" [
	<!ENTITY ns_svg "http://www.w3.org/2000/svg">
	<!ENTITY ns_xlink "http://www.w3.org/1999/xlink">
]>
<svg  version="1.1" id="svg" xmlns="&ns_svg;" xmlns:xlink="&ns_xlink;" width="400" height="401.312" viewBox="0 0 400 401.312"
	 overflow="visible" enable-background="new 0 0 400 401.312" xml:space="preserve">
<g id="svgg">
	<path id="path0" fill="#7F7F7F" d="M185.352-59.485l-2.2,0.27l2,0.059c1.1,0.032,2.27-0.116,2.6-0.329s0.42-0.361,0.2-0.329
		C187.731-59.781,186.562-59.633,185.352-59.485 M207.151-59.465c0.44,0.178,1.88,0.322,3.2,0.32c3.016-0.004,2.458-0.218-1.2-0.459
		C207.524-59.711,206.687-59.653,207.151-59.465 M173.151-58.285c-1.107,0.282-1.123,0.309-0.2,0.347
		c0.55,0.022,1.27-0.134,1.6-0.347C175.232-58.725,174.88-58.725,173.151-58.285 M220.951-58.303
		c0.33,0.223,0.945,0.409,1.367,0.412c1.023,0.008,0.704-0.221-0.767-0.55C220.676-58.637,220.514-58.6,220.951-58.303
		 M168.852-57.603c0.495,0.096,1.305,0.096,1.8,0c0.495-0.095,0.09-0.173-0.9-0.173C168.762-57.776,168.356-57.698,168.852-57.603
		 M225.052-57.609c0.385,0.1,1.015,0.1,1.399,0c0.385-0.101,0.07-0.183-0.699-0.183C224.981-57.792,224.666-57.71,225.052-57.609
		 M165.151-57.085c-1.019,0.438,0.032,0.438,1.4,0c0.804-0.257,0.843-0.323,0.2-0.332C166.312-57.423,165.592-57.274,165.151-57.085
		 M228.951-57.103c0.33,0.223,0.945,0.409,1.367,0.412c1.023,0.008,0.704-0.221-0.767-0.55
		C228.676-57.437,228.514-57.4,228.951-57.103 M161.852-56.409c0.385,0.1,1.015,0.1,1.4,0c0.385-0.101,0.07-0.183-0.7-0.183
		S161.467-56.51,161.852-56.409 M309.352-24.174c0,0.076,0.585,0.567,1.3,1.09c0.804,0.589,1.084,0.686,0.733,0.254
		C310.852-23.486,309.352-24.478,309.352-24.174 M323.752-12.885c0.746,0.77,1.446,1.4,1.557,1.4s-0.411-0.63-1.157-1.4
		c-0.746-0.77-1.447-1.4-1.557-1.4C322.484-14.285,323.006-13.655,323.752-12.885 M68.53-10.385l-1.378,1.5l1.5-1.378
		c1.396-1.284,1.684-1.622,1.378-1.622C69.963-11.885,69.289-11.21,68.53-10.385 M64.129-6.385l-1.378,1.5l1.5-1.378
		c1.396-1.284,1.684-1.622,1.378-1.622C65.563-7.885,64.889-7.21,64.129-6.385 M336.552-0.885c0.746,0.77,1.447,1.4,1.557,1.4
		c0.11,0-0.411-0.63-1.157-1.4c-0.746-0.77-1.446-1.4-1.557-1.4S335.806-1.655,336.552-0.885 M57.729,0.015l-1.378,1.5l1.5-1.378
		c1.396-1.284,1.684-1.622,1.378-1.622C59.164-1.485,58.489-0.81,57.729,0.015 M53.729,4.415l-1.378,1.5l1.5-1.378
		c1.396-1.284,1.684-1.622,1.378-1.622C55.164,2.915,54.489,3.59,53.729,4.415 M344.552,7.84c0,0.069,0.585,0.654,1.3,1.3l1.3,1.175
		l-1.175-1.3C344.882,7.803,344.552,7.531,344.552,7.84 M46.475,12.815c-0.705,0.821-1.233,1.7-1.022,1.7
		c0.082,0,0.548-0.54,1.036-1.2C47.453,12.011,47.443,11.687,46.475,12.815 M372.184,50.539c-0.018,0.342,0.248,0.972,0.59,1.4
		c0.612,0.764,0.616,0.763,0.254-0.024c-0.202-0.44-0.468-1.07-0.59-1.4C372.244,49.997,372.211,50,372.184,50.539 M16.651,65.415
		c-0.43,1.175-0.42,1.226,0.112,0.524c0.509-0.672,0.809-1.824,0.476-1.824C17.178,64.115,16.913,64.7,16.651,65.415
		 M381.384,73.339c-0.019,0.342,0.248,0.972,0.59,1.4c0.612,0.764,0.616,0.763,0.254-0.024c-0.202-0.44-0.468-1.07-0.59-1.4
		C381.444,72.797,381.41,72.8,381.384,73.339 M7.845,96.115c0,0.77,0.082,1.085,0.183,0.7c0.1-0.385,0.1-1.015,0-1.4
		C7.927,95.03,7.845,95.345,7.845,96.115 M387.853,98.315c0.004,0.88,0.086,1.193,0.182,0.695c0.097-0.497,0.093-1.217-0.008-1.6
		C387.927,97.028,387.848,97.435,387.853,98.315 M7.397,98.182c-0.025,0.367-0.15,0.997-0.276,1.4
		c-0.218,0.695-0.207,0.696,0.227,0.02c0.251-0.391,0.376-1.021,0.276-1.4C7.462,97.583,7.439,97.581,7.397,98.182 M388.157,101.548
		c0.003,0.422,0.189,1.037,0.412,1.367c0.297,0.438,0.334,0.276,0.139-0.6C388.379,100.844,388.149,100.525,388.157,101.548
		 M6.652,103.115c0.004,0.88,0.086,1.193,0.182,0.695c0.096-0.497,0.092-1.217-0.008-1.6C6.727,101.828,6.647,102.235,6.652,103.115
		 M6.198,106.182c-0.025,0.367-0.15,0.997-0.276,1.4c-0.218,0.695-0.207,0.696,0.227,0.02c0.251-0.391,0.376-1.021,0.276-1.4
		C6.263,105.583,6.24,105.581,6.198,106.182 M5.061,114.915c0,0.99,0.078,1.395,0.173,0.9c0.096-0.495,0.096-1.305,0-1.8
		C5.139,113.52,5.061,113.925,5.061,114.915 M4.645,118.115c0,0.77,0.082,1.085,0.183,0.7c0.1-0.385,0.1-1.015,0-1.4
		C4.727,117.03,4.645,117.345,4.645,118.115 M390.672,121.715c0,1.21,0.074,1.705,0.167,1.1c0.091-0.605,0.091-1.595,0-2.2
		C390.746,120.01,390.672,120.505,390.672,121.715 M4.245,122.115c0,0.77,0.082,1.085,0.183,0.7c0.1-0.385,0.1-1.015,0-1.4
		C4.327,121.03,4.245,121.345,4.245,122.115 M391.115,133.515c-0.001,3.739,0.06,5.323,0.134,3.521
		c0.073-1.806,0.074-4.866,0.001-6.801C391.177,128.299,391.115,129.775,391.115,133.515 M390.672,145.315
		c0,1.21,0.074,1.705,0.167,1.1c0.091-0.604,0.091-1.594,0-2.199C390.746,143.61,390.672,144.105,390.672,145.315 M4.252,145.515
		c0.004,0.88,0.086,1.192,0.182,0.694c0.096-0.496,0.092-1.217-0.008-1.6C4.327,144.228,4.248,144.635,4.252,145.515 M5.065,151.915
		c0.003,1.101,0.081,1.504,0.173,0.896c0.092-0.608,0.09-1.509-0.005-2C5.139,150.318,5.063,150.815,5.065,151.915 M6.01,160.116
		c0.317,1.725,0.544,2.051,0.536,0.766c-0.003-0.531-0.183-1.236-0.4-1.566C5.87,158.893,5.829,159.129,6.01,160.116 M6.652,164.315
		c0.004,0.881,0.086,1.193,0.182,0.695c0.096-0.497,0.092-1.217-0.008-1.6S6.647,163.435,6.652,164.315 M7.196,168.315
		c0.329,1.471,0.558,1.79,0.55,0.768c-0.003-0.422-0.189-1.037-0.412-1.367C7.037,167.277,7,167.439,7.196,168.315 M387.853,168.715
		c0.004,0.88,0.086,1.193,0.182,0.695c0.097-0.498,0.093-1.218-0.008-1.601C387.927,167.428,387.848,167.834,387.853,168.715
		 M7.845,171.315c0,0.77,0.082,1.085,0.183,0.7c0.1-0.386,0.1-1.015,0-1.399C7.927,170.23,7.845,170.545,7.845,171.315
		 M385.816,177.932c-0.256,0.561-0.458,1.236-0.449,1.502c0.009,0.264,0.281-0.131,0.606-0.88
		C386.656,176.98,386.513,176.405,385.816,177.932 M380.616,195.932c-0.67,1.471-0.542,1.785,0.183,0.447
		c0.339-0.625,0.541-1.211,0.449-1.301C381.156,194.987,380.873,195.372,380.616,195.932 M16.476,201.515
		c0.202,0.44,0.468,1.069,0.59,1.399c0.193,0.519,0.227,0.516,0.254-0.023c0.018-0.342-0.248-0.973-0.59-1.4
		C16.118,200.727,16.114,200.728,16.476,201.515 M348.15,255.015c-0.589,0.804-0.686,1.084-0.254,0.733
		c0.656-0.533,1.648-2.033,1.344-2.033C349.164,253.715,348.674,254.299,348.15,255.015 M47.343,255.704
		c0.466,0.652,1.051,1.313,1.3,1.467c0.25,0.156-0.05-0.379-0.666-1.188C46.64,254.23,46.136,254.006,47.343,255.704
		 M52.151,261.116c0.746,0.77,1.447,1.399,1.557,1.399s-0.411-0.63-1.157-1.399c-0.746-0.771-1.447-1.4-1.557-1.4
		S51.406,260.345,52.151,261.116 M342.958,261.109c-0.743,0.767-1.274,1.456-1.18,1.531c0.096,0.075,0.779-0.552,1.52-1.394
		C344.98,259.333,344.764,259.247,342.958,261.109 M334.537,270.415l-2.186,2.301l2.3-2.186c2.138-2.033,2.483-2.414,2.187-2.414
		C336.775,268.116,335.74,269.15,334.537,270.415 M329.258,275.125c-0.822,0.765-1.353,1.39-1.18,1.39
		c0.175,0,0.928-0.63,1.674-1.399C331.492,273.318,331.194,273.325,329.258,275.125 M66.552,275.915
		c0.746,0.771,1.447,1.4,1.557,1.4c0.11,0-0.411-0.63-1.157-1.4c-0.746-0.77-1.447-1.399-1.557-1.399S65.806,275.145,66.552,275.915
		 M79.496,286.825c0.316,0.512,2.656,2.243,2.656,1.965c0-0.099-0.661-0.684-1.468-1.299
		C79.875,286.874,79.34,286.575,79.496,286.825 M253.752,318.715c-1.307,0.746-0.85,0.755,0.854,0.016
		c0.74-0.322,1.076-0.585,0.746-0.586S254.302,318.401,253.752,318.715 M160.651,323.59c0.385,0.101,1.015,0.101,1.4,0
		c0.385-0.1,0.07-0.182-0.7-0.182S160.267,323.491,160.651,323.59 M233.852,323.59c0.385,0.101,1.016,0.101,1.4,0
		c0.385-0.1,0.07-0.182-0.7-0.182S233.467,323.491,233.852,323.59 M230.752,324.116c-0.504,0.217-0.578,0.344-0.2,0.344
		c0.329,0,0.96-0.155,1.399-0.344c0.504-0.218,0.578-0.345,0.2-0.345C231.822,323.771,231.191,323.926,230.752,324.116
		 M167.651,324.797c0.495,0.096,1.305,0.096,1.8,0s0.09-0.174-0.9-0.174C167.562,324.624,167.157,324.702,167.651,324.797
		 M226.451,324.797c0.496,0.096,1.305,0.096,1.801,0c0.494-0.096,0.09-0.174-0.9-0.174S225.957,324.702,226.451,324.797
		 M171.751,325.315c1.368,0.438,2.419,0.438,1.4,0c-0.44-0.189-1.16-0.338-1.6-0.332
		C170.909,324.993,170.948,325.058,171.751,325.315 M180.858,326.405c0.719,0.09,1.799,0.088,2.4-0.004
		c0.601-0.091,0.013-0.164-1.307-0.162C180.631,326.241,180.14,326.316,180.858,326.405 M210.752,326.5
		c-0.471,0.192,0.272,0.24,1.8,0.117c1.43-0.115,2.675-0.277,2.767-0.356C215.656,325.965,211.525,326.182,210.752,326.5"/>
	<path id="path1" fill="#FFFFFF" d="M174.952-65.691c0,0.499-0.672,0.606-3.8,0.606c-3.111,0-3.8,0.109-3.8,0.6
		c0,0.497-0.757,0.6-4.413,0.6c-3.553,0-4.457,0.117-4.642,0.6c-0.14,0.364-0.745,0.6-1.538,0.6c-2.132,0-3.807,0.462-3.807,1.05
		c0,0.411-0.663,0.55-2.613,0.55c-1.953,0-2.67,0.151-2.842,0.6c-0.169,0.44-0.863,0.6-2.6,0.6c-1.738,0-2.432,0.16-2.6,0.6
		c-0.17,0.441-0.866,0.6-2.625,0.6c-2.058,0-2.424,0.112-2.604,0.8c-0.168,0.643-0.546,0.8-1.92,0.8c-1.151,0-1.786,0.196-1.941,0.6
		c-0.134,0.351-0.734,0.6-1.442,0.6c-0.812,0-1.213,0.199-1.213,0.6c0,0.453-0.489,0.6-2,0.6c-1.511,0-2,0.147-2,0.6
		c0,0.387-0.391,0.602-1.1,0.605c-1.713,0.009-2.9,0.435-2.9,1.042c0,0.389-0.534,0.553-1.8,0.553c-1.333,0-1.8,0.156-1.8,0.6
		c0,0.419-0.422,0.6-1.4,0.6s-1.4,0.181-1.4,0.6c0,0.404-0.404,0.6-1.237,0.6c-0.901,0-1.295,0.217-1.447,0.8
		c-0.148,0.567-0.546,0.8-1.363,0.8c-0.758,0-1.153,0.205-1.153,0.6c0,0.419-0.422,0.6-1.4,0.6s-1.4,0.181-1.4,0.6
		c0,0.4-0.4,0.6-1.2,0.6c-0.8,0-1.2,0.2-1.2,0.6c0,0.404-0.404,0.6-1.237,0.6c-0.901,0-1.295,0.217-1.447,0.8
		c-0.149,0.569-0.546,0.8-1.375,0.8c-0.668,0-1.265,0.257-1.396,0.6c-0.132,0.342-0.728,0.6-1.388,0.6
		c-0.762,0-1.157,0.205-1.157,0.6c0,0.33-0.27,0.6-0.6,0.6c-0.33,0-0.6,0.262-0.6,0.582c0,0.348-0.562,0.687-1.4,0.844
		c-0.802,0.151-1.4,0.5-1.4,0.819c0,0.35-0.443,0.555-1.2,0.555c-0.8,0-1.2,0.2-1.2,0.6c0,0.333-0.356,0.6-0.8,0.6
		c-0.44,0-0.755,0.225-0.7,0.5c0.057,0.285-0.392,0.556-1.046,0.631c-0.724,0.083-1.219,0.414-1.346,0.9
		c-0.141,0.537-0.553,0.769-1.367,0.769c-0.668,0-1.265,0.257-1.396,0.6c-0.127,0.33-0.481,0.6-0.788,0.6
		c-0.306,0-0.557,0.27-0.557,0.6s-0.27,0.6-0.6,0.6s-0.6,0.27-0.6,0.6c0,0.333-0.356,0.6-0.8,0.6c-0.44,0-1.16,0.36-1.6,0.8
		s-0.98,0.8-1.2,0.8c-0.22,0-0.4,0.27-0.4,0.6c0,0.333-0.356,0.6-0.8,0.6c-0.44,0-0.8,0.248-0.8,0.55c0,0.302-0.54,0.658-1.2,0.79
		c-0.704,0.141-1.2,0.492-1.2,0.85c0,0.336-0.27,0.61-0.6,0.61c-0.33,0-0.6,0.27-0.6,0.6c0,0.333-0.356,0.6-0.8,0.6
		c-0.44,0-0.755,0.225-0.7,0.5c0.057,0.285-0.392,0.556-1.046,0.631c-0.724,0.083-1.219,0.414-1.346,0.9
		c-0.111,0.423-0.45,0.769-0.755,0.769c-0.304,0-0.553,0.27-0.553,0.6s-0.276,0.6-0.613,0.6c-0.336,0-0.716,0.27-0.842,0.6
		c-0.127,0.33-0.481,0.6-0.788,0.6c-0.306,0-0.557,0.27-0.557,0.6s-0.27,0.6-0.6,0.6c-0.333,0-0.6,0.356-0.6,0.8
		c0,0.533-0.267,0.8-0.8,0.8c-0.444,0-0.8,0.267-0.8,0.6c0,0.33-0.27,0.6-0.6,0.6c-0.33,0-0.6,0.27-0.6,0.6s-0.27,0.6-0.6,0.6
		s-0.6,0.249-0.6,0.553c0,0.305-0.36,0.648-0.8,0.763c-0.44,0.115-0.8,0.496-0.8,0.847c0,0.35-0.27,0.637-0.6,0.637
		c-0.33,0-0.6,0.27-0.6,0.6s-0.27,0.6-0.6,0.6s-0.6,0.27-0.6,0.6s-0.27,0.6-0.6,0.6c-0.33,0-0.6,0.249-0.6,0.553
		c0,0.305-0.36,0.648-0.8,0.763s-0.8,0.496-0.8,0.847c0,0.35-0.27,0.637-0.6,0.637s-0.6,0.27-0.6,0.6s-0.27,0.6-0.6,0.6
		c-0.33,0-0.6,0.27-0.6,0.6s-0.27,0.6-0.6,0.6c-0.333,0-0.6,0.356-0.6,0.8c0,0.533-0.267,0.8-0.8,0.8c-0.444,0-0.8,0.267-0.8,0.6
		c0,0.33-0.27,0.6-0.6,0.6c-0.33,0-0.6,0.27-0.6,0.6s-0.27,0.6-0.6,0.6s-0.6,0.276-0.6,0.613c0,0.336-0.27,0.716-0.6,0.842
		c-0.33,0.127-0.6,0.46-0.6,0.741c0,0.281-0.36,0.605-0.8,0.72c-0.541,0.141-0.8,0.546-0.8,1.247c0,0.655-0.221,1.037-0.6,1.037
		c-0.333,0-0.6,0.356-0.6,0.8c0,0.444-0.267,0.8-0.6,0.8c-0.33,0-0.6,0.249-0.6,0.553c0,0.305-0.36,0.648-0.8,0.763
		c-0.541,0.141-0.8,0.546-0.8,1.247c0,0.655-0.221,1.037-0.6,1.037c-0.333,0-0.6,0.356-0.6,0.8s-0.267,0.8-0.6,0.8
		c-0.33,0-0.6,0.27-0.6,0.6s-0.27,0.6-0.6,0.6c-0.334,0-0.6,0.356-0.6,0.804c0,0.442-0.36,1.112-0.8,1.489
		c-0.44,0.377-0.8,0.915-0.8,1.196c0,0.281-0.27,0.511-0.6,0.511s-0.6,0.251-0.6,0.557c0,0.307-0.27,0.661-0.6,0.788
		c-0.351,0.134-0.6,0.734-0.6,1.442c0,0.946-0.176,1.213-0.8,1.213c-0.622,0-0.8,0.267-0.8,1.2c0,0.8-0.2,1.2-0.6,1.2
		c-0.33,0-0.6,0.251-0.6,0.557c0,0.307-0.27,0.661-0.6,0.788c-0.351,0.134-0.6,0.734-0.6,1.442c0,0.812-0.199,1.213-0.6,1.213
		c-0.373,0-0.6,0.377-0.6,0.997c0,0.563-0.348,1.213-0.8,1.496c-0.44,0.275-0.8,0.726-0.8,1.003s-0.27,0.504-0.6,0.504
		c-0.4,0-0.6,0.4-0.6,1.2c0,0.8-0.2,1.2-0.6,1.2c-0.419,0-0.6,0.422-0.6,1.4c0,1.133-0.152,1.4-0.8,1.4
		c-0.616,0-0.8,0.267-0.8,1.157c0,0.66-0.258,1.256-0.6,1.388c-0.351,0.134-0.6,0.734-0.6,1.442c0,0.812-0.199,1.213-0.6,1.213
		c-0.419,0-0.6,0.422-0.6,1.4c0,0.978-0.181,1.4-0.6,1.4c-0.395,0-0.6,0.395-0.6,1.153c0,0.817-0.233,1.215-0.8,1.363
		c-0.583,0.152-0.8,0.546-0.8,1.447c0,0.833-0.196,1.237-0.6,1.237c-0.4,0-0.6,0.4-0.6,1.2s-0.2,1.2-0.6,1.2
		c-0.419,0-0.6,0.422-0.6,1.4c0,0.963-0.183,1.4-0.586,1.4c-0.401,0-0.669,0.626-0.849,1.976c-0.146,1.106-0.505,2.069-0.813,2.187
		c-0.344,0.132-0.552,0.825-0.552,1.837c0,1.076-0.203,1.703-0.6,1.855c-0.407,0.157-0.6,0.795-0.6,1.988
		c0,1.295-0.158,1.757-0.6,1.757c-0.419,0-0.6,0.422-0.6,1.4s-0.181,1.4-0.6,1.4c-0.33,0-0.623,0.225-0.652,0.5
		c-0.12,1.154-0.265,2.961-0.305,3.8c-0.025,0.514-0.3,0.9-0.643,0.9c-0.472,0-0.6,0.556-0.6,2.6s-0.128,2.6-0.6,2.6
		c-0.472,0-0.6,0.556-0.6,2.6c0,1.995-0.134,2.6-0.575,2.6c-0.38,0-0.672,0.643-0.859,1.887c-0.156,1.038-0.527,2.131-0.824,2.429
		c-0.387,0.386-0.542,1.738-0.542,4.713c0,3.441-0.105,4.171-0.6,4.171c-0.493,0-0.6,0.711-0.6,4s-0.107,4-0.6,4
		c-0.508,0-0.6,0.978-0.6,6.4c0,4-0.15,6.4-0.4,6.4c-0.258,0-0.4,4.467-0.4,12.6c0,8.133,0.142,12.601,0.4,12.601
		c0.25,0,0.4,2.399,0.4,6.399c0,5.422,0.092,6.399,0.6,6.399c0.493,0,0.6,0.711,0.6,4s0.107,4,0.6,4c0.495,0,0.6,0.73,0.6,4.172
		c0,2.98,0.155,4.326,0.543,4.715c0.299,0.299,0.673,1.582,0.832,2.854c0.176,1.411,0.51,2.395,0.857,2.528
		c0.384,0.147,0.568,0.853,0.568,2.175c0,1.473,0.148,1.957,0.6,1.957c0.472,0,0.6,0.557,0.6,2.6c0,2.045,0.128,2.601,0.6,2.601
		c0.452,0,0.6,0.485,0.6,1.967c0,2.341,0.288,3.233,1.043,3.233c0.394,0,0.557,0.529,0.557,1.813c0,1.242,0.189,1.885,0.6,2.043
		c0.33,0.127,0.6,0.646,0.6,1.158s0.27,1.199,0.6,1.529c0.337,0.337,0.6,1.314,0.6,2.229c0,1.112,0.174,1.629,0.548,1.629
		c0.357,0,0.642,0.7,0.814,2c0.182,1.369,0.45,2,0.852,2c0.403,0,0.586,0.436,0.586,1.399c0,0.978,0.181,1.399,0.6,1.399
		c0.4,0,0.6,0.4,0.6,1.201c0,0.799,0.2,1.199,0.6,1.199c0.419,0,0.6,0.422,0.6,1.4c0,1.133,0.152,1.4,0.8,1.4
		c0.622,0,0.8,0.266,0.8,1.199c0,0.801,0.2,1.2,0.6,1.2c0.445,0,0.6,0.468,0.6,1.813c0,1.241,0.189,1.885,0.6,2.041
		c0.33,0.127,0.6,0.639,0.6,1.139s0.258,1.123,0.574,1.386c0.316,0.263,0.69,1.004,0.832,1.649c0.142,0.644,0.513,1.172,0.826,1.172
		c0.312,0,0.568,0.359,0.568,0.8c0,0.444,0.267,0.8,0.6,0.8c0.4,0,0.6,0.4,0.6,1.2s0.2,1.2,0.6,1.2c0.404,0,0.6,0.404,0.6,1.236
		c0,0.901,0.217,1.295,0.8,1.447c0.44,0.115,0.8,0.458,0.8,0.764c0,0.303,0.27,0.553,0.6,0.553c0.401,0,0.6,0.4,0.6,1.213
		c0,0.708,0.249,1.308,0.6,1.441c0.33,0.127,0.6,0.668,0.6,1.2c0,0.534,0.27,1.074,0.6,1.2c0.33,0.127,0.6,0.48,0.6,0.788
		c0,0.306,0.36,0.558,0.8,0.558c0.648,0,0.8,0.266,0.8,1.399c0,0.978,0.181,1.399,0.6,1.399c0.33,0,0.6,0.271,0.6,0.601
		s0.27,0.601,0.6,0.601c0.373,0,0.6,0.377,0.6,0.996c0,0.563,0.348,1.213,0.8,1.496c0.44,0.275,0.8,0.727,0.8,1.003
		c0,0.277,0.27,0.505,0.6,0.505c0.33,0,0.6,0.27,0.6,0.6s0.27,0.6,0.6,0.6c0.333,0,0.6,0.355,0.6,0.801
		c0,0.443,0.267,0.799,0.6,0.799c0.379,0,0.6,0.383,0.6,1.037c0,0.701,0.259,1.106,0.8,1.248c0.44,0.114,0.8,0.457,0.8,0.762
		s0.27,0.554,0.6,0.554c0.333,0,0.6,0.356,0.6,0.8s0.267,0.801,0.6,0.801c0.356,0,0.6,0.366,0.6,0.902c0,0.52,0.593,1.447,1.4,2.188
		c0.77,0.707,1.4,1.471,1.4,1.697s0.27,0.412,0.6,0.412s0.6,0.301,0.6,0.667s0.118,0.548,0.263,0.403
		c0.362-0.362,1.381,0.535,1.109,0.975c-0.121,0.195,0.151,0.355,0.604,0.355c0.557,0,0.824,0.259,0.824,0.8
		c0,0.444,0.267,0.8,0.6,0.8c0.33,0,0.6,0.27,0.6,0.6s0.27,0.601,0.6,0.601c0.33,0,0.6,0.271,0.6,0.601c0,0.329,0.27,0.6,0.6,0.6
		c0.333,0,0.6,0.355,0.6,0.8c0,0.44,0.36,1.159,0.8,1.601c0.44,0.439,0.8,0.979,0.8,1.199c0,0.221,0.27,0.4,0.6,0.4
		c0.33,0,0.6,0.27,0.6,0.6s0.18,0.6,0.4,0.6c0.22,0,0.76,0.36,1.2,0.801c0.44,0.439,1.16,0.8,1.6,0.8c0.444,0,0.8,0.267,0.8,0.601
		c0,0.329,0.27,0.6,0.6,0.6s0.6,0.27,0.6,0.6s0.27,0.6,0.6,0.6c0.33,0,0.6,0.258,0.6,0.574c0,0.314,0.36,0.686,0.8,0.826
		s0.8,0.512,0.8,0.827s0.27,0.573,0.6,0.573s0.6,0.281,0.6,0.623c0,0.344,0.192,0.505,0.427,0.359
		c0.235-0.145,0.526,0.114,0.647,0.577c0.12,0.462,0.37,0.841,0.554,0.841c0.462,0,2.372,1.947,2.372,2.418
		c0,0.209,0.54,0.381,1.2,0.381c0.8,0,1.2,0.201,1.2,0.601c0,0.333,0.356,0.601,0.8,0.601c0.444,0,0.8,0.266,0.8,0.6
		c0,0.33,0.249,0.6,0.553,0.6c0.305,0,0.648,0.359,0.763,0.801c0.141,0.541,0.546,0.799,1.247,0.799
		c0.655,0,1.037,0.222,1.037,0.601c0,0.333,0.356,0.601,0.8,0.601s0.8,0.266,0.8,0.6c0,0.33,0.27,0.6,0.6,0.6s0.6,0.275,0.6,0.609
		c0,0.363,0.503,0.712,1.234,0.857c0.679,0.137,1.329,0.491,1.443,0.791c0.115,0.299,0.459,0.543,0.766,0.543
		c0.306,0,0.557,0.27,0.557,0.6s0.27,0.6,0.6,0.6s0.6,0.27,0.6,0.6c0,0.42,0.422,0.601,1.4,0.601c1.272,0,1.605,0.299,1.447,1.3
		c-0.026,0.165,0.493,0.301,1.153,0.301c0.8,0,1.2,0.199,1.2,0.6c0,0.332,0.356,0.6,0.8,0.6c0.444,0,0.8,0.268,0.8,0.6
		c0,0.379,0.381,0.601,1.027,0.601c0.655,0,1.504,0.506,2.347,1.399c0.726,0.771,1.704,1.4,2.173,1.4c0.492,0,0.853,0.254,0.853,0.6
		c0,0.4,0.4,0.601,1.2,0.601c0.8,0,1.2,0.2,1.2,0.601c0,0.418,0.422,0.6,1.4,0.6c1.133,0,1.4,0.152,1.4,0.8s0.267,0.8,1.4,0.8
		c0.978,0,1.4,0.182,1.4,0.6c0,0.4,0.4,0.601,1.2,0.601c0.8,0,1.2,0.2,1.2,0.601c0,0.418,0.422,0.6,1.4,0.6s1.4,0.181,1.4,0.6
		c0,0.4,0.4,0.6,1.2,0.6c0.933,0,1.2,0.179,1.2,0.801c0,0.648,0.267,0.8,1.4,0.8c0.978,0,1.4,0.181,1.4,0.601
		c0,0.399,0.4,0.6,1.2,0.6s1.2,0.199,1.2,0.6c0,0.451,0.484,0.6,1.953,0.6c1.617,0,1.99,0.139,2.163,0.801
		c0.15,0.574,0.546,0.8,1.404,0.8c0.693,0,1.291,0.252,1.425,0.601c0.157,0.41,0.8,0.6,2.042,0.6c1.314,0,1.813,0.158,1.813,0.578
		c0,0.406,0.566,0.613,1.9,0.699c1.258,0.082,1.866,0.291,1.8,0.623c-0.055,0.274,0.035,0.479,0.2,0.452
		c1.182-0.187,2.5,0.13,2.5,0.601c0,0.67,1.221,1.033,3.5,1.041c1.242,0.004,1.7,0.168,1.7,0.605c0,0.473,0.556,0.6,2.6,0.6
		s2.6,0.129,2.6,0.601s0.556,0.601,2.6,0.601c1.934,0,2.6,0.139,2.6,0.547c0,0.543,1.92,1.039,4.057,1.049
		c0.582,0.002,1.161,0.273,1.288,0.604c0.186,0.484,1.11,0.6,4.83,0.6c3.744,0,4.561,0.104,4.388,0.551
		c-0.17,0.443,0.56,0.566,3.707,0.619c2.962,0.049,3.997,0.207,4.244,0.648c0.271,0.484,1.96,0.582,10.106,0.582
		c6.253,0,9.78,0.145,9.78,0.4c0,0.242,1.732,0.4,4.399,0.4s4.4-0.158,4.4-0.4c0-0.256,3.532-0.4,9.8-0.4c8.443,0,9.8-0.082,9.8-0.6
		c0-0.494,0.712-0.6,4-0.6c3.289,0,4-0.107,4-0.602c0-0.49,0.687-0.6,3.78-0.6c2.75,0,3.867-0.146,4.1-0.539
		c0.193-0.328,1.428-0.642,3.12-0.795c1.8-0.162,2.959-0.47,3.244-0.859c0.286-0.391,1.104-0.605,2.3-0.605
		c1.383,0,1.856-0.154,1.856-0.601c0-0.472,0.556-0.601,2.6-0.601s2.601-0.127,2.601-0.6c0-0.468,0.537-0.6,2.437-0.6
		c2.101,0,2.468-0.11,2.647-0.801c0.173-0.662,0.545-0.799,2.162-0.799c1.47,0,1.953-0.15,1.953-0.601c0-0.399,0.4-0.601,1.2-0.601
		s1.2-0.199,1.2-0.6c0-0.445,0.468-0.6,1.813-0.6c1.242,0,1.886-0.189,2.043-0.6c0.141-0.367,0.746-0.601,1.555-0.601
		c1.721,0,2.59-0.351,2.59-1.043c0-0.394,0.529-0.558,1.813-0.558c1.242,0,1.886-0.188,2.043-0.6c0.131-0.342,0.728-0.6,1.388-0.6
		c0.762,0,1.157-0.205,1.157-0.6c0-0.404,0.404-0.601,1.236-0.601c0.901,0,1.295-0.218,1.447-0.8
		c0.148-0.569,0.546-0.801,1.375-0.801c0.668,0,1.266-0.256,1.396-0.6c0.131-0.342,0.728-0.6,1.388-0.6
		c0.762,0,1.157-0.205,1.157-0.6c0-0.402,0.4-0.601,1.213-0.601c0.707,0,1.308-0.249,1.441-0.601c0.133-0.342,0.729-0.6,1.389-0.6
		c0.89,0,1.156-0.184,1.156-0.8c0-0.647,0.268-0.8,1.4-0.8c0.979,0,1.4-0.182,1.4-0.6c0-0.375,0.379-0.601,1.013-0.601
		c0.556,0,1.116-0.271,1.241-0.601c0.128-0.33,0.441-0.6,0.699-0.6s0.776-0.359,1.153-0.8s1.048-0.8,1.489-0.8
		c0.447,0,0.804-0.266,0.804-0.6s0.356-0.601,0.8-0.601c0.444,0,0.801-0.267,0.801-0.601c0-0.375,0.379-0.6,1.013-0.6
		c0.556,0,1.116-0.27,1.242-0.6c0.127-0.33,0.66-0.6,1.184-0.6c0.525,0,1.179-0.361,1.454-0.801s0.726-0.8,1.003-0.8
		s0.504-0.271,0.504-0.601c0-0.399,0.4-0.6,1.2-0.6s1.2-0.199,1.2-0.6c0-0.334,0.355-0.6,0.8-0.6s0.8-0.268,0.8-0.601
		c0-0.33,0.271-0.601,0.601-0.601s0.578-0.135,0.553-0.299c-0.151-0.951,0.173-1.301,1.204-1.301c0.66,0,1.256-0.258,1.388-0.6
		c0.126-0.33,0.506-0.6,0.842-0.6c0.337,0,0.613-0.271,0.613-0.601s0.27-0.601,0.6-0.601c0.333,0,0.601-0.355,0.601-0.799
		c0-0.625,0.267-0.801,1.213-0.801c0.708,0,1.308-0.249,1.442-0.6c0.127-0.33,0.48-0.6,0.787-0.6s0.558-0.271,0.558-0.601
		s0.27-0.601,0.6-0.601s0.601-0.248,0.601-0.553s0.359-0.648,0.8-0.763c0.439-0.115,0.8-0.496,0.8-0.847s0.27-0.637,0.6-0.637
		s0.601-0.271,0.601-0.601c0-0.375,0.379-0.601,1.013-0.601c0.556,0,1.116-0.27,1.242-0.6c0.127-0.33,0.469-0.6,0.761-0.6
		c0.291,0,0.645-0.36,0.784-0.801c0.14-0.439,0.512-0.799,0.827-0.799c0.314,0,0.573-0.271,0.573-0.601s0.27-0.601,0.6-0.601
		s0.6-0.27,0.6-0.6s0.271-0.6,0.601-0.6s0.6-0.271,0.6-0.6c0-0.33,0.258-0.601,0.573-0.601c0.314,0,0.687-0.36,0.827-0.8
		c0.14-0.44,0.512-0.801,0.827-0.801c0.314,0,0.572-0.27,0.572-0.6s0.271-0.6,0.601-0.6s0.6-0.271,0.6-0.6
		c0-0.33,0.2-0.601,0.444-0.601c0.614,0,2.341-1.69,2.349-2.3c0.004-0.275,0.277-0.5,0.607-0.5s0.6-0.271,0.6-0.6
		c0-0.33,0.271-0.601,0.601-0.601s0.6-0.249,0.6-0.554s0.36-0.647,0.8-0.762c0.44-0.115,0.8-0.496,0.8-0.848
		c0-0.35,0.271-0.637,0.601-0.637s0.6-0.252,0.6-0.557c0-0.308,0.271-0.662,0.601-0.789c0.33-0.125,0.6-0.664,0.6-1.195
		c0-0.649,0.279-1.039,0.852-1.188c0.569-0.149,0.772-0.43,0.613-0.847c-0.167-0.436-0.001-0.624,0.548-0.624
		c0.434,0,0.787-0.271,0.787-0.601s0.271-0.6,0.601-0.6s0.6-0.27,0.6-0.6s0.27-0.6,0.6-0.6c0.333,0,0.601-0.357,0.601-0.801
		c0-0.439,0.256-0.8,0.567-0.8c0.313,0,0.688-0.54,0.832-1.2c0.146-0.66,0.52-1.199,0.832-1.199s0.568-0.252,0.568-0.558
		c0-0.308,0.27-0.661,0.6-0.788c0.33-0.126,0.601-0.506,0.601-0.842c0-0.338,0.256-0.613,0.567-0.613
		c0.313,0,0.688-0.54,0.832-1.199c0.146-0.66,0.52-1.201,0.832-1.201s0.568-0.275,0.568-0.612s0.27-0.716,0.6-0.843
		s0.601-0.48,0.601-0.787s0.27-0.557,0.6-0.557c0.396,0,0.601-0.396,0.601-1.154c0-0.816,0.232-1.215,0.8-1.362
		c0.439-0.115,0.8-0.478,0.8-0.804c0-0.327,0.27-0.698,0.6-0.825c0.33-0.126,0.601-0.687,0.601-1.242c0-0.634,0.225-1.013,0.6-1.013
		c0.419,0,0.601-0.422,0.601-1.4s0.181-1.4,0.6-1.4c0.33,0,0.6-0.27,0.6-0.6s0.251-0.6,0.558-0.6c0.611,0,1.043-0.842,1.043-2.033
		c0-0.422,0.27-0.768,0.6-0.768c0.4,0,0.601-0.399,0.601-1.199c0-0.801,0.199-1.2,0.6-1.2c0.333,0,0.6-0.356,0.6-0.8
		c0-0.44,0.257-0.801,0.568-0.801c0.313,0,0.688-0.539,0.832-1.199s0.519-1.2,0.832-1.2c0.383,0,0.568-0.457,0.568-1.399
		c0-0.979,0.181-1.4,0.6-1.4c0.395,0,0.6-0.396,0.6-1.157c0-0.66,0.259-1.256,0.601-1.388c0.351-0.135,0.6-0.734,0.6-1.442
		c0-0.771,0.203-1.213,0.558-1.213c0.674,0,1.043-0.862,1.043-2.433c0-0.771,0.203-1.168,0.6-1.168c0.419,0,0.6-0.422,0.6-1.399
		s0.182-1.399,0.601-1.399c0.415,0,0.6-0.418,0.6-1.354c0-1.018,0.199-1.406,0.8-1.563c0.528-0.139,0.801-0.547,0.801-1.199
		c0-0.543,0.276-1.217,0.614-1.498c0.338-0.28,0.587-0.797,0.555-1.148c-0.151-1.58,0.071-2.439,0.631-2.439
		c0.453,0,0.6-0.488,0.6-2c0-1.51,0.147-2,0.601-2c0.452,0,0.6-0.488,0.6-2c0-1.732,0.107-2,0.8-2c0.615,0,0.8-0.267,0.8-1.15
		c0-0.633,0.271-1.375,0.601-1.648c0.397-0.33,0.6-1.227,0.6-2.662c0-1.555,0.169-2.229,0.601-2.394
		c0.446-0.172,0.6-0.884,0.6-2.788c0-1.898,0.141-2.557,0.548-2.557c0.543,0,1.039-1.92,1.048-4.057
		c0.002-0.582,0.274-1.162,0.604-1.289c0.46-0.176,0.6-0.934,0.6-3.242c0-2.412,0.12-3.012,0.601-3.012c0.499,0,0.6-0.779,0.6-4.601
		c0-3.822,0.101-4.601,0.6-4.601s0.601-0.777,0.601-4.6c0-2.8,0.157-4.6,0.399-4.6c0.263,0,0.4-7.268,0.4-21s-0.138-21-0.4-21
		c-0.241,0-0.399-1.733-0.399-4.4c0-3.644-0.104-4.4-0.601-4.4c-0.492,0-0.6-0.711-0.6-4s-0.107-4-0.6-4
		c-0.477,0-0.601-0.575-0.601-2.771c0-1.823-0.188-2.961-0.552-3.324c-0.303-0.303-0.681-1.666-0.839-3.028
		c-0.2-1.721-0.459-2.477-0.849-2.477c-0.405,0-0.561-0.551-0.561-2c0-1.511-0.147-2-0.6-2c-0.472,0-0.601-0.553-0.601-2.58
		c0-1.922-0.159-2.669-0.624-2.93c-0.402-0.225-0.632-0.94-0.646-2.019c-0.02-1.361-0.163-1.671-0.776-1.671
		c-0.637,0-0.753-0.308-0.753-2c0-1.511-0.147-2-0.6-2c-0.445,0-0.601-0.468-0.601-1.813c0-1.242-0.188-1.885-0.6-2.042
		c-0.344-0.132-0.601-0.729-0.601-1.4c0-0.671-0.256-1.268-0.6-1.4c-0.336-0.129-0.6-0.725-0.6-1.355c0-1.53-0.375-2.39-1.043-2.39
		c-0.37,0-0.558-0.47-0.558-1.4c0-0.978-0.181-1.4-0.6-1.4s-0.601-0.422-0.601-1.4s-0.181-1.4-0.6-1.4c-0.4,0-0.6-0.4-0.6-1.2
		c0-0.933-0.179-1.2-0.801-1.2c-0.647,0-0.8-0.267-0.8-1.4c0-0.978-0.181-1.4-0.6-1.4c-0.444,0-0.601-0.467-0.601-1.8
		s-0.155-1.8-0.6-1.8c-0.369,0-0.6-0.375-0.6-0.971c0-0.535-0.262-1.233-0.58-1.552c-0.319-0.319-0.699-1.052-0.845-1.629
		c-0.144-0.576-0.513-1.048-0.818-1.048c-0.308,0-0.558-0.36-0.558-0.8s-0.225-0.755-0.5-0.7c-0.299,0.06-0.55-0.422-0.625-1.2
		c-0.077-0.805-0.344-1.3-0.699-1.3c-0.316,0-0.575-0.339-0.575-0.753c0-0.417-0.357-0.847-0.8-0.963
		c-0.541-0.141-0.801-0.546-0.801-1.247c0-0.655-0.221-1.037-0.6-1.037c-0.401,0-0.6-0.401-0.6-1.213
		c0-0.708-0.249-1.308-0.601-1.442c-0.33-0.127-0.6-0.481-0.6-0.788c0-0.306-0.271-0.557-0.601-0.557c-0.403,0-0.6-0.404-0.6-1.237
		c0-0.901-0.217-1.295-0.8-1.447c-0.44-0.115-0.8-0.458-0.8-0.763c0-0.304-0.271-0.553-0.601-0.553c-0.395,0-0.6-0.395-0.6-1.157
		c0-0.66-0.258-1.256-0.601-1.388c-0.33-0.126-0.6-0.506-0.6-0.842c0-0.337-0.251-0.613-0.557-0.613c-0.308,0-0.661-0.27-0.788-0.6
		c-0.126-0.33-0.506-0.6-0.843-0.6c-0.415,0-0.612-0.39-0.612-1.213c0-0.708-0.249-1.308-0.601-1.442
		c-0.33-0.127-0.6-0.48-0.6-0.788c0-0.306-0.27-0.557-0.6-0.557s-0.601-0.27-0.601-0.6c0-0.333-0.355-0.6-0.8-0.6
		c-0.648,0-0.8-0.267-0.8-1.4c0-0.978-0.182-1.4-0.601-1.4c-0.33,0-0.6-0.27-0.6-0.6s-0.27-0.6-0.6-0.6s-0.601-0.27-0.601-0.6
		s-0.249-0.6-0.553-0.6c-0.305,0-0.648-0.36-0.763-0.8c-0.115-0.44-0.496-0.8-0.848-0.8c-0.35,0-0.637-0.27-0.637-0.6
		s-0.27-0.6-0.6-0.6s-0.601-0.27-0.601-0.6s-0.27-0.6-0.6-0.6c-0.334,0-0.601-0.356-0.601-0.804c0-0.442-0.359-1.112-0.8-1.489
		c-0.439-0.377-0.8-0.915-0.8-1.196c0-0.281-0.27-0.511-0.6-0.511s-0.601-0.27-0.601-0.6s-0.27-0.6-0.6-0.6
		s-0.601-0.171-0.601-0.379c0-0.551-1.812-2.421-2.346-2.421c-0.25,0-0.454-0.27-0.454-0.6s-0.27-0.6-0.6-0.6s-0.601-0.27-0.601-0.6
		s-0.249-0.6-0.553-0.6c-0.305,0-0.647-0.36-0.763-0.8s-0.496-0.8-0.847-0.8s-0.638-0.27-0.638-0.6s-0.27-0.6-0.6-0.6
		s-0.601-0.27-0.601-0.6s-0.251-0.6-0.557-0.6c-0.307,0-0.655-0.253-0.773-0.562c-0.118-0.31-0.768-0.684-1.442-0.832
		s-1.228-0.525-1.228-0.838c0-0.312-0.27-0.568-0.6-0.568s-0.6-0.27-0.6-0.6s-0.271-0.6-0.601-0.6s-0.6-0.27-0.6-0.6
		s-0.249-0.6-0.553-0.6c-0.306,0-0.654-0.383-0.776-0.852c-0.149-0.569-0.43-0.772-0.847-0.613
		c-0.436,0.167-0.624,0.001-0.624-0.548c0-0.433-0.271-0.787-0.601-0.787s-0.6-0.27-0.6-0.6c0-0.419-0.422-0.6-1.4-0.6
		c-0.978,0-1.399-0.181-1.399-0.6c0-0.33-0.271-0.6-0.601-0.6c-0.555,0-0.787-0.496-0.631-1.349c0.035-0.192-0.196-0.25-0.513-0.128
		c-0.353,0.135-0.656-0.08-0.779-0.551c-0.145-0.553-0.553-0.772-1.439-0.772c-0.834,0-1.237-0.196-1.237-0.6
		c0-0.33-0.271-0.6-0.601-0.6s-0.603-0.225-0.606-0.5c-0.012-0.86-1.858-2.3-2.949-2.3c-0.661,0-1.044-0.22-1.044-0.6
		c0-0.33-0.27-0.6-0.6-0.6s-0.601-0.27-0.601-0.6c0-0.419-0.422-0.6-1.399-0.6c-1.134,0-1.4-0.152-1.4-0.8
		c0-0.44-0.251-0.8-0.557-0.8c-0.308,0-0.661-0.27-0.788-0.6c-0.126-0.33-0.666-0.6-1.2-0.6c-0.533,0-1.073-0.27-1.2-0.6
		c-0.134-0.351-0.733-0.6-1.442-0.6c-0.666,0-1.213-0.171-1.213-0.379c0-0.831-1.935-2.421-2.945-2.421
		c-0.688,0-1.055-0.217-1.055-0.624c0-0.343-0.17-0.518-0.379-0.388c-0.21,0.129-0.576-0.131-0.814-0.577
		c-0.286-0.535-0.838-0.811-1.62-0.811c-0.796,0-1.187-0.2-1.187-0.61c0-0.357-0.494-0.709-1.19-0.848
		c-0.655-0.131-1.397-0.487-1.649-0.79c-0.252-0.304-0.867-0.552-1.365-0.552c-0.5,0-1.013-0.27-1.14-0.6
		c-0.157-0.411-0.8-0.6-2.042-0.6c-1.345,0-1.813-0.155-1.813-0.6c0-0.4-0.4-0.6-1.2-0.6c-0.933,0-1.2-0.178-1.2-0.8
		c0-0.648-0.268-0.8-1.4-0.8c-0.978,0-1.399-0.181-1.399-0.6c0-0.4-0.4-0.6-1.2-0.6s-1.2-0.2-1.2-0.6c0-0.451-0.483-0.6-1.952-0.6
		c-1.617,0-1.99-0.138-2.164-0.8c-0.149-0.575-0.545-0.8-1.404-0.8c-0.692,0-1.29-0.252-1.424-0.6c-0.157-0.411-0.801-0.6-2.043-0.6
		c-1.313,0-1.813-0.159-1.813-0.578c0-0.406-0.566-0.614-1.9-0.7c-1.258-0.081-1.865-0.291-1.8-0.622
		c0.056-0.275-0.034-0.479-0.2-0.453c-1.744,0.276-3.673-0.131-3.892-0.822c-0.192-0.605-0.603-0.769-1.884-0.752
		c-1.112,0.016-1.756-0.185-2.001-0.625c-0.271-0.482-0.962-0.648-2.7-0.648c-1.709,0-2.398-0.161-2.568-0.6
		c-0.168-0.442-0.867-0.6-2.642-0.6c-1.776,0-2.413-0.145-2.413-0.548c0-0.616-1.986-1.041-4.9-1.048
		c-1.305-0.003-1.899-0.169-1.899-0.532c0-0.393-0.949-0.553-3.697-0.623c-2.729-0.07-3.78-0.246-4.021-0.672
		c-0.252-0.45-1.326-0.577-4.89-0.577c-3.852,0-4.532-0.092-4.343-0.587c0.197-0.512-2.654-0.59-22.212-0.606
		C177.601-66.295,174.952-66.226,174.952-65.691 M214.151-60.262c1.431,0.224,4.242,0.561,6.249,0.75
		c2.006,0.189,3.986,0.518,4.4,0.729c0.412,0.213,2.191,0.496,3.951,0.63c1.76,0.133,3.74,0.417,4.399,0.63
		c0.66,0.213,2.28,0.562,3.601,0.777c2.553,0.415,5.236,1.062,7.199,1.736c0.66,0.227,2.154,0.558,3.321,0.736
		c1.166,0.179,2.336,0.494,2.601,0.701c0.263,0.207,1.36,0.492,2.438,0.632c1.077,0.141,2.157,0.415,2.399,0.609
		c0.242,0.195,1.037,0.481,1.768,0.638c0.73,0.156,1.811,0.535,2.4,0.843s1.354,0.561,1.697,0.563
		c0.342,0.001,0.971,0.266,1.399,0.589c0.427,0.323,1.136,0.594,1.576,0.603c0.44,0.008,1.315,0.284,1.946,0.612
		c0.629,0.329,1.35,0.604,1.6,0.612c0.25,0.007,1.174,0.361,2.054,0.786s1.875,0.779,2.211,0.786c0.337,0.008,0.966,0.257,1.4,0.554
		c0.435,0.297,1.284,0.661,1.889,0.808s1.101,0.444,1.101,0.66c0,0.215,0.287,0.392,0.638,0.392s1.116,0.261,1.7,0.58
		c0.584,0.32,3.734,1.858,6.998,3.419c3.267,1.561,6.687,3.314,7.601,3.896c0.915,0.583,2.474,1.493,3.463,2.023
		c0.99,0.53,1.894,1.114,2.009,1.298c0.114,0.184,0.654,0.528,1.199,0.765c0.547,0.237,1.469,0.743,2.049,1.125
		c0.582,0.382,2.035,1.274,3.23,1.983c1.195,0.71,2.664,1.745,3.264,2.3c0.601,0.556,1.19,1.011,1.313,1.011
		c0.122,0,1.328,0.861,2.679,1.914c1.351,1.052,3.177,2.399,4.057,2.992c0.881,0.594,2.123,1.532,2.763,2.087
		c0.639,0.554,1.269,1.011,1.399,1.016c0.131,0.005,0.958,0.656,1.838,1.446c2.173,1.95,7.932,7.226,9.765,8.945
		c0.819,0.77,2.108,1.955,2.863,2.633c0.756,0.678,2.542,2.537,3.973,4.131c1.43,1.593,3.996,4.369,5.703,6.167
		c1.706,1.798,3.596,3.989,4.198,4.869c0.603,0.88,1.321,1.744,1.598,1.92c0.274,0.176,0.501,0.581,0.501,0.9
		c0,0.319,0.165,0.58,0.367,0.58c0.201,0,0.733,0.593,1.182,1.318s1.138,1.698,1.533,2.163c0.395,0.464,0.987,1.239,1.317,1.722
		s1.545,2.151,2.7,3.708c1.155,1.556,2.101,3.068,2.101,3.359c0,0.292,0.15,0.53,0.336,0.53c0.184,0,0.546,0.405,0.804,0.9
		c0.258,0.495,0.827,1.44,1.265,2.1c0.438,0.66,1.072,1.74,1.409,2.4c0.336,0.66,0.964,1.74,1.395,2.4
		c0.431,0.66,0.906,1.457,1.058,1.772c0.151,0.315,0.873,1.48,1.604,2.591c0.732,1.11,1.33,2.255,1.33,2.545
		c0,0.289,0.184,0.743,0.407,1.009c0.681,0.808,3.593,6.756,3.593,7.338c0,0.3,0.181,0.545,0.4,0.545s0.4,0.203,0.4,0.451
		s0.614,1.733,1.365,3.3c2.241,4.672,3.034,6.568,3.034,7.256c0,0.357,0.271,0.92,0.601,1.25s0.6,1.003,0.6,1.495
		c0,0.492,0.264,1.244,0.587,1.672c0.323,0.427,0.593,1.143,0.601,1.591c0.007,0.449,0.372,1.521,0.813,2.385s0.8,1.781,0.8,2.039
		s0.27,0.985,0.599,1.615c0.327,0.63,0.598,1.53,0.6,2c0.001,0.47,0.271,1.37,0.6,2c0.328,0.63,0.599,1.65,0.601,2.266
		c0.001,0.616,0.247,1.606,0.546,2.2c0.299,0.594,0.659,1.962,0.8,3.04c0.142,1.077,0.438,2.176,0.656,2.44s0.519,1.354,0.665,2.421
		c0.146,1.067,0.505,2.398,0.798,2.959s0.536,1.92,0.541,3.02c0.004,1.1,0.267,2.72,0.584,3.6c0.317,0.88,0.585,2.693,0.594,4.029
		c0.01,1.336,0.275,3.226,0.59,4.2c2.171,6.728,2.198,43.264,0.038,51.571c-0.314,1.21-0.66,3.496-0.766,5.08
		c-0.107,1.583-0.385,3.236-0.619,3.673s-0.425,1.724-0.425,2.86c0,1.136-0.245,2.633-0.545,3.326s-0.736,2.16-0.97,3.261
		c-0.557,2.63-1.252,5.313-1.762,6.8c-0.227,0.66-0.56,2.169-0.741,3.354c-0.18,1.184-0.521,2.345-0.756,2.58
		c-0.234,0.234-0.427,0.891-0.427,1.457c0,0.567-0.247,1.387-0.549,1.82s-0.686,1.42-0.852,2.189s-0.549,1.755-0.851,2.189
		c-0.302,0.434-0.549,1.164-0.549,1.623s-0.265,1.184-0.587,1.611c-0.323,0.427-0.594,1.146-0.601,1.6
		c-0.007,0.452-0.276,1.172-0.6,1.6s-0.593,1.102-0.601,1.498c-0.007,0.397-0.391,1.568-0.854,2.601
		c-0.462,1.033-1.226,2.733-1.697,3.778s-0.993,1.9-1.16,1.9c-0.166,0-0.302,0.286-0.302,0.637c0,0.352-0.261,1.117-0.58,1.701
		c-0.317,0.584-1.653,3.312-2.968,6.062s-2.817,5.63-3.34,6.399c-0.523,0.771-1.079,1.67-1.236,2s-0.598,1.076-0.979,1.658
		c-0.384,0.58-1.326,2.086-2.097,3.342c-0.77,1.258-1.712,2.763-2.094,3.344c-0.382,0.58-0.877,1.476-1.102,1.986
		c-0.225,0.512-0.692,1.215-1.041,1.564s-1.055,1.279-1.567,2.07c-0.513,0.789-1.352,1.914-1.864,2.498s-1.201,1.461-1.531,1.947
		c-0.33,0.484-1.168,1.639-1.862,2.563s-1.741,2.386-2.327,3.249c-0.585,0.862-2.087,2.671-3.338,4.017
		c-1.25,1.348-3.533,3.864-5.073,5.594c-4.066,4.565-13.017,13.369-13.593,13.369c-0.074,0-1.121,0.944-2.327,2.1
		c-2.937,2.814-3.945,3.63-10.479,8.488c-3.08,2.291-5.817,4.354-6.083,4.588c-0.267,0.232-0.671,0.424-0.9,0.424
		s-0.417,0.166-0.417,0.371c0,0.334-2.806,2.156-5.532,3.591c-0.587,0.309-1.157,0.669-1.268,0.8
		c-0.324,0.387-2.541,1.669-3.3,1.909c-0.385,0.122-0.7,0.364-0.7,0.536c0,0.173-0.495,0.512-1.101,0.754
		c-0.604,0.24-2.359,1.244-3.899,2.229c-1.54,0.983-3.093,1.793-3.451,1.799s-0.875,0.281-1.149,0.611
		c-0.273,0.33-0.813,0.6-1.199,0.6c-0.387,0-0.926,0.271-1.2,0.601s-0.747,0.601-1.052,0.601c-0.303,0-1.766,0.616-3.25,1.371
		c-1.484,0.756-2.969,1.473-3.299,1.598c-0.33,0.123-0.869,0.381-1.199,0.572c-1.734,0.998-3.183,1.659-3.662,1.672
		c-0.297,0.008-1.258,0.361-2.139,0.787c-0.879,0.424-1.959,0.784-2.399,0.799s-1.149,0.291-1.576,0.613
		c-0.429,0.323-1.147,0.594-1.601,0.6c-0.453,0.008-1.172,0.277-1.6,0.601s-1.152,0.587-1.611,0.587s-1.189,0.247-1.623,0.549
		c-0.435,0.303-1.387,0.68-2.116,0.838c-0.73,0.158-1.81,0.541-2.4,0.848c-0.59,0.309-1.612,0.568-2.272,0.578
		c-0.66,0.009-1.65,0.273-2.2,0.588s-1.63,0.584-2.4,0.6s-1.85,0.286-2.399,0.6c-0.551,0.314-1.594,0.578-2.32,0.586
		s-1.84,0.283-2.477,0.613c-0.637,0.328-2.332,0.764-3.767,0.967s-2.797,0.486-3.026,0.627c-0.229,0.143-1.99,0.42-3.914,0.617
		c-1.922,0.195-4.666,0.551-6.097,0.787c-1.43,0.238-3.771,0.62-5.2,0.85c-7.055,1.135-35.057,1.336-40,0.289
		c-0.99-0.209-3.33-0.529-5.2-0.711s-3.94-0.517-4.6-0.744c-0.66-0.229-2.72-0.526-4.578-0.664c-1.858-0.137-3.568-0.396-3.8-0.577
		c-0.232-0.183-1.49-0.45-2.796-0.597c-1.305-0.146-2.583-0.441-2.84-0.654c-0.257-0.213-1.349-0.502-2.426-0.645
		c-1.078-0.141-2.446-0.5-3.04-0.8c-0.594-0.299-1.674-0.545-2.4-0.546c-0.726-0.002-1.836-0.271-2.466-0.6
		c-0.63-0.33-1.62-0.6-2.2-0.6c-0.58-0.003-1.537-0.256-2.127-0.564c-0.59-0.307-1.637-0.684-2.327-0.834
		c-0.69-0.151-1.737-0.527-2.327-0.836c-0.59-0.307-1.354-0.561-1.697-0.563c-0.342-0.001-0.972-0.266-1.4-0.589
		c-0.427-0.323-1.136-0.595-1.576-0.603c-0.44-0.008-1.316-0.285-1.946-0.612c-0.63-0.329-1.35-0.604-1.6-0.612
		c-0.25-0.007-1.174-0.361-2.054-0.785c-0.88-0.426-1.881-0.779-2.224-0.787c-0.342-0.008-0.972-0.277-1.4-0.601
		c-0.427-0.323-1.069-0.593-1.427-0.601c-0.358-0.006-0.875-0.282-1.149-0.612s-0.823-0.601-1.22-0.601
		c-0.398,0-0.993-0.27-1.323-0.6s-0.838-0.602-1.128-0.604c-0.291,0-1.069-0.359-1.729-0.797c-0.66-0.437-1.493-0.795-1.851-0.797
		s-0.875-0.272-1.149-0.603s-0.814-0.601-1.2-0.601c-0.386,0-0.926-0.27-1.2-0.6c-0.274-0.33-0.795-0.6-1.158-0.6
		s-1.568-0.586-2.678-1.301c-1.11-0.715-2.861-1.746-3.891-2.291c-1.03-0.545-1.873-1.131-1.873-1.301
		c0-0.168-0.229-0.308-0.509-0.308c-0.436,0-1.975-0.896-5.329-3.101c-0.419-0.275-1.172-0.679-1.673-0.895
		c-0.5-0.216-1.13-0.581-1.4-0.811c-0.269-0.229-2.199-1.657-4.289-3.174c-2.09-1.518-4.084-3.012-4.431-3.32
		c-0.346-0.309-0.931-0.678-1.3-0.818c-0.368-0.141-0.669-0.443-0.669-0.669c0-0.228-0.19-0.413-0.421-0.413
		c-0.563,0-5.979-4.337-5.979-4.788c0-0.194-0.246-0.411-0.546-0.483c-1.325-0.313-13.75-12.289-19.226-18.528
		c-1.737-1.979-3.309-3.66-3.493-3.733c-0.184-0.074-0.335-0.309-0.335-0.523c0-0.213-0.518-0.873-1.152-1.467
		c-0.634-0.592-1.857-2.104-2.718-3.359c-0.861-1.256-2.061-2.876-2.667-3.6c-0.606-0.725-2.348-3.027-3.871-5.117
		c-1.524-2.09-2.958-4.021-3.187-4.289c-0.229-0.27-0.597-0.9-0.817-1.4c-0.22-0.501-0.712-1.387-1.094-1.968
		c-0.382-0.581-1.324-2.086-2.094-3.343c-0.77-1.258-1.714-2.762-2.099-3.344c-0.384-0.58-0.897-1.552-1.139-2.156
		c-0.242-0.605-0.603-1.1-0.801-1.1c-0.199,0-0.361-0.248-0.361-0.552c0-0.303-0.258-0.767-0.574-1.028
		c-0.316-0.262-0.698-1.039-0.849-1.726c-0.151-0.687-0.523-1.498-0.826-1.802c-0.303-0.303-0.551-0.887-0.551-1.299
		c0-0.41-0.169-0.852-0.375-0.979c-0.206-0.128-0.844-1.263-1.418-2.523c-0.574-1.262-1.305-2.771-1.625-3.354
		c-0.32-0.584-0.582-1.272-0.582-1.528c0-0.257-0.27-0.736-0.6-1.066s-0.6-0.926-0.6-1.323s-0.27-0.946-0.6-1.22
		c-0.33-0.274-0.606-0.791-0.614-1.149c-0.007-0.358-0.361-1.37-0.786-2.251c-0.425-0.88-0.785-1.96-0.799-2.4
		c-0.015-0.439-0.291-1.148-0.614-1.576c-0.323-0.428-0.593-1.147-0.6-1.6c-0.007-0.453-0.277-1.173-0.6-1.6
		c-0.323-0.428-0.587-1.114-0.587-1.527c0-0.412-0.215-1.143-0.478-1.623c-0.787-1.438-2.318-6.01-2.32-6.928
		c-0.001-0.471-0.271-1.37-0.6-2c-0.328-0.63-0.605-1.686-0.614-2.346c-0.009-0.66-0.274-1.65-0.588-2.2s-0.578-1.603-0.586-2.341
		c-0.008-0.735-0.278-1.905-0.602-2.6c-0.323-0.693-0.76-2.25-0.971-3.459c-0.211-1.211-0.572-2.92-0.803-3.801
		c-0.23-0.88-0.426-2.5-0.434-3.6c-0.009-1.1-0.275-2.721-0.592-3.6c-0.317-0.881-0.587-2.681-0.599-4
		c-0.012-1.32-0.319-3.301-0.682-4.4c-1-3.027-0.996-39.919,0.004-42.55c0.366-0.963,0.665-2.695,0.665-3.85
		c0-1.155,0.27-2.865,0.6-3.8c0.33-0.935,0.608-2.533,0.617-3.55c0.01-1.018,0.181-2.57,0.379-3.45c0.199-0.88,0.634-2.77,0.966-4.2
		c0.333-1.43,0.811-3.59,1.063-4.8s0.71-2.791,1.017-3.514c0.307-0.722,0.558-1.897,0.558-2.611c0-0.713,0.243-1.652,0.54-2.086
		c0.298-0.434,0.649-1.607,0.781-2.607c0.133-1,0.519-2.35,0.858-3c0.339-0.65,0.617-1.386,0.619-1.636
		c0.001-0.25,0.271-0.97,0.6-1.6c0.328-0.63,0.598-1.529,0.6-1.997c0.001-0.468,0.252-1.059,0.558-1.313
		c0.307-0.254,0.649-0.951,0.762-1.549c0.234-1.237,1.239-4.084,2.1-5.947c0.32-0.694,0.582-1.456,0.582-1.695
		c0-0.238,0.514-1.471,1.142-2.739c3.984-8.049,5.262-10.758,5.26-11.157c-0.001-0.248,0.268-0.675,0.598-0.949
		c0.33-0.274,0.6-0.823,0.6-1.22c0-0.398,0.227-0.961,0.505-1.251c0.277-0.291,0.736-0.979,1.019-1.529
		c1.187-2.305,1.813-3.412,2.038-3.6c0.319-0.268,1.092-1.534,1.831-3c0.333-0.66,0.963-1.74,1.4-2.4
		c0.437-0.66,0.966-1.586,1.175-2.058s0.527-0.922,0.706-1c0.179-0.078,0.686-0.849,1.126-1.713c0.44-0.863,0.98-1.763,1.2-2
		c0.22-0.236,0.919-1.194,1.554-2.129c0.635-0.935,1.31-1.7,1.5-1.7s0.346-0.172,0.346-0.383c0-0.375,5.009-7.209,6.195-8.451
		c0.333-0.348,0.605-0.759,0.605-0.913s0.495-0.771,1.1-1.37c0.605-0.6,2.53-2.709,4.278-4.687c6.982-7.9,9.034-9.928,18.608-18.396
		c0.995-0.88,1.99-1.789,2.212-2.02c0.957-1,4.174-3.38,4.569-3.38c0.238,0,0.433-0.149,0.433-0.33c0-0.182,0.997-1.037,2.215-1.9
		c1.218-0.864,2.552-1.84,2.963-2.17s1.145-0.87,1.631-1.2c0.485-0.33,1.627-1.146,2.537-1.814c2.313-1.697,4.749-3.273,6.454-4.175
		c0.44-0.232,1.34-0.778,2-1.213c0.66-0.434,1.65-1.013,2.2-1.286c0.55-0.272,1.09-0.605,1.2-0.739
		c0.278-0.339,4.363-2.679,5.7-3.266c0.605-0.265,1.1-0.609,1.1-0.763s0.528-0.396,1.172-0.538c0.645-0.142,1.387-0.516,1.649-0.832
		c0.262-0.316,0.68-0.574,0.928-0.574c0.248-0.001,1.711-0.628,3.251-1.394s2.948-1.396,3.129-1.399
		c0.18-0.004,0.598-0.277,0.928-0.607s0.925-0.6,1.323-0.6c0.397,0,0.946-0.27,1.22-0.6s0.802-0.6,1.173-0.6
		c0.371,0,1.023-0.264,1.451-0.587c0.427-0.323,1.043-0.593,1.368-0.6c0.67-0.015,4.463-1.428,6.07-2.262
		c0.584-0.303,1.404-0.551,1.823-0.551s1.111-0.264,1.539-0.587c0.427-0.323,1.108-0.593,1.514-0.6
		c0.406-0.007,1.216-0.267,1.8-0.577c1.577-0.838,6.169-2.236,7.344-2.236c0.565,0,1.542-0.269,2.172-0.598
		c0.63-0.328,1.65-0.598,2.266-0.6c0.616-0.001,1.606-0.247,2.2-0.546c0.594-0.299,1.962-0.659,3.04-0.8
		c1.077-0.142,2.167-0.43,2.421-0.64c0.254-0.211,1.712-0.56,3.241-0.775c1.528-0.215,3.588-0.574,4.578-0.799
		c0.99-0.224,2.741-0.415,3.892-0.425c1.15-0.009,2.77-0.274,3.6-0.589c0.829-0.314,3.038-0.673,4.908-0.796
		c1.87-0.124,4.3-0.382,5.4-0.575C184.389-60.725,211.019-60.752,214.151-60.262"/>
	<path id="path2" fill="#030104" d="M247.951,5.167c-23.565,2.369-32.867,32.549-14.875,48.261
		c8.047,7.027,22.39,8.954,30.275,4.067c0.77-0.477,2.21-1.326,3.2-1.885c8.967-5.07,14.592-19.087,11.838-29.495
		C274.676,12.083,262.5,3.704,247.951,5.167 M164.603,42.938c-3.97,1.986-5.301,3.949-8.394,12.377
		c-1.091,2.97-2.564,6.75-3.274,8.4c-0.711,1.65-1.795,4.44-2.409,6.2c-1.092,3.127-2.042,5.592-2.774,7.2
		c-0.82,1.801-2.341,5.734-3.002,7.765c-0.388,1.191-1.488,3.955-2.445,6.142c-2.937,6.717-2.816,10.579,0.446,14.207
		c5.894,6.556,14.745,3.646,17.827-5.86c0.742-2.29,2.333-6.357,4.169-10.654c0.281-0.66,1.095-2.82,1.807-4.8
		c0.713-1.98,1.975-5.22,2.806-7.2c0.831-1.98,2.061-5.166,2.733-7.08c1.879-5.35,2.74-6.846,3.788-6.584
		c3.797,0.949,15.389,4.047,17.543,4.688c3.066,0.912,3.4,1.478,2.107,3.577c-0.475,0.77-1.002,1.85-1.171,2.4
		c-0.169,0.55-1.725,4.007-3.458,7.681c-1.733,3.675-3.151,6.792-3.151,6.927c0,0.134-0.815,1.87-1.811,3.858
		c-0.997,1.987-2.275,4.72-2.84,6.073c-0.566,1.354-1.729,3.857-2.584,5.563c-0.856,1.706-2.019,4.201-2.584,5.544
		c-0.566,1.343-2.098,4.675-3.405,7.403c-1.307,2.729-2.376,5.051-2.376,5.16c0,0.109-1.157,2.606-2.572,5.548
		c-1.414,2.942-2.762,6.045-2.995,6.896c-0.233,0.852-1.047,2.537-1.81,3.748c-0.762,1.209-2.051,3.369-2.864,4.799
		c-0.812,1.431-2.322,3.951-3.355,5.601c-1.032,1.649-2.419,3.998-3.082,5.218c-0.663,1.221-1.831,3.2-2.596,4.4
		c-1.72,2.699-6.087,9.959-7.447,12.382c-0.556,0.989-2.151,3.635-3.545,5.878s-2.534,4.234-2.534,4.426s-0.772,1.506-1.717,2.922
		c-0.944,1.416-2.59,4.098-3.659,5.959c-2.392,4.166-2.831,4.53-6.824,5.658c-1.76,0.497-5.36,1.696-8,2.665
		c-2.64,0.97-6.33,2.204-8.2,2.744c-1.87,0.541-5.56,1.774-8.2,2.744c-2.64,0.969-6.33,2.202-8.2,2.743
		c-1.87,0.539-5.65,1.8-8.4,2.801c-2.75,1-6.62,2.298-8.6,2.882c-6.514,1.924-9.634,6.372-9.57,13.646
		c0.096,11.072,12.281,17.715,22.251,12.131c1.251-0.7,7.662-3.094,13.119-4.898c2.97-0.982,7.2-2.421,9.4-3.197
		c4.135-1.461,6.458-2.252,18-6.129c3.74-1.258,8.33-2.871,10.2-3.589c1.87-0.717,4.57-1.682,6-2.144
		c1.43-0.463,2.999-1.047,3.487-1.301c1.721-0.896,7.894-9.424,11.103-15.34c0.835-1.541,1.925-3.349,2.422-4.018
		c0.496-0.67,1.709-2.65,2.694-4.4c5.859-10.408,10.128-16.982,11.029-16.982c0.681,0,2.683,1.594,12.058,9.6
		c2.705,2.311,5.478,4.639,6.162,5.176c0.686,0.535,2.166,1.795,3.291,2.799s3.522,3.086,5.326,4.625
		c9.684,8.264,9.268,7.75,7.828,9.635c-0.927,1.217-7.427,8.619-21.145,24.087c-2.01,2.266-5.725,6.416-8.255,9.221
		c-11.335,12.567-11.389,12.658-11.396,19.058c-0.006,6.805,1.999,9.891,8.772,13.5c4.761,2.539,8.505,2.08,14.051-1.723
		c1.555-1.064,6.291-6.18,17.402-18.792c1.446-1.642,4.866-5.478,7.6-8.522c2.734-3.045,5.591-6.285,6.348-7.2
		c0.758-0.914,2.378-2.745,3.6-4.068c1.224-1.323,3.394-3.731,4.823-5.354c1.431-1.623,3.681-4.162,5-5.645
		c8.22-9.23,9.079-10.563,9.851-15.271c1.195-7.305-0.846-10.721-12.026-20.123c-1.831-1.541-4.362-3.7-5.624-4.801
		c-1.262-1.1-3.713-3.205-5.447-4.678s-4.699-3.992-6.589-5.6c-1.889-1.607-4.454-3.787-5.7-4.846
		c-2.69-2.285-2.714-2.445-0.697-4.885c1.6-1.937,6.312-10.869,8.014-15.191c0.52-1.32,1.391-3.211,1.936-4.2
		c0.545-0.99,1.877-3.87,2.961-6.399c1.084-2.531,2.322-5.199,2.752-5.93c0.429-0.731,1.502-3.029,2.387-5.106
		c0.884-2.078,2.392-5.349,3.35-7.271c0.959-1.922,2.148-4.445,2.645-5.607c1.424-3.34,2.354-2.077,5.652,7.676
		c0.9,2.66,1.771,5.017,1.934,5.237c0.164,0.22,0.604,1.334,0.976,2.476c2.804,8.598,10.745,10.613,17.659,4.479
		c1.336-1.186,3.841-3.325,5.566-4.755s4.254-3.59,5.617-4.8c2.596-2.303,3.166-2.789,15.022-12.8
		c15.703-13.258,15.365-12.885,15.36-16.929c-0.014-10.501-11.443-15.367-19.097-8.13c-0.825,0.78-2.175,1.916-3,2.523
		s-2.414,1.921-3.532,2.92c-1.998,1.786-4.021,3.5-12.768,10.812c-6.352,5.31-6.634,5.37-8,1.698
		c-0.389-1.042-1.646-4.144-2.799-6.894c-2.149-5.135-3.209-7.733-6.688-16.4c-5.324-13.263-15.384-23.2-23.488-23.2
		c-0.368,0-1.74-0.341-3.047-0.758c-1.309-0.417-3.459-1.062-4.778-1.433c-3.04-0.854-6.138-1.81-7.31-2.255
		c-0.5-0.19-2.75-0.802-5-1.359c-6.018-1.493-8.545-2.188-11.891-3.272c-1.65-0.535-6.06-1.768-9.8-2.74
		c-3.74-0.973-7.784-2.041-8.987-2.376C170.698,40.849,168.285,41.094,164.603,42.938"/>
	<path id="path3" fill="#0076A0" d="M187.751-59.493c-0.33,0.218-2.49,0.412-4.8,0.431c-2.31,0.02-5.1,0.198-6.2,0.396
		c-1.1,0.198-3.35,0.552-5,0.786c-1.65,0.235-4.31,0.69-5.911,1.011c-1.602,0.321-3.672,0.583-4.6,0.582
		c-0.929-0.001-2.499,0.253-3.489,0.565c-2.013,0.634-4.509,1.284-7.2,1.874c-0.99,0.218-2.119,0.572-2.509,0.788
		c-0.39,0.216-1.56,0.504-2.6,0.639c-1.04,0.136-2.09,0.402-2.334,0.593c-0.243,0.19-1.233,0.511-2.2,0.714
		c-1.895,0.397-4.6,1.315-6.617,2.247c-0.694,0.32-1.534,0.582-1.868,0.582c-0.334,0-1.117,0.252-1.74,0.561
		c-2.231,1.104-4.171,1.839-4.857,1.839c-0.383,0-1.052,0.247-1.486,0.549c-0.434,0.302-1.374,0.676-2.089,0.832
		c-0.715,0.155-1.3,0.434-1.3,0.619c0,0.185-0.528,0.452-1.172,0.594c-0.645,0.142-1.387,0.516-1.649,0.832
		c-0.262,0.316-0.699,0.574-0.971,0.574s-1.703,0.63-3.18,1.4s-2.866,1.4-3.086,1.4c-0.219,0-0.669,0.27-0.999,0.6
		s-0.925,0.6-1.323,0.6c-0.397,0-0.946,0.27-1.22,0.6s-0.763,0.6-1.086,0.6c-0.323,0-1.045,0.36-1.605,0.8
		c-0.559,0.44-1.248,0.8-1.53,0.8c-0.282,0-0.572,0.154-0.646,0.343c-0.073,0.189-2.082,1.494-4.463,2.9
		c-2.382,1.406-4.812,2.87-5.4,3.252c-0.589,0.383-1.352,0.833-1.697,1c-1.649,0.802-16.142,11.71-18.611,14.008
		c-1.122,1.043-3.636,3.337-5.589,5.097c-4.551,4.103-6.818,6.367-10.773,10.763c-1.76,1.956-4.165,4.565-5.345,5.797
		c-1.179,1.232-2.772,3.185-3.539,4.34c-0.766,1.155-1.556,2.1-1.755,2.1c-0.199,0-0.361,0.21-0.361,0.466
		c0,0.257-0.271,0.752-0.603,1.1c-0.909,0.957-7.201,9.347-7.524,10.034c-0.155,0.33-0.638,1.14-1.073,1.8s-1.015,1.65-1.288,2.2
		c-0.272,0.55-0.604,1.09-0.736,1.2c-0.131,0.11-0.765,1.145-1.408,2.3c-0.642,1.154-1.303,2.099-1.468,2.1
		c-0.165,0-0.3,0.192-0.3,0.426c0,0.235-0.855,1.903-1.9,3.708c-1.045,1.805-2.199,3.909-2.564,4.674
		c-0.365,0.766-1.597,3.372-2.737,5.792s-2.584,5.48-3.208,6.8c-1.277,2.702-2.281,5.35-2.787,7.349
		c-0.188,0.742-0.536,1.543-0.773,1.78c-0.237,0.237-0.437,0.71-0.445,1.051c-0.007,0.341-0.361,1.34-0.786,2.22
		c-0.425,0.88-0.785,1.96-0.799,2.4c-0.015,0.44-0.291,1.149-0.614,1.576c-0.323,0.428-0.588,1.148-0.589,1.6
		c-0.002,0.453-0.272,1.34-0.6,1.97c-0.329,0.63-0.598,1.571-0.598,2.092c0,0.52-0.262,1.624-0.582,2.454
		c-0.321,0.829-0.76,2.408-0.978,3.508c-0.504,2.558-1.191,5.272-1.72,6.8c-0.228,0.66-0.563,2.418-0.744,3.906
		c-0.181,1.488-0.509,3.288-0.729,4c-0.22,0.712-0.584,2.734-0.808,4.494c-0.224,1.76-0.586,4.46-0.806,6
		c-1.071,7.509-1.339,11.212-1.52,21.01c-0.128,6.929-0.033,11.856,0.273,14.2c0.257,1.976,0.628,5.702,0.823,8.283
		c0.195,2.581,0.531,5.021,0.746,5.423c0.215,0.402,0.517,2.34,0.671,4.307c0.154,1.967,0.432,3.873,0.618,4.235
		c0.187,0.362,0.442,1.712,0.568,3c0.214,2.19,0.673,4.165,1.988,8.542c0.297,0.99,0.665,2.657,0.816,3.705
		c0.152,1.048,0.425,1.997,0.607,2.109c0.182,0.113,0.446,1.055,0.588,2.095c0.141,1.04,0.511,2.458,0.823,3.151
		c0.311,0.693,0.566,1.604,0.566,2.023s0.264,1.112,0.587,1.54c0.323,0.427,0.594,1.046,0.603,1.376
		c0.008,0.33,0.267,1.083,0.575,1.674c0.308,0.59,0.69,1.67,0.848,2.399c0.159,0.729,0.536,1.683,0.838,2.116
		c0.302,0.434,0.555,1.154,0.562,1.6c0.007,0.445,0.277,1.16,0.6,1.587c0.323,0.429,0.587,1.12,0.587,1.539s0.248,1.239,0.552,1.823
		c0.303,0.584,1.18,2.412,1.949,4.063c0.768,1.649,2.306,4.889,3.417,7.199c1.111,2.311,2.125,4.471,2.255,4.801
		c0.13,0.329,0.593,1.139,1.03,1.799s0.993,1.695,1.235,2.301c0.242,0.604,0.585,1.1,0.762,1.1c0.177,0,0.52,0.495,0.762,1.1
		c0.242,0.605,0.791,1.641,1.22,2.301c0.429,0.66,1.013,1.598,1.299,2.084c2.518,4.285,4.243,6.975,5.377,8.383
		c0.738,0.917,1.342,1.843,1.342,2.059c0,0.213,0.27,0.492,0.6,0.619c0.33,0.126,0.6,0.506,0.6,0.842
		c0,0.338,0.155,0.613,0.344,0.613c0.19,0,1.095,1.094,2.012,2.43c0.916,1.336,1.843,2.641,2.059,2.899
		c0.216,0.259,1.156,1.458,2.089,2.663c0.933,1.206,2.617,3.186,3.742,4.4c3.095,3.34,3.994,4.338,6.059,6.728
		c2.374,2.746,5.977,6.418,7.371,7.513c1,0.785,7.096,6.247,8.87,7.947c0.448,0.43,2.803,2.264,5.234,4.078
		c2.431,1.814,4.735,3.578,5.12,3.92s0.82,0.622,0.966,0.622c0.147,0,0.552,0.274,0.9,0.61c1.513,1.457,4.228,3.272,10.634,7.11
		c0.44,0.263,1.574,0.974,2.52,1.579s1.85,1.1,2.009,1.1c0.159,0,1.191,0.594,2.294,1.32c1.103,0.727,3.439,2.008,5.191,2.846
		c1.752,0.84,5.003,2.405,7.223,3.48c2.221,1.075,4.246,1.954,4.5,1.954c0.255,0,0.463,0.18,0.463,0.399
		c0,0.221,0.225,0.406,0.5,0.414c0.275,0.008,1.22,0.361,2.1,0.787c0.88,0.424,1.96,0.784,2.4,0.799
		c0.44,0.015,1.149,0.291,1.576,0.613c0.428,0.323,1.058,0.588,1.4,0.59c0.343,0.002,1.14,0.271,1.77,0.6
		c0.63,0.328,1.35,0.604,1.6,0.611s1.174,0.361,2.054,0.787c0.88,0.424,1.969,0.778,2.42,0.785c0.451,0.008,1.001,0.195,1.223,0.417
		c0.392,0.392,2.494,1.052,6.957,2.181c1.21,0.307,3.28,0.83,4.6,1.166c1.32,0.334,3.21,0.81,4.2,1.057s2.634,0.707,3.654,1.021
		c1.019,0.314,2.562,0.572,3.427,0.572c0.866,0,2.461,0.251,3.546,0.559c1.085,0.307,3.345,0.662,5.022,0.791
		c1.677,0.127,3.567,0.43,4.2,0.672c0.633,0.242,3.401,0.603,6.151,0.802c18.182,1.315,18.318,1.319,25.1,0.837
		c3.686-0.262,9.068-0.639,11.963-0.835c2.896-0.197,5.609-0.542,6.031-0.769c0.422-0.226,2.194-0.526,3.938-0.668
		c1.742-0.142,3.757-0.437,4.475-0.656c0.719-0.219,2.607-0.541,4.2-0.715c1.592-0.176,3.435-0.506,4.094-0.735
		c0.66-0.229,2.011-0.622,3-0.871c0.99-0.25,2.79-0.705,4-1.011c1.21-0.307,3.011-0.762,4-1.012c0.99-0.248,2.341-0.64,3-0.867
		c0.66-0.227,1.74-0.506,2.4-0.617c0.659-0.112,1.38-0.344,1.6-0.514s1.841-0.785,3.601-1.369s3.678-1.322,4.262-1.642
		s1.404-0.579,1.822-0.579c0.42,0,1.111-0.265,1.539-0.588c0.428-0.322,1.068-0.593,1.426-0.6c0.816-0.016,7.56-2.915,10.351-4.45
		c1.802-0.991,4.808-2.362,5.175-2.362c0.234,0,0.426-0.178,0.426-0.393c0-0.217,0.466-0.51,1.035-0.653
		c0.57-0.143,1.785-0.684,2.7-1.202s2.114-1.168,2.664-1.443s1.193-0.682,1.429-0.904c0.237-0.223,1.138-0.766,2-1.205
		c0.864-0.439,1.668-0.929,1.787-1.087c0.118-0.157,1.08-0.746,2.137-1.308c1.057-0.563,2.188-1.289,2.514-1.613
		c0.325-0.326,0.749-0.592,0.943-0.592c0.623,0,11.059-7.455,13.69-9.781c0.385-0.341,0.84-0.619,1.011-0.619
		c0.172,0,0.609-0.314,0.973-0.699c0.363-0.386,0.897-0.881,1.188-1.101c4.926-3.733,15.481-13.812,21.528-20.554
		c1.65-1.84,3.512-3.907,4.137-4.596c0.625-0.688,1.691-2.016,2.368-2.951c0.677-0.935,1.38-1.699,1.563-1.699
		c0.183,0,0.332-0.172,0.332-0.383c0-0.375,5.009-7.209,6.194-8.451c0.333-0.348,0.605-0.844,0.605-1.1
		c0-0.257,0.163-0.467,0.362-0.467c0.198,0,0.858-0.855,1.465-1.9s1.213-1.99,1.347-2.1c0.133-0.109,0.466-0.65,0.738-1.199
		c0.272-0.551,0.852-1.541,1.286-2.201s0.98-1.56,1.213-2c0.509-0.961,1.058-1.862,2.47-4.049
		c1.497-2.318,8.09-15.578,10.218-20.551c0.329-0.77,0.848-1.91,1.15-2.531c0.303-0.623,0.551-1.438,0.551-1.812
		c0-0.374,0.247-1.034,0.549-1.468s0.686-1.42,0.852-2.189s0.549-1.755,0.851-2.189c0.302-0.434,0.549-1.103,0.549-1.485
		c0-0.64,0.324-1.519,1.813-4.925c0.289-0.66,0.645-1.92,0.792-2.797c0.146-0.879,0.386-1.778,0.53-2
		c0.146-0.223,0.477-1.394,0.734-2.604c0.617-2.889,1.296-5.514,1.808-7c0.229-0.66,0.54-2.01,0.694-3s0.483-2.43,0.731-3.199
		c0.248-0.771,0.645-2.931,0.883-4.801c1.056-8.311,1.552-11.52,2.039-13.199c0.396-1.367,0.521-6.33,0.521-20.601
		c0-14.271-0.125-19.234-0.521-20.6c-0.487-1.68-0.983-4.89-2.039-13.2c-0.238-1.87-0.635-4.03-0.883-4.8s-0.577-2.21-0.731-3.2
		c-0.154-0.99-0.466-2.34-0.694-3c-0.454-1.321-1.105-3.826-1.715-6.6c-0.218-0.99-0.564-2.107-0.771-2.483
		c-0.207-0.375-0.494-1.455-0.639-2.4c-0.144-0.944-0.435-1.937-0.646-2.206c-0.212-0.268-0.535-1.078-0.718-1.8
		c-0.421-1.655-1.449-4.533-2.206-6.171c-0.32-0.694-0.582-1.538-0.582-1.877c0-0.339-0.166-0.718-0.369-0.844
		c-0.203-0.125-0.497-0.81-0.654-1.522c-0.624-2.845-9.585-21.414-12.593-26.097c-0.848-1.32-2.038-3.345-2.646-4.5
		c-0.607-1.155-1.229-2.1-1.382-2.1s-0.473-0.495-0.711-1.1c-0.527-1.34-0.977-2.053-3.081-4.892
		c-0.899-1.215-2.32-3.198-3.157-4.408s-1.771-2.47-2.075-2.8s-1.48-1.86-2.612-3.4c-2.006-2.728-5.882-7.217-9.519-11.025
		c-6.878-7.2-8.628-8.888-15.969-15.401c-1.007-0.894-2.372-2.114-3.031-2.71c-0.66-0.596-1.92-1.574-2.801-2.174
		c-0.88-0.599-1.803-1.27-2.051-1.49c-0.248-0.22-0.85-0.67-1.337-1c-0.488-0.33-1.257-0.915-1.711-1.3
		c-0.453-0.385-0.931-0.7-1.062-0.7c-0.133,0-0.901-0.585-1.711-1.3c-0.808-0.715-1.863-1.57-2.346-1.9
		c-0.48-0.33-1.26-0.884-1.729-1.232c-0.471-0.347-1.124-0.754-1.454-0.904c-0.33-0.15-1.14-0.629-1.8-1.064
		s-1.649-1.018-2.198-1.296c-0.859-0.434-4.119-2.48-5.427-3.404c-0.418-0.297-1.539-0.922-4.934-2.751
		c-0.967-0.521-1.957-1.103-2.199-1.293c-0.244-0.19-0.938-0.464-1.543-0.608c-0.604-0.145-1.1-0.44-1.1-0.656
		c0-0.215-0.203-0.392-0.451-0.392c-0.441,0-5.97-2.499-7.148-3.232c-0.33-0.205-0.871-0.474-1.2-0.596
		c-0.33-0.123-1.32-0.553-2.2-0.955c-3.344-1.53-5.65-2.409-8.6-3.279c-0.771-0.227-1.571-0.576-1.78-0.775
		c-0.209-0.2-0.659-0.369-1-0.377c-0.341-0.007-1.341-0.361-2.22-0.786c-0.881-0.425-1.9-0.779-2.269-0.786
		c-0.366-0.008-1.177-0.267-1.8-0.576c-0.622-0.309-1.941-0.766-2.932-1.015c-4.067-1.025-6.324-1.595-8.601-2.172
		c-1.319-0.334-3.21-0.812-4.2-1.061c-0.99-0.25-2.699-0.701-3.8-1.002c-1.1-0.302-3.241-0.655-4.758-0.785
		c-1.517-0.131-3.047-0.386-3.399-0.569c-0.354-0.182-2.17-0.461-4.035-0.618c-1.866-0.158-3.756-0.481-4.198-0.718
		C219.097-59.278,188.957-60.287,187.751-59.493 M259.652,6.115c14.598,3.648,23.461,21.869,17.547,36.071
		c-2.455,5.895-6.621,11.147-10.647,13.424c-0.99,0.559-2.431,1.408-3.2,1.885c-3.161,1.959-7.232,2.737-13.158,2.514
		c-26.031-0.978-36.309-33.857-15.514-49.631C241.483,5.217,250.142,3.739,259.652,6.115 M174.564,41.922
		c1.203,0.335,5.247,1.403,8.987,2.376c3.74,0.972,8.15,2.205,9.8,2.74c3.346,1.084,5.873,1.779,11.891,3.272
		c2.25,0.557,4.5,1.169,5,1.359c1.172,0.445,4.27,1.401,7.31,2.255c1.319,0.371,3.47,1.016,4.778,1.433
		c1.307,0.417,2.679,0.758,3.047,0.758c8.104,0,18.164,9.937,23.488,23.2c3.479,8.667,4.538,11.265,6.688,16.4
		c1.152,2.75,2.41,5.852,2.799,6.894c1.366,3.672,1.648,3.612,8-1.698c8.746-7.312,10.77-9.026,12.768-10.812
		c1.118-0.999,2.707-2.313,3.532-2.92s2.175-1.743,3-2.523c7.653-7.237,19.083-2.371,19.097,8.13
		c0.005,4.044,0.343,3.671-15.36,16.929c-11.856,10.011-12.427,10.497-15.022,12.8c-1.363,1.21-3.892,3.37-5.617,4.8
		s-4.23,3.57-5.566,4.755c-6.914,6.133-14.855,4.119-17.659-4.479c-0.372-1.142-0.812-2.256-0.976-2.476
		c-0.163-0.22-1.033-2.577-1.934-5.237c-3.299-9.753-4.229-11.016-5.652-7.676c-0.496,1.162-1.686,3.685-2.645,5.607
		c-0.958,1.922-2.466,5.193-3.35,7.271c-0.885,2.077-1.958,4.375-2.387,5.106c-0.43,0.731-1.668,3.399-2.752,5.93
		c-1.084,2.529-2.416,5.409-2.961,6.399c-0.545,0.989-1.416,2.88-1.936,4.2c-1.702,4.322-6.414,13.255-8.014,15.191
		c-2.017,2.439-1.993,2.6,0.697,4.885c1.246,1.059,3.812,3.238,5.7,4.846c1.89,1.607,4.854,4.127,6.589,5.6s4.186,3.578,5.447,4.678
		c1.262,1.101,3.793,3.26,5.624,4.801c11.181,9.402,13.222,12.818,12.026,20.123c-0.771,4.709-1.631,6.041-9.851,15.271
		c-1.319,1.482-3.569,4.021-5,5.645c-1.43,1.623-3.6,4.031-4.823,5.354c-1.222,1.323-2.842,3.154-3.6,4.068
		c-0.757,0.915-3.613,4.155-6.348,7.2c-2.733,3.045-6.153,6.881-7.6,8.522c-2.731,3.101-4.089,4.623-11.402,12.792
		c-8.274,9.243-13.456,11.238-20.051,7.723c-6.773-3.609-8.778-6.695-8.772-13.5c0.007-6.399,0.061-6.49,11.396-19.058
		c2.53-2.805,6.245-6.955,8.255-9.221c13.718-15.468,20.218-22.87,21.145-24.087c1.439-1.885,1.855-1.371-7.828-9.635
		c-1.804-1.539-4.201-3.621-5.326-4.625s-2.605-2.264-3.291-2.799c-0.684-0.537-3.457-2.865-6.162-5.176
		c-9.375-8.006-11.377-9.6-12.058-9.6c-0.901,0-5.17,6.574-11.029,16.982c-0.985,1.75-2.198,3.73-2.694,4.4
		c-0.497,0.669-1.587,2.477-2.422,4.018c-3.209,5.916-9.382,14.444-11.103,15.34c-0.488,0.254-2.057,0.838-3.487,1.301
		c-1.43,0.462-4.13,1.427-6,2.144c-1.87,0.718-6.46,2.331-10.2,3.589c-11.542,3.877-13.865,4.668-18,6.129
		c-2.2,0.776-6.43,2.215-9.4,3.197c-5.457,1.805-11.868,4.198-13.119,4.898c-9.97,5.584-22.155-1.059-22.251-12.131
		c-0.064-7.273,3.056-11.722,9.57-13.646c1.98-0.584,5.85-1.882,8.6-2.882c2.75-1.001,6.53-2.262,8.4-2.801
		c1.87-0.541,5.56-1.774,8.2-2.743c2.64-0.97,6.33-2.203,8.2-2.744c1.87-0.54,5.56-1.774,8.2-2.744c2.64-0.969,6.24-2.168,8-2.665
		c3.993-1.128,4.432-1.492,6.824-5.658c1.069-1.861,2.715-4.543,3.659-5.959c0.945-1.416,1.717-2.73,1.717-2.922
		s1.14-2.183,2.534-4.426s2.989-4.889,3.545-5.878c1.36-2.423,5.727-9.683,7.447-12.382c0.765-1.2,1.933-3.18,2.596-4.4
		c0.663-1.22,2.05-3.568,3.082-5.218c1.033-1.649,2.543-4.17,3.355-5.601c0.813-1.43,2.102-3.59,2.864-4.799
		c0.763-1.211,1.577-2.896,1.81-3.748c0.233-0.851,1.581-3.954,2.995-6.896c1.415-2.942,2.572-5.439,2.572-5.548
		c0-0.109,1.069-2.431,2.376-5.16c1.307-2.728,2.839-6.06,3.405-7.403c0.565-1.343,1.728-3.838,2.584-5.544
		c0.855-1.706,2.018-4.209,2.584-5.563c0.565-1.353,1.843-4.086,2.84-6.073c0.996-1.988,1.811-3.724,1.811-3.858
		c0-0.135,1.418-3.252,3.151-6.927c1.733-3.674,3.289-7.131,3.458-7.681c0.169-0.55,0.696-1.63,1.171-2.4
		c1.293-2.099,0.959-2.665-2.107-3.577c-2.154-0.64-13.746-3.738-17.543-4.688c-1.048-0.262-1.909,1.234-3.788,6.584
		c-0.672,1.914-1.902,5.1-2.733,7.08c-0.831,1.98-2.093,5.22-2.806,7.2c-0.712,1.98-1.526,4.14-1.807,4.8
		c-1.836,4.297-3.427,8.364-4.169,10.654c-3.082,9.506-11.933,12.416-17.827,5.86c-3.262-3.628-3.383-7.49-0.446-14.207
		c0.957-2.187,2.057-4.951,2.445-6.142c0.661-2.031,2.182-5.964,3.002-7.765c0.732-1.608,1.682-4.073,2.774-7.2
		c0.614-1.76,1.698-4.55,2.409-6.2c0.71-1.65,2.183-5.43,3.274-8.4C160.643,43.236,165.785,39.484,174.564,41.922"/>
	<path id="path4" fill="#99C8D9" d="M181.552-60.228c-1.1,0.193-3.53,0.451-5.4,0.575c-1.87,0.123-4.079,0.482-4.908,0.796
		c-0.83,0.315-2.45,0.58-3.6,0.589c-1.151,0.01-2.902,0.201-3.892,0.425c-0.99,0.225-3.05,0.584-4.578,0.799
		c-1.529,0.215-2.987,0.564-3.241,0.775c-0.254,0.21-1.344,0.498-2.421,0.64c-1.078,0.141-2.446,0.501-3.04,0.8
		c-0.594,0.299-1.584,0.545-2.2,0.546c-0.616,0.002-1.636,0.272-2.266,0.6c-0.63,0.329-1.607,0.598-2.172,0.598
		c-1.175,0-5.767,1.398-7.344,2.236c-0.584,0.31-1.394,0.57-1.8,0.577c-0.406,0.007-1.087,0.277-1.514,0.6
		c-0.428,0.323-1.12,0.587-1.539,0.587s-1.239,0.248-1.823,0.551c-1.607,0.834-5.4,2.247-6.07,2.262
		c-0.325,0.007-0.941,0.277-1.368,0.6c-0.428,0.323-1.08,0.587-1.451,0.587c-0.371,0-0.899,0.27-1.173,0.6s-0.823,0.6-1.22,0.6
		c-0.398,0-0.993,0.27-1.323,0.6s-0.748,0.603-0.928,0.607c-0.181,0.003-1.589,0.633-3.129,1.399s-3.003,1.393-3.251,1.394
		c-0.248,0-0.666,0.258-0.928,0.574c-0.262,0.316-1.004,0.69-1.649,0.832c-0.644,0.142-1.172,0.384-1.172,0.538
		s-0.495,0.498-1.1,0.763c-1.337,0.587-5.422,2.927-5.7,3.266c-0.11,0.134-0.65,0.467-1.2,0.739c-0.55,0.273-1.54,0.852-2.2,1.286
		c-0.66,0.435-1.56,0.981-2,1.213c-1.705,0.902-4.141,2.478-6.454,4.175c-0.91,0.668-2.052,1.484-2.537,1.814
		c-0.486,0.33-1.22,0.87-1.631,1.2s-1.745,1.306-2.963,2.17c-1.218,0.863-2.215,1.718-2.215,1.9c0,0.181-0.195,0.33-0.433,0.33
		c-0.395,0-3.612,2.38-4.569,3.38c-0.222,0.231-1.217,1.14-2.212,2.02C61.364-5.217,59.312-3.189,52.33,4.711
		c-1.748,1.978-3.673,4.087-4.278,4.687c-0.605,0.599-1.1,1.216-1.1,1.37s-0.272,0.565-0.605,0.913
		c-1.186,1.242-6.195,8.076-6.195,8.451c0,0.211-0.156,0.383-0.346,0.383s-0.865,0.765-1.5,1.7
		c-0.635,0.935-1.334,1.893-1.554,2.129c-0.22,0.237-0.76,1.137-1.2,2c-0.44,0.864-0.947,1.635-1.126,1.713
		c-0.179,0.078-0.497,0.528-0.706,1s-0.738,1.398-1.175,2.058c-0.437,0.66-1.067,1.74-1.4,2.4c-0.739,1.466-1.512,2.732-1.831,3
		c-0.225,0.188-0.851,1.295-2.038,3.6c-0.283,0.55-0.742,1.238-1.019,1.529c-0.278,0.29-0.505,0.853-0.505,1.251
		c0,0.397-0.27,0.946-0.6,1.22c-0.33,0.274-0.599,0.701-0.598,0.949c0.002,0.399-1.276,3.108-5.26,11.157
		c-0.628,1.268-1.142,2.501-1.142,2.739c0,0.239-0.262,1.001-0.582,1.695c-0.861,1.863-1.866,4.71-2.1,5.947
		c-0.113,0.598-0.455,1.295-0.762,1.549c-0.306,0.254-0.557,0.845-0.558,1.313c-0.002,0.468-0.272,1.367-0.6,1.997
		c-0.329,0.63-0.599,1.35-0.6,1.6c-0.002,0.25-0.28,0.986-0.619,1.636c-0.339,0.65-0.725,2-0.858,3
		c-0.132,1-0.483,2.173-0.781,2.607c-0.297,0.434-0.54,1.373-0.54,2.086c0,0.714-0.251,1.889-0.558,2.611
		c-0.307,0.723-0.765,2.304-1.017,3.514s-0.73,3.37-1.063,4.8c-0.332,1.43-0.767,3.32-0.966,4.2c-0.198,0.88-0.369,2.432-0.379,3.45
		c-0.009,1.017-0.287,2.615-0.617,3.55c-0.33,0.935-0.6,2.645-0.6,3.8c0,1.155-0.299,2.887-0.665,3.85
		c-1,2.631-1.004,39.523-0.004,42.55c0.363,1.1,0.67,3.08,0.682,4.4c0.012,1.319,0.282,3.119,0.599,4
		c0.317,0.879,0.583,2.5,0.592,3.6c0.008,1.1,0.204,2.72,0.434,3.6c0.231,0.881,0.592,2.59,0.803,3.801
		c0.211,1.209,0.648,2.766,0.971,3.459c0.324,0.694,0.594,1.864,0.602,2.6c0.008,0.738,0.272,1.791,0.586,2.341
		s0.579,1.54,0.588,2.2c0.009,0.66,0.286,1.716,0.614,2.346c0.329,0.63,0.599,1.529,0.6,2c0.002,0.918,1.533,5.49,2.32,6.928
		c0.263,0.48,0.478,1.211,0.478,1.623c0,0.413,0.264,1.1,0.587,1.527c0.323,0.427,0.593,1.146,0.6,1.6
		c0.007,0.452,0.277,1.172,0.6,1.6c0.323,0.428,0.599,1.137,0.614,1.576c0.014,0.44,0.374,1.521,0.799,2.4
		c0.425,0.881,0.779,1.893,0.786,2.251c0.008,0.358,0.284,0.875,0.614,1.149c0.33,0.273,0.6,0.822,0.6,1.22s0.27,0.993,0.6,1.323
		s0.6,0.81,0.6,1.066c0,0.256,0.262,0.944,0.582,1.528c0.32,0.584,1.051,2.093,1.625,3.354c0.574,1.261,1.212,2.396,1.418,2.523
		c0.206,0.127,0.375,0.568,0.375,0.979c0,0.412,0.248,0.996,0.551,1.299c0.303,0.304,0.675,1.115,0.826,1.802
		c0.151,0.687,0.533,1.464,0.849,1.726c0.316,0.262,0.574,0.726,0.574,1.028c0,0.304,0.162,0.552,0.361,0.552
		c0.198,0,0.559,0.494,0.801,1.1c0.242,0.604,0.755,1.576,1.139,2.156c0.385,0.582,1.329,2.086,2.099,3.344
		c0.77,1.257,1.712,2.762,2.094,3.343c0.382,0.581,0.874,1.467,1.094,1.968c0.22,0.5,0.588,1.131,0.817,1.4
		c0.229,0.269,1.663,2.199,3.187,4.289c1.523,2.09,3.265,4.393,3.871,5.117c0.606,0.724,1.806,2.344,2.667,3.6
		c0.861,1.256,2.084,2.768,2.718,3.359c0.634,0.594,1.152,1.254,1.152,1.467c0,0.215,0.151,0.449,0.335,0.523
		c0.184,0.073,1.756,1.754,3.493,3.733c5.476,6.239,17.901,18.215,19.226,18.528c0.3,0.072,0.546,0.289,0.546,0.483
		c0,0.451,5.416,4.788,5.979,4.788c0.231,0,0.421,0.186,0.421,0.413c0,0.226,0.301,0.528,0.669,0.669
		c0.369,0.141,0.954,0.51,1.3,0.818c0.347,0.309,2.341,1.803,4.431,3.32c2.09,1.517,4.02,2.945,4.289,3.174
		c0.27,0.229,0.9,0.595,1.4,0.811c0.501,0.216,1.254,0.619,1.673,0.895c3.354,2.205,4.893,3.101,5.329,3.101
		c0.28,0,0.509,0.14,0.509,0.308c0,0.17,0.843,0.756,1.873,1.301c1.03,0.545,2.781,1.576,3.891,2.291
		c1.11,0.715,2.315,1.301,2.678,1.301s0.884,0.27,1.158,0.6c0.274,0.33,0.814,0.6,1.2,0.6c0.386,0,0.926,0.271,1.2,0.601
		s0.791,0.601,1.149,0.603s1.191,0.36,1.851,0.797c0.66,0.438,1.438,0.797,1.729,0.797c0.29,0.002,0.798,0.273,1.128,0.604
		s0.925,0.6,1.323,0.6c0.397,0,0.946,0.271,1.22,0.601s0.791,0.606,1.149,0.612c0.358,0.008,1,0.277,1.427,0.601
		c0.428,0.323,1.058,0.593,1.4,0.601c0.343,0.008,1.344,0.361,2.224,0.787c0.88,0.424,1.804,0.778,2.054,0.785
		c0.25,0.008,0.97,0.283,1.6,0.612c0.63,0.327,1.506,0.604,1.946,0.612c0.44,0.008,1.149,0.279,1.576,0.603
		c0.428,0.323,1.058,0.588,1.4,0.589c0.343,0.002,1.107,0.256,1.697,0.563c0.59,0.309,1.637,0.685,2.327,0.836
		c0.69,0.15,1.737,0.527,2.327,0.834c0.59,0.309,1.547,0.562,2.127,0.564c0.58,0,1.57,0.27,2.2,0.6c0.63,0.328,1.74,0.598,2.466,0.6
		c0.726,0.001,1.806,0.247,2.4,0.546c0.594,0.3,1.962,0.659,3.04,0.8c1.077,0.143,2.169,0.432,2.426,0.645
		c0.257,0.213,1.535,0.508,2.84,0.654c1.306,0.146,2.564,0.414,2.796,0.597c0.232,0.181,1.942,0.44,3.8,0.577
		c1.858,0.138,3.918,0.436,4.578,0.664c0.66,0.228,2.73,0.563,4.6,0.744s4.21,0.502,5.2,0.711c4.943,1.047,32.945,0.846,40-0.289
		c1.43-0.229,3.771-0.611,5.2-0.85c1.431-0.236,4.175-0.592,6.097-0.787c1.924-0.197,3.685-0.475,3.914-0.617
		c0.229-0.141,1.592-0.424,3.026-0.627s3.13-0.639,3.767-0.967c0.637-0.33,1.75-0.605,2.477-0.613s1.77-0.271,2.32-0.586
		c0.55-0.313,1.629-0.584,2.399-0.6s1.851-0.285,2.4-0.6s1.54-0.579,2.2-0.588c0.66-0.01,1.683-0.27,2.272-0.578
		c0.591-0.307,1.67-0.689,2.4-0.848c0.729-0.158,1.682-0.535,2.116-0.838c0.434-0.302,1.164-0.549,1.623-0.549
		s1.184-0.264,1.611-0.587s1.146-0.593,1.6-0.601c0.453-0.006,1.172-0.276,1.601-0.6c0.427-0.322,1.136-0.599,1.576-0.613
		s1.521-0.375,2.399-0.799c0.881-0.426,1.842-0.779,2.139-0.787c0.479-0.013,1.928-0.674,3.662-1.672
		c0.33-0.191,0.869-0.449,1.199-0.572c0.33-0.125,1.814-0.842,3.299-1.598c1.484-0.755,2.947-1.371,3.25-1.371
		c0.305,0,0.777-0.271,1.052-0.601s0.813-0.601,1.2-0.601c0.386,0,0.926-0.27,1.199-0.6c0.274-0.33,0.791-0.605,1.149-0.611
		s1.911-0.815,3.451-1.799c1.54-0.984,3.295-1.988,3.899-2.229c0.605-0.242,1.101-0.581,1.101-0.754c0-0.172,0.315-0.414,0.7-0.536
		c0.759-0.24,2.976-1.522,3.3-1.909c0.11-0.131,0.681-0.491,1.268-0.8c2.727-1.435,5.532-3.257,5.532-3.591
		c0-0.205,0.188-0.371,0.417-0.371s0.634-0.191,0.9-0.424c0.266-0.233,3.003-2.297,6.083-4.588
		c6.534-4.858,7.543-5.674,10.479-8.488c1.206-1.155,2.253-2.1,2.327-2.1c0.576,0,9.526-8.804,13.593-13.369
		c1.54-1.729,3.823-4.246,5.073-5.594c1.251-1.346,2.753-3.154,3.338-4.017c0.586-0.863,1.633-2.325,2.327-3.249
		s1.532-2.078,1.862-2.563c0.33-0.486,1.019-1.363,1.531-1.947s1.352-1.709,1.864-2.498c0.513-0.791,1.219-1.721,1.567-2.07
		s0.816-1.053,1.041-1.564c0.225-0.511,0.72-1.406,1.102-1.986c0.382-0.581,1.324-2.086,2.094-3.344
		c0.771-1.256,1.713-2.762,2.097-3.342c0.382-0.582,0.822-1.328,0.979-1.658s0.713-1.229,1.236-2c0.522-0.77,2.025-3.649,3.34-6.399
		s2.65-5.478,2.968-6.062c0.319-0.584,0.58-1.35,0.58-1.701c0-0.351,0.136-0.637,0.302-0.637c0.167,0,0.688-0.855,1.16-1.9
		s1.235-2.745,1.697-3.778c0.463-1.032,0.847-2.203,0.854-2.601c0.008-0.396,0.277-1.07,0.601-1.498s0.593-1.147,0.6-1.6
		c0.007-0.453,0.277-1.173,0.601-1.6c0.322-0.428,0.587-1.152,0.587-1.611s0.247-1.189,0.549-1.623
		c0.302-0.435,0.685-1.42,0.851-2.189s0.55-1.756,0.852-2.189s0.549-1.253,0.549-1.82c0-0.566,0.192-1.223,0.427-1.457
		c0.235-0.235,0.576-1.396,0.756-2.58c0.182-1.185,0.515-2.693,0.741-3.354c0.51-1.486,1.205-4.17,1.762-6.8
		c0.233-1.101,0.67-2.567,0.97-3.261s0.545-2.19,0.545-3.326c0-1.137,0.19-2.424,0.425-2.86s0.512-2.09,0.619-3.673
		c0.105-1.584,0.451-3.87,0.766-5.08c2.16-8.307,2.133-44.843-0.038-51.571c-0.314-0.974-0.58-2.864-0.59-4.2
		c-0.009-1.336-0.276-3.149-0.594-4.029c-0.317-0.88-0.58-2.5-0.584-3.6c-0.005-1.1-0.248-2.459-0.541-3.02
		s-0.652-1.892-0.798-2.959c-0.146-1.067-0.446-2.157-0.665-2.421s-0.515-1.363-0.656-2.44c-0.141-1.078-0.501-2.446-0.8-3.04
		c-0.299-0.594-0.545-1.584-0.546-2.2c-0.002-0.616-0.272-1.636-0.601-2.266c-0.329-0.63-0.599-1.53-0.6-2
		c-0.002-0.47-0.272-1.37-0.6-2c-0.329-0.63-0.599-1.357-0.599-1.615s-0.359-1.176-0.8-2.039s-0.806-1.936-0.813-2.385
		c-0.008-0.448-0.277-1.164-0.601-1.591c-0.323-0.428-0.587-1.18-0.587-1.672c0-0.492-0.27-1.165-0.6-1.495s-0.601-0.893-0.601-1.25
		c0-0.688-0.793-2.584-3.034-7.256c-0.751-1.567-1.365-3.052-1.365-3.3s-0.181-0.451-0.4-0.451s-0.4-0.245-0.4-0.545
		c0-0.582-2.912-6.53-3.593-7.338c-0.224-0.266-0.407-0.72-0.407-1.009c0-0.29-0.598-1.435-1.33-2.545
		c-0.73-1.11-1.452-2.276-1.604-2.591c-0.151-0.315-0.627-1.112-1.058-1.772c-0.431-0.66-1.059-1.74-1.395-2.4
		c-0.337-0.66-0.971-1.74-1.409-2.4c-0.438-0.66-1.007-1.605-1.265-2.1c-0.258-0.495-0.62-0.9-0.804-0.9
		c-0.186,0-0.336-0.238-0.336-0.53c0-0.291-0.945-1.803-2.101-3.359c-1.155-1.557-2.37-3.225-2.7-3.708s-0.923-1.258-1.317-1.722
		c-0.396-0.465-1.085-1.438-1.533-2.163s-0.98-1.318-1.182-1.318c-0.202,0-0.367-0.261-0.367-0.58c0-0.319-0.227-0.724-0.501-0.9
		c-0.276-0.176-0.995-1.04-1.598-1.92c-0.603-0.88-2.492-3.071-4.198-4.869c-1.707-1.798-4.273-4.574-5.703-6.167
		c-1.431-1.594-3.217-3.453-3.973-4.131c-0.755-0.678-2.044-1.863-2.863-2.633c-1.833-1.719-7.592-6.995-9.765-8.945
		c-0.88-0.79-1.707-1.441-1.838-1.446c-0.131-0.005-0.761-0.462-1.399-1.016c-0.64-0.555-1.882-1.493-2.763-2.087
		c-0.88-0.593-2.706-1.94-4.057-2.992c-1.351-1.053-2.557-1.914-2.679-1.914c-0.123,0-0.713-0.455-1.313-1.011
		c-0.6-0.555-2.068-1.59-3.264-2.3c-1.195-0.709-2.648-1.601-3.23-1.983c-0.58-0.382-1.502-0.888-2.049-1.125
		c-0.545-0.237-1.085-0.581-1.199-0.765c-0.115-0.184-1.019-0.768-2.009-1.298c-0.989-0.53-2.548-1.44-3.463-2.023
		c-0.914-0.582-4.334-2.335-7.601-3.896c-3.264-1.561-6.414-3.099-6.998-3.419c-0.584-0.319-1.35-0.58-1.7-0.58
		s-0.638-0.177-0.638-0.392c0-0.216-0.496-0.513-1.101-0.66s-1.454-0.511-1.889-0.808c-0.435-0.297-1.063-0.546-1.4-0.554
		c-0.336-0.007-1.331-0.361-2.211-0.786s-1.804-0.779-2.054-0.786c-0.25-0.008-0.971-0.283-1.6-0.612
		c-0.631-0.328-1.506-0.604-1.946-0.612c-0.44-0.009-1.149-0.28-1.576-0.603c-0.429-0.323-1.058-0.588-1.399-0.589
		c-0.344-0.002-1.107-0.255-1.697-0.563s-1.67-0.687-2.4-0.843c-0.73-0.157-1.525-0.443-1.768-0.638
		c-0.242-0.194-1.322-0.468-2.399-0.609c-1.078-0.14-2.176-0.425-2.438-0.632c-0.265-0.207-1.435-0.522-2.601-0.701
		c-1.167-0.178-2.661-0.509-3.321-0.736c-1.963-0.674-4.646-1.321-7.199-1.736c-1.32-0.215-2.94-0.564-3.601-0.777
		c-0.659-0.213-2.64-0.497-4.399-0.63c-1.76-0.134-3.539-0.417-3.951-0.63c-0.414-0.212-2.395-0.541-4.4-0.729
		c-2.007-0.189-4.818-0.526-6.249-0.75C211.019-60.752,184.389-60.725,181.552-60.228 M211.352-59.474
		c3.41,0.228,7.82,0.673,9.8,0.988s4.86,0.77,6.4,1.009c8.639,1.346,12.598,2.122,15.825,3.104c0.756,0.23,2.185,0.621,3.175,0.869
		c8.465,2.116,10.106,2.579,11.073,3.125c0.48,0.272,1.172,0.494,1.539,0.494c0.365,0,1.142,0.255,1.726,0.566
		s2.231,0.961,3.662,1.445c1.43,0.484,3.167,1.13,3.86,1.435c0.693,0.304,1.476,0.554,1.738,0.554c0.264,0,0.955,0.243,1.539,0.539
		c0.584,0.297,1.691,0.824,2.462,1.173c1.88,0.85,11.652,5.516,14.4,6.876c2.313,1.145,3.508,1.809,5.267,2.931
		c0.588,0.375,3.467,2.104,6.4,3.841c2.933,1.739,7.493,4.802,10.133,6.808c2.64,2.007,5.565,4.164,6.5,4.794
		c3.257,2.197,11.38,9.49,18.3,16.432c7.96,7.985,13.567,14.334,15.755,17.841c0.355,0.569,1.143,1.649,1.75,2.4
		c3.104,3.834,6.468,8.705,9.32,13.499c1.746,2.934,3.48,5.814,3.853,6.4c0.766,1.204,7.051,13.794,9.317,18.666
		c1.574,3.381,1.599,3.441,2.979,7.2c0.484,1.32,1.139,2.991,1.453,3.714c0.315,0.722,0.572,1.594,0.572,1.938
		c0,0.343,0.255,1.102,0.566,1.686c0.701,1.317,1.936,5.028,2.814,8.462c0.366,1.43,0.919,3.5,1.229,4.6s0.681,2.63,0.824,3.4
		c0.143,0.77,0.374,1.58,0.513,1.8c0.139,0.22,0.486,1.48,0.771,2.8c0.52,2.41,0.819,4.136,1.876,10.8
		c0.315,1.98,0.763,4.77,0.995,6.2c1.741,10.683,1.851,40.123,0.176,47.4c-0.305,1.32-0.556,3.094-0.559,3.943
		c-0.003,0.848-0.265,2.738-0.582,4.199c-0.315,1.461-0.749,3.918-0.962,5.457c-0.422,3.053-0.978,5.699-1.85,8.801
		c-1.251,4.451-2.228,8.189-3.079,11.8c-0.234,0.989-0.566,1.979-0.738,2.2c-0.171,0.22-0.496,1.029-0.722,1.8
		s-0.797,2.39-1.271,3.601c-0.474,1.209-1.025,2.739-1.226,3.399c-0.2,0.659-0.523,1.56-0.716,2c-0.194,0.44-0.764,1.88-1.266,3.2
		c-0.892,2.35-2.457,5.769-6.498,14.199c-1.668,3.48-6.193,11.498-8.696,15.406c-0.33,0.516-1.386,2.229-2.345,3.809
		s-2.071,3.201-2.473,3.603s-1.05,1.237-1.442,1.856c-1.119,1.771-8.747,11.773-10.16,13.326c-0.702,0.771-2.826,3.11-4.722,5.201
		c-4.085,4.506-7.243,7.692-11.059,11.16c-1.54,1.398-3.61,3.295-4.601,4.213c-1.457,1.352-4.247,3.635-8.199,6.713
		c-1.969,1.532-11.003,8.221-11.615,8.596c-0.433,0.267-3.276,1.977-6.321,3.801s-6.015,3.617-6.6,3.982
		c-1.224,0.766-8.331,4.309-14.464,7.209c-2.311,1.094-4.711,2.244-5.332,2.557c-0.623,0.313-1.438,0.568-1.812,0.568
		c-0.374,0-1.034,0.248-1.468,0.549c-0.434,0.303-1.387,0.68-2.116,0.839c-0.729,0.157-1.81,0.54-2.399,0.848
		s-1.353,0.562-1.693,0.563c-0.341,0-0.791,0.164-1,0.365c-0.209,0.198-1.01,0.549-1.78,0.779c-0.771,0.229-2.479,0.805-3.8,1.279
		s-3.48,1.127-4.8,1.449c-5.019,1.229-9.257,2.318-12.4,3.186c-1.1,0.305-3.17,0.729-4.6,0.943c-1.431,0.215-3.41,0.564-4.4,0.777
		c-0.989,0.213-2.521,0.396-3.399,0.404c-0.881,0.01-2.771,0.271-4.2,0.586c-10.048,2.202-37.427,2.217-50,0.028
		c-1.87-0.326-4.66-0.779-6.2-1.007c-6.326-0.936-13.312-2.34-14.929-3c-0.369-0.151-1.751-0.528-3.071-0.838
		c-6.127-1.437-10.028-2.565-11.274-3.262c-0.48-0.27-1.172-0.49-1.538-0.49s-1.142-0.254-1.726-0.565s-2.232-0.956-3.662-1.435
		c-1.43-0.478-3.078-1.123-3.662-1.434s-1.366-0.566-1.738-0.566s-1.154-0.256-1.738-0.568s-2.772-1.372-4.862-2.354
		c-2.09-0.984-5.357-2.527-7.261-3.433c-1.903-0.905-3.572-1.646-3.708-1.646c-0.136,0-1.008-0.49-1.939-1.092
		c-2.611-1.685-3.214-2.039-4.284-2.516c-0.545-0.243-1.085-0.583-1.2-0.755c-0.114-0.173-0.697-0.566-1.295-0.875
		c-2.823-1.459-9.285-5.583-12.713-8.114c-7.462-5.511-11.815-8.854-12.819-9.843c-1.118-1.103-3.242-3.036-8.354-7.604
		c-4.131-3.691-3.699-3.262-6.827-6.793c-2.436-2.75-4.488-5.014-8.12-8.957c-0.836-0.908-2.088-2.461-2.781-3.451
		c-0.694-0.99-1.45-2.002-1.68-2.25s-0.689-0.854-1.019-1.345c-0.33-0.491-2.055-2.809-3.834-5.149c-1.779-2.34-4.029-5.573-5-7.185
		c-0.971-1.61-2.036-3.35-2.366-3.866c-1.176-1.836-6.203-10.381-6.348-10.789c-0.081-0.229-1.403-3.025-2.937-6.215
		c-3.515-7.31-4.849-10.23-5.48-12c-0.526-1.478-2.864-7.894-3.862-10.601c-1.232-3.341-2.099-6.05-2.368-7.399
		c-0.154-0.771-0.524-2.211-0.823-3.201c-0.3-0.99-0.833-2.969-1.186-4.399s-0.903-3.5-1.221-4.601
		c-0.556-1.92-0.84-3.457-1.774-9.6c-0.235-1.54-0.621-3.97-0.86-5.4c-2.516-15.096-2.487-45.703,0.051-54.396
		c0.224-0.769,0.408-1.98,0.408-2.692c0-1.432,0.895-6.493,1.858-10.511c0.343-1.43,0.763-3.23,0.934-4
		c1.348-6.086,3.876-15.072,4.631-16.462c0.317-0.584,0.577-1.343,0.577-1.686c0-0.344,0.257-1.216,0.572-1.938
		c0.315-0.723,0.972-2.394,1.46-3.714c0.488-1.32,1.131-2.967,1.428-3.66c0.297-0.694,0.54-1.456,0.54-1.695
		c0-0.238,0.516-1.471,1.147-2.739c0.631-1.268,2.044-4.196,3.14-6.506c3.67-7.734,4.096-8.589,5.407-10.866
		c1.263-2.19,7.456-12.548,8.428-14.094c0.398-0.634,9.9-13.367,11.565-15.499c0.283-0.363,2.145-2.433,4.138-4.6
		c1.993-2.168,4.423-4.831,5.399-5.919c2.248-2.503,4.095-4.35,6.598-6.598c1.088-0.976,3.734-3.39,5.881-5.364
		s5.837-5.018,8.2-6.766s4.747-3.519,5.297-3.935c4.614-3.496,6.859-5.012,11.2-7.566c2.75-1.618,5.09-3.047,5.2-3.175
		c0.11-0.129,0.65-0.458,1.2-0.73c0.55-0.273,1.54-0.844,2.2-1.269c1.251-0.805,1.952-1.158,11.281-5.667
		c6.855-3.313,10.067-4.747,10.669-4.766c0.247-0.007,1.17-0.361,2.05-0.786c0.88-0.425,1.879-0.779,2.22-0.786
		c0.341-0.008,0.791-0.177,1-0.377c0.209-0.199,1.01-0.548,1.78-0.775c1.917-0.566,4.832-1.604,5.8-2.066
		c0.44-0.21,1.52-0.553,2.4-0.762c0.88-0.21,3.04-0.772,4.8-1.249c1.76-0.478,3.977-1.026,4.927-1.22
		c0.949-0.193,1.91-0.464,2.134-0.603c0.931-0.575,5.813-1.528,15.139-2.955c1.65-0.253,4.44-0.718,6.2-1.034
		c1.76-0.315,4.46-0.593,6-0.617c1.54-0.023,3.88-0.177,5.2-0.341C188.875-59.932,204.468-59.934,211.352-59.474"/>
</g>
</svg>
